<svg width="80" height="80" viewBox="0 0 80 80" fill="none" xmlns="http://www.w3.org/2000/svg">
<path d="M11.6345 63.9358L55.608 72.4062C54.4405 58.0456 56.1749 27.7949 65.1959 14.1174C66.0316 12.8503 65.3381 10.9957 63.8351 10.7835C36.5505 6.93159 14.9851 5.35091 12.2592 9.26938C7.15307 16.6094 4.61371 39.5524 4.24079 54.9956C4.13458 59.3938 7.31446 63.1037 11.6345 63.9358Z" stroke="#63666A" stroke-width="5.06052" stroke-linejoin="round"/>
<path d="M8.49023 18.7561C18.228 18.442 48.0697 18.755 59.3781 24.4103" stroke="#63666A" stroke-width="5.06052" stroke-linejoin="round"/>
<path d="M65.0326 11.6235C67.7026 18.2201 74.1735 36.4078 73.0427 58.2708C73.9851 59.3702 75.8698 61.7575 75.8698 62.5114C75.8698 63.4538 65.5038 63.4538 56.0801 72.4063" stroke="#63666A" stroke-width="5.06052" stroke-linecap="round" stroke-linejoin="round"/>
<path d="M27.5784 52.2171C24.1355 53.1266 20.986 52.5032 18.1026 50.3868C18.4708 49.962 20.6556 49.0449 21.8596 48.7925C23.201 48.5113 24.546 48.4679 25.9066 48.6726C25.8974 48.5905 25.8379 48.5795 25.7984 48.5539C25.232 48.19 24.6907 47.7883 24.1807 47.3423C21.331 44.8504 19.57 41.6795 18.8963 37.8331C18.8486 37.5603 18.8144 37.2848 18.7754 37.0106C18.7687 36.9622 18.7697 36.9129 18.7658 36.8381C20.981 37.423 22.981 38.4131 24.7697 39.8659C26.5549 41.3156 27.9975 43.0763 29.0938 45.1583C28.2771 39.6541 29.3626 34.6098 32.4231 30.0212C32.6675 30.2876 33.4628 32.453 33.7839 33.7094C34.1119 34.9934 34.3084 36.3009 34.3773 37.6307C34.446 38.956 34.3878 40.2764 34.208 41.5925C34.0287 42.9059 33.7207 44.1871 33.2988 45.4401C33.3104 45.4463 33.322 45.4525 33.3335 45.4587C33.5562 45.1873 33.7738 44.9115 34.0025 44.6459C34.2334 44.3777 34.469 44.1136 34.7132 43.8589C34.961 43.6007 35.2161 43.3497 35.4787 43.108C35.7375 42.87 36.0039 42.64 36.2769 42.4202C36.5498 42.2005 36.8297 41.9893 37.1155 41.7886C37.4013 41.5879 37.694 41.3973 37.9912 41.2162C38.2927 41.0326 38.5994 40.8578 38.9111 40.6942C39.2182 40.5328 39.5306 40.3821 39.8465 40.2418C40.1625 40.1016 40.483 39.9711 40.8064 39.852C41.1298 39.7329 41.4573 39.6247 41.7871 39.5275C42.1215 39.4292 42.4591 39.3417 42.7985 39.2655C43.133 39.1904 43.4702 39.1265 43.8082 39.0738C44.1457 39.021 44.4856 38.9881 44.8484 38.9436C44.8345 39.0163 44.8296 39.0656 44.8159 39.1117C43.958 42.0184 42.4807 44.5128 40.3111 46.5439C39.0295 47.7436 37.5995 48.6937 36.0166 49.3845C35.9806 49.4003 35.9447 49.4172 35.9097 49.4355C35.9032 49.439 35.9015 49.4525 35.8884 49.4835C37.2392 49.5213 38.5479 49.7485 39.8036 50.2581C41.055 50.7661 42.1978 51.4619 43.2289 52.4057C41.6991 53.2127 40.1048 53.6591 38.4204 53.7144C36.7338 53.7702 35.3659 53.6519 33.562 52.7258" stroke="#63666A" stroke-width="3.29829" stroke-linecap="round" stroke-linejoin="round"/>
<path d="M30.5547 52.8706L30.2248 56.9374" stroke="#63666A" stroke-width="4.71184" stroke-linecap="round" stroke-linejoin="round"/>
</svg>
