<svg width="80" height="80" viewBox="0 0 80 80" fill="none" xmlns="http://www.w3.org/2000/svg">
<path d="M20.539 67.1557L50.7303 76.2971C49.8807 59.8699 51.1867 24.8888 57.973 10.046C58.4935 8.90775 57.8807 7.52539 56.6589 7.25402C37.1768 2.92718 21.7708 1.14721 19.8253 5.54316C16.0629 14.0446 14.2552 41.2244 14.0872 58.4984C14.0482 62.5016 16.7074 65.9956 20.539 67.1557Z" stroke="#63666A" stroke-width="4.96679" stroke-linejoin="round"/>
<path d="M16.7651 13.5764C23.6941 13.0074 45.5154 15.4945 53.7753 19.1242" stroke="#63666A" stroke-width="4.96679" stroke-linejoin="round"/>
<path d="M58.1203 7.7085C60.0256 12.4156 63.9706 51.2202 63.1637 66.8211C63.8361 67.6056 65.181 69.3092 65.181 69.8471C65.181 70.5196 57.7841 70.5196 51.0596 76.9079" stroke="#63666A" stroke-width="4.96679" stroke-linecap="round" stroke-linejoin="round"/>
<path d="M29.7174 47.8747C26.6803 48.677 23.9021 48.1271 21.3586 46.2602C21.6834 45.8855 23.6106 45.0764 24.6728 44.8538C25.856 44.6057 27.0425 44.5674 28.2427 44.7481C28.2345 44.6756 28.182 44.6659 28.1472 44.6434C27.6476 44.3223 27.1701 43.968 26.7202 43.5746C24.2064 41.3764 22.653 38.5792 22.0587 35.1862C22.0166 34.9456 21.9865 34.7026 21.952 34.4607C21.9461 34.418 21.9471 34.3745 21.9436 34.3085C23.8977 34.8245 25.662 35.6979 27.2398 36.9794C28.8145 38.2582 30.0871 39.8114 31.0542 41.648C30.3338 36.7926 31.2913 32.3429 33.991 28.2952C34.2066 28.5302 34.9082 30.4403 35.1915 31.5486C35.4808 32.6813 35.6541 33.8347 35.7149 35.0077C35.7755 36.1768 35.7241 37.3416 35.5655 38.5025C35.4074 39.6611 35.1356 40.7912 34.7635 41.8965C34.7737 41.902 34.7839 41.9075 34.7942 41.913C34.9905 41.6736 35.1826 41.4303 35.3842 41.196C35.5879 40.9594 35.7957 40.7264 36.0112 40.5017C36.2298 40.274 36.4548 40.0526 36.6865 39.8393C36.9148 39.6294 37.1498 39.4265 37.3905 39.2327C37.6313 39.0388 37.8782 38.8525 38.1303 38.6755C38.3825 38.4984 38.6406 38.3303 38.9028 38.1705C39.1688 38.0086 39.4393 37.8544 39.7142 37.7101C39.9851 37.5677 40.2607 37.4347 40.5394 37.3111C40.8181 37.1874 41.1009 37.0722 41.3861 36.9672C41.6714 36.8621 41.9603 36.7667 42.2513 36.681C42.5462 36.5942 42.8441 36.517 43.1434 36.4498C43.4385 36.3836 43.7359 36.3272 44.0341 36.2807C44.3318 36.2341 44.6317 36.2051 44.9517 36.1658C44.9394 36.23 44.9351 36.2735 44.923 36.3141C44.1662 38.8782 42.8631 41.0785 40.9492 42.8702C39.8187 43.9285 38.5572 44.7666 37.161 45.3761C37.1292 45.3899 37.0976 45.4049 37.0666 45.421C37.0609 45.4241 37.0594 45.436 37.0479 45.4633C38.2395 45.4967 39.3939 45.6971 40.5016 46.1467C41.6055 46.5948 42.6136 47.2085 43.5231 48.0411C42.1736 48.7529 40.7673 49.1468 39.2814 49.1955C37.7936 49.2447 36.587 49.1404 34.9957 48.3235" stroke="#63666A" stroke-width="3.2372" stroke-linecap="round" stroke-linejoin="round"/>
<path d="M32.3428 48.4512L32.0518 52.0386" stroke="#63666A" stroke-width="4.62457" stroke-linecap="round" stroke-linejoin="round"/>
</svg>
