<svg width="80" height="80" viewBox="0 0 80 80" fill="none" xmlns="http://www.w3.org/2000/svg">
<path d="M39.8242 30.1743V42.9258L46.5355 49.6371" stroke="#63666A" stroke-width="6" stroke-linecap="round"/>
<path d="M63.4658 58.0922C64.4045 58.0922 65.3441 58.0828 66.2827 58.0922C66.6122 58.0902 66.9406 58.1294 67.2602 58.2086C67.5453 58.2814 67.7981 58.4456 67.9795 58.6756C68.1609 58.9056 68.2606 59.1886 68.2632 59.4807C68.2573 59.7639 68.1613 60.0381 67.989 60.264C67.8167 60.4899 67.5768 60.656 67.3037 60.7386C67.0341 60.822 66.7534 60.8647 66.471 60.8654C64.6145 60.8757 62.758 60.8832 60.9015 60.8654C60.4621 60.8624 60.0259 60.7908 59.6089 60.6532C58.6949 60.3387 58.3561 59.5436 58.8293 58.7052C59.1257 58.1931 59.5052 57.7329 59.9524 57.3431C60.911 56.4926 61.9244 55.6974 62.9264 54.8919C63.8585 54.1409 64.4537 53.2021 64.6297 52.0202C64.73 51.3471 64.3789 50.7735 63.778 50.5801C63.0873 50.3567 62.4249 50.6111 62.1013 51.2495C61.9395 51.5687 61.8288 51.9132 61.6765 52.238C61.3377 52.959 60.7302 53.2472 59.9326 53.0829C59.3014 52.9524 58.8917 52.4108 58.8576 51.6654C58.8274 50.9359 59.08 50.2901 59.4557 49.6799C60.9053 47.3273 64.6685 47.0757 66.4389 48.5148C68.0475 49.8197 68.5016 51.9686 67.4977 53.8799C66.7776 55.2562 65.6166 56.2475 64.4338 57.2098C64.1064 57.4754 63.7714 57.7261 63.4336 57.9843L63.4658 58.0922Z" fill="#63666A"/>
<path d="M73.6658 58.3325H70.2641C68.7029 58.3325 67.9998 57.4876 68.3811 55.9855C68.5265 55.4145 68.7739 54.874 69.1116 54.3896C70.4997 52.4182 71.9352 50.4852 73.3574 48.5401C73.6104 48.1869 73.9718 47.9244 74.3875 47.7917C74.8033 47.6591 75.2512 47.6634 75.6643 47.8041C76.4468 48.0594 76.884 48.7241 76.884 49.6572C76.884 51.5154 76.884 53.3729 76.884 55.2298V55.7283C78.327 55.9743 78.7821 56.3197 78.7471 57.113C78.7121 57.8912 78.2106 58.2348 76.8736 58.3578C76.8736 58.6864 76.8868 59.0234 76.8736 59.3595C76.8187 60.5621 75.8327 61.3131 74.7635 60.9695C74.4484 60.8637 74.1741 60.6637 73.9784 60.3969C73.7827 60.1301 73.6751 59.8096 73.6706 59.4797C73.6554 59.1173 73.6658 58.7606 73.6658 58.3325ZM73.7283 55.7527L73.9393 51.7723L73.8447 51.7413L71.252 55.7527H73.7283Z" fill="#63666A"/>
<path d="M53.8991 68.6794C46.2333 72.2515 37.1603 72.7497 28.706 69.318C12.5643 62.7659 4.79041 44.3689 11.3425 28.2272C17.8946 12.0855 36.2915 4.31161 52.4333 10.8637C64.5818 15.7949 71.9905 27.4355 72.1194 39.7744" stroke="#63666A" stroke-width="6" stroke-linecap="round"/>
<path d="M54.1444 76.7476L57.7434 66.3734L47.3346 63.5902" stroke="#63666A" stroke-width="5.36905" stroke-linecap="round" stroke-linejoin="round"/>
</svg>
