<svg width="80" height="80" viewBox="0 0 80 80" fill="none" xmlns="http://www.w3.org/2000/svg">
<path d="M32.1661 49.1717C30.9347 50.8538 29.3911 52.2642 27.6246 53.3214C25.8581 54.3786 23.9037 55.0617 21.8744 55.331C17.7508 55.8945 13.567 54.7394 10.2433 52.1198C6.91959 49.5003 4.72829 45.6309 4.15145 41.3629C3.57461 37.0948 4.65949 32.7778 7.16741 29.3614C9.67533 25.945 13.4009 23.7092 17.5244 23.1457C19.5516 22.8608 21.6164 22.9946 23.5995 23.5395C39.8451 28.0032 41.3645 51.3292 56.4005 55.4605C58.3836 56.0054 60.4484 56.1392 62.4756 55.8543C66.5991 55.2908 70.3247 53.055 72.8326 49.6386C75.3405 46.2222 76.4254 41.9052 75.8485 37.6371C75.2717 33.3691 73.0804 29.4997 69.7567 26.8802C66.433 24.2606 62.2492 23.1055 58.1256 23.669C56.0963 23.9383 54.1419 24.6214 52.3754 25.6786C50.6089 26.7358 49.0653 28.1462 47.8339 29.8283" stroke="#63666A" stroke-width="6" stroke-linecap="round" stroke-linejoin="round"/>
</svg>
