<svg width="80" height="80" viewBox="0 0 80 80" fill="none" xmlns="http://www.w3.org/2000/svg">
<path d="M33.6226 78.6036C28.9685 78.6036 25.1885 74.814 25.1885 70.1695V26.1664C25.1885 24.5382 26.5069 23.2222 28.1327 23.2222C29.761 23.2222 31.077 24.5406 31.077 26.1664V70.1719C31.077 71.5719 32.2201 72.7151 33.6202 72.7151C35.0011 72.7151 36.1226 71.6344 36.1634 70.2535L36.9655 46.1038C37.016 44.4756 38.3464 43.2004 40.0131 43.2508C41.6413 43.3013 42.9069 44.6725 42.8564 46.2984L42.0543 70.448C41.903 75.0205 38.1951 78.6036 33.6226 78.6036Z" fill="#63666A"/>
<path d="M46.8307 78.6036C41.97 78.6036 38.0147 74.7924 37.8394 69.9317L36.9749 45.9165C36.9124 44.2883 38.1804 42.929 39.8063 42.869C41.4537 42.7969 42.8034 44.0842 42.8538 45.7124L43.7279 69.718C43.7904 71.3966 45.1496 72.7151 46.8283 72.7151C48.5382 72.7151 49.9287 71.3246 49.9287 69.6147V26.1664C49.9287 24.5382 51.2471 23.2222 52.8729 23.2222C54.5012 23.2222 55.8172 24.5406 55.8172 26.1664V69.6147C55.8196 74.5666 51.7922 78.6036 46.8307 78.6036Z" fill="#63666A"/>
<path d="M18.9684 50.3189C17.7532 50.3189 16.5381 49.9779 15.467 49.3199C13.1183 48.0014 9.76098 43.9453 11.5333 36.6639L11.9151 35.0885C14.6649 23.5852 19.7921 2.17567 32.6979 2.00036C33.3055 1.99075 33.9034 2.17567 34.4078 2.52629C36.0048 3.62859 37.878 4.20495 39.8256 4.20495C43.2862 4.20495 44.9648 3.53493 46.4274 2.52629C46.9317 2.17567 47.5393 2.00036 48.1468 2.00036C56.8379 2.12283 63.8216 13.4628 69.4843 36.6639C71.2567 43.9453 67.8993 48.0135 65.5507 49.3199C63.6559 50.4846 61.3384 50.6383 59.3307 49.7329C56.1703 48.292 54.1194 44.5313 53.2141 38.5395C52.0613 30.9074 51.0215 28.5395 50.0104 26.2533C49.7222 25.5953 49.4341 24.9445 49.1555 24.2144C48.5695 22.6894 49.3212 20.9916 50.8341 20.3936C52.3591 19.8076 54.057 20.5689 54.6454 22.0819C54.9023 22.7303 55.1497 23.297 55.4066 23.8734C56.5714 26.5199 57.7649 29.248 59.0305 37.6629C59.8951 43.3569 61.5833 44.2839 61.7707 44.368C62.0685 44.5024 62.3374 44.3776 62.4815 44.2959C62.544 44.2551 62.616 44.2143 62.676 44.1734C62.6977 44.1638 64.8902 42.7109 63.7567 38.0664C57.7217 13.3187 51.7275 8.64296 48.8121 7.98254C46.3097 9.45467 43.5503 10.0935 39.8208 10.0935C37.0398 10.0935 34.3525 9.36341 31.9846 7.96093C24.1485 9.31058 19.4511 28.9286 17.638 36.4574L17.2561 38.064C16.1226 42.7085 18.3056 44.1614 18.3272 44.171C18.3776 44.2022 18.4809 44.2647 18.5337 44.2935C18.6682 44.3752 18.9468 44.5 19.2446 44.3656C19.4295 44.2839 21.1178 43.3569 21.9727 37.6605C23.1975 29.577 24.002 27.5069 25.4237 24.2624C25.7119 23.614 26.0313 22.9032 26.3819 22.0386C26.9895 20.5257 28.6994 19.8028 30.2123 20.4104C31.7253 21.018 32.4481 22.7375 31.8405 24.2408C31.4587 25.1774 31.1297 25.9411 30.8199 26.6399C29.6552 29.2648 28.9563 30.8522 27.8036 38.5347C26.8982 44.5289 24.8377 48.2872 21.6773 49.7281C20.8128 50.1244 19.8954 50.3189 18.9684 50.3189Z" fill="#63666A"/>
</svg>
