<svg width="80" height="80" viewBox="0 0 80 80" fill="none" xmlns="http://www.w3.org/2000/svg">
<path d="M10 25C12.233 25.0216 14.3831 25.8888 16.0527 27.4413C17.4282 28.6788 18.7736 29.9732 20.4847 30.6568C25.4458 32.6443 29.9534 31.8278 33.9229 28.1249C35.1805 26.9508 36.4896 25.9095 38.1191 25.4348C41.5958 24.4126 44.6372 25.2892 47.346 27.7483C48.3422 28.7063 49.4397 29.5419 50.6171 30.2391C55.2124 32.7709 60.7237 31.9797 64.6236 28.3022C66.0566 26.9508 67.5531 25.7703 69.494 25.3082" stroke="#63666A" stroke-width="6" stroke-miterlimit="10" stroke-linecap="round"/>
<path d="M10 49.1607C12.233 49.1822 14.3831 50.0494 16.0527 51.602C17.4282 52.8394 18.7736 54.1338 20.4847 54.8175C25.4458 56.805 29.9534 55.9884 33.9229 52.2856C35.1805 51.1114 36.4896 50.0702 38.1191 49.5955C41.5958 48.5732 44.6372 49.4499 47.346 51.909C48.3422 52.8669 49.4397 53.7026 50.6171 54.3997C55.2124 56.9316 60.7237 56.1404 64.6236 52.4628C66.0566 51.1114 67.5531 49.9309 69.494 49.4689" stroke="#63666A" stroke-width="6" stroke-miterlimit="10" stroke-linecap="round"/>
</svg>
