<svg width="80" height="80" viewBox="0 0 80 80" fill="none" xmlns="http://www.w3.org/2000/svg">
<path d="M40.5459 28.0337L53.1688 36.8715" stroke="#63666A" stroke-width="4.17939" stroke-linecap="round" stroke-linejoin="round"/>
<path d="M31.5283 35.1562L46.8562 45.8879" stroke="#63666A" stroke-width="4.17939" stroke-linecap="round" stroke-linejoin="round"/>
<path d="M25.3516 44.939L36.1712 52.5142" stroke="#63666A" stroke-width="4.17939" stroke-linecap="round" stroke-linejoin="round"/>
<path d="M63.9463 12.8428L73.8643 19.7868" stroke="#63666A" stroke-width="4.17939" stroke-linecap="round" stroke-linejoin="round"/>
<path d="M7.31641 59.1841L17.2344 66.1281" stroke="#63666A" stroke-width="4.17939" stroke-linecap="round" stroke-linejoin="round"/>
<path d="M13.293 73.0367C16.6443 70.2244 18.7287 66.2819 20.2919 61.874M77.3387 19.3025C65.9414 28.8669 44.2336 21.7283 32.8362 31.2927C28.2156 35.1703 26.0017 41.1936 24.2435 47.6226" stroke="#63666A" stroke-width="4.17161" stroke-miterlimit="10" stroke-linecap="round"/>
<path d="M66.4882 6.37197C63.2315 9.10491 61.1711 12.9052 59.6229 17.1627C59.5372 17.3986 59.4529 17.6359 59.3702 17.8744M2.4425 60.1061C13.8398 50.5417 35.5477 57.6804 46.945 48.116C51.3432 44.4251 53.5607 38.7902 55.2803 32.7118" stroke="#63666A" stroke-width="4.17161" stroke-miterlimit="10" stroke-linecap="round"/>
</svg>
