<svg width="16" height="30" viewBox="0 0 16 30" fill="none" xmlns="http://www.w3.org/2000/svg">
<path d="M8.65342 0.501194H8.74642C9.34576 0.501194 9.77976 0.521861 10.0484 0.563195C10.3378 0.583861 10.5134 0.625194 10.5754 0.687195C10.6374 0.749194 10.6684 0.842194 10.6684 0.966195V3.72519C12.1564 3.99386 13.4171 4.48986 14.4504 5.21319C14.6778 5.39919 14.7811 5.59553 14.7604 5.80219C14.7398 6.00886 14.5951 6.39119 14.3264 6.94919L14.0164 7.56919C13.7478 8.1272 13.5308 8.4682 13.3654 8.59219C13.2208 8.69553 13.0658 8.67486 12.9004 8.53019C11.4951 7.66219 10.2138 7.22819 9.05642 7.22819C8.18842 7.22819 7.48576 7.46586 6.94842 7.94119C6.41109 8.39586 6.14242 8.99519 6.14242 9.73919C6.14242 10.1112 6.21476 10.4522 6.35942 10.7622C6.52476 11.0515 6.82442 11.3512 7.25842 11.6612C7.71309 11.9712 8.04376 12.1882 8.25042 12.3122C8.47776 12.4155 8.93242 12.6429 9.61442 12.9942C10.5031 13.4489 11.1851 13.8312 11.6604 14.1412C12.1564 14.4305 12.7248 14.8542 13.3654 15.4122C14.0061 15.9495 14.4711 16.5799 14.7604 17.3032C15.0704 18.0265 15.2254 18.8532 15.2254 19.7832C15.2254 21.5399 14.7398 23.0072 13.7684 24.1852C12.7971 25.3425 11.3814 26.0659 9.52142 26.3552V29.1142C9.52142 29.2382 9.49042 29.3312 9.42842 29.3932C9.36642 29.4552 9.19076 29.4965 8.90142 29.5172C8.63276 29.5585 8.19876 29.5792 7.59942 29.5792H7.50642C6.88642 29.5792 6.43176 29.5585 6.14242 29.5172C5.85309 29.4965 5.67742 29.4552 5.61542 29.3932C5.55342 29.3312 5.52242 29.2382 5.52242 29.1142V26.2932C3.70376 25.9832 2.20542 25.3425 1.02742 24.3712C0.655422 24.0612 0.686422 23.4929 1.12042 22.6662L1.49242 21.9532C1.76109 21.4572 1.97809 21.1369 2.14342 20.9922C2.30876 20.8475 2.49476 20.8475 2.70142 20.9922C4.35476 22.1702 5.92542 22.7592 7.41342 22.7592C8.44676 22.7592 9.26309 22.5319 9.86242 22.0772C10.4618 21.6225 10.7614 20.9715 10.7614 20.1242C10.7614 19.5662 10.5754 19.0599 10.2034 18.6052C9.83142 18.1299 9.49042 17.7992 9.18042 17.6132C8.89109 17.4272 8.32276 17.1275 7.47542 16.7142C7.33076 16.6315 7.21709 16.5695 7.13442 16.5282C6.28709 16.1149 5.61542 15.7635 5.11942 15.4742C4.64409 15.1849 4.09642 14.7819 3.47642 14.2652C2.85642 13.7279 2.40176 13.1182 2.11242 12.4362C1.82309 11.7542 1.67842 10.9792 1.67842 10.1112C1.67842 8.49919 2.13309 7.14553 3.04242 6.05019C3.97242 4.95486 5.18142 4.22119 6.66942 3.84919V0.966195C6.66942 0.842194 6.70042 0.749194 6.76242 0.687195C6.82442 0.625194 7.00009 0.583861 7.28942 0.563195C7.57876 0.521861 8.03342 0.501194 8.65342 0.501194Z" fill="#805574"/>
</svg>
