<svg width="80" height="80" viewBox="0 0 80 80" fill="none" xmlns="http://www.w3.org/2000/svg">
<path d="M40.1045 7.80165C40.4723 7.06177 41.5277 7.06177 41.8955 7.80165L51.8908 27.9114C52.0368 28.2053 52.3178 28.4088 52.6426 28.4559L74.9847 31.699C75.8067 31.8184 76.1333 32.8299 75.5363 33.4074L59.3802 49.035C59.1423 49.2651 59.0337 49.5979 59.09 49.9239L62.9039 72.0073C63.0448 72.8233 62.1895 73.4472 61.4555 73.0638L41.4629 62.6224C41.1729 62.4709 40.8271 62.4709 40.5371 62.6224L20.5445 73.0638C19.8105 73.4472 18.9552 72.8233 19.0961 72.0073L22.91 49.9239C22.9663 49.5979 22.8577 49.2651 22.6198 49.035L6.46374 33.4074C5.86667 32.8299 6.19327 31.8184 7.01534 31.699L29.3574 28.4559C29.6822 28.4088 29.9632 28.2053 30.1092 27.9114L40.1045 7.80165Z" stroke="#63666A" stroke-width="5.7" stroke-linecap="round" stroke-linejoin="round"/>
</svg>
