<svg width="80" height="80" viewBox="0 0 80 80" fill="none" xmlns="http://www.w3.org/2000/svg">
<path d="M32.2063 62.9399C23.0948 65.9891 14.4405 65.0452 6.17827 60.2165C7.0809 59.0504 12.7882 56.2434 15.9893 55.3456C19.5552 54.3452 23.1832 53.9541 26.9076 54.1962C26.8646 53.9875 26.7013 53.9716 26.589 53.9143C24.9773 53.0986 23.4254 52.181 21.9483 51.1431C13.6949 45.3442 8.23687 37.5771 5.57121 27.8513C5.3824 27.1615 5.22944 26.4621 5.06373 25.7667C5.03505 25.6441 5.02709 25.5174 5 25.3262C11.1192 26.3657 16.7453 28.4893 21.9013 31.8436C27.047 35.1907 31.3347 39.4068 34.7564 44.519C31.3403 30.5707 33.1694 17.4062 40.4398 5C41.1592 5.63246 43.7851 11.0211 44.9291 14.177C46.0978 17.4022 46.916 20.715 47.394 24.1115C47.8704 27.4968 48.0026 30.8957 47.8051 34.3089C47.6083 37.7149 47.0562 41.0652 46.1902 44.3669C46.2229 44.3804 46.2555 44.3939 46.2882 44.4075C46.8307 43.6651 47.3589 42.9124 47.919 42.1835C48.4846 41.4475 49.0638 40.7211 49.6685 40.0169C50.2819 39.3032 50.9169 38.6062 51.5741 37.9316C52.2218 37.2673 52.8918 36.6221 53.5817 36.0015C54.2716 35.381 54.9823 34.7812 55.7112 34.2069C56.4402 33.6326 57.1898 33.083 57.9538 32.5565C58.729 32.0228 59.5201 31.5106 60.3271 31.0263C61.1222 30.5484 61.934 30.0968 62.7578 29.6714C63.5815 29.246 64.4196 28.8446 65.2681 28.4718C66.1165 28.099 66.9785 27.7533 67.8493 27.4355C68.732 27.1137 69.6258 26.819 70.5269 26.5529C71.4152 26.2909 72.313 26.0567 73.2156 25.8512C74.1167 25.6457 75.0289 25.4903 76 25.3008C75.9785 25.4903 75.9761 25.6178 75.949 25.7389C74.2664 33.3729 70.8185 40.0783 65.3963 45.7393C62.1937 49.0832 58.5346 51.8178 54.4055 53.919C54.3115 53.9668 54.2183 54.0178 54.1274 54.072C54.1107 54.0823 54.1091 54.1174 54.0804 54.1994C57.7419 54.0154 61.3309 54.3261 64.8387 55.3719C68.3344 56.4146 71.5777 57.9615 74.5732 60.1679C70.6129 62.556 66.3993 64.0328 61.8559 64.525C57.3069 65.0189 53.5817 65 48.5 63" stroke="#63666A" stroke-width="5.37" stroke-linecap="round" stroke-linejoin="round"/>
<path d="M40.4004 64V74.5" stroke="#63666A" stroke-width="5.37" stroke-linecap="round" stroke-linejoin="round"/>
</svg>
