<svg width="80" height="80" viewBox="0 0 80 80" fill="none" xmlns="http://www.w3.org/2000/svg">
<path d="M5.17827 60.2165C13.4405 65.0452 22.0948 65.9891 31.2063 62.9399C32.9708 62.2933 37 60.6 39 59C40.2 59.8 45.1667 62 47.5 63C52.5817 65 56.3069 65.0189 60.8559 64.525C65.3993 64.0328 69.6129 62.556 73.5732 60.1679C70.5777 57.9615 67.3344 56.4146 63.8387 55.3719C60.3309 54.3261 56.7419 54.0154 53.0804 54.1994C53.1091 54.1174 53.1107 54.0823 53.1274 54.072C53.2183 54.0178 53.3115 53.9668 53.4055 53.919C57.5346 51.8177 61.1937 49.0832 64.3963 45.7393C69.8185 40.0783 73.2664 33.3729 74.949 25.7389C74.9761 25.6178 74.9785 25.4903 75 25.3008C74.0289 25.4903 73.1167 25.6457 72.2156 25.8512C71.313 26.0567 70.4152 26.2909 69.5269 26.5529C68.6258 26.819 67.732 27.1137 66.8493 27.4355C65.9785 27.7533 65.1165 28.099 64.2681 28.4718C63.4196 28.8446 62.5815 29.246 61.7578 29.6714C60.934 30.0968 60.1222 30.5484 59.3271 31.0263C58.5201 31.5106 57.729 32.0228 56.9538 32.5565C56.1898 33.083 55.4402 33.6326 54.7112 34.2069C53.9823 34.7812 53.2716 35.381 52.5817 36.0015C51.8918 36.6221 51.2218 37.2673 50.5741 37.9316C49.9169 38.6063 49.2819 39.3032 48.6685 40.0169C48.0638 40.7211 47.4846 41.4475 46.919 42.1835C46.3589 42.9124 45.8307 43.6651 45.2882 44.4075L45.1902 44.3669C46.0562 41.0652 46.6083 37.7149 46.8051 34.3089C47.0026 30.8957 46.8704 27.4968 46.394 24.1115C45.916 20.715 45.0978 17.4022 43.9291 14.177C42.7851 11.0211 40.1592 5.63246 39.4398 5C32.1694 17.4062 30.3403 30.5707 33.7564 44.519C30.3347 39.4068 26.047 35.1907 20.9013 31.8436C15.7453 28.4893 10.1192 26.3657 4 25.3262C4.02709 25.5174 4.03505 25.6441 4.06373 25.7667C4.22944 26.4621 4.3824 27.1615 4.57121 27.8513C7.23687 37.5771 12.6949 45.3442 20.9483 51.1431C22.4254 52.181 23.9773 53.0986 25.589 53.9143C25.7013 53.9716 25.8646 53.9875 25.9076 54.1962C22.1832 53.9541 18.5552 54.3452 14.9893 55.3456C11.7882 56.2434 6.0809 59.0504 5.17827 60.2165Z" stroke="#63666A" stroke-width="5.37" stroke-linecap="round" stroke-linejoin="round"/>
<path d="M39.4004 64V74.5" stroke="#63666A" stroke-width="5.37" stroke-linecap="round" stroke-linejoin="round"/>
<path fill-rule="evenodd" clip-rule="evenodd" d="M39 59C40.2 59.8 45.1667 62 47.5 63C52.5817 65 56.3069 65.0189 60.8559 64.525C65.3993 64.0328 69.6129 62.556 73.5732 60.1679C70.5777 57.9615 67.3344 56.4146 63.8387 55.3719C60.3309 54.3261 56.7419 54.0154 53.0804 54.1994C53.0913 54.1682 53.0983 54.1438 53.1037 54.125C53.1125 54.0943 53.1171 54.0784 53.1274 54.072C53.2183 54.0178 53.3115 53.9668 53.4055 53.919C57.5346 51.8177 61.1937 49.0832 64.3963 45.7393C69.8185 40.0783 73.2664 33.3729 74.949 25.7389C74.9666 25.6602 74.9738 25.5789 74.9825 25.4796C74.9873 25.426 74.9925 25.3672 75 25.3008C74.7017 25.359 74.409 25.414 74.1205 25.4682C73.4696 25.5905 72.8399 25.7088 72.2156 25.8512C71.313 26.0567 70.4152 26.2909 69.5269 26.5529C68.6258 26.819 67.732 27.1137 66.8493 27.4355C65.9785 27.7533 65.1165 28.099 64.2681 28.4718C63.4196 28.8446 62.5815 29.246 61.7578 29.6714C60.934 30.0968 60.1222 30.5484 59.3271 31.0263C58.5201 31.5106 57.729 32.0228 56.9538 32.5565C56.1898 33.083 55.4402 33.6326 54.7112 34.2069C53.9823 34.7812 53.2716 35.381 52.5817 36.0015C51.8918 36.6221 51.2218 37.2673 50.5741 37.9316C49.9169 38.6063 49.2819 39.3032 48.6685 40.0169C48.0638 40.7211 47.4846 41.4475 46.919 42.1835C46.5312 42.6882 46.1586 43.2044 45.786 43.7206C45.6206 43.9499 45.4551 44.1792 45.2882 44.4075L45.1902 44.3669C46.0562 41.0652 46.6083 37.7149 46.8051 34.3089C47.0026 30.8957 46.8704 27.4968 46.394 24.1115C45.916 20.715 45.0978 17.4022 43.9291 14.177C42.7851 11.0211 40.1592 5.63246 39.4398 5C39.291 5.25408 39.1443 5.50848 39 5.76319V59Z" fill="#63666A"/>
</svg>
