<svg width="80" height="81" viewBox="0 0 80 81" fill="none" xmlns="http://www.w3.org/2000/svg">
<mask id="path-1-outside-1_3382_78107" maskUnits="userSpaceOnUse" x="23.7705" y="61.0596" width="51" height="20" fill="black">
<rect fill="white" x="23.7705" y="61.0596" width="51" height="20"/>
<path d="M68.3309 70.4313C68.8046 71.6155 68.8175 72.5313 68.3697 73.1528C67.8415 73.8838 66.0876 75.1131 60.2733 75.1131C56.0564 75.1131 50.4445 74.4506 43.5911 73.1418C38.6408 72.1973 36.241 71.3526 34.1183 70.6093C33.1136 70.2547 32.1591 69.9248 31.0554 69.6195C30.2114 69.3895 29.7091 68.9419 29.7765 68.4806C29.8584 67.933 30.8358 67.0596 33.1136 67.0596C34.4383 67.0596 35.9698 67.3484 37.6619 67.9193C40.8196 68.9789 44.4996 69.4963 48.9317 69.4963C51.7707 69.4963 54.6083 69.2882 57.1128 69.1075C59.2657 68.9501 61.3024 68.8023 63.0419 68.8023C67.1497 68.8023 68.0252 69.6729 68.3295 70.4313H68.3309Z"/>
</mask>
<path d="M68.3309 70.4313L73.316 68.4374C72.5006 66.3989 70.5264 65.0623 68.3309 65.0623V70.4313ZM68.3697 73.1528L72.7216 76.2972L72.7258 76.2914L68.3697 73.1528ZM43.5911 73.1418L44.5981 67.8681L44.5974 67.8679L43.5911 73.1418ZM34.1183 70.6093L32.3315 75.6723L32.3438 75.6766L34.1183 70.6093ZM31.0554 69.6195L32.4867 64.4448L32.4768 64.442L32.467 64.4394L31.0554 69.6195ZM29.7765 68.4806L24.4664 67.6872L24.4652 67.6955L24.464 67.7037L29.7765 68.4806ZM37.6619 67.9193L35.9457 73.0067L35.9539 73.0094L37.6619 67.9193ZM57.1128 69.1075L57.4992 74.4627L57.5044 74.4623L57.1128 69.1075ZM68.3295 70.4313L63.3465 72.4305L64.6985 75.8004H68.3295V70.4313ZM63.3459 72.4253C63.4283 72.6314 63.3331 72.4867 63.3273 72.0793C63.3206 71.6084 63.4421 70.8073 64.0136 70.0142L72.7258 76.2914C74.8152 73.3915 74.0091 70.1703 73.316 68.4374L63.3459 72.4253ZM64.0177 70.0084C64.6049 69.1958 65.1374 69.1413 64.6498 69.2992C64.1363 69.4654 62.8514 69.7441 60.2733 69.7441V80.4822C66.3358 80.4822 70.5534 79.2981 72.7216 76.2972L64.0177 70.0084ZM60.2733 69.7441C56.541 69.7441 51.3041 69.1486 44.5981 67.8681L42.584 78.4156C49.585 79.7525 55.5719 80.4822 60.2733 80.4822V69.7441ZM44.5974 67.8679C39.9999 66.9907 37.8723 66.2351 35.8927 65.5419L32.3438 75.6766C34.6098 76.4701 37.2817 77.4039 42.5847 78.4157L44.5974 67.8679ZM35.905 65.5463C34.8859 65.1866 33.7824 64.8031 32.4867 64.4448L29.6241 74.7943C30.5358 75.0465 31.3412 75.3228 32.3315 75.6723L35.905 65.5463ZM32.467 64.4394C32.5599 64.4647 33.0597 64.606 33.6454 65.1277C34.2348 65.6527 35.4058 67.0916 35.0891 69.2574L24.464 67.7037C24.0798 70.3309 25.4682 72.2242 26.503 73.1459C27.5339 74.0643 28.7069 74.5444 29.6437 74.7997L32.467 64.4394ZM35.0867 69.2739C34.9148 70.4241 34.3853 71.1822 34.0565 71.5588C33.6952 71.9726 33.3478 72.196 33.1425 72.3051C32.7282 72.5255 32.6281 72.4286 33.1136 72.4286V61.6905C31.3213 61.6905 29.5935 62.0304 28.1006 62.8243C26.8573 63.4855 24.8678 65.0006 24.4664 67.6872L35.0867 69.2739ZM33.1136 72.4286C33.6932 72.4286 34.6292 72.5625 35.9457 73.0066L39.3782 62.8319C37.3103 62.1343 35.1835 61.6905 33.1136 61.6905V72.4286ZM35.9539 73.0094C39.8072 74.3024 44.0948 74.8654 48.9317 74.8654V64.1273C44.9044 64.1273 41.832 63.6553 39.37 62.8292L35.9539 73.0094ZM48.9317 74.8654C51.9967 74.8654 55.0279 74.641 57.4992 74.4627L56.7264 63.7524C54.1886 63.9355 51.5447 64.1273 48.9317 64.1273V74.8654ZM57.5044 74.4623C59.7126 74.3008 61.5381 74.1713 63.0419 74.1713V63.4332C61.0667 63.4332 58.8188 63.5994 56.7212 63.7528L57.5044 74.4623ZM63.0419 74.1713C63.8907 74.1713 64.456 74.217 64.8104 74.2668C65.1722 74.3177 65.2248 74.3608 65.094 74.3078C64.9414 74.2458 64.5685 74.064 64.1639 73.6611C63.7395 73.2385 63.4858 72.7777 63.3465 72.4305L73.3124 68.4321C72.6058 66.6709 71.2233 65.206 69.13 64.357C67.4097 63.6592 65.3495 63.4332 63.0419 63.4332V74.1713ZM68.3295 75.8004H68.3309V65.0623H68.3295V75.8004Z" fill="#63666A" mask="url(#path-1-outside-1_3382_78107)"/>
<path d="M41.1833 22.7649H41.1805C39.4549 22.7649 37.7681 22.2532 36.3333 21.2945C34.8986 20.3358 33.7803 18.9732 33.1199 17.379C32.4596 15.7848 32.2868 14.0305 32.6235 12.3381L35.2564 12.8618L32.6235 12.3381C32.9601 10.6456 33.7911 9.09106 35.0112 7.87088C36.2314 6.65071 37.786 5.81977 39.4784 5.48312C41.1708 5.14648 42.9251 5.31925 44.5193 5.97961C46.1136 6.63996 47.4762 7.75822 48.4349 9.193C49.3935 10.6278 49.9052 12.3146 49.9052 14.0402L49.9052 14.043C49.9028 16.3554 48.9831 18.5725 47.348 20.2076C45.7128 21.8428 43.4958 22.7625 41.1833 22.7649Z" stroke="#63666A" stroke-width="5.36905"/>
<path d="M57.2297 36.6257L57.2297 36.6255C55.5407 33.2185 51.7395 31.3213 47.6444 30.3408C43.9032 29.4451 40.5294 29.467 39.9622 29.4793C39.6172 29.5479 39.2619 29.548 38.9167 29.4796C38.3169 29.4683 35.18 29.4581 31.6845 30.3346C27.8321 31.3005 24.174 33.1772 22.4646 36.6255L22.4645 36.6257C18.0622 45.5045 11.4045 49.7512 5.85684 50.6347C5.25302 50.835 4.97814 51.0645 4.76156 51.3105C4.4355 51.6808 4.16253 52.1707 3.62356 53.1798C3.41784 53.7193 3.18142 54.4828 3.00344 55.0829C2.9251 55.347 2.90562 55.626 2.9467 55.8991L2.94978 55.9202C3.13478 57.2208 4.8028 59.1436 7.89517 58.7015L57.2297 36.6257ZM57.2297 36.6257C61.9648 46.1759 68.4832 51.2776 73.7469 52.194C73.8465 52.2205 73.9482 52.2413 74.0515 52.2562C74.6999 52.3498 75.4367 52.8897 76.0535 54.2179C76.6725 55.5508 76.811 56.9587 76.7333 57.5091C76.6313 58.2228 76.1623 59.0265 75.2808 59.6099L75.2786 59.6113C74.401 60.1934 73.1769 60.4833 71.789 60.2849M57.2297 36.6257L71.789 60.2849M71.789 60.2849C69.3143 59.9285 62.7239 58.1778 56.4429 49.2437C55.7804 48.3013 54.5904 47.8867 53.4857 48.2133C52.381 48.5399 51.6078 49.5349 51.5642 50.686C51.4008 54.9994 51.4585 61.1803 56.0952 65.3989C56.8196 66.0581 57.8428 66.2684 58.7645 65.9554C58.803 65.9458 58.8667 65.931 58.9572 65.9121C59.1475 65.8724 59.4035 65.8256 59.6904 65.7808C60.299 65.6858 60.878 65.6267 61.2087 65.6267C61.2647 65.6267 61.3208 65.6249 61.3768 65.6214C61.9062 65.5882 62.9903 65.5703 64.1858 65.6325C65.4149 65.6965 66.553 65.8357 67.288 66.0457C69.2363 66.6024 70.2004 67.3591 70.6887 67.9474C71.1738 68.5318 71.3492 69.1421 71.3877 69.6922C71.5596 72.1486 71.2735 73.1863 71.0719 73.651C70.9723 73.8805 70.8544 74.0619 70.6781 74.2884C70.6583 74.3138 70.6195 74.3614 70.5679 74.4246C70.4317 74.5916 70.2069 74.8671 70.0135 75.1256C68.1894 76.8524 65.5483 77.4933 59.3222 77.4933C55.4486 77.4933 50.4355 76.9596 44.3783 75.8656C43.8931 75.7779 43.3939 75.8257 42.9353 76.0026L39.3043 76.3365L39.3035 76.3366C32.0097 77.0096 26.0157 77.5599 21.2253 77.5599C18.3509 77.5599 16.0522 77.3592 14.2576 76.9223C12.4728 76.4877 11.3512 75.8595 10.6385 75.122L10.6327 75.1159C9.72336 74.1808 9.19942 72.789 9.45612 70.5751L9.45906 70.5486C9.51258 70.0433 9.67339 69.5566 9.92943 69.1218C10.1854 68.687 10.5302 68.3149 10.939 68.0296L10.9672 68.0097C12.1514 67.1603 14.0764 66.6981 16.4237 66.6038C18.6925 66.5126 20.9668 66.7773 22.5099 67.0266C23.435 67.1761 24.3711 66.8323 24.9796 66.1196C29.5482 60.7688 29.3204 53.7348 28.6285 49.4673C28.4537 48.3893 27.6433 47.5246 26.5789 47.2804C25.5146 47.0362 24.4083 47.461 23.7811 48.3549C19.5324 54.4097 14.2174 57.7906 7.89576 58.7014L71.789 60.2849Z" stroke="#63666A" stroke-width="5.36905" stroke-linejoin="round"/>
</svg>
