<svg width="80" height="80" viewBox="0 0 80 80" fill="none" xmlns="http://www.w3.org/2000/svg">
<path d="M28.2967 76.2618V65.5594C27.9796 65.5957 27.7649 65.6023 27.5568 65.6469C26.7789 65.812 26.0093 66.0332 25.2248 66.1422C24.3892 66.2561 23.5238 66.4097 22.698 66.2957C19.2133 65.8169 16.9358 63.1372 16.9177 59.6005C16.9078 57.1288 16.9177 54.6621 16.9177 52.1854V49.7781C16.556 49.7599 16.2868 49.7385 16.0193 49.7319C15.1671 49.7203 14.3149 49.7533 13.4644 49.7203C11.6791 49.6493 10.3711 48.5266 10.0507 46.8276C9.88385 45.9426 10.1497 45.1517 10.5659 44.3839C12.556 40.7201 14.5345 37.0481 16.5329 33.3876C16.79 32.9063 16.9335 32.3726 16.9524 31.8273C17.0007 30.6485 17.1149 29.4733 17.2942 28.3071C18.4949 21.2817 21.7434 15.3658 27.2479 10.8054C34.7062 4.62535 43.2677 2.63908 52.6401 4.90934C67.2065 8.43775 76.5045 22.4853 74.2552 37.2644C73.3353 43.2761 70.7424 48.5001 66.493 52.8525C64.2569 55.1425 63.1553 57.7959 63.19 60.9957C63.2428 65.7459 63.2049 70.4961 63.2049 75.248V76.2618" stroke="#63666A" stroke-width="6" stroke-miterlimit="10" stroke-linecap="round" stroke-linejoin="round"/>
</svg>
