<svg width="80" height="80" viewBox="0 0 80 80" fill="none" xmlns="http://www.w3.org/2000/svg">
<path d="M67.8929 42.4994C67.467 42.1371 66.9507 41.9052 66.4029 41.83C65.8551 41.7549 65.2978 41.8395 64.7945 42.0743C61.1446 43.7826 57.1371 44.5235 53.1376 44.2294C49.1381 43.9353 45.2738 42.6156 41.897 40.3906C38.5202 38.1657 35.7384 35.1063 33.8053 31.4914C31.8722 27.8764 30.8492 23.8211 30.8297 19.695C30.8258 17.6468 31.0737 15.6062 31.5674 13.6219C31.6686 13.0922 31.6306 12.5443 31.4575 12.0346C31.2844 11.525 30.9824 11.072 30.5825 10.7225C30.1827 10.3729 29.6995 10.1393 29.1828 10.0459C28.6661 9.95239 28.1345 10.0024 27.6427 10.1907C23.019 12.3318 18.9998 15.6469 15.9626 19.8247C12.9253 24.0026 10.9695 28.9061 10.2789 34.075C9.58825 39.2439 10.1854 44.5086 12.0142 49.3749C13.843 54.2412 16.8436 58.5495 20.7342 61.8953C24.6248 65.2411 29.2778 67.5146 34.2564 68.5026C39.2351 69.4905 44.376 69.1603 49.1967 67.5431C54.0173 65.9259 58.3595 63.0746 61.8157 59.257C65.2718 55.4394 67.7286 50.7807 68.9552 45.7182C69.1104 45.1338 69.0921 44.5151 68.9028 43.9415C68.7135 43.3679 68.3618 42.8657 67.8929 42.4994Z" stroke="#63666A" stroke-width="6" stroke-miterlimit="10"/>
</svg>
