<svg width="80" height="80" viewBox="0 0 80 80" fill="none" xmlns="http://www.w3.org/2000/svg">
<path d="M9.97949 14C12.2125 14.0216 14.3626 14.8888 16.0322 16.4413C17.4077 17.6788 18.7531 18.9732 20.4642 19.6568C25.4253 21.6443 29.9329 20.8278 33.9024 17.1249C35.16 15.9508 36.4691 14.9095 38.0986 14.4348C41.5753 13.4126 44.6166 14.2892 47.3254 16.7483C48.3217 17.7063 49.4192 18.5419 50.5966 19.2391C55.1918 21.7709 60.7031 20.9797 64.6031 17.3022C66.0361 15.9508 67.5326 14.7703 69.4735 14.3082" stroke="#63666A" stroke-width="6" stroke-miterlimit="10" stroke-linecap="round"/>
<path d="M9.97949 36.8184C12.2125 36.8399 14.3626 37.7071 16.0322 39.2597C17.4077 40.4971 18.7531 41.7916 20.4642 42.4752C25.4253 44.4627 29.9329 43.6462 33.9024 39.9433C35.16 38.7691 36.4691 37.7279 38.0986 37.2532C41.5753 36.2309 44.6166 37.1076 47.3254 39.5667C48.3217 40.5246 49.4192 41.3603 50.5966 42.0574C55.1918 44.5893 60.7031 43.7981 64.6031 40.1205C66.0361 38.7691 67.5326 37.5887 69.4735 37.1266" stroke="#63666A" stroke-width="6" stroke-miterlimit="10" stroke-linecap="round"/>
<path d="M9.97949 59.6368C12.2125 59.6583 14.3626 60.5255 16.0322 62.078C17.4077 63.3155 18.7531 64.6099 20.4642 65.2935C25.4253 67.2811 29.9329 66.4645 33.9024 62.7617C35.16 61.5875 36.4691 60.5463 38.0986 60.0715C41.5753 59.0493 44.6166 59.926 47.3254 62.385C48.3217 63.343 49.4192 64.1786 50.5966 64.8758C55.1918 67.4076 60.7031 66.6164 64.6031 62.9389C66.0361 61.5875 67.5326 60.407 69.4735 59.9449" stroke="#63666A" stroke-width="6" stroke-miterlimit="10" stroke-linecap="round"/>
</svg>
