<svg width="28" height="26" viewBox="0 0 28 26" fill="none" xmlns="http://www.w3.org/2000/svg">
<path d="M4.07347 21.3768L19.4642 24.3414C19.0556 19.3152 19.6626 8.72742 22.82 3.9403C23.1125 3.49681 22.8698 2.84772 22.3437 2.77346C12.7941 1.42528 5.24619 0.872039 4.29213 2.2435C2.50499 4.81251 1.61622 12.8426 1.48569 18.2477C1.44852 19.787 2.56147 21.0855 4.07347 21.3768Z" stroke="#805574" stroke-width="1.77118" stroke-linejoin="round"/>
<path d="M2.97266 5.5643C6.38089 5.45435 16.8255 5.5639 20.7834 7.54327" stroke="#805574" stroke-width="1.77118" stroke-linejoin="round"/>
<path d="M22.7623 3.06738C23.6968 5.37619 25.9616 11.7419 25.5658 19.3939C25.8957 19.7787 26.5553 20.6143 26.5553 20.8781C26.5553 21.208 22.9272 21.208 19.6289 24.3413" stroke="#805574" stroke-width="1.77118" stroke-linecap="round" stroke-linejoin="round"/>
<path d="M9.6539 17.2748C8.44889 17.5932 7.34657 17.375 6.33737 16.6342C6.46624 16.4856 7.23091 16.1646 7.65234 16.0762C8.12182 15.9778 8.59258 15.9626 9.06878 16.0343C9.06554 16.0055 9.04472 16.0017 9.0309 15.9927C8.83266 15.8654 8.64321 15.7248 8.46472 15.5687C7.46731 14.6965 6.85096 13.5867 6.61517 12.2404C6.59847 12.1449 6.5865 12.0485 6.57284 11.9525C6.5705 11.9356 6.57087 11.9184 6.56949 11.8922C7.34482 12.0969 8.04483 12.4434 8.67087 12.9519C9.29566 13.4593 9.80058 14.0756 10.1843 14.8043C9.89845 12.8778 10.2784 11.1123 11.3495 9.50628C11.4351 9.59952 11.7134 10.3574 11.8258 10.7971C11.9406 11.2465 12.0094 11.7042 12.0335 12.1696C12.0576 12.6335 12.0372 13.0956 11.9743 13.5562C11.9115 14.0159 11.8037 14.4643 11.6561 14.9029C11.6601 14.905 11.6642 14.9072 11.6682 14.9094C11.7461 14.8144 11.8223 14.7179 11.9023 14.6249C11.9831 14.531 12.0656 14.4386 12.1511 14.3495C12.2378 14.2591 12.3271 14.1712 12.419 14.0866C12.5096 14.0033 12.6028 13.9229 12.6984 13.8459C12.7939 13.769 12.8919 13.6951 12.9919 13.6249C13.0919 13.5546 13.1944 13.4879 13.2984 13.4245C13.4039 13.3602 13.5113 13.2991 13.6203 13.2418C13.7278 13.1853 13.8372 13.1326 13.9477 13.0835C14.0583 13.0344 14.1705 12.9887 14.2837 12.9471C14.3969 12.9054 14.5115 12.8675 14.627 12.8335C14.744 12.7991 14.8622 12.7684 14.9809 12.7418C15.098 12.7155 15.216 12.6931 15.3343 12.6747C15.4525 12.6562 15.5714 12.6447 15.6984 12.6291C15.6935 12.6546 15.6918 12.6718 15.687 12.688C15.3867 13.7053 14.8697 14.5783 14.1103 15.2892C13.6618 15.7091 13.1613 16.0417 12.6073 16.2834C12.5947 16.2889 12.5821 16.2949 12.5699 16.3013C12.5676 16.3025 12.567 16.3072 12.5624 16.3181C13.0352 16.3313 13.4932 16.4108 13.9327 16.5892C14.3707 16.767 14.7707 17.0105 15.1316 17.3409C14.5961 17.6233 14.0382 17.7795 13.4486 17.7989C12.8583 17.8184 12.3795 17.777 11.7482 17.4529" stroke="#805574" stroke-width="1.1544" stroke-linecap="round" stroke-linejoin="round"/>
<path d="M10.6953 17.5039L10.5799 18.9273" stroke="#805574" stroke-width="1.64914" stroke-linecap="round" stroke-linejoin="round"/>
</svg>
