<svg width="21" height="28" viewBox="0 0 21 28" fill="none" xmlns="http://www.w3.org/2000/svg">
<path d="M3.68847 23.5043L14.2554 26.7038C13.958 20.9543 14.4151 8.71089 16.7904 3.51592C16.9725 3.11752 16.7581 2.63369 16.3304 2.53871C9.51167 1.02432 4.11959 0.401329 3.43867 1.93991C2.12181 4.91543 1.48912 14.4284 1.43032 20.4742C1.41669 21.8753 2.34741 23.0983 3.68847 23.5043Z" stroke="#B87E47" stroke-width="1.73837" stroke-linejoin="round"/>
<path d="M2.36736 4.75155C4.79249 4.55239 12.43 5.42286 15.3209 6.69326" stroke="#B87E47" stroke-width="1.73837" stroke-linejoin="round"/>
<path d="M16.8423 2.69824C17.5092 4.34575 18.89 17.9274 18.6075 23.3877C18.8429 23.6622 19.3136 24.2585 19.3136 24.4468C19.3136 24.6821 16.7247 24.6821 14.3711 26.918" stroke="#B87E47" stroke-width="1.73837" stroke-linecap="round" stroke-linejoin="round"/>
<path d="M6.90065 16.757C5.83768 17.0378 4.8653 16.8453 3.97506 16.1919C4.08874 16.0607 4.76327 15.7775 5.13503 15.6996C5.54916 15.6128 5.96443 15.5994 6.3845 15.6626C6.38164 15.6373 6.36327 15.6339 6.35109 15.626C6.17621 15.5136 6.0091 15.3896 5.85165 15.2519C4.9718 14.4825 4.42811 13.5035 4.22011 12.316C4.20538 12.2318 4.19482 12.1467 4.18277 12.062C4.18071 12.0471 4.18103 12.0319 4.17981 12.0088C4.86375 12.1894 5.48125 12.4951 6.0335 12.9436C6.58464 13.3912 7.03004 13.9348 7.36854 14.5776C7.11637 12.8782 7.45151 11.3208 8.39642 9.90413C8.47188 9.98637 8.71743 10.6549 8.81657 11.0428C8.91784 11.4393 8.9785 11.8429 8.99978 12.2535C9.02097 12.6627 9.00301 13.0704 8.9475 13.4767C8.89214 13.8822 8.79704 14.2777 8.6668 14.6646C8.67037 14.6665 8.67394 14.6684 8.67752 14.6703C8.74625 14.5866 8.81345 14.5014 8.88404 14.4194C8.95533 14.3366 9.02807 14.2551 9.10348 14.1764C9.17997 14.0967 9.25875 14.0192 9.33983 13.9446C9.41974 13.8711 9.50198 13.8001 9.58625 13.7322C9.67051 13.6644 9.75693 13.5992 9.84517 13.5372C9.93342 13.4753 10.0238 13.4164 10.1155 13.3605C10.2086 13.3038 10.3033 13.2498 10.3995 13.1993C10.4944 13.1495 10.5908 13.103 10.6884 13.0597C10.7859 13.0164 10.8849 12.9761 10.9847 12.9393C11.0845 12.9025 11.1857 12.8691 11.2875 12.8391C11.3907 12.8088 11.495 12.7818 11.5998 12.7582C11.703 12.7351 11.8071 12.7153 11.9115 12.699C12.0157 12.6828 12.1207 12.6726 12.2326 12.6588C12.2284 12.6813 12.2269 12.6965 12.2226 12.7108C11.9577 13.6082 11.5016 14.3783 10.8318 15.0054C10.4361 15.3758 9.99459 15.6691 9.5059 15.8824C9.49477 15.8873 9.48371 15.8925 9.47288 15.8982C9.47088 15.8992 9.47036 15.9034 9.46631 15.913C9.88337 15.9246 10.2874 15.9948 10.6751 16.1521C11.0615 16.309 11.4143 16.5238 11.7326 16.8152C11.2603 17.0643 10.7681 17.2022 10.248 17.2192C9.72732 17.2365 9.305 17.1999 8.74805 16.914" stroke="#B87E47" stroke-width="1.13302" stroke-linecap="round" stroke-linejoin="round"/>
<path d="M7.82031 16.959L7.71848 18.2146" stroke="#B87E47" stroke-width="1.6186" stroke-linecap="round" stroke-linejoin="round"/>
</svg>
