<svg width="37" height="37" viewBox="0 0 37 37" fill="none" xmlns="http://www.w3.org/2000/svg">
<path d="M14.7413 22.5252C14.1897 23.2786 13.4983 23.9104 12.707 24.384C11.9158 24.8575 11.0403 25.1635 10.1314 25.2841C8.28433 25.5365 6.41029 25.0191 4.92152 23.8457C3.43276 22.6724 2.45122 20.9392 2.19284 19.0274C1.93446 17.1157 2.4204 15.182 3.54376 13.6517C4.66712 12.1214 6.33588 11.1199 8.18293 10.8675C9.09096 10.7399 10.0158 10.7998 10.9041 11.0439C18.1809 13.0433 18.8615 23.4916 25.5965 25.3421C26.4848 25.5862 27.4096 25.6461 28.3177 25.5185C30.1647 25.2661 31.8335 24.2646 32.9568 22.7343C34.0802 21.2041 34.5661 19.2703 34.3077 17.3586C34.0494 15.4468 33.0678 13.7136 31.5791 12.5403C30.0903 11.3669 28.2163 10.8495 26.3692 11.1019C25.4602 11.2226 24.5848 11.5285 23.7935 12.002C23.0023 12.4756 22.3109 13.1074 21.7593 13.8608" stroke="#63666A" stroke-width="2.68755" stroke-linecap="round" stroke-linejoin="round"/>
</svg>
