<svg width="22" height="28" viewBox="0 0 22 28" fill="none" xmlns="http://www.w3.org/2000/svg">
<path d="M8.7664 27.111C7.13745 27.111 5.81445 25.7847 5.81445 24.1591V8.75803C5.81445 8.18815 6.2759 7.72754 6.84494 7.72754C7.41482 7.72754 7.87544 8.18899 7.87544 8.75803V24.1599C7.87544 24.65 8.27553 25.0501 8.76556 25.0501C9.24886 25.0501 9.64139 24.6718 9.65568 24.1885L9.93642 15.7361C9.95407 15.1662 10.4197 14.7199 11.0031 14.7376C11.5729 14.7552 12.0159 15.2352 11.9982 15.8042L11.7175 24.2566C11.6646 25.857 10.3668 27.111 8.7664 27.111Z" fill="#805574"/>
<path d="M13.3898 27.111C11.6885 27.111 10.3042 25.7771 10.2428 24.0759L9.94023 15.6706C9.91837 15.1007 10.3622 14.6249 10.9312 14.6039C11.5078 14.5787 11.9802 15.0292 11.9978 15.5991L12.3038 24.0011C12.3257 24.5886 12.8014 25.0501 13.3889 25.0501C13.9874 25.0501 14.4741 24.5634 14.4741 23.9649V8.75803C14.4741 8.18815 14.9355 7.72754 15.5045 7.72754C16.0744 7.72754 16.535 8.18899 16.535 8.75803V23.9649C16.5359 25.6981 15.1263 27.111 13.3898 27.111Z" fill="#805574"/>
<path d="M3.63762 17.2114C3.21231 17.2114 2.787 17.0921 2.41213 16.8618C1.59009 16.4003 0.415023 14.9807 1.03534 12.4322L1.16898 11.8808C2.13139 7.85463 3.92592 0.361288 8.44294 0.299929C8.65559 0.296567 8.86489 0.361288 9.0414 0.484006C9.60035 0.86981 10.256 1.07154 10.9376 1.07154C12.1488 1.07154 12.7364 0.837029 13.2483 0.484006C13.4248 0.361288 13.6374 0.299929 13.8501 0.299929C16.892 0.342796 19.3362 4.31179 21.3182 12.4322C21.9385 14.9807 20.7634 16.4045 19.9414 16.8618C19.2782 17.2694 18.4671 17.3232 17.7644 17.0063C16.6583 16.502 15.9405 15.1857 15.6236 13.0886C15.2201 10.4174 14.8562 9.58864 14.5023 8.78846C14.4015 8.55815 14.3006 8.33037 14.2031 8.07485C13.998 7.54111 14.2611 6.94685 14.7906 6.73756C15.3244 6.53247 15.9186 6.79892 16.1246 7.32845C16.2145 7.5554 16.3011 7.75376 16.391 7.95549C16.7987 8.88176 17.2164 9.8366 17.6594 12.7818C17.962 14.7747 18.5529 15.0992 18.6184 15.1286C18.7226 15.1757 18.8168 15.132 18.8672 15.1034C18.8891 15.0891 18.9143 15.0748 18.9353 15.0605C18.9429 15.0571 19.7103 14.5486 19.3135 12.923C17.2013 4.26135 15.1033 2.62484 14.0829 2.39369C13.2071 2.90894 12.2413 3.13252 10.936 3.13252C9.96262 3.13252 9.02207 2.877 8.1933 2.38613C5.45065 2.85851 3.80657 9.72481 3.17197 12.3599L3.03832 12.9222C2.64159 14.5478 3.40563 15.0563 3.4132 15.0597C3.43085 15.0706 3.46699 15.0924 3.48548 15.1025C3.53255 15.1311 3.63006 15.1748 3.73428 15.1277C3.799 15.0992 4.3899 14.7747 4.68913 12.781C5.1178 9.95175 5.39938 9.22722 5.89697 8.09166C5.99783 7.86471 6.10962 7.61592 6.23234 7.31332C6.445 6.78379 7.04346 6.53079 7.57299 6.74344C8.10252 6.9561 8.35552 7.55792 8.14287 8.08409C8.00923 8.4119 7.89407 8.67919 7.78564 8.92378C7.37799 9.84248 7.13339 10.3981 6.72994 13.0869C6.41306 15.1849 5.69188 16.5003 4.58574 17.0047C4.28315 17.1433 3.96207 17.2114 3.63762 17.2114Z" fill="#805574"/>
</svg>
