<svg width="24" height="14" viewBox="0 0 24 14" fill="none" xmlns="http://www.w3.org/2000/svg">
<path d="M1.5 1.34992C2.28157 1.35745 3.03409 1.66097 3.61844 2.20437C4.09988 2.63748 4.57075 3.09052 5.16965 3.32979C6.90603 4.02542 8.48369 3.73963 9.87301 2.44363C10.3132 2.03268 10.7714 1.66824 11.3417 1.50209C12.5585 1.1443 13.623 1.45114 14.5711 2.31181C14.9198 2.64709 15.3039 2.93957 15.716 3.18357C17.3243 4.06973 19.2533 3.7928 20.6183 2.50566C21.1198 2.03268 21.6436 1.61951 22.3229 1.45778" stroke="#805574" stroke-width="2.34896" stroke-miterlimit="10" stroke-linecap="round"/>
<path d="M1.5 9.80646C2.28157 9.81399 3.03409 10.1175 3.61844 10.6609C4.09988 11.094 4.57075 11.5471 5.16965 11.7863C6.90603 12.482 8.48369 12.1962 9.87301 10.9002C10.3132 10.4892 10.7714 10.1248 11.3417 9.95863C12.5585 9.60085 13.623 9.90768 14.5711 10.7684C14.9198 11.1036 15.3039 11.3961 15.716 11.6401C17.3243 12.5263 19.2533 12.2493 20.6183 10.9622C21.1198 10.4892 21.6436 10.076 22.3229 9.91432" stroke="#805574" stroke-width="2.34896" stroke-miterlimit="10" stroke-linecap="round"/>
</svg>
