<svg width="28" height="28" viewBox="0 0 28 28" fill="none" xmlns="http://www.w3.org/2000/svg">
<path d="M14.1914 9.81152L18.6094 12.9048" stroke="#805574" stroke-width="1.46279" stroke-linecap="round" stroke-linejoin="round"/>
<path d="M11.0352 12.3047L16.3999 16.0608" stroke="#805574" stroke-width="1.46279" stroke-linecap="round" stroke-linejoin="round"/>
<path d="M8.87305 15.7285L12.6599 18.3799" stroke="#805574" stroke-width="1.46279" stroke-linecap="round" stroke-linejoin="round"/>
<path d="M22.3809 4.49414L25.8522 6.92454" stroke="#805574" stroke-width="1.46279" stroke-linecap="round" stroke-linejoin="round"/>
<path d="M2.56055 20.7139L6.03185 23.1443" stroke="#805574" stroke-width="1.46279" stroke-linecap="round" stroke-linejoin="round"/>
<path d="M4.65105 25.5623C5.82399 24.578 6.55355 23.1982 7.10065 21.6554M27.067 6.75538C23.078 10.1029 15.4802 7.6044 11.4912 10.9519C9.87394 12.3091 9.09909 14.4173 8.48372 16.6674" stroke="#805574" stroke-width="1.46006" stroke-miterlimit="10" stroke-linecap="round"/>
<path d="M23.2689 2.22965C22.129 3.18618 21.4079 4.51629 20.866 6.00641C20.836 6.08896 20.8065 6.17201 20.7776 6.25551M0.852875 21.0366C4.84194 17.6891 12.4397 20.1876 16.4288 16.84C17.9681 15.5483 18.7443 13.576 19.3461 11.4486" stroke="#805574" stroke-width="1.46006" stroke-miterlimit="10" stroke-linecap="round"/>
</svg>
