<svg width="28" height="29" viewBox="0 0 28 29" fill="none" xmlns="http://www.w3.org/2000/svg">
<path d="M13.9395 11.1611V15.6242L16.2884 17.9731" stroke="#805574" stroke-width="2.34896" stroke-linecap="round"/>
<path d="M22.213 20.9324C22.5415 20.9324 22.8704 20.9291 23.1989 20.9324C23.3142 20.9317 23.4291 20.9454 23.541 20.9731C23.6408 20.9986 23.7293 21.0561 23.7928 21.1366C23.8563 21.2171 23.8912 21.3161 23.8921 21.4184C23.89 21.5175 23.8564 21.6134 23.7961 21.6925C23.7358 21.7716 23.6518 21.8297 23.5562 21.8586C23.4619 21.8878 23.3636 21.9028 23.2648 21.903C22.615 21.9066 21.9653 21.9092 21.3155 21.903C21.1617 21.902 21.009 21.8769 20.8631 21.8287C20.5432 21.7187 20.4246 21.4404 20.5902 21.147C20.694 20.9677 20.8268 20.8066 20.9833 20.6702C21.3188 20.3725 21.6735 20.0942 22.0242 19.8123C22.3504 19.5494 22.5587 19.2209 22.6203 18.8072C22.6554 18.5716 22.5326 18.3709 22.3223 18.3032C22.0805 18.225 21.8487 18.314 21.7354 18.5374C21.6788 18.6492 21.64 18.7697 21.5867 18.8834C21.4682 19.1358 21.2555 19.2366 20.9763 19.1791C20.7554 19.1335 20.612 18.9439 20.6001 18.683C20.5895 18.4277 20.678 18.2016 20.8094 17.9881C21.3168 17.1647 22.6339 17.0766 23.2536 17.5803C23.8166 18.037 23.9755 18.7891 23.6241 19.4581C23.3721 19.9398 22.9658 20.2868 22.5518 20.6235C22.4372 20.7165 22.3199 20.8043 22.2017 20.8946L22.213 20.9324Z" fill="#805574"/>
<path d="M25.7837 21.0165H24.5931C24.0467 21.0165 23.8006 20.7207 23.9341 20.195C23.9849 19.9952 24.0715 19.806 24.1898 19.6365C24.6756 18.9465 25.178 18.2699 25.6758 17.5891C25.7643 17.4655 25.8908 17.3736 26.0363 17.3272C26.1818 17.2808 26.3386 17.2823 26.4832 17.3315C26.7571 17.4209 26.9101 17.6535 26.9101 17.9801C26.9101 18.6305 26.9101 19.2806 26.9101 19.9305V20.105C27.4151 20.1911 27.5744 20.312 27.5622 20.5896C27.5499 20.862 27.3744 20.9823 26.9064 21.0253C26.9064 21.1403 26.9111 21.2583 26.9064 21.3759C26.8872 21.7968 26.5421 22.0597 26.1679 21.9394C26.0576 21.9024 25.9616 21.8324 25.8931 21.739C25.8246 21.6456 25.787 21.5335 25.7854 21.418C25.7801 21.2911 25.7837 21.1663 25.7837 21.0165ZM25.8056 20.1135L25.8794 18.7204L25.8463 18.7096L24.9389 20.1135H25.8056Z" fill="#805574"/>
<path d="M18.864 24.6378C16.181 25.888 13.0055 26.0624 10.0465 24.8613C4.39688 22.5681 1.67601 16.1292 3.96924 10.4796C6.26247 4.82996 12.7014 2.10909 18.351 4.40232C22.603 6.12825 25.1961 10.2024 25.2412 14.5211" stroke="#805574" stroke-width="2.34896" stroke-linecap="round"/>
<path d="M18.9506 27.4616L20.2103 23.8307L16.5672 22.8565" stroke="#805574" stroke-width="1.87917" stroke-linecap="round" stroke-linejoin="round"/>
</svg>
