<svg width="34" height="34" viewBox="0 0 34 34" fill="none" xmlns="http://www.w3.org/2000/svg">
<path d="M17.1777 13.3438V18.6302L19.9601 21.4125" stroke="#63666A" stroke-width="2.48743" stroke-linecap="round"/>
<path d="M26.9783 24.9173C27.3674 24.9173 27.757 24.9135 28.1461 24.9173C28.2827 24.9165 28.4188 24.9327 28.5513 24.9656C28.6695 24.9958 28.7743 25.0638 28.8495 25.1592C28.9247 25.2546 28.9661 25.3719 28.9671 25.493C28.9647 25.6104 28.9249 25.724 28.8535 25.8177C28.782 25.9113 28.6826 25.9802 28.5694 26.0145C28.4576 26.049 28.3412 26.0667 28.2242 26.067C27.4545 26.0713 26.6848 26.0744 25.9152 26.067C25.733 26.0658 25.5522 26.0361 25.3793 25.9791C25.0004 25.8487 24.86 25.519 25.0561 25.1715C25.179 24.9592 25.3363 24.7684 25.5217 24.6068C25.9191 24.2542 26.3392 23.9245 26.7547 23.5906C27.1411 23.2792 27.3878 22.8901 27.4608 22.4001C27.5024 22.121 27.3568 21.8832 27.1077 21.803C26.8214 21.7104 26.5468 21.8159 26.4126 22.0805C26.3455 22.2129 26.2996 22.3557 26.2365 22.4904C26.096 22.7892 25.8442 22.9087 25.5135 22.8406C25.2518 22.7865 25.082 22.562 25.0679 22.2529C25.0553 21.9505 25.16 21.6828 25.3158 21.4298C25.9168 20.4545 27.4769 20.3502 28.2108 20.9468C28.8777 21.4878 29.066 22.3787 28.6498 23.171C28.3513 23.7416 27.8699 24.1526 27.3796 24.5515C27.2439 24.6616 27.105 24.7656 26.9649 24.8726L26.9783 24.9173Z" fill="#63666A"/>
<path d="M31.2067 25.0168H29.7965C29.1492 25.0168 28.8578 24.6665 29.0159 24.0438C29.0761 23.8071 29.1787 23.583 29.3187 23.3822C29.8942 22.5649 30.4893 21.7636 31.0789 20.9572C31.1838 20.8107 31.3336 20.7019 31.5059 20.6469C31.6783 20.5919 31.864 20.5937 32.0352 20.652C32.3597 20.7579 32.5409 21.0334 32.5409 21.4203C32.5409 22.1906 32.5409 22.9607 32.5409 23.7305V23.9372C33.1391 24.0392 33.3278 24.1824 33.3133 24.5112C33.2988 24.8339 33.0909 24.9763 32.5366 25.0273C32.5366 25.1635 32.5421 25.3032 32.5366 25.4426C32.5138 25.9411 32.1051 26.2525 31.6618 26.11C31.5312 26.0662 31.4175 25.9833 31.3363 25.8726C31.2552 25.762 31.2106 25.6292 31.2087 25.4924C31.2024 25.3422 31.2067 25.1943 31.2067 25.0168ZM31.2326 23.9473L31.3201 22.2971L31.2809 22.2843L30.206 23.9473H31.2326Z" fill="#63666A"/>
<path d="M23.0125 29.3065C19.8345 30.7874 16.0731 30.9939 12.5682 29.5712C5.8763 26.8549 2.65345 19.2281 5.36977 12.5362C8.08608 5.84425 15.7129 2.62139 22.4049 5.33771C27.4413 7.38206 30.5128 12.2079 30.5662 17.3233" stroke="#63666A" stroke-width="2.48743" stroke-linecap="round"/>
<path d="M23.1133 32.6517L24.6054 28.3508L20.2902 27.1969" stroke="#63666A" stroke-width="2.22586" stroke-linecap="round" stroke-linejoin="round"/>
</svg>
