<svg width="35" height="35" viewBox="0 0 35 35" fill="none" xmlns="http://www.w3.org/2000/svg">
<path d="M13.4266 27.692C9.34532 29.0578 5.46888 28.635 1.76801 26.4721C2.17232 25.9498 4.72878 24.6924 6.1626 24.2903C7.75985 23.8422 9.38494 23.667 11.0532 23.7755C11.0339 23.682 10.9608 23.6749 10.9105 23.6492C10.1886 23.2838 9.49342 22.8728 8.83182 22.4079C5.13487 19.8104 2.69011 16.3314 1.49609 11.9749C1.41152 11.6659 1.34301 11.3527 1.26878 11.0412C1.25594 10.9862 1.25237 10.9295 1.24023 10.8439C3.98118 11.3095 6.50125 12.2607 8.81077 13.7632C11.1156 15.2624 13.0362 17.1509 14.5689 19.4408C13.0387 13.193 13.858 7.2963 17.1146 1.73926C17.4369 2.02255 18.613 4.43625 19.1255 5.84986C19.649 7.29452 20.0154 8.77842 20.2295 10.2998C20.4429 11.8161 20.5022 13.3386 20.4137 14.8674C20.3255 16.3931 20.0782 17.8937 19.6904 19.3727C19.705 19.3787 19.7196 19.3848 19.7342 19.3908C19.9773 19.0583 20.2138 18.7211 20.4647 18.3947C20.7181 18.065 20.9775 17.7396 21.2484 17.4242C21.5231 17.1045 21.8075 16.7923 22.1019 16.4901C22.392 16.1926 22.6922 15.9036 23.0012 15.6256C23.3102 15.3477 23.6285 15.079 23.955 14.8218C24.2816 14.5645 24.6174 14.3183 24.9596 14.0825C25.3068 13.8434 25.6611 13.614 26.0226 13.3971C26.3788 13.183 26.7424 12.9807 27.1114 12.7902C27.4803 12.5997 27.8557 12.4198 28.2358 12.2529C28.6158 12.0859 29.0019 11.931 29.392 11.7887C29.7874 11.6445 30.1878 11.5125 30.5913 11.3933C30.9892 11.276 31.3914 11.1711 31.7957 11.079C32.1993 10.987 32.6079 10.9174 33.0429 10.8325C33.0333 10.9174 33.0322 10.9745 33.0201 11.0287C32.2664 14.4482 30.722 17.4517 28.2932 19.9874C26.8587 21.4852 25.2197 22.7101 23.3702 23.6513C23.3281 23.6727 23.2863 23.6955 23.2456 23.7198C23.2381 23.7244 23.2374 23.7401 23.2246 23.7769C24.8646 23.6945 26.4722 23.8336 28.0435 24.3021C29.6093 24.7691 31.062 25.462 32.4038 26.4503C30.6299 27.52 28.7425 28.1815 26.7074 28.402C24.6698 28.6232 23.0012 28.6147 20.725 27.7189" stroke="#63666A" stroke-width="2.40536" stroke-linecap="round" stroke-linejoin="round"/>
<path d="M17.0967 28.167V32.8702" stroke="#63666A" stroke-width="2.40536" stroke-linecap="round" stroke-linejoin="round"/>
</svg>
