<svg width="28" height="28" viewBox="0 0 28 28" fill="none" xmlns="http://www.w3.org/2000/svg">
<path d="M2.31083 21.0758C5.20262 22.7658 8.2316 23.0962 11.4206 22.029C12.0382 21.8026 13.4484 21.21 14.1484 20.65C14.5684 20.93 16.3068 21.7 17.1234 22.05C18.902 22.75 20.2059 22.7566 21.798 22.5838C23.3882 22.4115 24.863 21.8946 26.249 21.0588C25.2006 20.2865 24.0655 19.7451 22.842 19.3802C21.6143 19.0141 20.3581 18.9054 19.0766 18.9698C19.0866 18.9411 19.0872 18.9288 19.093 18.9252C19.1248 18.9062 19.1574 18.8884 19.1904 18.8717C20.6356 18.1362 21.9162 17.1791 23.0371 16.0088C24.9349 14.0274 26.1417 11.6805 26.7306 9.0086C26.7401 8.96622 26.7409 8.92162 26.7484 8.85526C26.4085 8.92162 26.0893 8.97598 25.7739 9.04791C25.458 9.11984 25.1437 9.2018 24.8328 9.29352C24.5175 9.38664 24.2046 9.48979 23.8957 9.60242C23.5909 9.71366 23.2892 9.83466 22.9923 9.96513C22.6953 10.0956 22.402 10.2361 22.1136 10.385C21.8253 10.5339 21.5412 10.6919 21.2629 10.8592C20.9805 11.0287 20.7036 11.208 20.4323 11.3948C20.1649 11.5791 19.9025 11.7714 19.6474 11.9724C19.3922 12.1734 19.1435 12.3834 18.902 12.6005C18.6606 12.8177 18.4261 13.0435 18.1994 13.2761C17.9693 13.5122 17.7471 13.7561 17.5324 14.0059C17.3208 14.2524 17.1181 14.5066 16.9201 14.7642C16.7241 15.0193 16.5392 15.2828 16.3493 15.5426L16.315 15.5284C16.6181 14.3728 16.8113 13.2002 16.8802 12.0081C16.9494 10.8135 16.9031 9.62389 16.7363 8.43903C16.569 7.25027 16.2827 6.09077 15.8736 4.96195C15.4732 3.85738 14.5542 1.97136 14.3024 1.75C11.7577 6.09217 11.1175 10.6997 12.3132 15.5817C11.1156 13.7924 9.6149 12.3167 7.81391 11.1453C6.00929 9.97126 4.04016 9.22801 1.89844 8.86419C1.90792 8.9311 1.91071 8.97542 1.92074 9.01836C1.97874 9.26174 2.03228 9.50652 2.09836 9.74795C3.03134 13.152 4.94164 15.8705 7.83036 17.9001C8.34732 18.2633 8.89049 18.5845 9.45457 18.87C9.49389 18.8901 9.55105 18.8956 9.5661 18.9687C8.26255 18.8839 6.99274 19.0208 5.74468 19.371C4.62432 19.6852 2.62675 20.6676 2.31083 21.0758Z" stroke="#805574" stroke-width="1.8795" stroke-linecap="round" stroke-linejoin="round"/>
<path d="M14.2891 22.4004V26.0754" stroke="#805574" stroke-width="1.8795" stroke-linecap="round" stroke-linejoin="round"/>
<path fill-rule="evenodd" clip-rule="evenodd" d="M14.1484 20.65C14.5684 20.93 16.3068 21.7 17.1234 22.05C18.902 22.75 20.2059 22.7566 21.798 22.5838C23.3882 22.4115 24.863 21.8946 26.249 21.0588C25.2006 20.2865 24.0655 19.7451 22.842 19.3802C21.6143 19.0141 20.3581 18.9054 19.0766 18.9698C19.0804 18.9589 19.0829 18.9503 19.0847 18.9437C19.0878 18.933 19.0894 18.9274 19.093 18.9252C19.1248 18.9062 19.1574 18.8884 19.1904 18.8717C20.6356 18.1362 21.9162 17.1791 23.0371 16.0088C24.9349 14.0274 26.1417 11.6805 26.7306 9.0086C26.7367 8.98108 26.7393 8.95263 26.7423 8.91789C26.744 8.89913 26.7458 8.87853 26.7484 8.85526C26.644 8.87564 26.5416 8.89489 26.4406 8.91387C26.2128 8.95667 25.9924 8.99807 25.7739 9.04791C25.458 9.11984 25.1437 9.2018 24.8328 9.29352C24.5175 9.38664 24.2046 9.48979 23.8957 9.60242C23.5909 9.71366 23.2892 9.83466 22.9923 9.96513C22.6953 10.0956 22.402 10.2361 22.1136 10.385C21.8253 10.5339 21.5412 10.6919 21.2629 10.8592C20.9805 11.0287 20.7036 11.208 20.4323 11.3948C20.1649 11.5791 19.9025 11.7714 19.6474 11.9724C19.3922 12.1734 19.1435 12.3834 18.902 12.6005C18.6606 12.8177 18.4261 13.0435 18.1994 13.2761C17.9693 13.5122 17.7471 13.7561 17.5324 14.0059C17.3208 14.2524 17.1181 14.5066 16.9201 14.7642C16.7843 14.9409 16.654 15.1215 16.5235 15.3022C16.4656 15.3825 16.4077 15.4627 16.3493 15.5426L16.315 15.5284C16.6181 14.3728 16.8113 13.2002 16.8802 12.0081C16.9494 10.8135 16.9031 9.62389 16.7363 8.43903C16.569 7.25027 16.2827 6.09077 15.8736 4.96195C15.4732 3.85738 14.5542 1.97136 14.3024 1.75C14.2503 1.83893 14.199 1.92797 14.1484 2.01712V20.65Z" fill="#805574"/>
</svg>
