<svg width="29" height="28" viewBox="0 0 29 28" fill="none" xmlns="http://www.w3.org/2000/svg">
<path d="M2.31279 21.0758C5.20458 22.7658 8.23356 23.0962 11.4226 22.029C12.0402 21.8026 13.4504 21.21 14.1504 20.65C14.5704 20.93 16.3087 21.7 17.1254 22.05C18.904 22.75 20.2078 22.7566 21.8 22.5838C23.3902 22.4115 24.8649 21.8946 26.251 21.0588C25.2026 20.2865 24.0674 19.7451 22.8439 19.3802C21.6162 19.0141 20.3601 18.9054 19.0785 18.9698C19.0886 18.9411 19.0891 18.9288 19.095 18.9252C19.1268 18.9062 19.1594 18.8884 19.1923 18.8717C20.6375 18.1362 21.9182 17.1791 23.0391 16.0088C24.9368 14.0274 26.1436 11.6805 26.7325 9.0086C26.742 8.96622 26.7429 8.92162 26.7504 8.85526C26.4105 8.92162 26.0912 8.97598 25.7759 9.04791C25.4599 9.11984 25.1457 9.2018 24.8348 9.29352C24.5194 9.38664 24.2066 9.48979 23.8976 9.60242C23.5929 9.71366 23.2912 9.83466 22.9942 9.96513C22.6973 10.0956 22.4039 10.2361 22.1156 10.385C21.8273 10.5339 21.5432 10.6919 21.2649 10.8592C20.9824 11.0287 20.7055 11.208 20.4342 11.3948C20.1668 11.5791 19.9044 11.7714 19.6493 11.9724C19.3942 12.1734 19.1455 12.3834 18.904 12.6005C18.6625 12.8177 18.428 13.0435 18.2013 13.2761C17.9713 13.5122 17.7491 13.7561 17.5344 14.0059C17.3227 14.2524 17.12 14.5066 16.922 14.7642C16.726 15.0193 16.5411 15.2828 16.3513 15.5426L16.317 15.5284C16.6201 14.3728 16.8133 13.2002 16.8822 12.0081C16.9513 10.8135 16.905 9.62389 16.7383 8.43903C16.571 7.25027 16.2846 6.09077 15.8756 4.96195C15.4752 3.85738 14.5561 1.97136 14.3043 1.75C11.7597 6.09217 11.1195 10.6997 12.3151 15.5817C11.1175 13.7924 9.61685 12.3167 7.81586 11.1453C6.01125 9.97126 4.04212 9.22801 1.90039 8.86419C1.90987 8.9311 1.91266 8.97542 1.9227 9.01836C1.98069 9.26174 2.03423 9.50652 2.10031 9.74795C3.03329 13.152 4.94359 15.8705 7.83231 17.9001C8.34927 18.2633 8.89244 18.5845 9.45652 18.87C9.49584 18.8901 9.553 18.8956 9.56806 18.9687C8.26451 18.8839 6.99469 19.0208 5.74663 19.371C4.62628 19.6852 2.62871 20.6676 2.31279 21.0758Z" fill="#B87E47" stroke="#B87E47" stroke-width="1.8795" stroke-linecap="round" stroke-linejoin="round"/>
<path d="M14.291 22.4004V26.0754" stroke="#B87E47" stroke-width="1.8795" stroke-linecap="round" stroke-linejoin="round"/>
</svg>
