<svg width="26" height="29" viewBox="0 0 26 29" fill="none" xmlns="http://www.w3.org/2000/svg">
<path d="M7.90481 27.2916V23.5458C7.79383 23.5585 7.71868 23.5608 7.64585 23.5764C7.37359 23.6342 7.10423 23.7116 6.82967 23.7498C6.53718 23.7896 6.23429 23.8434 5.94528 23.8035C4.72563 23.6359 3.92852 22.698 3.92216 21.4602C3.9187 20.5951 3.92216 19.7317 3.92216 18.8649V18.0223C3.79558 18.016 3.70136 18.0085 3.60772 18.0062C3.30945 18.0021 3.01119 18.0137 2.7135 18.0021C2.08865 17.9773 1.63084 17.5843 1.51871 16.9897C1.46032 16.6799 1.55339 16.4031 1.69905 16.1344C2.39558 14.852 3.08806 13.5668 3.78748 12.2857C3.87749 12.1172 3.92771 11.9304 3.9343 11.7396C3.95123 11.327 3.99118 10.9156 4.05396 10.5075C4.47419 8.04859 5.61117 5.97803 7.53776 4.3819C10.1481 2.21887 13.1447 1.52368 16.425 2.31827C21.5232 3.55321 24.7776 8.46987 23.9903 13.6425C23.6683 15.7466 22.7608 17.5751 21.2735 19.0984C20.4909 19.8999 20.1053 20.8285 20.1175 21.9485C20.136 23.6111 20.1227 25.2737 20.1227 26.9368V27.2916" stroke="#B87E47" stroke-width="2.34896" stroke-miterlimit="10" stroke-linecap="round" stroke-linejoin="round"/>
</svg>
