<svg width="28" height="29" viewBox="0 0 28 29" fill="none" xmlns="http://www.w3.org/2000/svg">
<mask id="path-1-outside-1_3410_10919" maskUnits="userSpaceOnUse" x="8.42188" y="22.0713" width="18" height="7" fill="black">
<rect fill="white" x="8.42188" y="22.0713" width="18" height="7"/>
<path d="M23.918 25.2514C24.0838 25.6658 24.0883 25.9864 23.9316 26.2039C23.7467 26.4598 23.1329 26.89 21.0978 26.89C19.622 26.89 17.6578 26.6581 15.2591 26.2001C13.5265 25.8695 12.6866 25.5739 11.9436 25.3137C11.5919 25.1896 11.2579 25.0741 10.8716 24.9673C10.5762 24.8868 10.4004 24.7301 10.424 24.5686C10.4526 24.377 10.7947 24.0713 11.5919 24.0713C12.0556 24.0713 12.5916 24.1724 13.1839 24.3722C14.289 24.743 15.5771 24.9242 17.1283 24.9242C18.1219 24.9242 19.1151 24.8513 19.9917 24.7881C20.7452 24.733 21.458 24.6812 22.0669 24.6812C23.5046 24.6812 23.811 24.986 23.9175 25.2514H23.918Z"/>
</mask>
<path d="M23.918 25.2514L25.6628 24.5535C25.3774 23.8401 24.6864 23.3722 23.918 23.3722V25.2514ZM23.9316 26.2039L25.4548 27.3045L25.4562 27.3024L23.9316 26.2039ZM15.2591 26.2001L15.6115 24.3543L15.6113 24.3542L15.2591 26.2001ZM11.9436 25.3137L11.3182 27.0857L11.3225 27.0873L11.9436 25.3137ZM10.8716 24.9673L11.3725 23.1561L11.3657 23.1542L10.8716 24.9673ZM10.424 24.5686L8.56544 24.291L8.56459 24.2967L10.424 24.5686ZM13.1839 24.3722L12.5832 26.1528L12.5861 26.1537L13.1839 24.3722ZM19.9917 24.7881L20.1269 26.6624L20.1287 26.6622L19.9917 24.7881ZM23.9175 25.2514L22.1735 25.9511L22.6467 27.1306H23.9175V25.2514ZM22.1732 25.9493C22.2021 26.0214 22.1688 25.9708 22.1668 25.8282C22.1644 25.6634 22.2069 25.383 22.4069 25.1054L25.4562 27.3024C26.1875 26.2875 25.9054 25.16 25.6628 24.5535L22.1732 25.9493ZM22.4084 25.1034C22.6139 24.819 22.8003 24.7999 22.6296 24.8552C22.4499 24.9133 22.0002 25.0109 21.0978 25.0109V28.7692C23.2197 28.7692 24.6959 28.3548 25.4548 27.3045L22.4084 25.1034ZM21.0978 25.0109C19.7916 25.0109 17.9586 24.8025 15.6115 24.3543L14.9066 28.0459C17.3569 28.5138 19.4523 28.7692 21.0978 28.7692V25.0109ZM15.6113 24.3542C14.0022 24.0472 13.2575 23.7827 12.5646 23.5401L11.3225 27.0873C12.1156 27.365 13.0508 27.6918 14.9069 28.0459L15.6113 24.3542ZM12.569 23.5416C12.2123 23.4158 11.826 23.2815 11.3725 23.1561L10.3706 26.7784C10.6897 26.8667 10.9716 26.9634 11.3182 27.0857L12.569 23.5416ZM11.3657 23.1542C11.3982 23.1631 11.5731 23.2125 11.7781 23.3951C11.9844 23.5789 12.3942 24.0825 12.2834 24.8405L8.56459 24.2967C8.43014 25.2162 8.91608 25.8789 9.27824 26.2015C9.63908 26.5229 10.0496 26.691 10.3775 26.7803L11.3657 23.1542ZM12.2825 24.8463C12.2224 25.2489 12.0371 25.5142 11.922 25.646C11.7955 25.7909 11.6739 25.869 11.6021 25.9072C11.4571 25.9844 11.422 25.9505 11.5919 25.9505V22.1921C10.9646 22.1921 10.3599 22.3111 9.83742 22.5889C9.40225 22.8204 8.70593 23.3507 8.56545 24.291L12.2825 24.8463ZM11.5919 25.9505C11.7948 25.9505 12.1224 25.9973 12.5832 26.1528L13.7846 22.5916C13.0608 22.3475 12.3164 22.1921 11.5919 22.1921V25.9505ZM12.5861 26.1537C13.9347 26.6063 15.4354 26.8033 17.1283 26.8033V23.045C15.7187 23.045 14.6434 22.8798 13.7817 22.5906L12.5861 26.1537ZM17.1283 26.8033C18.201 26.8033 19.262 26.7248 20.1269 26.6624L19.8565 22.9138C18.9682 22.9779 18.0428 23.045 17.1283 23.045V26.8033ZM20.1287 26.6622C20.9016 26.6057 21.5405 26.5604 22.0669 26.5604V22.8021C21.3755 22.8021 20.5888 22.8602 19.8546 22.9139L20.1287 26.6622ZM22.0669 26.5604C22.3639 26.5604 22.5618 26.5764 22.6858 26.5938C22.8125 26.6117 22.8309 26.6267 22.7851 26.6082C22.7317 26.5865 22.6012 26.5228 22.4596 26.3818C22.311 26.2339 22.2222 26.0726 22.1735 25.9511L25.6616 24.5517C25.4142 23.9353 24.9304 23.4226 24.1977 23.1254C23.5956 22.8812 22.8745 22.8021 22.0669 22.8021V26.5604ZM23.9175 27.1306H23.918V23.3722H23.9175V27.1306Z" fill="#758067" mask="url(#path-1-outside-1_3410_10919)"/>
<path d="M14.4162 8.5681H14.4152C13.8113 8.5681 13.2209 8.38901 12.7187 8.05347C12.2166 7.71793 11.8252 7.24102 11.594 6.68303C11.3629 6.12505 11.3024 5.51107 11.4203 4.91872C11.5381 4.32637 11.8289 3.78226 12.256 3.3552C12.683 2.92814 13.2271 2.63731 13.8195 2.51948C14.4118 2.40166 15.0258 2.46213 15.5838 2.69325C16.1418 2.92438 16.6187 3.31577 16.9542 3.81794C17.2898 4.32011 17.4689 4.9105 17.4689 5.51445L17.4689 5.51543C17.468 6.32479 17.1462 7.10076 16.5738 7.67307C16.0015 8.24537 15.2256 8.56726 14.4162 8.5681Z" stroke="#758067" stroke-width="1.87917"/>
<path d="M24.5062 26.8945C24.5739 26.804 24.6526 26.7076 24.7003 26.6491C24.7183 26.627 24.7319 26.6103 24.7388 26.6015C24.8006 26.5222 24.8418 26.4587 24.8767 26.3784C24.9472 26.2157 25.0474 25.8525 24.9872 24.9928C24.9737 24.8002 24.9123 24.5866 24.7426 24.3821C24.5717 24.1762 24.2342 23.9113 23.5523 23.7165C23.295 23.643 22.8967 23.5943 22.4665 23.5719C22.0481 23.5501 21.6687 23.5564 21.4834 23.568C21.4638 23.5692 21.4442 23.5698 21.4246 23.5698C21.3088 23.5698 21.1062 23.5905 20.8931 23.6238C20.8218 23.6349 20.7559 23.6464 20.6998 23.6572C20.5739 23.7188 20.4333 23.7527 20.287 23.7527C20.2596 23.7527 20.204 23.752 20.1384 23.7434C20.1069 23.7393 20.0446 23.7298 19.9699 23.7062L19.9697 23.7061C19.923 23.6913 19.7269 23.6293 19.5559 23.4423C19.5262 23.4099 19.4965 23.3727 19.4685 23.3309C18.0106 21.8614 17.9938 19.7969 18.049 18.3406C18.0642 17.9377 18.3349 17.5895 18.7215 17.4752C19.1082 17.3608 19.5246 17.506 19.7565 17.8358C21.9545 20.9622 24.2607 21.5753 25.1272 21.7002L24.5062 26.8945ZM24.5062 26.8945C23.8678 27.4989 22.9434 27.7232 20.7643 27.7232C19.4085 27.7232 17.6539 27.5364 15.5339 27.1535C15.3641 27.1228 15.1894 27.1395 15.0289 27.2014L13.758 27.3183L13.7577 27.3183C11.2049 27.5539 9.10701 27.7465 7.43036 27.7465C6.42433 27.7465 5.61977 27.6762 4.99169 27.5233C4.36699 27.3712 3.97444 27.1513 3.725 26.8932L3.72295 26.8911C3.40469 26.5638 3.22131 26.0767 3.31116 25.3018L3.3112 25.3018L3.31218 25.2925C3.33092 25.1157 3.3872 24.9453 3.47681 24.7931C3.56642 24.641 3.6871 24.5107 3.83017 24.4109L3.83022 24.4109L3.84003 24.4039C4.25451 24.1066 4.92824 23.9449 5.7498 23.9118C6.5439 23.8799 7.3399 23.9726 7.87997 24.0598C8.20376 24.1121 8.5314 23.9918 8.74438 23.7424C10.3434 21.8696 10.2637 19.4077 10.0215 17.914C9.9603 17.5368 9.67668 17.2341 9.30414 17.1487C8.93161 17.0632 8.54442 17.2119 8.32488 17.5247C6.83787 19.6439 4.97761 20.8272 2.76503 21.146L24.5062 26.8945ZM2.76487 21.146C1.68251 21.3008 1.09869 20.6278 1.03394 20.1726L1.03397 20.1726L1.03286 20.1652C1.01848 20.0696 1.0253 19.972 1.05272 19.8795C1.11501 19.6695 1.19776 19.4022 1.26976 19.2134C1.4584 18.8602 1.55394 18.6888 1.66806 18.5592C1.74386 18.4731 1.84008 18.3928 2.05142 18.3227C3.99308 18.0134 6.3233 16.5271 7.86408 13.4195L7.86411 13.4195C8.46242 12.2125 9.74274 11.5557 11.0911 11.2176C12.3145 10.9108 13.4124 10.9144 13.6224 10.9184C13.7432 10.9423 13.8675 10.9423 13.9883 10.9183C14.1868 10.914 15.3677 10.9063 16.677 11.2198C18.1104 11.563 19.4408 12.227 20.0319 13.4195L20.0319 13.4195C21.6892 16.7621 23.9706 18.5477 25.8129 18.8684C25.8478 18.8777 25.8834 18.885 25.9195 18.8902C26.1465 18.923 26.4044 19.1119 26.6202 19.5768C26.8369 20.0433 26.8854 20.5361 26.8582 20.7288C26.8225 20.9785 26.6583 21.2598 26.3498 21.464L26.349 21.4645C26.0418 21.6682 25.6132 21.7697 25.1274 21.7002L2.76487 21.146Z" stroke="#758067" stroke-width="1.87917" stroke-linejoin="round"/>
</svg>
