<svg width="24" height="24" viewBox="0 0 24 24" fill="none" xmlns="http://www.w3.org/2000/svg">
<path d="M21.7625 13.4749C21.6134 13.3481 21.4327 13.2669 21.241 13.2406C21.0493 13.2143 20.8542 13.2439 20.6781 13.3261C19.4006 13.924 17.998 14.1833 16.5982 14.0804C15.1983 13.9774 13.8458 13.5156 12.6639 12.7368C11.4821 11.9581 10.5084 10.8873 9.83185 9.62207C9.15526 8.35685 8.79722 6.93747 8.7904 5.49336C8.78904 4.77646 8.87579 4.06227 9.0486 3.36778C9.084 3.18236 9.07072 2.99059 9.01013 2.81221C8.94954 2.63383 8.84383 2.4753 8.70389 2.35296C8.56395 2.23061 8.39484 2.14887 8.21398 2.11615C8.03312 2.08343 7.84706 2.10093 7.67496 2.16683C6.05665 2.91623 4.64994 4.07651 3.5869 5.53875C2.52385 7.00099 1.83934 8.71723 1.59761 10.5263C1.35589 12.3354 1.56488 14.1781 2.20497 15.8813C2.84506 17.5845 3.89526 19.0924 5.25697 20.2634C6.61868 21.4345 8.24723 22.2302 9.98976 22.576C11.7323 22.9218 13.5316 22.8062 15.2188 22.2402C16.9061 21.6742 18.4258 20.6762 19.6355 19.3401C20.8451 18.0039 21.705 16.3733 22.1343 14.6015C22.1886 14.3969 22.1822 14.1804 22.116 13.9796C22.0497 13.7789 21.9266 13.6031 21.7625 13.4749Z" stroke="#758067" stroke-width="2.34896" stroke-miterlimit="10"/>
</svg>
