<svg width="28" height="28" viewBox="0 0 28 28" fill="none" xmlns="http://www.w3.org/2000/svg">
<path d="M26.0643 14.8703C25.8877 14.7201 25.6737 14.624 25.4466 14.5928C25.2195 14.5617 24.9884 14.5968 24.7798 14.6941C23.2666 15.4023 21.6052 15.7094 19.9471 15.5875C18.2891 15.4656 16.687 14.9185 15.2871 13.9961C13.8872 13.0737 12.7339 11.8053 11.9325 10.3067C11.1311 8.80805 10.707 7.12681 10.6989 5.41626C10.6973 4.56711 10.8 3.72115 11.0047 2.89853C11.0467 2.67891 11.0309 2.45175 10.9592 2.24046C10.8874 2.02918 10.7622 1.8414 10.5964 1.69648C10.4307 1.55156 10.2304 1.45474 10.0161 1.41599C9.80191 1.37723 9.58152 1.39795 9.37767 1.47601C7.4608 2.36367 5.79456 3.73802 4.53539 5.47003C3.27622 7.20205 2.46542 9.23491 2.1791 11.3778C1.89277 13.5207 2.14033 15.7033 2.89851 17.7207C3.65669 19.7381 4.90064 21.5242 6.51357 22.9113C8.12651 24.2984 10.0555 25.241 12.1195 25.6505C14.1835 26.0601 16.3148 25.9232 18.3133 25.2528C20.3118 24.5823 22.112 23.4003 23.5448 21.8176C24.9777 20.2349 25.9961 18.3035 26.5047 16.2047C26.569 15.9625 26.5614 15.706 26.4829 15.4682C26.4045 15.2304 26.2587 15.0222 26.0643 14.8703Z" stroke="#63666A" stroke-width="2.48743" stroke-miterlimit="10"/>
</svg>
