<svg width="28" height="28" viewBox="0 0 28 28" fill="none" xmlns="http://www.w3.org/2000/svg">
<path d="M1.81279 21.0758C4.70458 22.7658 7.73356 23.0962 10.9226 22.029C11.5402 21.8026 12.9504 21.21 13.6504 20.65C14.0704 20.93 15.8087 21.7 16.6254 22.05C18.404 22.75 19.7078 22.7566 21.3 22.5838C22.8902 22.4115 24.3649 21.8946 25.751 21.0588C24.7026 20.2865 23.5674 19.7451 22.3439 19.3802C21.1162 19.0141 19.8601 18.9054 18.5785 18.9698C18.5886 18.9411 18.5891 18.9288 18.595 18.9252C18.6268 18.9062 18.6594 18.8884 18.6923 18.8717C20.1375 18.1362 21.4182 17.1791 22.5391 16.0088C24.4368 14.0274 25.6436 11.6805 26.2325 9.0086C26.242 8.96622 26.2429 8.92162 26.2504 8.85526C25.9105 8.92162 25.5912 8.97598 25.2759 9.04791C24.9599 9.11984 24.6457 9.2018 24.3348 9.29352C24.0194 9.38664 23.7066 9.48979 23.3976 9.60242C23.0929 9.71366 22.7912 9.83466 22.4942 9.96513C22.1973 10.0956 21.9039 10.2361 21.6156 10.385C21.3273 10.5339 21.0432 10.6919 20.7649 10.8592C20.4824 11.0287 20.2055 11.208 19.9342 11.3948C19.6668 11.5791 19.4044 11.7714 19.1493 11.9724C18.8942 12.1734 18.6455 12.3834 18.404 12.6005C18.1625 12.8177 17.928 13.0435 17.7013 13.2761C17.4713 13.5122 17.2491 13.7561 17.0344 14.0059C16.8227 14.2524 16.62 14.5066 16.422 14.7642C16.226 15.0193 16.0411 15.2828 15.8513 15.5426L15.817 15.5284C16.1201 14.3728 16.3133 13.2002 16.3822 12.0081C16.4513 10.8135 16.405 9.62389 16.2383 8.43903C16.071 7.25027 15.7846 6.09077 15.3756 4.96195C14.9752 3.85738 14.0561 1.97136 13.8043 1.75C11.2597 6.09217 10.6195 10.6997 11.8151 15.5817C10.6175 13.7924 9.11685 12.3167 7.31586 11.1453C5.51125 9.97126 3.54212 9.22801 1.40039 8.86419C1.40987 8.9311 1.41266 8.97542 1.4227 9.01836C1.48069 9.26174 1.53423 9.50652 1.60031 9.74795C2.53329 13.152 4.44359 15.8705 7.33231 17.9001C7.84927 18.2633 8.39244 18.5845 8.95652 18.87C8.99584 18.8901 9.053 18.8956 9.06806 18.9687C7.76451 18.8839 6.49469 19.0208 5.24663 19.371C4.12628 19.6852 2.12871 20.6676 1.81279 21.0758Z" stroke="#805574" stroke-width="1.8795" stroke-linecap="round" stroke-linejoin="round"/>
<path d="M13.791 22.4004V26.0754" stroke="#805574" stroke-width="1.8795" stroke-linecap="round" stroke-linejoin="round"/>
</svg>
