<svg width="198" height="199" viewBox="0 0 198 199" fill="none" xmlns="http://www.w3.org/2000/svg">
<g clip-path="url(#clip0_3408_11008)">
<mask id="path-1-inside-1_3408_11008" fill="white">
<path d="M15.1663 98.9729C6.81419 98.9729 -0.0748829 105.783 1.19949 114.037C2.75269 124.097 5.85722 133.887 10.4289 143.05C17.259 156.74 27.177 168.654 39.4002 177.854C51.6235 187.054 65.8175 193.288 80.8624 196.063C90.9326 197.921 101.2 198.195 111.297 196.903C119.581 195.844 124.219 187.339 121.907 179.314L118.147 166.257C115.836 158.231 107.393 153.827 99.0406 153.867C95.6217 153.884 92.1977 153.582 88.8137 152.957C80.4485 151.414 72.5562 147.948 65.7598 142.833C58.9634 137.717 53.4488 131.093 49.6511 123.481C48.1148 120.402 46.8765 117.195 45.9465 113.905C43.6746 105.868 37.1059 98.9729 28.7538 98.9729L15.1663 98.9729Z"/>
</mask>
<path d="M15.1663 98.9729C6.81419 98.9729 -0.0748829 105.783 1.19949 114.037C2.75269 124.097 5.85722 133.887 10.4289 143.05C17.259 156.74 27.177 168.654 39.4002 177.854C51.6235 187.054 65.8175 193.288 80.8624 196.063C90.9326 197.921 101.2 198.195 111.297 196.903C119.581 195.844 124.219 187.339 121.907 179.314L118.147 166.257C115.836 158.231 107.393 153.827 99.0406 153.867C95.6217 153.884 92.1977 153.582 88.8137 152.957C80.4485 151.414 72.5562 147.948 65.7598 142.833C58.9634 137.717 53.4488 131.093 49.6511 123.481C48.1148 120.402 46.8765 117.195 45.9465 113.905C43.6746 105.868 37.1059 98.9729 28.7538 98.9729L15.1663 98.9729Z" fill="#A7D7C4" stroke="black" stroke-opacity="0.08" stroke-width="3" mask="url(#path-1-inside-1_3408_11008)"/>
<mask id="path-2-inside-2_3408_11008" fill="white">
<path d="M127.088 177.637C129.916 185.496 138.657 189.671 145.992 185.677C153.591 181.538 160.613 176.418 166.878 170.449C172.924 164.688 171.622 155.089 165.006 149.992L154.241 141.701C147.625 136.604 138.213 138.058 131.509 143.039C131.245 143.234 130.98 143.428 130.713 143.619C123.92 148.478 119.657 156.994 122.486 164.853L127.088 177.637Z"/>
</mask>
<path d="M127.088 177.637C129.916 185.496 138.657 189.671 145.992 185.677C153.591 181.538 160.613 176.418 166.878 170.449C172.924 164.688 171.622 155.089 165.006 149.992L154.241 141.701C147.625 136.604 138.213 138.058 131.509 143.039C131.245 143.234 130.98 143.428 130.713 143.619C123.92 148.478 119.657 156.994 122.486 164.853L127.088 177.637Z" fill="#D9D9D9" stroke="black" stroke-opacity="0.08" stroke-width="3" mask="url(#path-2-inside-2_3408_11008)"/>
<mask id="path-3-inside-3_3408_11008" fill="white">
<path d="M168.135 145.648C175.064 150.311 184.582 148.508 188.133 140.948C192.1 132.502 194.861 123.512 196.312 114.242C197.763 104.972 197.882 95.5686 196.685 86.3138C195.614 78.0306 187.103 73.405 179.081 75.7272L166.029 79.5051C158.006 81.8273 153.613 90.277 153.666 98.6289C153.684 101.578 153.465 104.533 153.006 107.463C152.548 110.393 151.854 113.273 150.935 116.076C148.333 124.012 149.933 133.4 156.862 138.063L168.135 145.648Z"/>
</mask>
<path d="M168.135 145.648C175.064 150.311 184.582 148.508 188.133 140.948C192.1 132.502 194.861 123.512 196.312 114.242C197.763 104.972 197.882 95.5686 196.685 86.3138C195.614 78.0306 187.103 73.405 179.081 75.7272L166.029 79.5051C158.006 81.8273 153.613 90.277 153.666 98.6289C153.684 101.578 153.465 104.533 153.006 107.463C152.548 110.393 151.854 113.273 150.935 116.076C148.333 124.012 149.933 133.4 156.862 138.063L168.135 145.648Z" fill="#D8D2DF" stroke="black" stroke-opacity="0.08" stroke-width="3" mask="url(#path-3-inside-3_3408_11008)"/>
<mask id="path-4-inside-4_3408_11008" fill="white">
<path d="M177.399 70.5541C185.254 67.7151 189.418 58.9691 185.414 51.6395C178.471 38.9321 168.787 27.8506 156.993 19.2389C145.2 10.6271 131.696 4.77653 117.478 2.03292C109.277 0.450417 102.214 7.07981 101.902 15.426L101.393 29.0041C101.08 37.3503 107.725 44.1725 115.671 46.7438C121.185 48.5279 126.412 51.1837 131.144 54.639C135.876 58.0942 139.997 62.2645 143.376 66.9735C148.244 73.7598 156.766 78.0117 164.621 75.1727L177.399 70.5541Z"/>
</mask>
<path d="M177.399 70.5541C185.254 67.7151 189.418 58.9691 185.414 51.6395C178.471 38.9321 168.787 27.8506 156.993 19.2389C145.2 10.6271 131.696 4.77653 117.478 2.03292C109.277 0.450417 102.214 7.07981 101.902 15.426L101.393 29.0041C101.08 37.3503 107.725 44.1725 115.671 46.7438C121.185 48.5279 126.412 51.1837 131.144 54.639C135.876 58.0942 139.997 62.2645 143.376 66.9735C148.244 73.7598 156.766 78.0117 164.621 75.1727L177.399 70.5541Z" fill="#EBCDD0" stroke="black" stroke-opacity="0.08" stroke-width="3" mask="url(#path-4-inside-4_3408_11008)"/>
<mask id="path-5-inside-5_3408_11008" fill="white">
<path d="M96.737 15.3922C96.5337 7.04258 89.5579 0.32107 81.3371 1.79595C62.0316 5.25953 44.071 14.4224 29.8619 28.2714C15.6528 42.1205 6.03206 59.84 2.07421 79.0503C0.388845 87.2305 6.92914 94.3765 15.2708 94.794L28.8414 95.4731C37.183 95.8906 44.088 89.332 46.7589 81.4186C49.5159 73.2506 54.1814 65.7771 60.4563 59.6613C66.7312 53.5454 74.3219 49.0732 82.5579 46.5268C90.5373 44.0597 97.2709 37.3253 97.0677 28.9757L96.737 15.3922Z"/>
</mask>
<path d="M96.737 15.3922C96.5337 7.04258 89.5579 0.32107 81.3371 1.79595C62.0316 5.25953 44.071 14.4224 29.8619 28.2714C15.6528 42.1205 6.03206 59.84 2.07421 79.0503C0.388845 87.2305 6.92914 94.3765 15.2708 94.794L28.8414 95.4731C37.183 95.8906 44.088 89.332 46.7589 81.4186C49.5159 73.2506 54.1814 65.7771 60.4563 59.6613C66.7312 53.5454 74.3219 49.0732 82.5579 46.5268C90.5373 44.0597 97.2709 37.3253 97.0677 28.9757L96.737 15.3922Z" fill="#FEEDA6" stroke="black" stroke-opacity="0.08" stroke-width="3" mask="url(#path-5-inside-5_3408_11008)"/>
<path d="M59.6198 77.4479L65.2118 77.4479C65.2838 77.4479 65.3198 77.5799 65.3198 77.8439L65.3198 77.9879C65.3198 78.2599 65.2838 78.3959 65.2118 78.3959L62.9798 78.3959L62.9798 85.9559C62.9798 86.0439 62.8078 86.0879 62.4638 86.0879L62.3318 86.0879C62.0038 86.0879 61.8398 86.0439 61.8398 85.9559L61.8398 78.3959L59.6198 78.3959C59.5478 78.3959 59.5118 78.2599 59.5118 77.9879L59.5118 77.8439C59.5118 77.5799 59.5478 77.4479 59.6198 77.4479ZM68.1218 79.6319C68.8738 79.6319 69.4738 79.8319 69.9218 80.2319C70.5538 80.7919 70.8698 81.6399 70.8698 82.7759C70.8698 83.8879 70.6018 84.7399 70.0658 85.3319C69.5298 85.9159 68.8018 86.2079 67.8818 86.2079C67.1298 86.2079 66.5298 86.0079 66.0818 85.6079C65.4498 85.0479 65.1338 84.1999 65.1338 83.0639C65.1338 81.9519 65.4018 81.1039 65.9378 80.5199C66.4738 79.9279 67.2018 79.6319 68.1218 79.6319ZM68.0738 80.5919C67.5458 80.5919 67.1098 80.7879 66.7658 81.1799C66.4298 81.5719 66.2618 82.1719 66.2618 82.9799C66.2618 83.3799 66.3058 83.7399 66.3938 84.0599C66.4818 84.3799 66.6578 84.6599 66.9218 84.8999C67.1858 85.1319 67.5218 85.2479 67.9298 85.2479C68.4578 85.2479 68.8898 85.0519 69.2258 84.6599C69.5698 84.2679 69.7418 83.6679 69.7418 82.8599C69.7418 82.4599 69.6978 82.0999 69.6098 81.7799C69.5218 81.4599 69.3458 81.1839 69.0818 80.9519C68.8178 80.7119 68.4818 80.5919 68.0738 80.5919ZM73.0941 77.9759L73.1661 77.9759C73.3181 77.9759 73.4301 77.9839 73.5021 77.9999C73.5821 78.0079 73.6261 78.0239 73.6341 78.0479C73.6501 78.0639 73.6581 78.0879 73.6581 78.1199L73.6581 79.7519L75.1701 79.7519C75.2421 79.7519 75.2781 79.8759 75.2781 80.1239L75.2781 80.2199C75.2781 80.4759 75.2421 80.6039 75.1701 80.6039L73.6581 80.6039L73.6581 84.1439C73.6581 84.6239 73.7221 84.9319 73.8501 85.0679C73.9861 85.2119 74.1901 85.2839 74.4621 85.2839C74.6621 85.2839 74.9341 85.2319 75.2781 85.1279C75.3341 85.1119 75.3741 85.1199 75.3981 85.1519C75.4301 85.1839 75.4621 85.2559 75.4941 85.3679L75.5301 85.5239C75.5781 85.7319 75.5661 85.8599 75.4941 85.9079C75.1821 86.1079 74.7621 86.2079 74.2341 86.2079C73.7141 86.2079 73.3141 86.0759 73.0341 85.8119C72.7301 85.5319 72.5781 85.0039 72.5781 84.2279L72.5781 80.6039L71.8221 80.6039C71.7501 80.6039 71.7141 80.4759 71.7141 80.2199L71.7141 80.1239C71.7141 79.8759 71.7501 79.7519 71.8221 79.7519L72.5781 79.7519L72.5781 78.1199C72.5781 78.0799 72.5861 78.0519 72.6021 78.0359C72.6261 78.0199 72.6741 78.0079 72.7461 77.9999C72.8261 77.9839 72.9421 77.9759 73.0941 77.9759ZM81.2089 79.7519L81.2329 79.7519C81.3769 79.7519 81.4849 79.7599 81.5569 79.7759C81.6289 79.7839 81.6689 79.7959 81.6769 79.8119C81.6929 79.8279 81.7009 79.8559 81.7009 79.8959C81.7009 79.9519 81.6969 80.1959 81.6889 80.6279C81.6809 81.0599 81.6769 81.4239 81.6769 81.7199L81.6769 83.3999C81.6769 84.0719 81.7049 84.9199 81.7609 85.9439C81.7609 86.0399 81.6169 86.0879 81.3289 86.0879L81.2809 86.0879C80.9849 86.0879 80.8329 86.0399 80.8249 85.9439L80.7529 85.3919C80.5529 85.6319 80.2889 85.8279 79.9609 85.9799C79.6329 86.1319 79.2809 86.2079 78.9049 86.2079C78.0729 86.2079 77.4369 85.9079 76.9969 85.3079C76.5569 84.7079 76.3369 83.9479 76.3369 83.0279C76.3369 82.0119 76.5969 81.1919 77.1169 80.5679C77.6369 79.9439 78.2969 79.6319 79.0969 79.6319C79.7769 79.6319 80.3169 79.8879 80.7169 80.3999L80.7769 79.8959C80.7849 79.8239 80.8089 79.7839 80.8489 79.7759C80.8969 79.7599 81.0169 79.7519 81.2089 79.7519ZM80.5969 83.1239L80.5969 81.4199C80.4529 81.1879 80.2529 80.9959 79.9969 80.8439C79.7489 80.6839 79.4889 80.6039 79.2169 80.6039C78.6729 80.6039 78.2449 80.8159 77.9329 81.2399C77.6209 81.6639 77.4649 82.2399 77.4649 82.9679C77.4649 83.6159 77.5929 84.1599 77.8489 84.5999C78.1129 85.0319 78.5289 85.2479 79.0969 85.2479C79.6089 85.2479 80.0089 85.0919 80.2969 84.7799C80.4169 84.6439 80.4969 84.4679 80.5369 84.2519C80.5769 84.0359 80.5969 83.6599 80.5969 83.1239ZM83.9135 76.9679L83.9855 76.9679C84.1695 76.9679 84.2935 76.9799 84.3575 77.0039C84.4215 77.0199 84.4615 77.0599 84.4775 77.1239C84.5255 77.3959 84.5495 78.5799 84.5495 80.6759L84.5495 84.6599C84.5495 84.8919 84.5775 85.0519 84.6335 85.1399C84.6895 85.2199 84.8135 85.2599 85.0055 85.2599L85.1255 85.2599C85.1735 85.2599 85.1975 85.3679 85.1975 85.5839L85.1975 85.6199C85.1975 85.8599 85.1735 85.9879 85.1255 86.0039C84.9495 86.0679 84.7615 86.0999 84.5615 86.0999C84.1535 86.0999 83.8575 85.9639 83.6735 85.6919C83.5375 85.4919 83.4695 85.0719 83.4695 84.4319L83.4695 80.4119C83.4695 78.5959 83.4455 77.4999 83.3975 77.1239C83.3895 77.0679 83.4215 77.0279 83.4935 77.0039C83.5655 76.9799 83.7055 76.9679 83.9135 76.9679ZM88.9518 77.4479L94.5438 77.4479C94.6158 77.4479 94.6518 77.5799 94.6518 77.8439L94.6518 77.9879C94.6518 78.2599 94.6158 78.3959 94.5438 78.3959L92.3118 78.3959L92.3118 85.9559C92.3118 86.0439 92.1398 86.0879 91.7958 86.0879L91.6638 86.0879C91.3358 86.0879 91.1718 86.0439 91.1718 85.9559L91.1718 78.3959L88.9518 78.3959C88.8798 78.3959 88.8438 78.2599 88.8438 77.9879L88.8438 77.8439C88.8438 77.5799 88.8798 77.4479 88.9518 77.4479ZM99.8178 83.3039L95.5938 83.3039C95.6338 83.9919 95.8338 84.4879 96.1938 84.7919C96.5218 85.0799 96.9938 85.2239 97.6098 85.2239C98.1058 85.2239 98.6338 85.0959 99.1938 84.8399C99.2418 84.7999 99.2898 84.7959 99.3378 84.8279C99.3858 84.8519 99.4378 84.9319 99.4938 85.0679L99.5538 85.2119C99.6578 85.4519 99.6658 85.5999 99.5778 85.6559C98.9538 86.0239 98.2298 86.2079 97.4058 86.2079C96.4538 86.2079 95.7258 85.9319 95.2218 85.3799C94.7178 84.8199 94.4658 84.0479 94.4658 83.0639C94.4658 82.0399 94.7258 81.2119 95.2458 80.5799C95.7658 79.9479 96.4658 79.6319 97.3458 79.6319C98.3698 79.6319 99.1018 80.0719 99.5418 80.9519C99.8058 81.4799 99.9378 82.1199 99.9378 82.8719C99.9378 83.1599 99.8978 83.3039 99.8178 83.3039ZM95.6298 82.4159L98.8338 82.4159C98.8258 81.9199 98.6938 81.4959 98.4378 81.1439C98.1898 80.7919 97.8298 80.6159 97.3578 80.6159C96.9018 80.6159 96.5178 80.7679 96.2058 81.0719C95.9018 81.3679 95.7098 81.8159 95.6298 82.4159ZM101.845 79.7519L101.905 79.7519C102.113 79.7519 102.245 79.7639 102.301 79.7879C102.365 79.8039 102.397 79.8399 102.397 79.8959L102.421 81.1319C102.861 80.1639 103.445 79.6799 104.173 79.6799C104.261 79.6799 104.345 79.6879 104.425 79.7039C104.481 79.7119 104.513 79.7359 104.521 79.7759C104.537 79.8159 104.545 79.9039 104.545 80.0399L104.545 80.2199C104.545 80.4039 104.537 80.5239 104.521 80.5799C104.505 80.6359 104.469 80.6639 104.413 80.6639C104.029 80.6639 103.713 80.7599 103.465 80.9519C103.217 81.1439 102.989 81.4119 102.781 81.7559C102.613 82.0359 102.517 82.3799 102.493 82.7879C102.469 83.1239 102.457 83.7159 102.457 84.5639L102.457 85.9439C102.457 85.9759 102.449 86.0039 102.433 86.0279C102.425 86.0439 102.381 86.0599 102.301 86.0759C102.229 86.0839 102.117 86.0879 101.965 86.0879L101.893 86.0879C101.741 86.0879 101.625 86.0839 101.545 86.0759C101.473 86.0599 101.425 86.0439 101.401 86.0279C101.385 86.0119 101.377 85.9839 101.377 85.9439L101.377 81.8519C101.377 81.5399 101.373 81.1519 101.365 80.6879C101.357 80.2159 101.353 79.9519 101.353 79.8959C101.353 79.8559 101.361 79.8279 101.377 79.8119C101.393 79.7959 101.437 79.7839 101.509 79.7759C101.589 79.7599 101.701 79.7519 101.845 79.7519ZM106.158 79.7519L106.206 79.7519C106.414 79.7519 106.55 79.7639 106.614 79.7879C106.678 79.8039 106.71 79.8399 106.71 79.8959L106.722 80.4359L106.71 80.4359C106.894 80.2039 107.146 80.0119 107.466 79.8599C107.794 79.7079 108.122 79.6319 108.45 79.6319C109.242 79.6319 109.866 79.9119 110.322 80.4719C110.778 81.0319 111.006 81.8039 111.006 82.7879C111.006 83.7479 110.754 84.5559 110.25 85.2119C109.746 85.8679 109.022 86.1959 108.078 86.1959C107.574 86.1959 107.138 86.0719 106.77 85.8239L106.77 88.7159C106.77 88.8199 106.598 88.8719 106.254 88.8719L106.182 88.8719C105.854 88.8719 105.69 88.8199 105.69 88.7159L105.69 81.8519C105.69 81.5399 105.686 81.1519 105.678 80.6879C105.67 80.2159 105.666 79.9519 105.666 79.8959C105.666 79.8559 105.674 79.8279 105.69 79.8119C105.706 79.7959 105.75 79.7839 105.822 79.7759C105.902 79.7599 106.014 79.7519 106.158 79.7519ZM106.77 82.9079L106.77 84.7679C107.13 85.0719 107.546 85.2239 108.018 85.2239C108.578 85.2239 109.026 85.0079 109.362 84.5759C109.706 84.1359 109.878 83.5519 109.878 82.8239C109.878 82.1199 109.73 81.5759 109.434 81.1919C109.138 80.7999 108.75 80.6039 108.27 80.6039C108.03 80.6039 107.786 80.6559 107.538 80.7599C107.298 80.8559 107.118 80.9799 106.998 81.1319C106.894 81.2679 106.83 81.4399 106.806 81.6479C106.782 81.8559 106.77 82.2759 106.77 82.9079ZM117.443 83.3039L113.219 83.3039C113.259 83.9919 113.459 84.4879 113.819 84.7919C114.147 85.0799 114.619 85.2239 115.235 85.2239C115.731 85.2239 116.259 85.0959 116.819 84.8399C116.867 84.7999 116.915 84.7959 116.963 84.8279C117.011 84.8519 117.063 84.9319 117.119 85.0679L117.179 85.2119C117.283 85.4519 117.291 85.5999 117.203 85.6559C116.579 86.0239 115.855 86.2079 115.031 86.2079C114.079 86.2079 113.351 85.9319 112.847 85.3799C112.343 84.8199 112.091 84.0479 112.091 83.0639C112.091 82.0399 112.351 81.2119 112.871 80.5799C113.391 79.9479 114.091 79.6319 114.971 79.6319C115.995 79.6319 116.727 80.0719 117.167 80.9519C117.431 81.4799 117.563 82.1199 117.563 82.8719C117.563 83.1599 117.523 83.3039 117.443 83.3039ZM113.255 82.4159L116.459 82.4159C116.451 81.9199 116.319 81.4959 116.063 81.1439C115.815 80.7919 115.455 80.6159 114.983 80.6159C114.527 80.6159 114.143 80.7679 113.831 81.0719C113.527 81.3679 113.335 81.8159 113.255 82.4159ZM119.47 79.7519L119.53 79.7519C119.738 79.7519 119.87 79.7639 119.926 79.7879C119.99 79.8039 120.022 79.8399 120.022 79.8959L120.034 80.4359L120.046 80.4359C120.254 80.1959 120.538 80.0039 120.898 79.8599C121.258 79.7079 121.626 79.6319 122.002 79.6319C122.69 79.6319 123.238 79.8439 123.646 80.2679C124.054 80.6839 124.258 81.3639 124.258 82.3079L124.258 85.9439C124.258 85.9759 124.25 86.0039 124.234 86.0279C124.226 86.0439 124.182 86.0599 124.102 86.0759C124.03 86.0839 123.918 86.0879 123.766 86.0879L123.694 86.0879C123.542 86.0879 123.426 86.0839 123.346 86.0759C123.274 86.0599 123.226 86.0439 123.202 86.0279C123.186 86.0119 123.178 85.9839 123.178 85.9439L123.178 82.8119C123.178 82.2839 123.158 81.8999 123.118 81.6599C123.078 81.4119 122.99 81.2079 122.854 81.0479C122.638 80.7839 122.258 80.6519 121.714 80.6519C121.17 80.6519 120.746 80.7959 120.442 81.0839C120.266 81.2439 120.158 81.5279 120.118 81.9359C120.094 82.2719 120.082 82.8199 120.082 83.5799L120.082 85.9439C120.082 85.9759 120.074 86.0039 120.058 86.0279C120.05 86.0439 120.006 86.0599 119.926 86.0759C119.854 86.0839 119.742 86.0879 119.59 86.0879L119.518 86.0879C119.366 86.0879 119.25 86.0839 119.17 86.0759C119.098 86.0599 119.05 86.0439 119.026 86.0279C119.01 86.0119 119.002 85.9839 119.002 85.9439L119.002 81.8519C119.002 81.5399 118.998 81.1519 118.99 80.6879C118.982 80.2159 118.978 79.9519 118.978 79.8959C118.978 79.8559 118.986 79.8279 119.002 79.8119C119.018 79.7959 119.062 79.7839 119.134 79.7759C119.214 79.7599 119.326 79.7519 119.47 79.7519ZM130.99 83.3039L126.766 83.3039C126.806 83.9919 127.006 84.4879 127.366 84.7919C127.694 85.0799 128.166 85.2239 128.782 85.2239C129.278 85.2239 129.806 85.0959 130.366 84.8399C130.414 84.7999 130.462 84.7959 130.51 84.8279C130.558 84.8519 130.61 84.9319 130.666 85.0679L130.726 85.2119C130.83 85.4519 130.838 85.5999 130.75 85.6559C130.126 86.0239 129.402 86.2079 128.578 86.2079C127.626 86.2079 126.898 85.9319 126.394 85.3799C125.89 84.8199 125.638 84.0479 125.638 83.0639C125.638 82.0399 125.898 81.2119 126.418 80.5799C126.938 79.9479 127.638 79.6319 128.518 79.6319C129.542 79.6319 130.274 80.0719 130.714 80.9519C130.978 81.4799 131.11 82.1199 131.11 82.8719C131.11 83.1599 131.07 83.3039 130.99 83.3039ZM126.802 82.4159L130.006 82.4159C129.998 81.9199 129.866 81.4959 129.61 81.1439C129.362 80.7919 129.002 80.6159 128.53 80.6159C128.074 80.6159 127.69 80.7679 127.378 81.0719C127.074 81.3679 126.882 81.8159 126.802 82.4159ZM136.353 80.7239L136.269 80.8439C136.165 80.9879 136.085 81.0759 136.029 81.1079C135.981 81.1399 135.941 81.1319 135.909 81.0839C135.405 80.7319 134.941 80.5559 134.517 80.5559C134.213 80.5559 133.937 80.6239 133.689 80.7599C133.441 80.8959 133.317 81.1119 133.317 81.4079C133.317 81.6079 133.389 81.7799 133.533 81.9239C133.677 82.0599 133.817 82.1519 133.953 82.1999C134.097 82.2479 134.301 82.3039 134.565 82.3679C134.861 82.4479 135.109 82.5279 135.309 82.6079C135.509 82.6799 135.717 82.7839 135.933 82.9199C136.149 83.0559 136.313 83.2359 136.425 83.4599C136.537 83.6759 136.593 83.9319 136.593 84.2279C136.593 84.8439 136.365 85.3279 135.909 85.6799C135.453 86.0319 134.881 86.2079 134.193 86.2079C133.441 86.2079 132.785 86.0079 132.225 85.6079C132.169 85.5519 132.145 85.5039 132.153 85.4639C132.161 85.4239 132.201 85.3279 132.273 85.1759L132.333 85.0439C132.405 84.8839 132.465 84.7879 132.513 84.7559C132.561 84.7239 132.621 84.7359 132.693 84.7919C133.245 85.1119 133.765 85.2719 134.253 85.2719C134.581 85.2719 134.881 85.1919 135.153 85.0319C135.433 84.8639 135.573 84.6199 135.573 84.2999C135.573 84.0119 135.445 83.7959 135.189 83.6519C134.933 83.5079 134.601 83.3919 134.193 83.3039C133.513 83.1519 133.037 82.9479 132.765 82.6919C132.445 82.3959 132.285 82.0079 132.285 81.5279C132.285 80.9599 132.497 80.5039 132.921 80.1599C133.353 79.8079 133.881 79.6319 134.505 79.6319C135.273 79.6319 135.905 79.8519 136.401 80.2919C136.505 80.3879 136.489 80.5319 136.353 80.7239Z" fill="#646668"/>
<path d="M76.2069 103.936L75.8229 103.264C75.4389 102.582 75.4496 102.102 75.8549 101.824C77.7109 100.48 79.7376 99.8085 81.9349 99.8085C84.1323 99.8085 85.8603 100.406 87.1189 101.6C88.3989 102.774 89.0389 104.384 89.0389 106.432C89.0389 107.883 88.6336 109.344 87.8229 110.816C87.0123 112.288 85.5723 114.187 83.5029 116.512L80.9109 119.424L88.9429 119.424C89.0923 119.424 89.1883 119.52 89.2309 119.712C89.2949 119.883 89.3269 120.31 89.3269 120.992L89.3269 121.6C89.3269 122.283 89.2949 122.72 89.2309 122.912C89.1883 123.083 89.0923 123.168 88.9429 123.168L76.7189 123.168C76.1216 123.168 75.7376 123.147 75.5669 123.104C75.4176 123.04 75.3429 122.902 75.3429 122.688L75.3429 121.632C75.3429 120.8 75.5669 120.118 76.0149 119.584L80.3029 114.368C81.8603 112.47 82.9376 110.976 83.5349 109.888C84.1536 108.8 84.4629 107.702 84.4629 106.592C84.4629 105.611 84.1856 104.843 83.6309 104.288C83.0763 103.712 82.3189 103.424 81.3589 103.424C80.2923 103.424 78.9696 103.904 77.3909 104.864C77.2416 104.992 77.0709 104.992 76.8789 104.864C76.7083 104.736 76.4843 104.427 76.2069 103.936ZM99.6259 102.592C98.1326 102.592 97.3859 103.883 97.3859 106.464C97.3859 108.939 98.0686 110.176 99.4339 110.176C100.927 110.176 101.674 108.886 101.674 106.304C101.674 103.83 100.991 102.592 99.6259 102.592ZM99.6579 99.8085C101.301 99.8085 102.623 100.352 103.626 101.44C104.65 102.528 105.162 104.107 105.162 106.176C105.162 108.352 104.639 110.027 103.594 111.2C102.549 112.374 101.151 112.96 99.4019 112.96C97.7593 112.96 96.4259 112.416 95.4019 111.328C94.3993 110.24 93.8979 108.662 93.8979 106.592C93.8979 104.416 94.4206 102.742 95.4659 101.568C96.5113 100.395 97.9086 99.8085 99.6579 99.8085ZM115.018 100.128L115.082 100.128C116.234 100.128 116.821 100.224 116.842 100.416C116.842 100.459 116.799 100.544 116.714 100.672L102.73 122.624C102.517 122.987 101.759 123.168 100.458 123.168L100.234 123.168C99.1886 123.168 98.6659 123.062 98.6659 122.848C98.6659 122.784 98.6979 122.71 98.7619 122.624L112.746 100.672C112.895 100.438 113.109 100.288 113.386 100.224C113.685 100.16 114.229 100.128 115.018 100.128ZM115.914 113.12C114.421 113.12 113.674 114.411 113.674 116.992C113.674 119.467 114.357 120.704 115.722 120.704C117.215 120.704 117.962 119.414 117.962 116.832C117.962 114.358 117.279 113.12 115.914 113.12ZM115.946 110.336C117.589 110.336 118.911 110.88 119.914 111.968C120.938 113.056 121.45 114.635 121.45 116.704C121.45 118.88 120.927 120.555 119.882 121.728C118.837 122.902 117.439 123.488 115.69 123.488C114.047 123.488 112.714 122.944 111.69 121.856C110.687 120.768 110.186 119.19 110.186 117.12C110.186 114.944 110.709 113.27 111.754 112.096C112.799 110.923 114.197 110.336 115.946 110.336Z" fill="#646668"/>
</g>
<defs>
<clipPath id="clip0_3408_11008">
<rect width="198" height="198" fill="white" transform="translate(198 198.2) rotate(180)"/>
</clipPath>
</defs>
</svg>
