<svg width="28" height="29" viewBox="0 0 28 29" fill="none" xmlns="http://www.w3.org/2000/svg">
<path d="M3.49414 5.49982C4.27571 5.50735 5.02824 5.81088 5.61258 6.35427C6.09403 6.78738 6.56489 7.24043 7.16379 7.47969C8.90017 8.17532 10.4778 7.88954 11.8671 6.59353C12.3073 6.18258 12.7655 5.81815 13.3358 5.65199C14.5527 5.29421 15.6171 5.60104 16.5652 6.46172C16.9139 6.79699 17.298 7.08948 17.7101 7.33347C19.3185 8.21963 21.2474 7.9427 22.6124 6.65556C23.1139 6.18258 23.6377 5.76941 24.317 5.60768" stroke="#5E5A80" stroke-width="2.34896" stroke-miterlimit="10" stroke-linecap="round"/>
<path d="M3.49414 13.4866C4.27571 13.4942 5.02824 13.7977 5.61258 14.3411C6.09403 14.7742 6.56489 15.2272 7.16379 15.4665C8.90017 16.1621 10.4778 15.8764 11.8671 14.5803C12.3073 14.1694 12.7655 13.805 13.3358 13.6388C14.5527 13.281 15.6171 13.5879 16.5652 14.4485C16.9139 14.7838 17.298 15.0763 17.7101 15.3203C19.3185 16.2064 21.2474 15.9295 22.6124 14.6424C23.1139 14.1694 23.6377 13.7562 24.317 13.5945" stroke="#5E5A80" stroke-width="2.34896" stroke-miterlimit="10" stroke-linecap="round"/>
<path d="M3.49414 21.473C4.27571 21.4805 5.02824 21.784 5.61258 22.3274C6.09403 22.7605 6.56489 23.2136 7.16379 23.4528C8.90017 24.1485 10.4778 23.8627 11.8671 22.5667C12.3073 22.1557 12.7655 21.7913 13.3358 21.6251C14.5527 21.2674 15.6171 21.5742 16.5652 22.4349C16.9139 22.7701 17.298 23.0626 17.7101 23.3066C19.3185 24.1928 21.2474 23.9158 22.6124 22.6287C23.1139 22.1557 23.6377 21.7426 24.317 21.5808" stroke="#5E5A80" stroke-width="2.34896" stroke-miterlimit="10" stroke-linecap="round"/>
</svg>
