<svg width="146" height="21" viewBox="0 0 146 21" fill="none" xmlns="http://www.w3.org/2000/svg">
<path d="M20.6784 11.8555V19.893H25.1675V10.6096C25.6588 10.1903 26.1954 10.0223 26.764 9.96433C27.6373 9.87512 28.2555 10.3524 28.4246 11.2444C28.4829 11.5567 28.4742 11.8793 28.4756 12.1975V19.893H32.9647C32.9647 19.893 32.9647 13.7363 32.9633 10.8742C32.9633 10.5754 32.956 10.2751 32.9298 9.9792C32.8146 8.708 32.2212 7.70443 31.1233 7.06065C29.5225 6.12101 27.8764 6.20278 26.2508 6.9655C25.653 7.24501 25.1019 7.64347 24.5508 8.03301C23.8655 6.94914 23.0476 6.33957 22.0956 5.953L19.878 8.46417C20.6945 9.50938 20.6799 10.6453 20.6799 11.8555H20.6784Z" fill="#636569"/>
<path d="M47.8521 14.9838C47.8462 14.8902 47.8462 14.798 47.8462 14.7043V1.19543H43.3571V6.81992C42.9868 6.72476 42.5757 6.60731 42.2316 6.53743C40.9282 6.27576 39.5329 6.36496 38.3024 6.92102C37.0747 7.47559 36.0979 8.44051 35.522 9.67751C34.8411 11.139 34.6181 12.8577 34.8134 14.456C34.9184 15.3139 35.1502 16.142 35.5045 16.927C36.7175 19.6166 39.7895 20.9592 42.3905 19.8099C43.0306 19.5274 43.5773 19.2033 44.1824 18.7974C45.2977 20.1043 46.744 20.4314 48.4105 20.0344C48.6263 18.9535 48.8202 17.9782 49.0184 16.982C48.0883 16.5985 47.9002 15.8298 47.8535 14.9838H47.8521ZM42.7652 16.8111C42.1995 17.1203 41.5055 17.1634 40.9121 16.9107C40.2036 16.6089 39.8638 15.9829 39.6626 15.2604C39.4294 14.4233 39.3419 13.5431 39.4104 12.6763C39.4717 11.9032 39.5781 11.084 40.014 10.4254C40.0271 10.4045 40.0417 10.3852 40.0548 10.3644C40.4368 9.82321 41.0492 9.52437 41.698 9.52883C42.271 9.53329 42.841 9.60911 43.3542 9.93621V15.8105C43.3644 16.3279 43.1574 16.5955 42.7623 16.8111H42.7652Z" fill="#636569"/>
<path d="M9.53805 12.5633C9.53805 12.5633 10.356 11.9002 10.7292 11.5598C11.3343 11.0067 11.744 10.3243 11.9627 9.51842C12.1318 8.89843 12.1493 8.26358 12.1726 7.63021C12.1828 7.37746 12.1945 7.12322 12.1843 6.78572H7.66456C7.66747 7.1366 7.67622 7.3953 7.66164 7.654C7.6456 7.94838 7.60186 8.24723 7.53042 8.53269C7.37734 9.15416 6.98077 9.61506 6.48943 9.97486C5.87562 10.4254 5.10727 10.9651 4.48764 11.4051V1.19543H0V19.9021H4.48909V15.922L6.08411 14.7995L8.0932 19.9229H12.6669L9.53805 12.5633Z" fill="#636569"/>
<path d="M18.5439 5.24984L18.5352 1.0824C18.525 0.622984 18.3777 0.251289 18.0818 0.0862568C17.7858 -0.0772888 17.3994 -0.00294987 17.016 0.237908L13.5796 2.49335C13.3638 2.6346 13.2442 2.75056 13.1334 2.95723V2.9602C12.957 3.28878 13.1597 3.78982 13.5679 3.86119C14.3246 3.995 14.8903 4.17341 15.6688 4.60606C16.4459 5.03723 16.9023 5.42528 17.4228 6.00066C17.7042 6.3114 18.2276 6.21178 18.4025 5.88469V5.88172C18.5148 5.67357 18.5454 5.51003 18.5439 5.24835" fill="#7D9CC0"/>
<path d="M14.0461 19.902H18.5352V11.0988C18.5352 8.71551 16.6413 6.78418 14.3041 6.78418H14.0461V19.9005V19.902Z" fill="#636569"/>
<path d="M76.0551 10.9428C76.0551 10.4447 75.9968 9.95259 75.8816 9.47236C75.5842 8.22792 74.8654 7.31802 73.7034 6.81846C72.8169 6.43784 71.8911 6.33823 70.9245 6.49285C69.7654 6.6787 68.7667 7.15596 67.9123 7.96625C67.8292 8.04505 67.7286 8.10303 67.6251 8.17886C67.5464 8.08965 67.4778 8.01531 67.4137 7.938C67.3495 7.86069 67.2941 7.77297 67.2256 7.69863C66.4893 6.90172 65.5489 6.53746 64.5094 6.43784C63.4305 6.33377 62.3939 6.5434 61.4258 7.04891C60.9913 7.27639 60.5787 7.54252 60.2142 7.87853C59.9999 8.07627 59.9474 8.06587 59.7652 7.84285C59.6558 7.70904 59.5611 7.55441 59.4298 7.44588C58.5434 6.71587 57.5024 6.45717 56.3871 6.42297C56.2238 6.41851 56.1552 6.49731 56.1042 6.62815C55.9861 6.92551 55.868 7.22137 55.7485 7.51873C55.4831 8.17886 55.2163 8.8375 54.9364 9.53034C55.0486 9.5913 55.1288 9.6255 55.1988 9.67456C55.5998 9.95407 55.9424 10.2886 56.0459 10.7911C56.11 11.1034 56.1479 11.426 56.1479 11.7442C56.1479 11.8616 56.1494 11.9701 56.1509 12.0742V19.8694H60.6123V10.5324C60.6691 10.4075 60.7683 10.3168 60.9184 10.2336C61.3777 9.98232 61.8632 9.91839 62.3749 9.92731C63.1345 9.94069 63.6478 10.4849 63.7717 11.0721C63.7877 11.1494 63.8023 11.2268 63.814 11.3056V19.8679H68.2754V11.0528C68.2754 10.98 68.2754 10.9071 68.2754 10.8342V10.748C68.2783 10.5607 68.3453 10.412 68.5276 10.3213C68.6559 10.2574 68.7754 10.1756 68.9052 10.1146C69.2945 9.93475 69.7085 9.9169 70.1284 9.92583C70.8982 9.94069 71.2904 10.3719 71.4829 10.9368C71.5937 11.2639 71.5922 11.5999 71.5922 11.9345C71.5922 12.15 71.5922 12.3418 71.5922 12.5188V14.7043C71.5922 15.1132 71.5922 15.6291 71.5922 16.5033V19.8679H76.0536V12.1649C76.0536 11.8215 76.0536 11.4245 76.0536 10.9398L76.0551 10.9428Z" fill="#7D9CC0"/>
<path d="M105.849 16.9106C105.372 16.6817 105.134 16.2743 105.003 15.7658C104.903 15.3733 104.926 14.9808 104.926 14.5883C104.923 12.4979 104.923 10.406 104.923 8.31558V0.804372H101.004C100.886 0.804372 100.793 0.802885 100.721 0.804372H100.463V0.964944C100.45 1.05266 100.456 1.18647 100.456 1.39165C100.456 3.10739 100.456 4.82313 100.456 6.53888C100.456 6.89422 100.453 6.87935 100.123 6.79163C99.6261 6.66079 99.129 6.49576 98.6216 6.4467C97.5398 6.34411 96.4696 6.45413 95.4578 6.89422C94.7521 7.20198 94.1062 7.61679 93.5785 8.18771C93.0011 8.81216 92.5856 9.54366 92.31 10.3525C92.0709 11.0557 91.9412 11.7768 91.8537 12.5202C91.772 13.2145 91.8391 13.8895 91.8916 14.569C91.9455 15.2678 92.1467 15.9398 92.4033 16.5895C92.8684 17.7611 93.6149 18.7037 94.6836 19.3623C95.6648 19.966 96.7233 20.2366 97.8795 20.1593C98.6857 20.1057 99.4278 19.8812 100.119 19.4739C100.489 19.2553 100.841 19.0011 101.226 18.7483C101.641 19.3727 102.334 19.7667 103.014 19.9972C103.484 20.1563 104.004 20.1771 104.494 20.1474C104.679 20.137 104.863 20.1147 105.045 20.0834C105.196 20.0582 105.331 20.0136 105.474 19.9719C105.499 19.8441 105.525 19.7147 105.551 19.5868L105.869 18.0079C105.916 17.7774 105.962 17.547 106.008 17.3165C106.013 17.2898 106.083 17.0519 106.065 17.034C106.062 17.0311 106.013 16.9865 105.852 16.9092L105.849 16.9106ZM100.298 16.6549C99.5299 17.1649 98.7091 17.2392 97.8489 16.9196C97.4362 16.7664 97.1913 16.4393 96.9784 16.0795C96.7262 15.6573 96.63 15.186 96.5381 14.7132C96.3894 13.9445 96.4186 13.1669 96.4638 12.3953C96.5061 11.6519 96.6664 10.9308 97.1038 10.287C97.4304 9.80682 97.9028 9.5838 98.4335 9.51095C99.0036 9.43215 99.5838 9.46188 100.141 9.66557C100.298 9.72356 100.399 9.76073 100.463 9.80682V16.5033C100.421 16.5598 100.367 16.6088 100.3 16.6534L100.298 16.6549Z" fill="#7D9CC0"/>
<path d="M138.528 15.9026C138.433 15.525 138.376 15.131 138.361 14.7414C138.345 14.3058 138.407 13.8672 138.415 13.4301C138.43 12.6525 138.437 11.8749 138.43 11.0988C138.427 10.8089 138.389 10.5175 138.347 10.2306C138.14 8.80325 137.348 7.80116 136.116 7.14549C135.294 6.70689 134.391 6.51509 133.476 6.44522C132.601 6.37682 131.718 6.40507 130.849 6.53888C130.157 6.64444 129.472 6.7961 128.794 6.96856C128.338 7.08453 127.899 7.27484 127.453 7.43095C127.304 7.48299 127.274 7.57071 127.31 7.73425C127.427 8.27247 127.52 8.81663 127.621 9.3593C127.695 9.7533 127.766 10.1473 127.844 10.5576C128.087 10.4714 128.301 10.3956 128.517 10.3183C129.652 9.91387 130.812 9.68342 132.019 9.76519C133.12 9.83953 133.903 10.4209 134.017 11.695C134.043 11.9805 133.972 12.0578 133.683 12.0638C133.509 12.0667 133.336 12.0667 133.164 12.0608C132.038 12.0236 130.927 12.1098 129.838 12.4176C129.01 12.651 128.248 13.0242 127.616 13.6189C126.571 14.6047 126.335 15.8714 126.55 17.2363C126.68 18.0644 127.087 18.7632 127.759 19.2895C128.246 19.6716 128.786 19.9184 129.382 20.0596C129.923 20.189 130.469 20.1652 131.015 20.1518C132.021 20.128 132.925 19.792 133.725 19.178C133.998 18.9684 134.249 18.7305 134.524 18.4941C134.61 18.5922 134.703 18.6844 134.781 18.7885C135.285 19.4753 135.96 19.8872 136.778 20.0567C137.141 20.1325 137.513 20.1935 137.882 20.1979C138.191 20.2024 138.501 20.1622 138.812 20.0686C138.961 20.024 139.007 19.9972 139.007 19.9972C139.007 19.9972 139.191 19.1542 139.258 18.8271C139.357 18.3439 139.631 17.037 139.631 17.037C139.631 17.037 139.585 17.0132 139.302 16.8601C138.913 16.6505 138.637 16.3308 138.531 15.9041L138.528 15.9026ZM133.797 16.1583C133.439 17.2779 132.108 17.6927 131.188 17.2779C130.621 17.0222 130.389 16.2684 130.504 15.7762C130.639 15.2053 130.993 14.8336 131.505 14.6002C132.174 14.2954 132.884 14.2315 133.604 14.2627C133.886 14.2746 133.935 14.3489 133.939 14.6463C133.942 14.792 133.939 14.9392 133.939 15.1696C133.947 15.4506 133.907 15.8015 133.794 16.1583H133.797Z" fill="#7D9CC0"/>
<path d="M87.888 7.37298C87.0249 6.81841 86.0684 6.51065 85.0552 6.44077C83.9471 6.36494 82.8522 6.45712 81.7937 6.85558C80.3692 7.39082 79.2874 8.30965 78.6124 9.70127C78.1035 10.7509 77.9125 11.8809 77.8528 13.0346C77.809 13.8672 77.914 14.6924 78.1006 15.5042C78.2989 16.3665 78.6372 17.1694 79.1912 17.8563C79.8998 18.7349 80.8066 19.3386 81.8651 19.7043C82.9892 20.0924 84.1468 20.1875 85.3293 20.1652C86.4125 20.1444 87.4696 19.9942 88.5076 19.6999C88.9858 19.5646 89.4684 19.4278 89.9277 19.1899C89.6871 18.2071 89.4524 17.2437 89.2133 16.2654C88.9829 16.3412 88.7948 16.4037 88.6053 16.4646C87.8938 16.6906 87.1721 16.8467 86.4256 16.9315C85.6981 17.0147 84.991 16.9657 84.2955 16.7977C83.4281 16.5865 82.8201 16.0454 82.5576 15.1503C82.4847 14.902 82.4308 14.6641 82.4002 14.34H89.6069C89.6069 14.34 89.6448 14.3162 89.8008 13.9624C89.9977 13.4688 90.0647 12.9499 90.1114 12.431C90.1712 11.7605 90.1114 11.0914 89.9525 10.4343C89.6419 9.15265 89.0092 8.08961 87.8924 7.37447L87.888 7.37298ZM82.9251 9.87374C83.2487 9.40243 83.7138 9.14225 84.2795 9.11846C84.7198 9.10062 85.1718 9.16009 85.5275 9.44555C85.9547 9.78751 86.1515 10.3346 86.223 10.8699C86.2638 11.1821 86.2682 11.7411 86.2623 12.0534H85.9576C85.9416 12.0519 85.9241 12.0504 85.9066 12.0504C85.3453 12.0548 84.7854 12.0519 84.2241 12.0519C83.6628 12.0519 83.1029 12.0504 82.5416 12.0519C82.5402 12.0519 82.5387 12.0519 82.5372 12.0519H82.2733C82.3389 11.3174 82.5139 10.4685 82.9236 9.87225L82.9251 9.87374Z" fill="#7D9CC0"/>
<path d="M119.401 11.1954C119.848 10.3375 120.577 9.93756 121.487 9.85728C122.376 9.77848 123.223 9.98811 124.031 10.3672C124.13 10.4148 124.238 10.4446 124.382 10.4966C124.655 9.38002 124.813 8.27534 125.072 7.18553C125.036 7.16175 125.004 7.13201 124.966 7.11714C124.872 7.07849 124.779 7.04429 124.683 7.01307C123.46 6.62353 122.213 6.39754 120.924 6.42282C119.971 6.44066 119.045 6.58785 118.148 6.9194C116.992 7.34759 116.059 8.06422 115.379 9.11537C114.757 10.0788 114.47 11.1612 114.385 12.2882C114.301 13.4241 114.328 14.5644 114.627 15.681C114.942 16.8541 115.498 17.8784 116.422 18.659C117.565 19.6239 118.908 20.0685 120.38 20.1517C120.851 20.1785 121.321 20.1592 121.792 20.1532C122.311 20.1473 122.821 20.0744 123.325 19.9584C123.895 19.8276 124.464 19.6774 124.992 19.3964C124.757 18.3542 124.525 17.3239 124.294 16.2891C124.011 16.3709 123.767 16.4497 123.518 16.5106C122.703 16.7084 121.886 16.8109 121.048 16.6474C120.116 16.4645 119.513 15.9293 119.192 15.0253C118.962 14.3786 118.927 13.7155 118.952 13.042C118.975 12.3952 119.1 11.7767 119.403 11.1939L119.401 11.1954Z" fill="#7D9CC0"/>
<path d="M111.733 0.691427C112.303 1.26681 112.544 1.99385 112.38 2.81455C112.133 4.05898 111.167 4.7087 110.003 4.7429C109.383 4.76074 108.819 4.60314 108.304 4.23442C107.772 3.85381 107.512 3.31559 107.429 2.69263C107.334 1.98046 107.514 1.32331 107.998 0.788068C108.421 0.321219 108.963 0.0669802 109.587 0.0060223C109.701 -0.00587193 109.817 0.00453552 109.845 0.00453552C110.632 -0.0385811 111.249 0.203764 111.732 0.691427H111.733ZM107.687 19.8709H112.149V6.69058H107.687V19.8709Z" fill="#7D9CC0"/>
<path d="M145.797 0.804321H141.336V19.8708H145.797V0.804321Z" fill="#7D9CC0"/>
</svg>
