<svg width="1440" height="941" viewBox="0 0 1440 941" fill="none" xmlns="http://www.w3.org/2000/svg">
<path d="M768.828 397.072H768.102C670.337 302.064 566.658 226.748 459.906 166.998C310.313 83.2872 154.564 30.6491 0 0V940.495C120.625 924.432 233.872 903.653 333.1 881.857C527.312 750.915 717.533 487.797 768.828 397.072Z" fill="#E0E3DB"/>
<path d="M1439.99 411.49C1318.03 500.196 1196.48 571.255 1076.63 628.163C1194.47 694.105 1317.2 734.068 1439.99 760.278V411.49Z" fill="#E0E3DB"/>
<path d="M220.443 904.719C557.62 841.51 886.692 725.154 1076.63 628.163C969.822 568.389 866.106 493.036 768.305 397.98C621.47 626.506 421.658 869.05 220.443 904.731" fill="#E4E8DF"/>
<path d="M972.98 0C808.679 30.6612 636.166 83.3114 459.903 166.998C566.703 226.772 670.432 302.125 768.221 397.18C816.674 311.692 937.226 129.938 1111.82 0H972.967H972.98Z" fill="#E5E9E0"/>
<path d="M1439.99 0H1111.82C936.649 130.374 815.843 312.95 767.704 398.088H768.43C866.195 493.095 969.875 568.411 1076.64 628.161C1196.49 571.254 1318.05 500.219 1440 411.513V0H1439.99Z" fill="#EFF1EB"/>
<path d="M459.906 166.998C636.168 83.3114 808.669 30.6612 972.982 0H0C154.564 30.6491 310.313 83.2872 459.906 166.998Z" fill="#E5E9E0"/>
</svg>
