<svg width="1439" height="399" viewBox="0 0 1439 399" fill="none" xmlns="http://www.w3.org/2000/svg">
<path d="M311.503 12.8451C584.328 140.423 874.778 451.071 959.363 557.414C1063.42 415.107 1179.12 296.87 1302 198C937 12.8304 588.182 -3.66211 311.501 12.8304" fill="#C2D5A7"/>
<path d="M1414.74 1141.63C1539.23 1163.6 1658.55 1177.15 1768 1181.76L1768 17.1096C1596.46 58.4824 1424.77 122.353 1258.96 216.341C1121.82 294.097 988.643 392.094 863.069 515.708L862.148 515.708C927.415 632.639 1167.75 969.651 1414.76 1141.62L1414.74 1141.63Z" fill="#B7CD96"/>
<path d="M-62.056 60.0938C65.7019 41.1687 240.271 17.0863 311.503 12.8487C585.159 140.817 800.048 371.766 884.095 477.67L883.186 477.819C779.166 620.06 646.873 749.709 524.044 848.525C359.967 800.175 210.608 737.085 31.8719 635.605L-62.056 60.0938Z" fill="#C9DAB0"/>
</svg>
