<?xml version="1.0" encoding="UTF-8"?><svg id="a" xmlns="http://www.w3.org/2000/svg" viewBox="0 0 1044.93 136.02"><defs><style>.b{fill:#b7cd96;}.c{fill:#636569;}</style></defs><g><path class="c" d="M141.83,79.74v54.06h30.79v-62.44c3.37-2.82,7.05-3.95,10.95-4.34,5.99-.6,10.23,2.61,11.39,8.61,.4,2.1,.34,4.27,.35,6.41v51.76h30.79s0-41.41-.01-60.66c0-2.01-.05-4.03-.23-6.02-.79-8.55-4.86-15.3-12.39-19.63-10.98-6.32-22.27-5.77-33.42-.64-4.1,1.88-7.88,4.56-11.66,7.18-4.7-7.29-10.31-11.39-16.84-13.99l-15.21,16.89c5.6,7.03,5.5,14.67,5.5,22.81Z"/><path class="c" d="M328.21,100.78c-.04-.63-.04-1.25-.04-1.88,0,0,0-90.86,0-90.86h-30.79V45.87c-2.54-.64-5.36-1.43-7.72-1.9-8.94-1.76-18.51-1.16-26.95,2.58-8.42,3.73-15.12,10.22-19.07,18.54-4.67,9.83-6.2,21.39-4.86,32.14,.72,5.77,2.31,11.34,4.74,16.62,8.32,18.09,29.39,27.12,47.23,19.39,4.39-1.9,8.14-4.08,12.29-6.81,7.65,8.79,17.57,10.99,29,8.32,1.48-7.27,2.81-13.83,4.17-20.53-6.38-2.58-7.67-7.75-7.99-13.44Zm-34.89,12.29c-3.88,2.08-8.64,2.37-12.71,.67-4.86-2.03-7.19-6.24-8.57-11.1-1.6-5.63-2.2-11.55-1.73-17.38,.42-5.2,1.15-10.71,4.14-15.14,.09-.14,.19-.27,.28-.41,2.62-3.64,6.82-5.65,11.27-5.62,3.93,.03,7.84,.54,11.36,2.74v39.51c.07,3.48-1.35,5.28-4.06,6.73Z"/><path class="c" d="M65.42,84.5s5.61-4.46,8.17-6.75c4.15-3.72,6.96-8.31,8.46-13.73,1.16-4.17,1.28-8.44,1.44-12.7,.07-1.7,.15-3.41,.08-5.68h-31c.02,2.36,.08,4.1-.02,5.84-.11,1.98-.41,3.99-.9,5.91-1.05,4.18-3.77,7.28-7.14,9.7-4.21,3.03-9.48,6.66-13.73,9.62V8.04H0v125.82H30.79v-26.77l10.94-7.55,13.78,34.46h31.37l-21.46-49.5Z"/><path class="b" d="M127.19,35.31l-.06-28.03c-.07-3.09-1.08-5.59-3.11-6.7-2.03-1.1-4.68-.6-7.31,1.02l-23.57,15.17c-1.48,.95-2.3,1.73-3.06,3.12v.02c-1.21,2.21,.18,5.58,2.98,6.06,5.19,.9,9.07,2.1,14.41,5.01,5.33,2.9,8.46,5.51,12.03,9.38,1.93,2.09,5.52,1.42,6.72-.78v-.02c.77-1.4,.98-2.5,.97-4.26"/><path class="c" d="M96.34,133.86h30.79v-59.21c0-16.03-12.99-29.02-29.02-29.02h-1.77v88.22Z"/><path class="b" d="M521.65,73.6c0-3.35-.4-6.66-1.19-9.89-2.04-8.37-6.97-14.49-14.94-17.85-6.08-2.56-12.43-3.23-19.06-2.19-7.95,1.25-14.8,4.46-20.66,9.91-.57,.53-1.26,.92-1.97,1.43-.54-.6-1.01-1.1-1.45-1.62-.44-.52-.82-1.11-1.29-1.61-5.05-5.36-11.5-7.81-18.63-8.48-7.4-.7-14.51,.71-21.15,4.11-2.98,1.53-5.81,3.32-8.31,5.58-1.47,1.33-1.83,1.26-3.08-.24-.75-.9-1.4-1.94-2.3-2.67-6.08-4.91-13.22-6.65-20.87-6.88-1.12-.03-1.59,.5-1.94,1.38-.81,2-1.62,3.99-2.44,5.99-1.82,4.44-3.65,8.87-5.57,13.53,.77,.41,1.32,.64,1.8,.97,2.75,1.88,5.1,4.13,5.81,7.51,.44,2.1,.7,4.27,.7,6.41,0,.79,.01,1.52,.02,2.22v52.43h30.6v-62.8c.39-.84,1.07-1.45,2.1-2.01,3.15-1.69,6.48-2.12,9.99-2.06,5.21,.09,8.73,3.75,9.58,7.7,.11,.52,.21,1.04,.29,1.57v57.59h30.6v-59.29c0-.49,0-.98,0-1.47v-.58c.02-1.26,.48-2.26,1.73-2.87,.88-.43,1.7-.98,2.59-1.39,2.67-1.21,5.51-1.33,8.39-1.27,5.28,.1,7.97,3,9.29,6.8,.76,2.2,.75,4.46,.75,6.71,0,1.45,0,2.74,0,3.93v14.7c0,2.75,0,6.22,0,12.1v22.63h30.6v-51.81h0c0-2.31,0-4.98,0-8.24Z"/><path class="b" d="M726,113.74c-3.27-1.54-4.9-4.28-5.8-7.7-.69-2.64-.53-5.28-.53-7.92-.02-14.06-.02-28.13-.02-42.19V5.41h-26.88c-.81,0-1.45-.01-1.94,0h-1.77v1.08c-.09,.59-.05,1.49-.05,2.87,0,11.54,0,23.08,0,34.62,0,2.39-.02,2.29-2.28,1.7-3.41-.88-6.82-1.99-10.3-2.32-7.42-.69-14.76,.05-21.7,3.01-4.84,2.07-9.27,4.86-12.89,8.7-3.96,4.2-6.81,9.12-8.7,14.56-1.64,4.73-2.53,9.58-3.13,14.58-.56,4.67-.1,9.21,.26,13.78,.37,4.7,1.75,9.22,3.51,13.59,3.19,7.88,8.31,14.22,15.64,18.65,6.73,4.06,13.99,5.88,21.92,5.36,5.53-.36,10.62-1.87,15.36-4.61,2.54-1.47,4.95-3.18,7.59-4.88,2.85,4.2,7.6,6.85,12.27,8.4,3.22,1.07,6.79,1.21,10.15,1.01,1.27-.07,2.53-.22,3.78-.43,1.03-.17,1.96-.47,2.94-.75,.17-.86,.35-1.73,.53-2.59l2.18-10.62c.32-1.55,.64-3.1,.95-4.65,.04-.18,.52-1.78,.39-1.9-.02-.02-.35-.32-1.46-.84Zm-38.07-1.72c-5.27,3.43-10.9,3.93-16.8,1.78-2.83-1.03-4.51-3.23-5.97-5.65-1.73-2.84-2.39-6.01-3.02-9.19-1.02-5.17-.82-10.4-.51-15.59,.29-5,1.39-9.85,4.39-14.18,2.24-3.23,5.48-4.73,9.12-5.22,3.91-.53,7.89-.33,11.71,1.04,1.08,.39,1.77,.64,2.21,.95v45.04c-.29,.38-.66,.71-1.12,1.01Z"/><path class="b" d="M950.14,106.96c-.65-2.54-1.04-5.19-1.14-7.81-.11-2.93,.31-5.88,.37-8.82,.1-5.23,.15-10.46,.1-15.68-.02-1.95-.28-3.91-.57-5.84-1.42-9.6-6.85-16.34-15.3-20.75-5.64-2.95-11.83-4.24-18.11-4.71-6-.46-12.06-.27-18.02,.63-4.74,.71-9.44,1.73-14.09,2.89-3.13,.78-6.14,2.06-9.2,3.11-1.02,.35-1.23,.94-.98,2.04,.8,3.62,1.44,7.28,2.13,10.93,.51,2.65,1,5.3,1.53,8.06,1.67-.58,3.14-1.09,4.62-1.61,7.78-2.72,15.74-4.27,24.02-3.72,7.55,.5,12.92,4.41,13.7,12.98,.18,1.92-.31,2.44-2.29,2.48-1.19,.02-2.38,.02-3.56-.02-7.72-.25-15.34,.33-22.81,2.4-5.68,1.57-10.91,4.08-15.24,8.08-7.17,6.63-8.79,15.15-7.31,24.33,.89,5.57,3.68,10.27,8.29,13.81,3.34,2.57,7.04,4.23,11.13,5.18,3.71,.87,7.46,.71,11.2,.62,6.9-.16,13.1-2.42,18.59-6.55,1.87-1.41,3.59-3.01,5.48-4.6,.59,.66,1.23,1.28,1.76,1.98,3.46,4.62,8.09,7.39,13.7,8.53,2.49,.51,5.04,.92,7.57,.95,2.12,.03,4.25-.24,6.38-.87,1.02-.3,1.34-.48,1.34-.48,0,0,1.26-5.67,1.72-7.87,.68-3.25,2.56-12.04,2.56-12.04,0,0-.32-.16-2.26-1.19-2.67-1.41-4.56-3.56-5.29-6.43Zm-32.45,1.72c-2.45,7.53-11.58,10.32-17.89,7.53-3.89-1.72-5.48-6.79-4.69-10.1,.92-3.84,3.35-6.34,6.86-7.91,4.59-2.05,9.46-2.48,14.4-2.27,1.93,.08,2.27,.58,2.3,2.58,.02,.98,0,1.97,0,3.52,.05,1.89-.22,4.25-1,6.65Z"/><path class="b" d="M602.81,49.59c-5.92-3.73-12.48-5.8-19.43-6.27-7.6-.51-15.11,.11-22.37,2.79-9.77,3.6-17.19,9.78-21.82,19.14-3.49,7.06-4.8,14.66-5.21,22.42-.3,5.6,.42,11.15,1.7,16.61,1.36,5.8,3.68,11.2,7.48,15.82,4.86,5.91,11.08,9.97,18.34,12.43,7.71,2.61,15.65,3.25,23.76,3.1,7.43-.14,14.68-1.15,21.8-3.13,3.28-.91,6.59-1.83,9.74-3.43-1.65-6.61-3.26-13.09-4.9-19.67-1.58,.51-2.87,.93-4.17,1.34-4.88,1.52-9.83,2.57-14.95,3.14-4.99,.56-9.84,.23-14.61-.9-5.95-1.42-10.12-5.06-11.92-11.08-.5-1.67-.87-3.27-1.08-5.45h49.43s.26-.16,1.33-2.54c1.35-3.32,1.81-6.81,2.13-10.3,.41-4.51,0-9.01-1.09-13.43-2.13-8.62-6.47-15.77-14.13-20.58Zm-34.04,16.82c2.22-3.17,5.41-4.92,9.29-5.08,3.02-.12,6.12,.28,8.56,2.2,2.93,2.3,4.28,5.98,4.77,9.58,.28,2.1,.31,5.86,.27,7.96h-2.09c-.11-.01-.23-.02-.35-.02-3.85,.03-7.69,.01-11.54,.01-3.85,0-7.69-.01-11.54,0-.01,0-.02,0-.03,0h-1.81c.45-4.94,1.65-10.65,4.46-14.66Z"/><path class="b" d="M818.95,75.3c3.07-5.77,8.07-8.46,14.31-9,6.1-.53,11.91,.88,17.45,3.43,.68,.32,1.42,.52,2.41,.87,1.87-7.51,2.95-14.94,4.73-22.27-.25-.16-.47-.36-.73-.46-.64-.26-1.28-.49-1.94-.7-8.39-2.62-16.94-4.14-25.78-3.97-6.54,.12-12.89,1.11-19.04,3.34-7.93,2.88-14.33,7.7-18.99,14.77-4.27,6.48-6.24,13.76-6.82,21.34-.58,7.64-.39,15.31,1.66,22.82,2.16,7.89,5.97,14.78,12.31,20.03,7.84,6.49,17.05,9.48,27.15,10.04,3.23,.18,6.45,.05,9.68,.01,3.56-.04,7.06-.53,10.52-1.31,3.91-.88,7.81-1.89,11.43-3.78-1.61-7.01-3.2-13.94-4.79-20.9-1.94,.55-3.61,1.08-5.32,1.49-5.59,1.33-11.19,2.02-16.94,.92-6.39-1.23-10.53-4.83-12.73-10.91-1.58-4.35-1.82-8.81-1.65-13.34,.16-4.35,1.02-8.51,3.1-12.43Z"/><path class="b" d="M766.36,4.65c3.91,3.87,5.56,8.76,4.44,14.28-1.7,8.37-8.32,12.74-16.31,12.97-4.25,.12-8.12-.94-11.65-3.42-3.65-2.56-5.43-6.18-6-10.37-.65-4.79,.58-9.21,3.9-12.81,2.9-3.14,6.62-4.85,10.9-5.26,.78-.08,1.58-.01,1.77-.01,5.4-.29,9.63,1.34,12.94,4.62Zm-27.75,129h30.6V45h-30.6v88.65Z"/><rect class="b" x="969.4" y="5.41" width="30.6" height="128.24"/></g><g><path class="b" d="M1032.17,31.36c-7.04,0-12.76-5.72-12.76-12.76s5.72-12.76,12.76-12.76,12.76,5.72,12.76,12.76-5.72,12.76-12.76,12.76Zm0-24.52c-6.49,0-11.76,5.28-11.76,11.76s5.28,11.76,11.76,11.76,11.76-5.28,11.76-11.76-5.28-11.76-11.76-11.76Z"/><path class="b" d="M1030.55,20.22v5.36h-2.96V11.62h4.07c1.9,0,3.3,.34,4.21,1.04s1.37,1.74,1.37,3.15c0,.82-.23,1.55-.68,2.19-.45,.64-1.09,1.14-1.92,1.5,2.1,3.14,3.47,5.17,4.1,6.08h-3.28l-3.33-5.36h-1.58Zm0-2.41h.96c.94,0,1.63-.16,2.07-.47,.45-.31,.67-.8,.67-1.47s-.23-1.13-.68-1.41c-.46-.28-1.16-.42-2.11-.42h-.9v3.77Z"/></g></svg>