<svg width="18" height="18" viewBox="0 0 18 18" fill="none" xmlns="http://www.w3.org/2000/svg">
<path d="M16 14.46C15.11 14.4 14.24 14.25 13.41 14.01L12.21 15.21C13.41 15.62 14.68 15.88 16 15.97L16 14.46ZM3.98 4.6C3.74 3.75 3.59 2.88 3.53 2L2.04 2C2.13 3.32 2.39 4.59 2.79 5.8L3.98 4.6ZM18 13.5L18 17C18 17.55 17.55 18 17 18C7.61 18 -4.54161e-07 10.39 -4.37114e-08 0.999999C-1.96701e-08 0.449999 0.450001 -7.67135e-07 1 -7.43094e-07L4.49 -5.90541e-07C5.04 -5.665e-07 5.49 0.449999 5.49 0.999999C5.49 2.24 5.69 3.45 6.06 4.57C6.1 4.67 6.11 4.78 6.11 4.88C6.11 5.14 6.01 5.39 5.82 5.59L3.62 7.79C5.07 10.62 7.38 12.94 10.21 14.38L12.41 12.18C12.69 11.9 13.08 11.82 13.43 11.93C14.55 12.3 15.75 12.5 17 12.5C17.55 12.5 18 12.95 18 13.5Z" fill="#666E5A"/>
</svg>
