<svg width="20" height="18" viewBox="0 0 20 18" fill="none" xmlns="http://www.w3.org/2000/svg">
<path d="M19.8976 5.89L18.8476 1.52C18.6276 0.62 17.8476 0 16.9376 0H3.04757C2.14757 0 1.35757 0.63 1.14757 1.52L0.0975652 5.89C-0.142435 6.91 0.0775653 7.95 0.717565 8.77C0.797565 8.88 0.907565 8.96 0.997565 9.06V16C0.997565 17.1 1.89757 18 2.99757 18H16.9976C18.0976 18 18.9976 17.1 18.9976 16V9.06C19.0876 8.97 19.1976 8.88 19.2776 8.78C19.9176 7.96 20.1476 6.91 19.8976 5.89ZM16.9076 1.99L17.9576 6.36C18.0576 6.78 17.9676 7.2 17.7076 7.53C17.5676 7.71 17.2676 8 16.7676 8C16.1576 8 15.6276 7.51 15.5576 6.86L14.9776 2L16.9076 1.99ZM10.9976 2H12.9576L13.4976 6.52C13.5476 6.91 13.4276 7.3 13.1676 7.59C12.9476 7.85 12.6276 8 12.2176 8C11.5476 8 10.9976 7.41 10.9976 6.69V2ZM6.48757 6.52L7.03757 2H8.99757V6.69C8.99757 7.41 8.44757 8 7.70757 8C7.36757 8 7.05756 7.85 6.81756 7.59C6.56756 7.3 6.44757 6.91 6.48757 6.52ZM2.03757 6.36L3.04757 2H5.01757L4.43757 6.86C4.35757 7.51 3.83757 8 3.22757 8C2.73757 8 2.42757 7.71 2.29757 7.53C2.02757 7.21 1.93757 6.78 2.03757 6.36ZM2.99757 16V9.97C3.07757 9.98 3.14757 10 3.22757 10C4.09757 10 4.88757 9.64 5.46757 9.05C6.06756 9.65 6.86757 10 7.77757 10C8.64756 10 9.42757 9.64 10.0076 9.07C10.5976 9.64 11.3976 10 12.2976 10C13.1376 10 13.9376 9.65 14.5376 9.05C15.1176 9.64 15.9076 10 16.7776 10C16.8576 10 16.9276 9.98 17.0076 9.97V16H2.99757Z" fill="#B7CE95"/>
</svg>
