<?xml version="1.0" standalone="no"?>
<!DOCTYPE svg PUBLIC "-//W3C//DTD SVG 1.1//EN" "http://www.w3.org/Graphics/SVG/1.1/DTD/svg11.dtd" >
<svg xmlns="http://www.w3.org/2000/svg" xmlns:xlink="http://www.w3.org/1999/xlink" version="1.1">
<metadata>
Created by FontForge 20170731 at Wed Jun  3 14:06:43 2009
 By Aleksey,,,
Copyright (c) 2009 by Fontsmith Ltd. All rights reserved.
</metadata>
<defs>
<font id="FSMe-Light" horiz-adv-x="574" >
  <font-face 
    font-family="FS Me Light"
    font-weight="300"
    font-stretch="normal"
    units-per-em="1000"
    panose-1="2 0 5 6 4 0 0 2 0 4"
    ascent="750"
    descent="-250"
    x-height="528"
    cap-height="720"
    bbox="-81 -275.333 1220 1033"
    underline-thickness="50"
    underline-position="-150"
    unicode-range="U+000D-FB02"
  />
<missing-glyph horiz-adv-x="694" 
d="M90 0v720h514v-720h-514zM348 406l174 263h-350zM378 360l175 -262v524zM172 52h350l-174 262zM142 622v-524l174 262z" />
    <glyph glyph-name="fi" unicode="fi" horiz-adv-x="548" 
d="M299 472h-123v-462q0 -10 -28 -10h-8q-29 0 -29 10v462h-70q-9 0 -9 24v7q0 25 9 25h70v41q0 106 47.5 153.5t149.5 47.5q77 0 151 -36q8 -4 -1 -26l-2 -5q-6 -15 -9 -18t-10 0q-68 31 -130 31q-73 0 -102 -33.5t-29 -115.5v-39h123q9 0 9 -25v-7q0 -24 -9 -24zM405 10
v509q0 9 28 9h8q29 0 29 -9v-509q0 -10 -28 -10h-8q-29 0 -29 10z" />
    <glyph glyph-name="fl" unicode="fl" horiz-adv-x="588" 
d="M414 132v351q0 119 -7 226q-43 20 -97 20q-76 0 -105 -41.5t-29 -120.5v-39h123q9 0 9 -25v-7q0 -24 -9 -24h-123v-462q0 -10 -28 -10h-8q-29 0 -29 10v462h-70q-9 0 -9 24v7q0 25 9 25h70v41q0 213 199 213q73 0 140 -29q19 -8 21 -25q8 -87 8 -268v-348q0 -35 7 -48
t29 -13q8 0 20 2q4 1 6 -2.5t3 -15.5l1 -7q2 -12 0 -16t-9 -6q-20 -6 -41 -6q-47 0 -66 28q-15 23 -15 104z" />
    <glyph glyph-name=".notdef" horiz-adv-x="694" 
d="M90 0v720h514v-720h-514zM348 406l174 263h-350zM378 360l175 -262v524zM172 52h350l-174 262zM142 622v-524l174 262z" />
    <glyph glyph-name=".null" horiz-adv-x="0" 
 />
    <glyph glyph-name="nonmarkingreturn" horiz-adv-x="333" 
 />
    <glyph glyph-name="CR" unicode="&#xd;" horiz-adv-x="250" 
 />
    <glyph glyph-name="space" unicode=" " horiz-adv-x="250" 
 />
    <glyph glyph-name="exclam" unicode="!" horiz-adv-x="307" 
d="M144 720h14q37 0 37 -12l-17 -504q0 -7 -21 -7h-10q-21 0 -21 7l-19 504q0 12 37 12zM152 97q22 0 37.5 -15.5t15.5 -38.5t-15.5 -38t-37.5 -15q-21 0 -36 15.5t-15 37.5t15 38t36 16z" />
    <glyph glyph-name="quotedbl" unicode="&#x22;" horiz-adv-x="428" 
d="M130 449h-7q-23 0 -23 7l-9 254q0 10 29 10h13q29 0 29 -10l-9 -254q0 -7 -23 -7zM305 449h-7q-23 0 -23 7l-9 254q0 10 29 10h13q29 0 29 -10l-9 -254q0 -7 -23 -7z" />
    <glyph glyph-name="numbersign" unicode="#" 
d="M303 0q-11 0 -14 2t-2 8l43 205h-157l-43 -205q-2 -10 -19 -10h-13q-11 0 -14 2t-2 8l43 205h-90q-9 0 -9 17v6q0 17 9 17h97l48 215h-99q-9 0 -9 17v6q0 17 9 17h107l42 200q2 10 19 10h13q11 0 14 -2t2 -8l-42 -200h157l42 200q3 10 19 10h12q11 0 14 -2t2 -8l-42 -200
h99q9 0 9 -17v-6q0 -17 -9 -17h-107l-46 -215h107q9 0 9 -17v-6q0 -17 -9 -17h-116l-43 -205q-2 -10 -19 -10h-12zM228 470l-47 -215h157l47 215h-157z" />
    <glyph glyph-name="dollar" unicode="$" 
d="M84 47q-9 6 4 29l3 5q13 21 21 16q78 -50 160 -50q74 0 120 38t46 98q0 28 -11.5 51t-34.5 41.5t-46 32t-56 30.5q-11 5 -16 8q-38 20 -62.5 35.5t-51.5 40t-40.5 56.5t-13.5 71q0 77 56 126.5t136 53.5v84q0 8 23 8h3q25 0 25 -8v-86q76 -11 127 -46q9 -5 -3 -26l-3 -5
q-12 -21 -21 -16q-71 39 -135 39q-61 0 -100.5 -32.5t-39.5 -88.5q0 -28 10.5 -50t34.5 -41.5t43.5 -31t55.5 -30.5q32 -16 46 -24t41.5 -25t41 -31t30 -34.5t23 -45t6.5 -53.5q0 -80 -53.5 -133t-142.5 -61v-82q0 -8 -25 -8h-3q-23 0 -23 8v81q-110 5 -175 56z" />
    <glyph glyph-name="percent" unicode="%" horiz-adv-x="886" 
d="M214 683q-46 0 -73.5 -41t-27.5 -119q0 -150 96 -150q47 0 73.5 42t26.5 119q0 149 -95 149zM217 730q74 0 115 -48.5t41 -145.5q0 -101 -44 -156t-123 -55q-73 0 -114.5 49t-41.5 145q0 102 44 156.5t123 54.5zM242 -5l344 731q6 11 29 11h10q15 0 19 -2.5t0 -10.5
l-345 -731q-5 -11 -29 -11h-10q-15 0 -18.5 3t0.5 10zM677 348q-46 0 -73.5 -41t-27.5 -119q0 -150 96 -150q47 0 73.5 42t26.5 119q0 149 -95 149zM680 395q74 0 115 -48.5t41 -145.5q0 -101 -44 -156t-123 -55q-73 0 -114.5 49t-41.5 145q0 102 44 156.5t123 54.5z" />
    <glyph glyph-name="ampersand" unicode="&#x26;" horiz-adv-x="701" 
d="M443 652q-60 21 -111 21q-56 0 -92 -33.5t-36 -95.5q0 -59 35.5 -109t129.5 -136l131 -120q55 87 76 214q2 9 26 9h3q25 0 25 -9q-20 -148 -89 -252l114 -103q8 -7 -7 -25l-10 -11q-16 -18 -26 -9l-109 99q-92 -102 -223 -102q-105 0 -166.5 57t-61.5 144q0 67 35 120.5
t99 86.5q-50 70 -50 144q0 83 55.5 135t141.5 52q71 0 128 -27q7 -3 1 -25l-3 -10q-4 -12 -6.5 -14.5t-9.5 -0.5zM286 46q102 0 177 83l-155 141q-50 44 -90 88q-45 -26 -70.5 -68t-25.5 -93q0 -69 45.5 -110t118.5 -41z" />
    <glyph glyph-name="quotesingle" unicode="'" horiz-adv-x="253" 
d="M130 449h-7q-23 0 -23 7l-9 254q0 10 29 10h13q29 0 29 -10l-9 -254q0 -7 -23 -7z" />
    <glyph glyph-name="parenleft" unicode="(" horiz-adv-x="330" 
d="M92 312q0 259 143 447q6 7 22 -3l11 -7q17 -11 11 -19q-122 -183 -122 -418t122 -418q6 -8 -11 -19l-11 -7q-16 -10 -22 -3q-143 188 -143 447z" />
    <glyph glyph-name="parenright" unicode=")" horiz-adv-x="330" 
d="M238 312q0 -259 -143 -447q-6 -7 -22 3l-11 7q-17 11 -11 19q122 183 122 418t-122 418q-6 8 11 19l11 7q16 10 22 3q143 -188 143 -447z" />
    <glyph glyph-name="asterisk" unicode="*" horiz-adv-x="401" 
d="M177 564l-128 23q-11 3 -4 22l4 11q7 19 17 16l120 -47l-12 132q0 9 21 9h10q14 0 17.5 -2t3.5 -7l-11 -132l120 47q6 2 9 -1.5t7 -14.5l4 -11q7 -19 -4 -22l-127 -23l74 -109q5 -8 -14 -18l-9 -5q-17 -10 -21 -3l-54 117l-56 -117q-4 -7 -22 3l-9 5q-19 11 -13 18z" />
    <glyph glyph-name="plus" unicode="+" 
d="M263 126v215h-214q-8 0 -8 22v3q0 22 8 22h214v214q0 8 22 8h3q22 0 22 -8v-214h215q8 0 8 -22v-3q0 -22 -8 -22h-215v-215q0 -8 -22 -8h-3q-22 0 -22 8z" />
    <glyph glyph-name="comma" unicode="," horiz-adv-x="241" 
d="M46 -170l-4 5q-8 10 -2 16q63 63 63 112q0 24 -23 49.5t-23 45.5q0 21 15 34.5t37 13.5q28 0 45 -20t17 -49q0 -58 -29.5 -115.5t-78.5 -96.5q-7 -6 -17 5z" />
    <glyph glyph-name="hyphen" unicode="-" horiz-adv-x="382" 
d="M60 330h262q8 0 8 -23v-3q0 -25 -8 -25h-262q-8 0 -8 25v3q0 23 8 23z" />
    <glyph glyph-name="period" unicode="." horiz-adv-x="241" 
d="M120 106q24 0 40.5 -17t16.5 -41q0 -25 -16.5 -41.5t-40.5 -16.5q-23 0 -39.5 16.5t-16.5 41.5q0 24 16.5 41t39.5 17z" />
    <glyph glyph-name="slash" unicode="/" horiz-adv-x="334" 
d="M25 -4l220 731q3 11 32 11h4q19 0 24.5 -2.5t3.5 -10.5l-220 -731q-3 -11 -32 -11h-4q-19 0 -24.5 2.5t-3.5 10.5z" />
    <glyph glyph-name="zero" unicode="0" 
d="M290 672q-83 0 -127 -80.5t-44 -239.5q0 -304 163 -304q85 0 129 82.5t44 241.5q0 300 -165 300zM294 730q111 0 171.5 -86.5t60.5 -266.5q0 -187 -64.5 -287t-183.5 -100q-110 0 -170.5 88.5t-60.5 266.5q0 188 64.5 286.5t182.5 98.5z" />
    <glyph glyph-name="one" unicode="1" 
d="M158 54h117v593l-157 -95q-7 -4 -11 -1.5t-11 14.5l-5 9q-11 19 0 26l178 108q21 12 42 12h13q20 0 20 -7v-659h108q9 0 9 -24v-7q0 -23 -9 -23h-294q-9 0 -9 23v7q0 24 9 24z" />
    <glyph glyph-name="two" unicode="2" 
d="M81 25v3q0 22 10 34l145 171q85 100 122.5 170.5t37.5 131.5q0 66 -38 101.5t-98 35.5q-70 0 -151 -43q-12 -7 -22 11l-5 10q-9 19 -1 25q87 55 183 55q87 0 143.5 -51.5t56.5 -139.5q0 -75 -42.5 -150.5t-135.5 -183.5l-127 -147h309q9 0 9 -25v-8q0 -25 -9 -25h-378
q-9 0 -9 25z" />
    <glyph glyph-name="three" unicode="3" 
d="M203 352h-21q-9 0 -9 23v6q0 24 9 24h17q102 0 148 45q36 36 36 93q0 54 -31 88q-38 42 -108 42q-61 0 -132 -30q-14 -6 -21 11l-4 10q-8 22 -1 26q73 40 162 40q98 0 156 -58q47 -49 47 -122q0 -60 -35.5 -105t-93.5 -62q63 -14 109 -61.5t46 -119.5q0 -101 -69 -156.5
t-170 -55.5q-94 0 -163 33q-10 5 -2 27l4 10q5 11 8.5 14t11.5 0q67 -26 132 -26q90 0 138 45q42 40 42 106q0 63 -41 101q-56 52 -165 52z" />
    <glyph glyph-name="four" unicode="4" 
d="M55 273l205 436q5 11 32 11h7q10 0 16 -0.5t9.5 -2t4 -4t-1.5 -6.5l-215 -457h245v172q0 9 29 9h7q32 0 32 -9v-172h96q6 0 7.5 -5t1.5 -23v-2q0 -18 -1.5 -22.5t-7.5 -4.5h-96v-184q0 -9 -32 -9h-7q-29 0 -29 9v184h-281q-32 0 -32 8v21q0 29 11 51z" />
    <glyph glyph-name="five" unicode="5" 
d="M180 662v-226q32 8 74 8q111 0 176 -63q60 -58 60 -153q0 -106 -68.5 -172t-183.5 -66q-43 0 -86 9.5t-65 21.5q-11 5 -2 28l4 10q7 18 20 13q63 -24 126 -24q90 0 139 47q48 46 48 129q0 75 -41 118q-45 48 -142 48q-61 0 -126 -18v348h344q9 0 9 -25v-8q0 -25 -9 -25
h-277z" />
    <glyph glyph-name="six" unicode="6" 
d="M452 657q-45 17 -95 17q-92 0 -144 -79t-70 -203q77 53 164 53q101 0 155.5 -62t54.5 -161q0 -102 -58.5 -167t-160.5 -65q-116 0 -173 81.5t-57 228.5q0 79 17.5 153t51 137t90.5 101.5t130 38.5q69 0 121 -26q7 -4 -1 -26l-4 -10q-4 -10 -8.5 -12t-12.5 1zM138 336
q0 -148 37.5 -219t123.5 -71q71 0 110 46.5t39 123.5q0 74 -34.5 124t-114.5 50q-76 0 -161 -54z" />
    <glyph glyph-name="seven" unicode="7" 
d="M495 641l-260 -630q-5 -11 -32 -11h-8q-19 0 -25 2.5t-3 10.5l272 649h-349q-9 0 -9 25v8q0 25 9 25h391q22 0 22 -6v-34q0 -19 -8 -39z" />
    <glyph glyph-name="eight" unicode="8" 
d="M488 560q0 -106 -146 -172q40 -19 65 -34t53 -38.5t41.5 -53t13.5 -66.5q0 -93 -67.5 -149.5t-168.5 -56.5q-92 0 -156.5 50.5t-64.5 141.5q0 68 44 121.5t116 78.5q-60 31 -93 70.5t-33 100.5q0 81 59 129t141 48q81 0 138.5 -47t57.5 -123zM448 189q0 30 -12 54t-40 44
t-48 31.5t-62 30.5q-11 5 -17 8q-68 -25 -105 -69.5t-37 -101.5q0 -64 44.5 -102t112.5 -38q71 0 117.5 40t46.5 103zM159 559q0 -50 34.5 -83t98.5 -64q129 58 129 146q0 52 -36.5 84.5t-94.5 32.5q-59 0 -95 -33t-36 -83z" />
    <glyph glyph-name="nine" unicode="9" 
d="M117 69q54 -23 108 -23q77 0 123 46q64 64 83 236q-78 -53 -165 -53q-101 0 -155.5 61.5t-54.5 160.5q0 101 58 167t158 66q116 0 174.5 -83.5t58.5 -227.5q0 -259 -110 -366q-66 -63 -165 -63q-80 0 -139 32q-7 4 1 26l4 10q7 17 21 11zM436 384q0 145 -39 217.5
t-125 72.5q-69 0 -108 -46.5t-39 -124.5q0 -74 34.5 -123.5t114.5 -49.5q77 0 162 54z" />
    <glyph glyph-name="colon" unicode=":" horiz-adv-x="240" 
d="M64 48q0 24 16.5 40.5t39.5 16.5t39.5 -16.5t16.5 -40.5q0 -25 -16.5 -41.5t-39.5 -16.5t-39.5 16.5t-16.5 41.5zM64 438q0 24 16.5 41t39.5 17t39.5 -17t16.5 -41t-16.5 -41t-39.5 -17t-39.5 17t-16.5 41z" />
    <glyph glyph-name="semicolon" unicode=";" horiz-adv-x="240" 
d="M64 438q0 24 16.5 41t39.5 17t39.5 -17t16.5 -41t-16.5 -41t-39.5 -17t-39.5 17t-16.5 41zM53 -170l-4 5q-8 10 -2 16q63 63 63 112q0 24 -23 49.5t-23 45.5q0 21 15 34.5t37 13.5q28 0 45 -20t17 -49q0 -58 -29.5 -115.5t-78.5 -96.5q-7 -6 -17 5z" />
    <glyph glyph-name="less" unicode="&#x3c;" 
d="M42 366v8q0 20 9 25l449 251q10 5 20 -13l4 -7q11 -19 3 -23l-425 -237l425 -237q8 -4 -3 -23l-4 -7q-10 -18 -20 -13l-449 251q-9 5 -9 25z" />
    <glyph glyph-name="equal" unicode="=" 
d="M525 442h-476q-8 0 -8 22v3q0 22 8 22h476q8 0 8 -22v-3q0 -22 -8 -22zM525 239h-476q-8 0 -8 22v3q0 22 8 22h476q8 0 8 -22v-3q0 -22 -8 -22z" />
    <glyph glyph-name="greater" unicode="&#x3e;" 
d="M532 374v-8q0 -20 -9 -25l-449 -251q-10 -5 -20 13l-4 7q-11 19 -3 23l425 237l-425 237q-8 4 3 23l4 7q10 18 20 13l449 -251q9 -5 9 -25z" />
    <glyph glyph-name="question" unicode="?" horiz-adv-x="419" 
d="M167 195h-10q-29 0 -29 8v66q0 56 24.5 89.5t91.5 77.5q46 30 64 55t18 62q0 48 -29 80q-35 37 -103 37q-63 0 -132 -32q-9 -5 -19 15l-5 10q-6 12 -6 16.5t6 9.5q25 16 71 28t88 12q97 0 152 -53q50 -47 50 -123q0 -40 -17 -72t-35.5 -48.5t-50.5 -37.5
q-59 -39 -79.5 -63t-20.5 -69v-60q0 -8 -29 -8zM111 42q0 23 15 38.5t37 15.5q23 0 38.5 -16t15.5 -38t-15.5 -37.5t-38.5 -15.5q-22 0 -37 15.5t-15 37.5z" />
    <glyph glyph-name="at" unicode="@" horiz-adv-x="822" 
d="M437 538q54 0 93 -37l7 23q2 7 29 7h10q12 0 17 -2t4 -6l-43 -204q-5 -27 -5 -44q0 -64 59 -64q52 0 87 55t35 149q0 122 -78 191.5t-206 69.5q-150 0 -247 -99t-97 -247q0 -139 79 -214.5t219 -75.5q79 0 162 24q6 1 8.5 -1.5t4.5 -12.5l4 -14q3 -14 -5 -16
q-90 -30 -186 -30q-154 0 -252 91t-98 249q0 119 57 211.5t149.5 140.5t203.5 48q149 0 246 -84.5t97 -226.5q0 -121 -55 -188.5t-135 -67.5q-43 0 -72 22t-35 55q-19 -35 -53 -56t-72 -21q-64 0 -98.5 40t-34.5 106q0 88 55.5 158.5t145.5 70.5zM497 345l22 110
q-33 38 -83 38q-59 0 -97 -55t-38 -129q0 -44 18.5 -71t58.5 -27t71 31q34 34 48 103z" />
    <glyph glyph-name="A" unicode="A" horiz-adv-x="626" 
d="M524 10l-61 184h-308l-61 -184q-4 -10 -35 -10h-5q-14 0 -20.5 1.5t-8 3.5t-0.5 6l242 696q5 13 43 13h2q38 0 43 -13l246 -696q1 -4 -0.5 -6t-8.5 -3.5t-21 -1.5h-10q-33 0 -37 10zM310 657l-137 -407h272z" />
    <glyph glyph-name="B" unicode="B" horiz-adv-x="565" 
d="M82 720h161q134 0 194 -57q48 -45 48 -124q0 -61 -33 -102.5t-80 -56.5q66 -15 108.5 -61t42.5 -117q0 -82 -50 -134q-67 -68 -214 -68h-177v720zM151 345v-289h100q113 0 162 45q39 35 39 99q0 60 -36 96q-49 49 -160 49h-105zM151 664v-267h83q102 0 146 44
q35 35 35 91q0 63 -36 96q-40 36 -138 36h-90z" />
    <glyph glyph-name="C" unicode="C" horiz-adv-x="564" 
d="M355 671q-116 0 -175.5 -84t-59.5 -231q0 -148 58.5 -227.5t174.5 -79.5q76 0 142 33q10 5 18 -15l4 -10q9 -21 -1 -26q-77 -41 -180 -41q-136 0 -212 97.5t-76 262.5q0 184 84 282t219 98q95 0 168 -46q7 -5 -2 -24l-5 -11q-9 -18 -18 -14q-78 36 -139 36z" />
    <glyph glyph-name="D" unicode="D" horiz-adv-x="646" 
d="M82 720h162q96 0 160 -23t110 -71q85 -90 85 -263q0 -182 -93 -275q-88 -88 -261 -88h-163v720zM151 664v-608h88q142 0 212 68q76 75 76 237q0 157 -75 233q-36 36 -85.5 53t-129.5 17h-86z" />
    <glyph glyph-name="E" unicode="E" horiz-adv-x="534" 
d="M472 0h-390v720h386q9 0 9 -26v-4q0 -27 -9 -27h-317v-270h269q9 0 9 -26v-4q0 -27 -9 -27h-269v-279h321q9 0 9 -26v-4q0 -27 -9 -27z" />
    <glyph glyph-name="F" unicode="F" horiz-adv-x="479" 
d="M151 336v-325q0 -11 -31 -11h-5q-33 0 -33 11v709h360q9 0 9 -26v-4q0 -27 -9 -27h-291v-270h243q9 0 9 -26v-4q0 -27 -9 -27h-243z" />
    <glyph glyph-name="G" unicode="G" horiz-adv-x="636" 
d="M525 625q-83 46 -167 46q-117 0 -178 -84t-61 -228t60 -227.5t186 -83.5q74 0 140 27v243h-163q-9 0 -9 26v4q0 27 9 27h230v-337q-111 -48 -211 -48q-139 0 -218 81q-96 98 -96 283q0 174 83.5 275t227.5 101q111 0 192 -56q7 -5 -2 -24l-5 -11q-9 -19 -18 -14z" />
    <glyph glyph-name="H" unicode="H" horiz-adv-x="656" 
d="M82 9v702q0 9 29 9h8q32 0 32 -9v-318h354v318q0 9 29 9h8q32 0 32 -9v-702q0 -9 -32 -9h-8q-29 0 -29 9v327h-354v-327q0 -9 -32 -9h-8q-29 0 -29 9z" />
    <glyph glyph-name="I" unicode="I" horiz-adv-x="365" 
d="M292 0h-219q-6 0 -7.5 3.5t-1.5 17.5v4q0 14 1.5 18t7.5 4h75v626h-75q-6 0 -7.5 3.5t-1.5 17.5v4q0 14 1.5 18t7.5 4h219q6 0 7.5 -4t1.5 -18v-4q0 -14 -1.5 -17.5t-7.5 -3.5h-75v-626h75q6 0 7.5 -4t1.5 -18v-4q0 -14 -1.5 -17.5t-7.5 -3.5z" />
    <glyph glyph-name="J" unicode="J" horiz-adv-x="438" 
d="M324 720h8q32 0 32 -9v-516q0 -103 -49 -155q-47 -50 -136 -50q-85 0 -148 42q-11 7 -1 26l5 10q10 19 22 13q66 -33 116 -33q61 0 92 37q30 37 30 126v500q0 9 29 9z" />
    <glyph glyph-name="K" unicode="K" horiz-adv-x="571" 
d="M82 9v702q0 9 29 9h8q32 0 32 -9v-375l103 110q144 154 200 266q4 8 27 8h14q14 0 18.5 -2t2.5 -8q-52 -122 -214 -290l244 -407q7 -11 -12 -13h-11h-16q-32 0 -38 10l-214 361l-104 -108v-254q0 -9 -32 -9h-8q-29 0 -29 9z" />
    <glyph glyph-name="L" unicode="L" horiz-adv-x="495" 
d="M151 711v-654h297q9 0 9 -26v-4q0 -27 -9 -27h-338q-28 0 -28 11v700q0 9 29 9h8q32 0 32 -9z" />
    <glyph glyph-name="M" unicode="M" horiz-adv-x="777" 
d="M143 720q39 0 43 -10l208 -516l199 516q4 10 45 10h5q37 0 37 -10l30 -703q0 -7 -30 -7h-6q-30 0 -30 7l-23 627l-193 -497q-3 -8 -33 -8h-8q-30 0 -33 8l-200 489l-23 -619q0 -7 -30 -7h-4q-30 0 -30 7l34 703q0 10 37 10h5z" />
    <glyph glyph-name="N" unicode="N" horiz-adv-x="677" 
d="M516 10l-374 615v-616q0 -9 -28 -9h-7q-27 0 -27 9v702q0 9 29 9h7q39 0 45 -10l374 -615v616q0 9 27 9h7q28 0 28 -9v-702q0 -9 -29 -9h-7q-39 0 -45 10z" />
    <glyph glyph-name="O" unicode="O" horiz-adv-x="693" 
d="M353 671q-109 0 -171.5 -83.5t-62.5 -233.5q0 -146 58 -225.5t163 -79.5q108 0 171 84t63 234q0 146 -58 225t-163 79zM356 730q132 0 211 -92.5t79 -266.5q0 -175 -83.5 -278t-225.5 -103q-132 0 -211 93t-79 267q0 175 83.5 277.5t225.5 102.5z" />
    <glyph glyph-name="P" unicode="P" horiz-adv-x="525" 
d="M151 664v-321q51 -8 103 -8q91 0 134 43q45 45 45 127q0 73 -39 112q-47 47 -164 47h-79zM82 9v711h151q151 0 217 -65q54 -54 54 -147q0 -105 -63 -168q-61 -61 -178 -61q-55 0 -112 9v-279q0 -9 -32 -9h-8q-29 0 -29 9z" />
    <glyph glyph-name="Q" unicode="Q" horiz-adv-x="693" 
d="M356 730q132 0 211 -92.5t79 -266.5q0 -115 -37.5 -201t-105.5 -132q32 -46 88 -102q8 -8 -9 -23l-10 -9q-15 -14 -23 -6q-51 51 -96 113q-57 -21 -116 -21q-132 0 -211 93t-79 267q0 175 83.5 277.5t225.5 102.5zM353 671q-109 0 -171.5 -83.5t-62.5 -233.5
q0 -146 58 -225.5t163 -79.5q42 0 79 14q-34 55 -51 103q-2 7 0.5 10t13.5 8l14 6q13 5 16.5 3.5t6.5 -8.5q19 -46 49 -95q106 79 106 277q0 146 -58 225t-163 79z" />
    <glyph glyph-name="R" unicode="R" horiz-adv-x="554" 
d="M255 305h-104v-296q0 -9 -32 -9h-8q-29 0 -29 9v711h152q159 0 224 -64q50 -48 50 -136q0 -92 -56 -148q-39 -39 -103 -56q49 -106 85.5 -172.5t83.5 -130.5q9 -13 -27 -13h-10q-31 0 -40 11q-79 100 -158 295q-9 -1 -28 -1zM151 665v-306h96q99 0 147 46q41 41 41 111
q0 66 -33 101q-45 48 -164 48h-87z" />
    <glyph glyph-name="S" unicode="S" horiz-adv-x="513" 
d="M49 47q-9 6 4 29l3 5q13 21 21 16q78 -50 160 -50q74 0 120 38t46 98q0 28 -11.5 51t-34.5 41.5t-46 32t-56 30.5q-11 5 -16 8q-38 20 -62.5 35.5t-51.5 40t-40.5 56.5t-13.5 71q0 80 60 130.5t144 50.5q93 0 166 -49q9 -5 -3 -26l-3 -5q-12 -21 -21 -16q-71 39 -135 39
q-61 0 -100.5 -32.5t-39.5 -88.5q0 -28 10.5 -50t34.5 -41.5t43.5 -31t55.5 -30.5q32 -16 46 -24t41.5 -25t41 -31t30 -34.5t23 -45t6.5 -53.5q0 -87 -63 -141.5t-165 -54.5q-57 0 -109 16t-85 41z" />
    <glyph glyph-name="T" unicode="T" horiz-adv-x="516" 
d="M227 663h-202q-9 0 -9 27v4q0 26 9 26h466q9 0 9 -27v-4q0 -26 -9 -26h-195v-654q0 -9 -32 -9h-8q-29 0 -29 9v654z" />
    <glyph glyph-name="U" unicode="U" horiz-adv-x="670" 
d="M595 711v-444q0 -146 -69 -212q-68 -65 -190 -65q-125 0 -192 64q-69 66 -69 212v445q0 9 29 9h8q32 0 32 -9v-436q0 -124 52 -178q48 -49 140 -49q91 0 139 49q52 54 52 178v436q0 9 29 9h7q32 0 32 -9z" />
    <glyph glyph-name="V" unicode="V" horiz-adv-x="594" 
d="M574 709l-225 -695q-3 -9 -12 -11.5t-33 -2.5h-5q-24 0 -33 2.5t-12 11.5l-234 693q-2 8 3.5 10.5t25.5 2.5h11q30 0 34 -11l212 -642l202 643q2 6 7.5 8t23.5 2h7q13 0 19.5 -1.5t8 -3.5t0.5 -6z" />
    <glyph glyph-name="W" unicode="W" horiz-adv-x="956" 
d="M928 709l-193 -695q-3 -14 -45 -14h-5q-43 0 -46 14l-158 577l-158 -577q-3 -14 -45 -14h-5q-24 0 -33 2.5t-12 11.5l-198 693q-2 8 3 10.5t26 2.5h11q31 0 34 -11l174 -642l173 643q3 10 29 10h8q26 0 29 -10l175 -644l170 644q2 10 31 10h7q13 0 19.5 -1.5t8 -3.5
t0.5 -6z" />
    <glyph glyph-name="X" unicode="X" horiz-adv-x="550" 
d="M455 9l-184 314l-179 -313q-6 -10 -39 -10h-5q-27 0 -27 9q0 2 2 6l217 363l-193 328q-6 11 13 13q6 1 15 1h12q29 0 34 -9l161 -276l157 275q6 10 39 10h5q8 0 13.5 -0.5t8.5 -2t4.5 -3t1 -4t-2.5 -5.5l-195 -325l216 -366q6 -11 -13 -13q-6 -1 -15 -1h-12q-29 0 -34 9z
" />
    <glyph glyph-name="Y" unicode="Y" horiz-adv-x="523" 
d="M254 0q-29 0 -29 9v269l-211 430q-1 2 -1 4t1.5 3.5t5 2.5t9.5 1.5t14 0.5h8q33 0 38 -11l177 -369l175 371q5 9 34 9h9q11 0 17 -1.5t7.5 -4t-0.5 -6.5l-214 -430v-269q0 -9 -32 -9h-8z" />
    <glyph glyph-name="Z" unicode="Z" horiz-adv-x="538" 
d="M474 642l-352 -585h369q9 0 9 -27v-4q0 -26 -9 -26h-426q-14 0 -18 2t-4 8v20q0 23 18 53l351 580h-341q-9 0 -9 27v4q0 26 9 26h399q14 0 18 -2t4 -8v-15q0 -23 -18 -53z" />
    <glyph glyph-name="bracketleft" unicode="[" horiz-adv-x="330" 
d="M296 -132h-188v885h188q6 0 7.5 -4t1.5 -18v-9q0 -14 -1.5 -17.5t-7.5 -3.5h-124v-781h124q6 0 7.5 -4t1.5 -18v-9q0 -14 -1.5 -17.5t-7.5 -3.5z" />
    <glyph glyph-name="backslash" unicode="\" horiz-adv-x="334" 
d="M89 727l220 -731q2 -8 -3.5 -10.5t-24.5 -2.5h-4q-29 0 -32 11l-220 731q-2 8 3.5 10.5t24.5 2.5h4q29 0 32 -11z" />
    <glyph glyph-name="bracketright" unicode="]" horiz-adv-x="330" 
d="M222 -132h-188q-6 0 -7.5 3.5t-1.5 17.5v9q0 14 1.5 18t7.5 4h124v781h-124q-6 0 -7.5 3.5t-1.5 17.5v9q0 14 1.5 18t7.5 4h188v-885z" />
    <glyph glyph-name="asciicircum" unicode="^" 
d="M286 730h2q28 0 33 -10l177 -375q4 -9 -10 -10q-5 -1 -14 -1h-9q-27 0 -32 9l-146 325l-146 -325q-5 -9 -32 -9h-9q-25 0 -25 7q0 1 1 4l177 375q5 10 33 10z" />
    <glyph glyph-name="underscore" unicode="_" horiz-adv-x="504" 
d="M7 -164h490q8 0 8 -21v-1q0 -23 -8 -23h-490q-8 0 -8 23v1q0 21 8 21z" />
    <glyph glyph-name="grave" unicode="`" horiz-adv-x="354" 
d="M129 721h15q30 0 36 -10l67 -118q3 -5 -7 -6q-4 -1 -13 -1h-4q-22 0 -27 6l-88 119q-6 8 8 9q5 1 13 1z" />
    <glyph glyph-name="a" unicode="a" horiz-adv-x="563" 
d="M484 369v-146q0 -116 7 -215q0 -8 -25 -8h-3q-26 0 -27 9l-8 62q-23 -39 -65.5 -60t-95.5 -21q-109 0 -164.5 74.5t-55.5 190.5q0 127 64 205t165 78q98 0 148 -73l5 53q1 10 28 10h7q15 0 18.5 -2t3.5 -10q0 -4 -0.5 -15.5t-0.5 -16.5q-1 -31 -1 -115zM419 246v150
q-53 82 -139 82q-75 0 -119 -59t-44 -159q0 -90 37 -150.5t119 -60.5q73 0 110 41q21 24 28.5 55t7.5 101z" />
    <glyph glyph-name="b" unicode="b" horiz-adv-x="557" 
d="M76 35v716q0 9 28 9h8q29 0 29 -9v-284q57 71 154 71q57 0 100 -22t67 -59.5t36 -82.5t12 -96q0 -134 -67 -211t-187 -77q-92 0 -167 28q-13 5 -13 17zM141 206v-140q49 -18 112 -18q94 0 140.5 58.5t46.5 164.5q0 207 -149 207q-74 0 -114 -45q-29 -33 -33 -84
q-3 -43 -3 -143z" />
    <glyph glyph-name="c" unicode="c" horiz-adv-x="483" 
d="M446 493q8 -6 -2 -28l-4 -8q-11 -22 -23 -15q-58 35 -122 35q-81 0 -129.5 -56.5t-48.5 -158.5q0 -93 40.5 -153t126.5 -60q75 0 131 30q7 4 11 0.5t9 -17.5l4 -11q7 -19 -1 -24q-65 -37 -161 -37q-112 0 -171 74t-59 192q0 133 68 207.5t175 74.5q88 0 156 -45z" />
    <glyph glyph-name="d" unicode="d" horiz-adv-x="581" 
d="M527 50q5 0 6 -3t1 -18v-4q0 -21 -6 -23q-14 -4 -34 -4q-62 0 -68 66q-45 -74 -157 -74q-106 0 -164 69.5t-58 193.5q0 120 62.5 202.5t177.5 82.5q78 0 133 -42v255q0 9 28 9h8q29 0 29 -9v-636q0 -42 8.5 -53.5t33.5 -11.5zM420 244v186q-56 47 -127 47q-80 0 -128 -60
t-48 -161t43 -154t117 -53q72 0 111 41q20 20 26 51.5t6 102.5z" />
    <glyph glyph-name="e" unicode="e" horiz-adv-x="541" 
d="M482 243h-365q4 -107 57 -152q44 -40 126 -40q77 0 137 30q7 4 11.5 1t10.5 -17l4 -10q8 -21 -1 -26q-75 -39 -173 -39q-115 0 -178.5 69.5t-63.5 192.5q0 126 63.5 206t173.5 80q124 0 178 -108q34 -69 34 -162q0 -16 -3 -20.5t-11 -4.5zM118 295h311q-2 76 -38.5 129
t-107.5 53q-146 0 -165 -182z" />
    <glyph glyph-name="f" unicode="f" horiz-adv-x="330" 
d="M299 472h-123v-462q0 -10 -28 -10h-8q-29 0 -29 10v462h-70q-9 0 -9 24v7q0 25 9 25h70v41q0 213 177 213q48 0 91 -17q9 -4 3 -26l-2 -7q-4 -14 -7.5 -18t-9.5 -2q-36 12 -72 12q-66 0 -90.5 -38t-24.5 -119v-39h123q9 0 9 -25v-7q0 -24 -9 -24z" />
    <glyph glyph-name="g" unicode="g" horiz-adv-x="561" 
d="M484 519q4 -106 4 -252v-174q0 -129 -20 -194q-22 -70 -79 -107t-140 -37q-82 0 -139 26q-10 5 -2 28l2 6q6 17 9 20.5t11 0.5q51 -21 119 -21q143 0 168 128q6 39 6 123q-63 -66 -165 -66t-156.5 71.5t-54.5 186.5q1 129 65 204.5t165 75.5q99 0 145 -67l1 48q0 9 28 9
h4q19 0 24 -2t5 -7zM423 132v152q0 95 -17 128q-32 63 -120 63q-82 0 -125.5 -57t-43.5 -156q0 -202 158 -202q88 0 148 72z" />
    <glyph glyph-name="h" unicode="h" horiz-adv-x="580" 
d="M143 751v-294q58 81 173 81q93 0 143 -52q49 -50 49 -168v-307q0 -11 -28 -11h-8q-29 0 -29 11v262q0 70 -6 105t-26 58q-32 38 -111 38q-78 0 -124 -49q-25 -28 -30 -72q-3 -29 -3 -145v-197q0 -11 -28 -11h-8q-29 0 -29 11v740q0 9 28 9h8q29 0 29 -9z" />
    <glyph glyph-name="i" unicode="i" horiz-adv-x="221" 
d="M59 710q0 22 15.5 38t36.5 16t36.5 -16t15.5 -38q0 -23 -15.5 -38t-36.5 -15t-36.5 15t-15.5 38zM78 10v509q0 9 28 9h8q29 0 29 -9v-509q0 -10 -28 -10h-8q-29 0 -29 10z" />
    <glyph glyph-name="j" unicode="j" horiz-adv-x="246" 
d="M83 710q0 22 15.5 38t36.5 16t36.5 -16t15.5 -38q0 -23 -15.5 -38t-36.5 -15t-36.5 15t-15.5 38zM167 519v-528q0 -125 -44.5 -180.5t-134.5 -55.5q-38 0 -65 11q-6 3 -3 24l1 6q2 14 4.5 18t6.5 3q25 -7 50 -7q66 0 93 41t27 138v530q0 9 28 9h8q29 0 29 -9z" />
    <glyph glyph-name="k" unicode="k" horiz-adv-x="478" 
d="M115 0h-8q-29 0 -29 9v742q0 9 28 9h8q29 0 29 -9v-462l58 50q93 78 166 179q7 10 36 10h5q28 0 28 -5q1 -2 -2 -6q-62 -94 -170 -194l190 -309q6 -8 -0.5 -11t-26.5 -3h-4q-24 0 -30 2t-11 9l-166 271l-73 -63v-210q0 -9 -28 -9z" />
    <glyph glyph-name="l" unicode="l" horiz-adv-x="245" 
d="M136 460v-348q0 -35 7 -48t29 -13q8 0 20 2q4 1 6 -2.5t3 -15.5l1 -7q2 -12 0 -16t-9 -6q-19 -6 -41 -6q-47 0 -66 28q-15 23 -15 104v351q0 163 -4 268q0 9 28 9h8q29 0 29 -9q4 -77 4 -291z" />
    <glyph glyph-name="m" unicode="m" horiz-adv-x="924" 
d="M111 528q29 0 29 -9l3 -61q55 80 169 80q87 0 137 -52q20 -22 29 -45q61 97 182 97q93 0 143 -52q49 -50 49 -168v-309q0 -9 -28 -9h-8q-29 0 -29 9v264q0 70 -6 105t-26 58q-32 38 -106 38q-84 0 -125 -55q-18 -24 -23 -66q-3 -26 -3 -72v-272q0 -9 -28 -9h-8
q-29 0 -29 9v264q0 70 -6 105t-26 58q-32 38 -106 38q-84 0 -125 -55q-18 -24 -23 -66q-3 -29 -3 -145v-199q0 -9 -28 -9h-8q-29 0 -29 9v378q0 93 -2 132q0 9 26 9h8z" />
    <glyph glyph-name="n" unicode="n" horiz-adv-x="581" 
d="M138 519l3 -64q60 83 176 83q93 0 143 -52q49 -50 49 -168v-307q0 -11 -28 -11h-8q-29 0 -29 11v262q0 70 -6 105t-26 58q-32 38 -111 38q-78 0 -124 -49q-25 -28 -30 -72q-3 -29 -3 -145v-197q0 -11 -28 -11h-8q-29 0 -29 11v376q0 87 -2 132q0 9 27 9h7q27 0 27 -9z
" />
    <glyph glyph-name="o" unicode="o" horiz-adv-x="566" 
d="M117 259q0 -41 7.5 -76t25 -66.5t50 -49.5t76.5 -18q75 0 124 54t49 166q0 41 -8 76t-25 66.5t-49.5 49.5t-77.5 18q-75 0 -123.5 -54.5t-48.5 -165.5zM273 -10q-92 0 -147 49q-79 71 -79 213q0 139 66 212.5t180 73.5q92 0 147 -49q79 -71 79 -213q0 -139 -66 -212.5
t-180 -73.5z" />
    <glyph glyph-name="p" unicode="p" horiz-adv-x="560" 
d="M112 528q26 0 26 -9l3 -50q54 69 157 69q101 0 158 -67.5t57 -195.5q0 -119 -63 -202t-172 -83q-82 0 -136 48v-262q0 -9 -29 -9h-8q-28 0 -28 9v743q0 9 27 9h8zM142 265v-163q55 -53 136 -53q78 0 121.5 60.5t43.5 162.5q0 206 -154 206q-78 0 -115 -45
q-16 -21 -24 -55t-8 -113z" />
    <glyph glyph-name="q" unicode="q" horiz-adv-x="560" 
d="M483 490v-435q0 -185 6 -280q0 -8 -30 -8h-6q-29 0 -29 8q-6 118 -6 302q-48 -87 -161 -87q-103 0 -156.5 71.5t-53.5 188.5q0 133 72 210.5t194 77.5q81 0 156 -29q14 -5 14 -19zM418 302v158q-52 21 -105 21q-94 0 -145 -60.5t-51 -163.5q0 -208 151 -208q62 0 107 45
q24 24 33.5 67.5t9.5 140.5z" />
    <glyph glyph-name="r" unicode="r" horiz-adv-x="347" 
d="M139 521l3 -116q21 61 61.5 95t86.5 34q20 0 30 -3q7 -1 7 -21v-8q0 -31 -10 -31q-75 0 -123 -60q-42 -54 -47 -135q-3 -43 -3 -155v-112q0 -9 -30 -9h-6q-29 0 -29 9v348q0 54 -2 164q0 7 28 7h5q29 0 29 -7z" />
    <glyph glyph-name="s" unicode="s" horiz-adv-x="449" 
d="M382 460l-4 -6q-13 -19 -23 -12q-60 40 -128 40q-51 0 -80.5 -22.5t-29.5 -63.5q0 -19 7 -33.5t14.5 -23t27.5 -17t31 -11.5t40 -11q42 -11 67 -20.5t50.5 -26t37 -42t11.5 -61.5q0 -76 -51.5 -118t-137.5 -42q-93 0 -164 47q-8 5 3 25l3 6q12 24 23 17q66 -41 133 -41
q131 0 131 98q0 43 -30 62.5t-102 37.5q-83 20 -117 50q-41 36 -41 96q0 71 48.5 110.5t127.5 39.5q91 0 158 -52q8 -7 -5 -26z" />
    <glyph glyph-name="t" unicode="t" horiz-adv-x="365" 
d="M309 478h-141v-321q0 -73 18 -91q20 -20 61 -20q43 0 76 12q6 2 8 -0.5t6 -17.5l2 -7q6 -21 -2 -24q-47 -19 -105 -19q-60 0 -94 31q-35 34 -35 129v328h-70q-6 0 -6 23v3q0 24 7 24h69v149q0 2 0.5 3t3.5 2t8.5 1h16.5h7q29 0 29 -6v-149h141q7 0 7 -24v-3q0 -23 -7 -23
z" />
    <glyph glyph-name="u" unicode="u" horiz-adv-x="578" 
d="M442 10l-5 69q-52 -89 -171 -89q-102 0 -148 51q-47 48 -47 169v308q0 10 28 10h8q29 0 29 -10v-264q0 -72 5 -106t23 -56q34 -40 111 -40q72 0 114 42q22 22 32.5 60.5t10.5 114.5v249q0 10 28 10h8q29 0 29 -10v-347q0 -104 3 -159q1 -8 -3.5 -10t-20.5 -2h-8
q-17 0 -21 1.5t-5 8.5z" />
    <glyph glyph-name="v" unicode="v" horiz-adv-x="493" 
d="M90 517l161 -464q92 235 148 464q2 11 28 11h9q18 0 24.5 -3t4.5 -10q-73 -274 -170 -500q-4 -9 -12.5 -12t-32.5 -3h-8q-23 0 -30.5 3.5t-11.5 13.5l-181 498q-2 7 3 10t23 3h12q29 0 33 -11z" />
    <glyph glyph-name="w" unicode="w" horiz-adv-x="788" 
d="M96 516l130 -463l120 464q2 11 37 11h9q36 0 38 -10l132 -465q86 248 127 463q1 6 3 8t7.5 3t19.5 1h5q17 0 22.5 -2t4.5 -7q-63 -279 -146 -498q-5 -12 -13 -16.5t-30 -4.5h-8q-37 0 -42 17l-66 235q-29 101 -58 217q-30 -133 -53 -218l-64 -231q-6 -20 -44 -20h-8
q-36 0 -42 17l-151 498q-2 8 3.5 10.5t25.5 2.5h8q20 0 25.5 -2t7.5 -10z" />
    <glyph glyph-name="x" unicode="x" horiz-adv-x="496" 
d="M137 519l115 -190l114 190q6 9 36 9h7q31 0 31 -8q0 -2 -2 -5l-150 -233l173 -267q4 -7 -3 -11t-23 -4h-9q-34 0 -42 13l-136 213l-137 -218q-5 -8 -37 -8h-5q-36 0 -29 11l172 264l-152 240q-6 9 11 12q7 1 21 1h6q33 0 39 -9z" />
    <glyph glyph-name="y" unicode="y" horiz-adv-x="509" 
d="M104 518l94 -254q32 -84 71 -207q38 117 67 200l92 261q4 10 31 10h5q16 0 23.5 -2t5.5 -8l-192 -539q-45 -118 -87 -163q-54 -60 -145 -60q-45 0 -74 13q-7 3 -1 24l3 9q5 14 7.5 17.5t7.5 2.5q29 -9 53 -9q61 0 100 40t71 133l-206 530q-2 4 0 6.5t9 4t21 1.5h8
q32 0 36 -10z" />
    <glyph glyph-name="z" unicode="z" horiz-adv-x="455" 
d="M123 56h284q8 0 8 -27v-3q0 -26 -8 -26h-356q-9 0 -9 22v5q0 19 6 27l272 418h-258q-8 0 -8 26v3q0 27 8 27h330q6 0 7.5 -3.5t1.5 -18.5v-4q0 -20 -7 -31z" />
    <glyph glyph-name="braceleft" unicode="{" horiz-adv-x="330" 
d="M198 167v-143q0 -57 22.5 -80.5t71.5 -23.5h14q6 0 7.5 -3.5t1.5 -17.5v-9q0 -14 -1.5 -18t-7.5 -4h-20q-71 0 -111.5 36.5t-40.5 112.5v143q0 63 -17 90t-56 32q-9 1 -9 22v13q0 21 9 22q39 5 56 32t17 90v143q0 76 40.5 112.5t111.5 36.5h20q6 0 7.5 -4t1.5 -18v-9
q0 -14 -1.5 -17.5t-7.5 -3.5h-14q-49 0 -71.5 -23.5t-22.5 -80.5v-142q0 -60 -17.5 -92.5t-58.5 -51.5q41 -19 58.5 -51.5t17.5 -92.5z" />
    <glyph glyph-name="bar" unicode="|" horiz-adv-x="276" 
d="M168 807v-1070q0 -10 -27 -10h-8q-26 0 -26 10v1070q0 10 26 10h8q27 0 27 -10z" />
    <glyph glyph-name="braceright" unicode="}" horiz-adv-x="330" 
d="M132 24v143q0 60 17.5 92.5t58.5 51.5q-41 19 -58.5 51.5t-17.5 92.5v142q0 57 -22.5 80.5t-71.5 23.5h-14q-6 0 -7.5 3.5t-1.5 17.5v9q0 14 1.5 18t7.5 4h20q71 0 111.5 -36.5t40.5 -112.5v-143q0 -63 17 -90t56 -32q9 -1 9 -22v-13q0 -21 -9 -22q-39 -5 -56 -32
t-17 -90v-143q0 -76 -40.5 -112.5t-111.5 -36.5h-20q-6 0 -7.5 4t-1.5 18v9q0 14 1.5 17.5t7.5 3.5h14q49 0 71.5 23.5t22.5 80.5z" />
    <glyph glyph-name="asciitilde" unicode="~" 
d="M414 365q69 0 97 85q3 8 20 3l14 -4q13 -4 12 -12q-13 -62 -53 -94.5t-98 -32.5q-44 0 -86 24t-81.5 48t-78.5 24q-69 0 -97 -85q-3 -8 -20 -3l-14 4q-13 4 -12 12q13 62 53 94.5t98 32.5q44 0 86 -24t81.5 -48t78.5 -24z" />
    <glyph glyph-name="nbspace" unicode="&#xa0;" horiz-adv-x="250" 
 />
    <glyph glyph-name="exclamdown" unicode="&#xa1;" horiz-adv-x="307" 
d="M158 -192h-14q-37 0 -37 12l19 504q0 7 21 7h10q21 0 21 -7l17 -504q0 -12 -37 -12zM152 431q-21 0 -36 16t-15 38t15 37.5t36 15.5q22 0 37.5 -15t15.5 -38t-15.5 -38.5t-37.5 -15.5z" />
    <glyph glyph-name="cent" unicode="&#xa2;" 
d="M458 194q6 4 10.5 2t10.5 -14l4 -9q9 -19 -2 -26q-63 -38 -138 -42v-97q0 -8 -25 -8h-3q-23 0 -23 8v98q-100 11 -152 84t-52 169q0 107 57.5 180t157.5 83v100q0 8 23 8h3q25 0 25 -8v-99q78 -6 135 -47q7 -7 6.5 -10t-7.5 -15l-6 -10q-11 -19 -20 -13q-60 40 -126 40
q-85 0 -131.5 -54.5t-46.5 -147.5q0 -90 43 -146.5t131 -56.5q67 0 126 31z" />
    <glyph glyph-name="sterling" unicode="&#xa3;" 
d="M484 658q-51 25 -101 25q-78 0 -109.5 -47t-31.5 -132v-104h195q8 0 8 -23v-1q0 -25 -8 -25h-195v-98q0 -77 -16.5 -117t-60.5 -77h354q8 0 8 -26v-5q0 -28 -8 -28h-429q-8 0 -8 28v5q0 23 7 29q46 34 64.5 76t18.5 105v108h-89q-8 0 -8 25v1q0 23 8 23h89v104
q0 108 52 171.5t157 63.5q69 0 131 -35q9 -5 -1 -25l-5 -10q-10 -18 -22 -11z" />
    <glyph glyph-name="currency" unicode="&#xa4;" 
d="M467 368q0 -104 -53 -162l68 -114q6 -9 -11 -11q-8 -1 -23 -1q-27 0 -35 12l-46 78q-38 -20 -88 -20q-46 0 -82 19l-45 -77q-7 -12 -38 -12q-33 1 -33 8q0 1 2 4l68 114q-44 55 -44 144q0 104 53 162l-68 114q-6 9 11 11q8 1 23 1q27 0 35 -12l46 -78q38 20 88 20
q46 0 82 -19l45 77q7 12 38 12q33 -1 33 -8q0 -1 -2 -4l-68 -114q44 -55 44 -144zM405 363q0 63 -26 107.5t-88 44.5q-53 0 -87.5 -40t-34.5 -120q0 -63 26 -107.5t88 -44.5q53 0 87.5 40t34.5 120z" />
    <glyph glyph-name="yen" unicode="&#xa5;" 
d="M107 381h97l-152 327q-1 2 -1 4t1.5 3.5t5 2.5t9.5 1.5t14 0.5h8q33 0 38 -11l167 -369l165 371q5 9 34 9h9q11 0 17 -1.5t7.5 -4t-0.5 -6.5l-156 -327h98q8 0 8 -23v-3q0 -25 -8 -25h-122l-24 -52v-39h146q8 0 8 -23v-3q0 -25 -8 -25h-146v-179q0 -9 -32 -9h-8
q-29 0 -29 9v179h-146q-8 0 -8 25v3q0 23 8 23h146v39l-25 52h-121q-8 0 -8 25v3q0 23 8 23z" />
    <glyph glyph-name="brokenbar" unicode="&#xa6;" horiz-adv-x="276" 
d="M168 757v-382q0 -10 -27 -10h-8q-26 0 -26 10v382q0 10 26 10h8q27 0 27 -10zM168 170v-382q0 -10 -27 -10h-8q-26 0 -26 10v382q0 10 26 10h8q27 0 27 -10z" />
    <glyph glyph-name="section" unicode="&#xa7;" horiz-adv-x="501" 
d="M397 641q-61 37 -127 37q-56 0 -90 -24t-34 -65q0 -36 32 -58t77.5 -35t91 -28t77.5 -49t32 -87q0 -89 -74 -138q34 -36 34 -89q0 -63 -50.5 -104t-134.5 -41q-88 0 -154 45q-6 5 4 22l4 7q11 18 18 14q61 -37 127 -37q56 0 90 24t34 65q0 36 -32 58t-77.5 35t-91 28
t-77.5 49t-32 87q0 88 73 138q-33 35 -33 89q0 63 50.5 104t134.5 41q88 0 154 -45q6 -5 -4 -22l-4 -7q-11 -18 -18 -14zM397 325q0 34 -26 56.5t-59.5 32t-81.5 24t-76 29.5q-51 -43 -51 -103q0 -34 26 -56.5t59.5 -32t81 -24t75.5 -30.5q52 43 52 104z" />
    <glyph glyph-name="dieresis" unicode="&#xa8;" horiz-adv-x="354" 
d="M28 654q0 20 14 34t33 14t33.5 -14t14.5 -34q0 -19 -14 -33t-34 -14q-19 0 -33 13.5t-14 33.5zM230 654q0 20 14 34t33 14t33.5 -14t14.5 -34q0 -19 -14 -33t-34 -14q-19 0 -33 13.5t-14 33.5z" />
    <glyph glyph-name="copyright" unicode="&#xa9;" horiz-adv-x="809" 
d="M521 551q6 -3 0 -17l-5 -11q-5 -12 -12 -9q-40 16 -74 16q-67 0 -100.5 -46t-33.5 -118q0 -71 32 -115.5t101 -44.5q39 0 75 16q7 3 12 -9l5 -11q6 -14 0 -17q-43 -24 -103 -24q-83 0 -130 58t-47 145q0 89 48 149.5t141 60.5q52 0 91 -23zM406 731q152 0 255.5 -107
t103.5 -263q0 -155 -104.5 -263t-255.5 -108t-256.5 108t-105.5 263t105 262.5t258 107.5zM406 689q-130 0 -220.5 -95.5t-90.5 -232.5q0 -138 89 -233.5t220 -95.5q132 0 221.5 94.5t89.5 234.5q0 138 -89 233t-220 95z" />
    <glyph glyph-name="ordfeminine" unicode="&#xaa;" horiz-adv-x="433" 
d="M206 739q64 0 100 -44l5 32q1 7 28 7q24 0 24 -6t-1.5 -60t-1.5 -77v-56q0 -23 1.5 -77t1.5 -60t-24 -6q-27 0 -28 7l-6 45q-35 -57 -108 -57q-64 0 -101 42q-42 48 -42 127q0 77 39.5 130t112.5 53zM303 564v84q-34 48 -88 48q-49 0 -75.5 -36.5t-26.5 -99.5
q0 -60 24.5 -94.5t73.5 -34.5q42 0 66 31q26 32 26 102z" />
    <glyph glyph-name="guillemotleft" unicode="&#xab;" horiz-adv-x="515" 
d="M72 302v5q0 12 5 19l134 194q6 9 22 0l7 -4q16 -9 11 -18l-117 -194l117 -193q5 -9 -11 -18l-7 -4q-16 -9 -22 0l-134 194q-5 7 -5 19zM278 302v5q0 12 5 19l134 194q6 9 22 0l7 -4q16 -9 11 -18l-117 -194l117 -193q5 -9 -11 -18l-7 -4q-16 -9 -22 0l-134 194
q-5 7 -5 19z" />
    <glyph glyph-name="logicalnot" unicode="&#xac;" 
d="M41 463v3q0 22 8 22h484v-241q0 -8 -22 -8h-3q-22 0 -22 8v194h-437q-8 0 -8 22z" />
    <glyph glyph-name="uni00AD" unicode="&#xad;" horiz-adv-x="382" 
d="M60 330h262q8 0 8 -23v-3q0 -25 -8 -25h-262q-8 0 -8 25v3q0 23 8 23z" />
    <glyph glyph-name="registered" unicode="&#xae;" horiz-adv-x="809" 
d="M406 731q152 0 255.5 -107t103.5 -263q0 -155 -104.5 -263t-255.5 -108t-256.5 108t-105.5 263t105 262.5t258 107.5zM406 689q-130 0 -220.5 -95.5t-90.5 -232.5q0 -138 89 -233.5t220 -95.5q132 0 221.5 94.5t89.5 234.5q0 138 -89 233t-220 95zM410 329h-79v-152
q0 -7 -25 -7h-6q-23 0 -23 7v387h116q91 0 130 -38q31 -29 31 -78q0 -51 -37 -83q-20 -18 -54 -28q46 -92 94 -157q1 -2 1 -4.5t-5.5 -4t-16.5 -1.5h-7q-24 0 -31 9q-37 46 -88 150zM331 521v-152h56q60 0 87 24q23 21 23 55q0 37 -28 56q-26 17 -87 17h-51z" />
    <glyph glyph-name="macron" unicode="&#xaf;" horiz-adv-x="354" 
d="M46 684h262q8 0 8 -23v-3q0 -25 -8 -25h-262q-8 0 -8 25v3q0 23 8 23z" />
    <glyph glyph-name="degree" unicode="&#xb0;" horiz-adv-x="357" 
d="M181 691q-43 0 -68.5 -26t-25.5 -73q0 -95 89 -95q43 0 68 26t25 73q0 95 -88 95zM41 590q0 64 38 102t103 38q62 0 98 -33.5t36 -99.5q0 -64 -38.5 -102t-102.5 -38q-62 0 -98 34.5t-36 98.5z" />
    <glyph glyph-name="plusminus" unicode="&#xb1;" 
d="M263 206v215h-214q-8 0 -8 22v3q0 22 8 22h214v214q0 8 23 8h1q23 0 23 -8v-214h215q8 0 8 -22v-3q0 -22 -8 -22h-215v-215q0 -8 -23 -8h-1q-23 0 -23 8zM525 0h-476q-8 0 -8 22v3q0 22 8 22h476q8 0 8 -22v-3q0 -22 -8 -22z" />
    <glyph glyph-name="twosuperior" unicode="&#xb2;" horiz-adv-x="404" 
d="M80 721l-4 7q-8 14 -1 18q47 31 115 31q57 0 91 -28t34 -79q0 -41 -19.5 -76t-69.5 -88l-83 -87h173q5 0 6.5 -3.5t1.5 -16.5v-4q0 -19 -8 -19h-234q-7 0 -7 16v5q0 13 8 21l79 85q58 62 78.5 95.5t20.5 67.5q0 68 -78 68q-43 0 -87 -23q-5 -3 -8 -1t-8 11z" />
    <glyph glyph-name="threesuperior" unicode="&#xb3;" horiz-adv-x="404" 
d="M86 726l-3 7q-6 14 0 17q51 27 112 27q58 0 90.5 -25.5t32.5 -71.5q0 -77 -71 -97q37 -7 58.5 -31.5t21.5 -60.5q0 -59 -38.5 -90.5t-107.5 -31.5q-60 0 -106 19q-7 2 -1 18l2 5q4 10 6.5 12.5t7.5 0.5q38 -15 87 -15q45 0 69 20.5t24 57.5q0 41 -27.5 58t-82.5 17h-28
q-7 0 -7 19v4q0 19 7 19h31q101 0 101 72q0 61 -74 61q-45 0 -89 -22q-9 -4 -15 11z" />
    <glyph glyph-name="acute" unicode="&#xb4;" horiz-adv-x="354" 
d="M209 721h15q22 0 23 -5q0 -2 -2 -5l-88 -119q-5 -6 -27 -6h-4q-21 1 -20 7l67 118q6 10 36 10z" />
    <glyph glyph-name="mu" unicode="&#xb5;" horiz-adv-x="589" 
d="M435 72q-55 -82 -164 -82q-41 0 -76 15t-53 40v-86q0 -97 9 -180q1 -7 -5.5 -9.5t-24.5 -2.5h-6q-32 0 -33 10q-5 69 -5 170v571q0 10 28 10h8q29 0 29 -10v-263q0 -67 5.5 -103t23.5 -58q36 -41 104 -41q79 0 119 43q30 31 35 91q3 43 3 135v196q0 10 28 10h8
q29 0 29 -10v-399q0 -44 8.5 -56.5t34.5 -12.5q5 0 6 -3t1 -18v-4q0 -21 -6 -23q-14 -4 -34 -4q-34 0 -52.5 19.5t-19.5 54.5z" />
    <glyph glyph-name="mu" unicode="&#x3bc;" horiz-adv-x="589" 
d="M435 72q-55 -82 -164 -82q-41 0 -76 15t-53 40v-86q0 -97 9 -180q1 -7 -5.5 -9.5t-24.5 -2.5h-6q-32 0 -33 10q-5 69 -5 170v571q0 10 28 10h8q29 0 29 -10v-263q0 -67 5.5 -103t23.5 -58q36 -41 104 -41q79 0 119 43q30 31 35 91q3 43 3 135v196q0 10 28 10h8
q29 0 29 -10v-399q0 -44 8.5 -56.5t34.5 -12.5q5 0 6 -3t1 -18v-4q0 -21 -6 -23q-14 -4 -34 -4q-34 0 -52.5 19.5t-19.5 54.5z" />
    <glyph glyph-name="paragraph" unicode="&#xb6;" horiz-adv-x="617" 
d="M560 664h-62v-792q0 -9 -31 -9h-6q-28 0 -28 9v793h-118v-793q0 -9 -31 -9h-6q-28 0 -28 9v441q-96 4 -152 58.5t-56 140.5q0 96 59.5 152t170.5 56h288q8 0 8 -23v-8q0 -25 -8 -25z" />
    <glyph glyph-name="periodcentered" unicode="&#xb7;" horiz-adv-x="241" 
d="M120 410q24 0 40.5 -17t16.5 -41q0 -25 -16.5 -41.5t-40.5 -16.5q-23 0 -39.5 16.5t-16.5 41.5q0 24 16.5 41t39.5 17z" />
    <glyph glyph-name="cedilla" unicode="&#xb8;" horiz-adv-x="354" 
d="M100 -109l13 102q1 6 19 6h12q7 0 11 -0.5t5.5 -2t0.5 -3.5l-8 -60q18 2 27 2q40 0 65 -21.5t25 -56.5q0 -38 -28 -64t-82 -26q-46 0 -72 12q-5 2 -2 18l1 5q2 10 4 12.5t6 1.5q31 -7 55 -7q62 0 62 44q0 43 -61 43q-30 0 -53 -5z" />
    <glyph glyph-name="onesuperior" unicode="&#xb9;" horiz-adv-x="404" 
d="M301 376h-179q-6 0 -6 17v3q0 18 6 18h64v304l-89 -51q-8 -5 -17 12l-2 4q-8 16 -1 21l96 56q17 10 35 10h18q15 0 15 -7v-349h60q6 0 6 -18v-3q0 -17 -6 -17z" />
    <glyph glyph-name="ordmasculine" unicode="&#xba;" horiz-adv-x="433" 
d="M213 435q49 0 78 32.5t29 97.5q0 127 -100 127q-49 0 -78 -33t-29 -98q0 -126 100 -126zM210 387q-74 0 -115 45.5t-41 124.5q0 88 45.5 135t123.5 47q74 0 115 -45.5t41 -124.5q0 -88 -45.5 -135t-123.5 -47z" />
    <glyph glyph-name="guillemotright" unicode="&#xbb;" horiz-adv-x="515" 
d="M237 307v-5q0 -12 -5 -19l-134 -194q-6 -9 -22 0l-7 4q-16 9 -11 18l117 193l-117 194q-5 9 11 18l7 4q16 9 22 0l134 -194q5 -7 5 -19zM443 307v-5q0 -12 -5 -19l-134 -194q-6 -9 -22 0l-7 4q-16 9 -11 18l117 193l-117 194q-5 9 11 18l7 4q16 9 22 0l134 -194
q5 -7 5 -19z" />
    <glyph glyph-name="onequarter" unicode="&#xbc;" horiz-adv-x="904" 
d="M776 218v-83h38q5 0 6.5 -3t1.5 -15v-5q0 -19 -8 -19h-38v-86q0 -7 -25 -7h-3q-25 0 -25 7v86h-183q-7 0 -7 21v3q0 18 14 45l109 216q4 7 8 8.5t19 1.5h10q14 0 17 -1.5t-1 -8.5l-124 -243h138v83q0 7 25 7h3q25 0 25 -7zM265 -5l344 731q5 11 29 11h6q15 0 19 -2.5
t0 -10.5l-345 -731q-6 -11 -29 -11h-6q-15 0 -18.5 3t0.5 10zM311 326h-179q-6 0 -6 17v3q0 18 6 18h64v304l-89 -51q-8 -5 -17 12l-2 4q-8 16 -1 21l96 56q17 10 35 10h18q15 0 15 -7v-349h60q6 0 6 -18v-3q0 -17 -6 -17z" />
    <glyph glyph-name="onehalf" unicode="&#xbd;" horiz-adv-x="904" 
d="M243 -5l344 731q5 11 29 11h6q15 0 19 -2.5t0 -10.5l-345 -731q-6 -11 -29 -11h-6q-15 0 -18.5 3t0.5 10zM297 335h-179q-6 0 -6 17v3q0 18 6 18h64v304l-89 -51q-8 -5 -17 12l-2 4q-8 16 -1 21l96 56q17 10 35 10h18q15 0 15 -7v-349h60q6 0 6 -18v-3q0 -17 -6 -17z
M566 345l-4 7q-8 14 -1 18q47 31 115 31q57 0 91 -28t34 -79q0 -41 -19.5 -76t-69.5 -88l-83 -87h173q5 0 6.5 -3.5t1.5 -16.5v-4q0 -19 -8 -19h-234q-7 0 -7 16v5q0 13 8 21l79 85q58 62 78.5 95.5t20.5 67.5q0 68 -78 68q-43 0 -87 -23q-5 -3 -8 -1t-8 11z" />
    <glyph glyph-name="threequarters" unicode="&#xbe;" horiz-adv-x="904" 
d="M784 218v-83h38q5 0 6.5 -3t1.5 -15v-5q0 -19 -8 -19h-38v-86q0 -7 -25 -7h-3q-25 0 -25 7v86h-183q-7 0 -7 21v3q0 18 14 45l109 216q4 7 8 8.5t19 1.5h10q14 0 17 -1.5t-1 -8.5l-124 -243h138v83q0 7 25 7h3q25 0 25 -7zM259 -5l344 731q5 11 29 11h6q15 0 19 -2.5
t0 -10.5l-345 -731q-6 -11 -29 -11h-6q-15 0 -18.5 3t0.5 10zM94 685l-3 7q-6 14 0 17q51 27 112 27q58 0 90.5 -25.5t32.5 -71.5q0 -77 -71 -97q37 -7 58.5 -31.5t21.5 -60.5q0 -59 -38.5 -90.5t-107.5 -31.5q-60 0 -106 19q-7 2 -1 18l2 5q4 10 6.5 12.5t7.5 0.5
q38 -15 87 -15q45 0 69 20.5t24 57.5q0 41 -27.5 58t-82.5 17h-28q-7 0 -7 19v4q0 19 7 19h31q101 0 101 72q0 61 -74 61q-45 0 -89 -22q-9 -4 -15 11z" />
    <glyph glyph-name="questiondown" unicode="&#xbf;" horiz-adv-x="419" 
d="M252 332h10q29 0 29 -8v-66q0 -56 -24.5 -89.5t-91.5 -77.5q-46 -30 -64 -55t-18 -62q0 -48 29 -80q35 -37 103 -37q63 0 132 32q9 5 19 -15l5 -10q6 -12 6 -17t-6 -9q-25 -16 -71 -28t-88 -12q-97 0 -152 53q-50 47 -50 123q0 40 17 72t35.5 48.5t50.5 37.5
q59 39 79.5 63t20.5 69v60q0 8 29 8zM308 485q0 -23 -15 -38.5t-37 -15.5t-38 15.5t-16 38.5q0 22 15.5 37.5t38.5 15.5q22 0 37 -15.5t15 -37.5z" />
    <glyph glyph-name="Agrave" unicode="&#xc0;" horiz-adv-x="626" 
d="M524 10l-61 184h-308l-61 -184q-4 -10 -35 -10h-5q-14 0 -20.5 1.5t-8 3.5t-0.5 6l242 696q5 13 43 13h2q38 0 43 -13l246 -696q1 -4 -0.5 -6t-8.5 -3.5t-21 -1.5h-10q-33 0 -37 10zM310 657l-137 -407h272zM265 913h15q30 0 36 -10l67 -118q3 -5 -7 -6q-4 -1 -13 -1h-4
q-22 0 -27 6l-88 119q-6 8 8 9q5 1 13 1z" />
    <glyph glyph-name="Aacute" unicode="&#xc1;" horiz-adv-x="626" 
d="M524 10l-61 184h-308l-61 -184q-4 -10 -35 -10h-5q-14 0 -20.5 1.5t-8 3.5t-0.5 6l242 696q5 13 43 13h2q38 0 43 -13l246 -696q1 -4 -0.5 -6t-8.5 -3.5t-21 -1.5h-10q-33 0 -37 10zM310 657l-137 -407h272zM345 913h15q22 0 23 -5q0 -2 -2 -5l-88 -119q-5 -6 -27 -6h-4
q-21 1 -20 7l67 118q6 10 36 10z" />
    <glyph glyph-name="Acircumflex" unicode="&#xc2;" horiz-adv-x="626" 
d="M524 10l-61 184h-308l-61 -184q-4 -10 -35 -10h-5q-14 0 -20.5 1.5t-8 3.5t-0.5 6l242 696q5 13 43 13h2q38 0 43 -13l246 -696q1 -4 -0.5 -6t-8.5 -3.5t-21 -1.5h-10q-33 0 -37 10zM310 657l-137 -407h272zM300 921h26q24 0 34 -10l94 -100q5 -5 -4 -16l-5 -6
q-10 -11 -16 -6l-116 97l-116 -97q-6 -5 -16 6l-5 6q-9 11 -4 16l94 100q10 10 34 10z" />
    <glyph glyph-name="Atilde" unicode="&#xc3;" horiz-adv-x="626" 
d="M524 10l-61 184h-308l-61 -184q-4 -10 -35 -10h-5q-14 0 -20.5 1.5t-8 3.5t-0.5 6l242 696q5 13 43 13h2q38 0 43 -13l246 -696q1 -4 -0.5 -6t-8.5 -3.5t-21 -1.5h-10q-33 0 -37 10zM310 657l-137 -407h272zM463 857q-14 -18 -39 -31t-49 -13q-29 0 -68 19t-60 19
q-27 0 -58 -30q-6 -5 -16 8l-8 10q-7 10 -2 16q14 18 39 31t49 13q29 0 68 -19t60 -19q27 0 58 30q6 5 16 -8l8 -10q7 -10 2 -16z" />
    <glyph glyph-name="Adieresis" unicode="&#xc4;" horiz-adv-x="626" 
d="M524 10l-61 184h-308l-61 -184q-4 -10 -35 -10h-5q-14 0 -20.5 1.5t-8 3.5t-0.5 6l242 696q5 13 43 13h2q38 0 43 -13l246 -696q1 -4 -0.5 -6t-8.5 -3.5t-21 -1.5h-10q-33 0 -37 10zM310 657l-137 -407h272zM162 846q0 20 14 34t33 14t33.5 -14t14.5 -34q0 -19 -14 -33
t-34 -14q-19 0 -33 13.5t-14 33.5zM364 846q0 20 14 34t33 14t33.5 -14t14.5 -34q0 -19 -14 -33t-34 -14q-19 0 -33 13.5t-14 33.5z" />
    <glyph glyph-name="Aring" unicode="&#xc5;" horiz-adv-x="626" 
d="M219 782q0 37 28 63.5t66 26.5q39 0 66.5 -26t27.5 -64q0 -54 -51 -80l245 -691q1 -4 -0.5 -6t-8.5 -3.5t-21 -1.5h-10q-33 0 -37 10l-61 184h-308l-61 -184q-4 -10 -35 -10h-5q-14 0 -20.5 1.5t-8 3.5t-0.5 6l241 693q-47 25 -47 78zM310 657l-137 -407h272zM262 782
q0 -23 14.5 -37t36.5 -14t35.5 14.5t13.5 36.5t-13.5 36.5t-35.5 14.5t-36.5 -14t-14.5 -37z" />
    <glyph glyph-name="AE" unicode="&#xc6;" horiz-adv-x="895" 
d="M10 11l400 698q4 7 9.5 9t23.5 2h386q9 0 9 -26v-4q0 -27 -9 -27h-317v-270h269q9 0 9 -26v-4q0 -27 -9 -27h-269v-279h321q9 0 9 -26v-4q0 -27 -9 -27h-390v199h-255l-107 -189q-6 -10 -36 -10h-6q-30 0 -30 7q-1 2 1 4zM220 256h223v392z" />
    <glyph glyph-name="Ccedilla" unicode="&#xc7;" horiz-adv-x="564" 
d="M288 -109l13 101q-120 13 -186.5 109t-66.5 249q0 184 84 282t219 98q95 0 168 -46q7 -5 -2 -24l-5 -11q-9 -18 -18 -14q-78 36 -139 36q-116 0 -175.5 -84t-59.5 -231q0 -148 58.5 -227.5t174.5 -79.5q76 0 142 33q10 5 18 -15l4 -10q9 -21 -1 -26q-70 -38 -168 -41
l-7 -57q18 2 27 2q40 0 65 -21.5t25 -56.5q0 -38 -28 -64t-82 -26q-46 0 -72 12q-5 2 -2 18l1 5q2 10 4 12.5t6 1.5q31 -7 55 -7q62 0 62 44q0 43 -61 43q-30 0 -53 -5z" />
    <glyph glyph-name="Egrave" unicode="&#xc8;" horiz-adv-x="534" 
d="M472 0h-390v720h386q9 0 9 -26v-4q0 -27 -9 -27h-317v-270h269q9 0 9 -26v-4q0 -27 -9 -27h-269v-279h321q9 0 9 -26v-4q0 -27 -9 -27zM219 913h15q30 0 36 -10l67 -118q3 -5 -7 -6q-4 -1 -13 -1h-4q-22 0 -27 6l-88 119q-6 8 8 9q5 1 13 1z" />
    <glyph glyph-name="Eacute" unicode="&#xc9;" horiz-adv-x="534" 
d="M472 0h-390v720h386q9 0 9 -26v-4q0 -27 -9 -27h-317v-270h269q9 0 9 -26v-4q0 -27 -9 -27h-269v-279h321q9 0 9 -26v-4q0 -27 -9 -27zM339 913h15q22 0 23 -5q0 -2 -2 -5l-88 -119q-5 -6 -27 -6h-4q-21 1 -20 7l67 118q6 10 36 10z" />
    <glyph glyph-name="Ecircumflex" unicode="&#xca;" horiz-adv-x="534" 
d="M472 0h-390v720h386q9 0 9 -26v-4q0 -27 -9 -27h-317v-270h269q9 0 9 -26v-4q0 -27 -9 -27h-269v-279h321q9 0 9 -26v-4q0 -27 -9 -27zM264 921h26q24 0 34 -10l94 -100q5 -5 -4 -16l-5 -6q-10 -11 -16 -6l-116 97l-116 -97q-6 -5 -16 6l-5 6q-9 11 -4 16l94 100
q10 10 34 10z" />
    <glyph glyph-name="Edieresis" unicode="&#xcb;" horiz-adv-x="534" 
d="M472 0h-390v720h386q9 0 9 -26v-4q0 -27 -9 -27h-317v-270h269q9 0 9 -26v-4q0 -27 -9 -27h-269v-279h321q9 0 9 -26v-4q0 -27 -9 -27zM140 846q0 20 14 34t33 14t33.5 -14t14.5 -34q0 -19 -14 -33t-34 -14q-19 0 -33 13.5t-14 33.5zM342 846q0 20 14 34t33 14t33.5 -14
t14.5 -34q0 -19 -14 -33t-34 -14q-19 0 -33 13.5t-14 33.5z" />
    <glyph glyph-name="Igrave" unicode="&#xcc;" horiz-adv-x="365" 
d="M292 0h-219q-6 0 -7.5 3.5t-1.5 17.5v4q0 14 1.5 18t7.5 4h75v626h-75q-6 0 -7.5 3.5t-1.5 17.5v4q0 14 1.5 18t7.5 4h219q6 0 7.5 -4t1.5 -18v-4q0 -14 -1.5 -17.5t-7.5 -3.5h-75v-626h75q6 0 7.5 -4t1.5 -18v-4q0 -14 -1.5 -17.5t-7.5 -3.5zM135 913h15q30 0 36 -10
l67 -118q3 -5 -7 -6q-4 -1 -13 -1h-4q-22 0 -27 6l-88 119q-6 8 8 9q5 1 13 1z" />
    <glyph glyph-name="Iacute" unicode="&#xcd;" horiz-adv-x="365" 
d="M292 0h-219q-6 0 -7.5 3.5t-1.5 17.5v4q0 14 1.5 18t7.5 4h75v626h-75q-6 0 -7.5 3.5t-1.5 17.5v4q0 14 1.5 18t7.5 4h219q6 0 7.5 -4t1.5 -18v-4q0 -14 -1.5 -17.5t-7.5 -3.5h-75v-626h75q6 0 7.5 -4t1.5 -18v-4q0 -14 -1.5 -17.5t-7.5 -3.5zM215 913h15q22 0 23 -5
q0 -2 -2 -5l-88 -119q-5 -6 -27 -6h-4q-21 1 -20 7l67 118q6 10 36 10z" />
    <glyph glyph-name="Icircumflex" unicode="&#xce;" horiz-adv-x="365" 
d="M292 0h-219q-6 0 -7.5 3.5t-1.5 17.5v4q0 14 1.5 18t7.5 4h75v626h-75q-6 0 -7.5 3.5t-1.5 17.5v4q0 14 1.5 18t7.5 4h219q6 0 7.5 -4t1.5 -18v-4q0 -14 -1.5 -17.5t-7.5 -3.5h-75v-626h75q6 0 7.5 -4t1.5 -18v-4q0 -14 -1.5 -17.5t-7.5 -3.5zM169 921h26q24 0 34 -10
l94 -100q5 -5 -4 -16l-5 -6q-10 -11 -16 -6l-116 97l-116 -97q-6 -5 -16 6l-5 6q-9 11 -4 16l94 100q10 10 34 10z" />
    <glyph glyph-name="Idieresis" unicode="&#xcf;" horiz-adv-x="365" 
d="M292 0h-219q-6 0 -7.5 3.5t-1.5 17.5v4q0 14 1.5 18t7.5 4h75v626h-75q-6 0 -7.5 3.5t-1.5 17.5v4q0 14 1.5 18t7.5 4h219q6 0 7.5 -4t1.5 -18v-4q0 -14 -1.5 -17.5t-7.5 -3.5h-75v-626h75q6 0 7.5 -4t1.5 -18v-4q0 -14 -1.5 -17.5t-7.5 -3.5zM34 846q0 20 14 34t33 14
t33.5 -14t14.5 -34q0 -19 -14 -33t-34 -14q-19 0 -33 13.5t-14 33.5zM236 846q0 20 14 34t33 14t33.5 -14t14.5 -34q0 -19 -14 -33t-34 -14q-19 0 -33 13.5t-14 33.5z" />
    <glyph glyph-name="Eth" unicode="&#xd0;" horiz-adv-x="652" 
d="M88 720h162q96 0 160 -23t110 -71q85 -90 85 -263q0 -182 -93 -275q-88 -88 -261 -88h-163v339h-58q-8 0 -8 25v3q0 23 8 23h58v330zM157 339v-283h88q142 0 212 68q76 75 76 237q0 157 -75 233q-36 36 -85.5 53t-129.5 17h-86v-274h169q8 0 8 -23v-3q0 -25 -8 -25h-169z
" />
    <glyph glyph-name="Ntilde" unicode="&#xd1;" horiz-adv-x="677" 
d="M516 10l-374 615v-616q0 -9 -28 -9h-7q-27 0 -27 9v702q0 9 29 9h7q39 0 45 -10l374 -615v616q0 9 27 9h7q28 0 28 -9v-702q0 -9 -29 -9h-7q-39 0 -45 10zM488 857q-14 -18 -39 -31t-49 -13q-29 0 -68 19t-60 19q-27 0 -58 -30q-6 -5 -16 8l-8 10q-7 10 -2 16
q14 18 39 31t49 13q29 0 68 -19t60 -19q27 0 58 30q6 5 16 -8l8 -10q7 -10 2 -16z" />
    <glyph glyph-name="Ograve" unicode="&#xd2;" horiz-adv-x="693" 
d="M353 671q-109 0 -171.5 -83.5t-62.5 -233.5q0 -146 58 -225.5t163 -79.5q108 0 171 84t63 234q0 146 -58 225t-163 79zM356 730q132 0 211 -92.5t79 -266.5q0 -175 -83.5 -278t-225.5 -103q-132 0 -211 93t-79 267q0 175 83.5 277.5t225.5 102.5zM309 913h15q30 0 36 -10
l67 -118q3 -5 -7 -6q-4 -1 -13 -1h-4q-22 0 -27 6l-88 119q-6 8 8 9q5 1 13 1z" />
    <glyph glyph-name="Oacute" unicode="&#xd3;" horiz-adv-x="693" 
d="M353 671q-109 0 -171.5 -83.5t-62.5 -233.5q0 -146 58 -225.5t163 -79.5q108 0 171 84t63 234q0 146 -58 225t-163 79zM356 730q132 0 211 -92.5t79 -266.5q0 -175 -83.5 -278t-225.5 -103q-132 0 -211 93t-79 267q0 175 83.5 277.5t225.5 102.5zM389 913h15q22 0 23 -5
q0 -2 -2 -5l-88 -119q-5 -6 -27 -6h-4q-21 1 -20 7l67 118q6 10 36 10z" />
    <glyph glyph-name="Ocircumflex" unicode="&#xd4;" horiz-adv-x="693" 
d="M353 671q-109 0 -171.5 -83.5t-62.5 -233.5q0 -146 58 -225.5t163 -79.5q108 0 171 84t63 234q0 146 -58 225t-163 79zM356 730q132 0 211 -92.5t79 -266.5q0 -175 -83.5 -278t-225.5 -103q-132 0 -211 93t-79 267q0 175 83.5 277.5t225.5 102.5zM343 921h26q24 0 34 -10
l94 -100q5 -5 -4 -16l-5 -6q-10 -11 -16 -6l-116 97l-116 -97q-6 -5 -16 6l-5 6q-9 11 -4 16l94 100q10 10 34 10z" />
    <glyph glyph-name="Otilde" unicode="&#xd5;" horiz-adv-x="693" 
d="M353 671q-109 0 -171.5 -83.5t-62.5 -233.5q0 -146 58 -225.5t163 -79.5q108 0 171 84t63 234q0 146 -58 225t-163 79zM356 730q132 0 211 -92.5t79 -266.5q0 -175 -83.5 -278t-225.5 -103q-132 0 -211 93t-79 267q0 175 83.5 277.5t225.5 102.5zM504 857
q-14 -18 -39 -31t-49 -13q-29 0 -68 19t-60 19q-27 0 -58 -30q-6 -5 -16 8l-8 10q-7 10 -2 16q14 18 39 31t49 13q29 0 68 -19t60 -19q27 0 58 30q6 5 16 -8l8 -10q7 -10 2 -16z" />
    <glyph glyph-name="Odieresis" unicode="&#xd6;" horiz-adv-x="693" 
d="M353 671q-109 0 -171.5 -83.5t-62.5 -233.5q0 -146 58 -225.5t163 -79.5q108 0 171 84t63 234q0 146 -58 225t-163 79zM356 730q132 0 211 -92.5t79 -266.5q0 -175 -83.5 -278t-225.5 -103q-132 0 -211 93t-79 267q0 175 83.5 277.5t225.5 102.5zM208 846q0 20 14 34
t33 14t33.5 -14t14.5 -34q0 -19 -14 -33t-34 -14q-19 0 -33 13.5t-14 33.5zM410 846q0 20 14 34t33 14t33.5 -14t14.5 -34q0 -19 -14 -33t-34 -14q-19 0 -33 13.5t-14 33.5z" />
    <glyph glyph-name="multiply" unicode="&#xd7;" 
d="M438 179l-152 152l-151 -152q-5 -5 -21 10l-2 2q-16 16 -10 22l151 151l-151 151q-6 6 10 22l2 2q16 15 21 10l151 -152l152 152q6 6 22 -10l2 -2q16 -15 10 -21l-152 -152l152 -152q6 -6 -10 -21l-2 -2q-16 -16 -22 -10z" />
    <glyph glyph-name="Oslash" unicode="&#xd8;" horiz-adv-x="693" 
d="M356 730q105 0 176 -59l62 86q6 10 26 -5l12 -9q19 -14 13 -23l-68 -95q69 -94 69 -254q0 -175 -83.5 -278t-225.5 -103q-103 0 -174 57l-59 -82q-6 -10 -26 5l-12 9q-19 14 -13 23l65 91q-71 95 -71 257q0 175 83.5 277.5t225.5 102.5zM353 671q-109 0 -171.5 -83.5
t-62.5 -233.5q0 -123 42 -201l333 464q-56 54 -141 54zM574 367q0 121 -41 197l-332 -464q54 -51 139 -51q108 0 171 84t63 234z" />
    <glyph glyph-name="Ugrave" unicode="&#xd9;" horiz-adv-x="670" 
d="M595 711v-444q0 -146 -69 -212q-68 -65 -190 -65q-125 0 -192 64q-69 66 -69 212v445q0 9 29 9h8q32 0 32 -9v-436q0 -124 52 -178q48 -49 140 -49q91 0 139 49q52 54 52 178v436q0 9 29 9h7q32 0 32 -9zM287 913h15q30 0 36 -10l67 -118q3 -5 -7 -6q-4 -1 -13 -1h-4
q-22 0 -27 6l-88 119q-6 8 8 9q5 1 13 1z" />
    <glyph glyph-name="Uacute" unicode="&#xda;" horiz-adv-x="670" 
d="M595 711v-444q0 -146 -69 -212q-68 -65 -190 -65q-125 0 -192 64q-69 66 -69 212v445q0 9 29 9h8q32 0 32 -9v-436q0 -124 52 -178q48 -49 140 -49q91 0 139 49q52 54 52 178v436q0 9 29 9h7q32 0 32 -9zM383 913h15q22 0 23 -5q0 -2 -2 -5l-88 -119q-5 -6 -27 -6h-4
q-21 1 -20 7l67 118q6 10 36 10z" />
    <glyph glyph-name="Ucircumflex" unicode="&#xdb;" horiz-adv-x="670" 
d="M595 711v-444q0 -146 -69 -212q-68 -65 -190 -65q-125 0 -192 64q-69 66 -69 212v445q0 9 29 9h8q32 0 32 -9v-436q0 -124 52 -178q48 -49 140 -49q91 0 139 49q52 54 52 178v436q0 9 29 9h7q32 0 32 -9zM322 921h26q24 0 34 -10l94 -100q5 -5 -4 -16l-5 -6
q-10 -11 -16 -6l-116 97l-116 -97q-6 -5 -16 6l-5 6q-9 11 -4 16l94 100q10 10 34 10z" />
    <glyph glyph-name="Udieresis" unicode="&#xdc;" horiz-adv-x="670" 
d="M595 711v-444q0 -146 -69 -212q-68 -65 -190 -65q-125 0 -192 64q-69 66 -69 212v445q0 9 29 9h8q32 0 32 -9v-436q0 -124 52 -178q48 -49 140 -49q91 0 139 49q52 54 52 178v436q0 9 29 9h7q32 0 32 -9zM188 846q0 20 14 34t33 14t33.5 -14t14.5 -34q0 -19 -14 -33
t-34 -14q-19 0 -33 13.5t-14 33.5zM390 846q0 20 14 34t33 14t33.5 -14t14.5 -34q0 -19 -14 -33t-34 -14q-19 0 -33 13.5t-14 33.5z" />
    <glyph glyph-name="Yacute" unicode="&#xdd;" horiz-adv-x="523" 
d="M254 0q-29 0 -29 9v269l-211 430q-1 2 -1 4t1.5 3.5t5 2.5t9.5 1.5t14 0.5h8q33 0 38 -11l177 -369l175 371q5 9 34 9h9q11 0 17 -1.5t7.5 -4t-0.5 -6.5l-214 -430v-269q0 -9 -32 -9h-8zM318 913h15q22 0 23 -5q0 -2 -2 -5l-88 -119q-5 -6 -27 -6h-4q-21 1 -20 7l67 118
q6 10 36 10z" />
    <glyph glyph-name="Thorn" unicode="&#xde;" horiz-adv-x="536" 
d="M151 711v-152q55 10 114 10q114 0 176.5 -50t62.5 -146q0 -98 -62.5 -148t-176.5 -50q-59 0 -114 10v-176q0 -9 -32 -9h-8q-29 0 -29 9v702q0 9 29 9h8q32 0 32 -9zM263 513q-56 0 -112 -9v-264q56 -9 112 -9q170 0 170 141t-170 141z" />
    <glyph glyph-name="germandbls" unicode="&#xdf;" horiz-adv-x="605" 
d="M143 528v-518q0 -10 -28 -10h-8q-29 0 -29 10v516q0 125 50 184.5t151 59.5q70 0 116.5 -38.5t46.5 -104.5q0 -69 -59 -129q-27 -28 -36 -45.5t-9 -40.5q0 -29 20.5 -49.5t75.5 -41.5q70 -27 102 -62.5t32 -103.5q0 -82 -49.5 -123.5t-130.5 -41.5q-78 0 -142 36
q-7 4 4 26l2 4q13 25 22 20q51 -29 113 -29q56 0 88 27t32 79q0 49 -24.5 71.5t-80.5 44.5q-125 49 -125 140q0 34 13.5 61t49.5 64q42 45 42 90q0 42 -27.5 67t-79.5 25q-65 0 -98.5 -43.5t-33.5 -144.5z" />
    <glyph glyph-name="agrave" unicode="&#xe0;" horiz-adv-x="563" 
d="M484 369v-146q0 -116 7 -215q0 -8 -25 -8h-3q-26 0 -27 9l-8 62q-23 -39 -65.5 -60t-95.5 -21q-109 0 -164.5 74.5t-55.5 190.5q0 127 64 205t165 78q98 0 148 -73l5 53q1 10 28 10h7q15 0 18.5 -2t3.5 -10q0 -4 -0.5 -15.5t-0.5 -16.5q-1 -31 -1 -115zM419 246v150
q-53 82 -139 82q-75 0 -119 -59t-44 -159q0 -90 37 -150.5t119 -60.5q73 0 110 41q21 24 28.5 55t7.5 101zM234 721h15q30 0 36 -10l67 -118q3 -5 -7 -6q-4 -1 -13 -1h-4q-22 0 -27 6l-88 119q-6 8 8 9q5 1 13 1z" />
    <glyph glyph-name="aacute" unicode="&#xe1;" horiz-adv-x="563" 
d="M484 369v-146q0 -116 7 -215q0 -8 -25 -8h-3q-26 0 -27 9l-8 62q-23 -39 -65.5 -60t-95.5 -21q-109 0 -164.5 74.5t-55.5 190.5q0 127 64 205t165 78q98 0 148 -73l5 53q1 10 28 10h7q15 0 18.5 -2t3.5 -10q0 -4 -0.5 -15.5t-0.5 -16.5q-1 -31 -1 -115zM419 246v150
q-53 82 -139 82q-75 0 -119 -59t-44 -159q0 -90 37 -150.5t119 -60.5q73 0 110 41q21 24 28.5 55t7.5 101zM334 721h15q22 0 23 -5q0 -2 -2 -5l-88 -119q-5 -6 -27 -6h-4q-21 1 -20 7l67 118q6 10 36 10z" />
    <glyph glyph-name="acircumflex" unicode="&#xe2;" horiz-adv-x="563" 
d="M484 369v-146q0 -116 7 -215q0 -8 -25 -8h-3q-26 0 -27 9l-8 62q-23 -39 -65.5 -60t-95.5 -21q-109 0 -164.5 74.5t-55.5 190.5q0 127 64 205t165 78q98 0 148 -73l5 53q1 10 28 10h7q15 0 18.5 -2t3.5 -10q0 -4 -0.5 -15.5t-0.5 -16.5q-1 -31 -1 -115zM419 246v150
q-53 82 -139 82q-75 0 -119 -59t-44 -159q0 -90 37 -150.5t119 -60.5q73 0 110 41q21 24 28.5 55t7.5 101zM268 729h26q24 0 34 -10l94 -100q5 -5 -4 -16l-5 -6q-10 -11 -16 -6l-116 97l-116 -97q-6 -5 -16 6l-5 6q-9 11 -4 16l94 100q10 10 34 10z" />
    <glyph glyph-name="atilde" unicode="&#xe3;" horiz-adv-x="563" 
d="M484 369v-146q0 -116 7 -215q0 -8 -25 -8h-3q-26 0 -27 9l-8 62q-23 -39 -65.5 -60t-95.5 -21q-109 0 -164.5 74.5t-55.5 190.5q0 127 64 205t165 78q98 0 148 -73l5 53q1 10 28 10h7q15 0 18.5 -2t3.5 -10q0 -4 -0.5 -15.5t-0.5 -16.5q-1 -31 -1 -115zM419 246v150
q-53 82 -139 82q-75 0 -119 -59t-44 -159q0 -90 37 -150.5t119 -60.5q73 0 110 41q21 24 28.5 55t7.5 101zM431 665q-14 -18 -39 -31t-49 -13q-29 0 -68 19t-60 19q-27 0 -58 -30q-6 -5 -16 8l-8 10q-7 10 -2 16q14 18 39 31t49 13q29 0 68 -19t60 -19q27 0 58 30q6 5 16 -8
l8 -10q7 -10 2 -16z" />
    <glyph glyph-name="adieresis" unicode="&#xe4;" horiz-adv-x="563" 
d="M484 369v-146q0 -116 7 -215q0 -8 -25 -8h-3q-26 0 -27 9l-8 62q-23 -39 -65.5 -60t-95.5 -21q-109 0 -164.5 74.5t-55.5 190.5q0 127 64 205t165 78q98 0 148 -73l5 53q1 10 28 10h7q15 0 18.5 -2t3.5 -10q0 -4 -0.5 -15.5t-0.5 -16.5q-1 -31 -1 -115zM419 246v150
q-53 82 -139 82q-75 0 -119 -59t-44 -159q0 -90 37 -150.5t119 -60.5q73 0 110 41q21 24 28.5 55t7.5 101zM133 654q0 20 14 34t33 14q20 0 34 -14t14 -34q0 -19 -14 -33t-34 -14t-33.5 13.5t-13.5 33.5zM335 654q0 20 14 34t33 14q20 0 34 -14t14 -34q0 -19 -14 -33
t-34 -14t-33.5 13.5t-13.5 33.5z" />
    <glyph glyph-name="aring" unicode="&#xe5;" horiz-adv-x="563" 
d="M484 369v-146q0 -116 7 -215q0 -8 -25 -8h-3q-26 0 -27 9l-8 62q-23 -39 -65.5 -60t-95.5 -21q-109 0 -164.5 74.5t-55.5 190.5q0 127 64 205t165 78q98 0 148 -73l5 53q1 10 28 10h7q15 0 18.5 -2t3.5 -10q0 -4 -0.5 -15.5t-0.5 -16.5q-1 -31 -1 -115zM419 246v150
q-53 82 -139 82q-75 0 -119 -59t-44 -159q0 -90 37 -150.5t119 -60.5q73 0 110 41q21 24 28.5 55t7.5 101zM187 668q0 37 28 63.5t66 26.5q39 0 66.5 -26t27.5 -64t-27.5 -64t-66.5 -26q-38 0 -66 26.5t-28 63.5zM230 668q0 -23 14.5 -37t36.5 -14t35.5 14.5t13.5 36.5
t-13.5 36.5t-35.5 14.5t-36.5 -14t-14.5 -37z" />
    <glyph glyph-name="ae" unicode="&#xe6;" horiz-adv-x="863" 
d="M804 243h-349q4 -106 51 -151q42 -41 116 -41q77 0 137 30q7 4 11.5 1t10.5 -17l4 -10q8 -21 -1 -26q-75 -39 -173 -39q-64 0 -113 27t-71 70q-76 -97 -205 -97q-77 0 -127 42.5t-50 120.5q0 83 55.5 126.5t153.5 43.5q67 0 133 -26l1 33q2 80 -32 114.5t-112 34.5
q-68 0 -138 -27q-6 -2 -10 1.5t-8 17.5l-2 6q-8 25 0 28q75 33 167 33q69 0 118 -27t62 -78q53 105 178 105q58 0 103 -28.5t70 -79.5q34 -69 34 -162q0 -16 -3 -20.5t-11 -4.5zM236 48q107 0 167 89q-17 47 -18 105q-62 29 -129 29q-65 0 -103 -28t-38 -86q0 -53 32 -81
t89 -28zM456 295h295q-2 76 -38 129t-104 53t-107.5 -46t-45.5 -136z" />
    <glyph glyph-name="ccedilla" unicode="&#xe7;" horiz-adv-x="483" 
d="M229 -109l13 101q-95 12 -145 84t-50 180q0 133 68 207.5t175 74.5q88 0 156 -45q8 -6 -2 -28l-4 -8q-11 -22 -23 -15q-58 35 -122 35q-81 0 -129.5 -56.5t-48.5 -158.5q0 -93 40.5 -153t126.5 -60q75 0 131 30q7 4 11 0.5t9 -17.5l4 -11q7 -19 -1 -24q-57 -34 -149 -37
l-7 -57q18 2 27 2q40 0 65 -21.5t25 -56.5q0 -38 -28 -64t-82 -26q-46 0 -72 12q-5 2 -2 18l1 5q2 10 4 12.5t6 1.5q32 -7 55 -7q62 0 62 44q0 43 -61 43q-30 0 -53 -5z" />
    <glyph glyph-name="egrave" unicode="&#xe8;" horiz-adv-x="541" 
d="M482 243h-365q4 -107 57 -152q44 -40 126 -40q77 0 137 30q7 4 11.5 1t10.5 -17l4 -10q8 -21 -1 -26q-75 -39 -173 -39q-115 0 -178.5 69.5t-63.5 192.5q0 126 63.5 206t173.5 80q124 0 178 -108q34 -69 34 -162q0 -16 -3 -20.5t-11 -4.5zM118 295h311q-2 76 -38.5 129
t-107.5 53q-146 0 -165 -182zM233 721h15q30 0 36 -10l67 -118q3 -5 -7 -6q-4 -1 -13 -1h-4q-22 0 -27 6l-88 119q-6 8 8 9q5 1 13 1z" />
    <glyph glyph-name="eacute" unicode="&#xe9;" horiz-adv-x="541" 
d="M482 243h-365q4 -107 57 -152q44 -40 126 -40q77 0 137 30q7 4 11.5 1t10.5 -17l4 -10q8 -21 -1 -26q-75 -39 -173 -39q-115 0 -178.5 69.5t-63.5 192.5q0 126 63.5 206t173.5 80q124 0 178 -108q34 -69 34 -162q0 -16 -3 -20.5t-11 -4.5zM118 295h311q-2 76 -38.5 129
t-107.5 53q-146 0 -165 -182zM323 721h15q22 0 23 -5q0 -2 -2 -5l-88 -119q-5 -6 -27 -6h-4q-21 1 -20 7l67 118q6 10 36 10z" />
    <glyph glyph-name="ecircumflex" unicode="&#xea;" horiz-adv-x="541" 
d="M482 243h-365q4 -107 57 -152q44 -40 126 -40q77 0 137 30q7 4 11.5 1t10.5 -17l4 -10q8 -21 -1 -26q-75 -39 -173 -39q-115 0 -178.5 69.5t-63.5 192.5q0 126 63.5 206t173.5 80q124 0 178 -108q34 -69 34 -162q0 -16 -3 -20.5t-11 -4.5zM118 295h311q-2 76 -38.5 129
t-107.5 53q-146 0 -165 -182zM267 729h26q24 0 34 -10l94 -100q5 -5 -4 -16l-5 -6q-10 -11 -16 -6l-116 97l-116 -97q-6 -5 -16 6l-5 6q-9 11 -4 16l94 100q10 10 34 10z" />
    <glyph glyph-name="edieresis" unicode="&#xeb;" horiz-adv-x="541" 
d="M482 243h-365q4 -107 57 -152q44 -40 126 -40q77 0 137 30q7 4 11.5 1t10.5 -17l4 -10q8 -21 -1 -26q-75 -39 -173 -39q-115 0 -178.5 69.5t-63.5 192.5q0 126 63.5 206t173.5 80q124 0 178 -108q34 -69 34 -162q0 -16 -3 -20.5t-11 -4.5zM118 295h311q-2 76 -38.5 129
t-107.5 53q-146 0 -165 -182zM132 654q0 20 14 34t33 14t33.5 -14t14.5 -34q0 -19 -14 -33t-34 -14q-19 0 -33 13.5t-14 33.5zM334 654q0 20 14 34t33 14t33.5 -14t14.5 -34q0 -19 -14 -33t-34 -14q-19 0 -33 13.5t-14 33.5z" />
    <glyph glyph-name="igrave" unicode="&#xec;" horiz-adv-x="222" 
d="M78 10v509q0 9 28 9h8q29 0 29 -9v-509q0 -10 -28 -10h-8q-29 0 -29 10zM64 721h15q30 0 36 -10l67 -118q3 -5 -7 -6q-4 -1 -13 -1h-4q-22 0 -27 6l-88 119q-6 8 8 9q5 1 13 1z" />
    <glyph glyph-name="iacute" unicode="&#xed;" horiz-adv-x="222" 
d="M78 10v509q0 9 28 9h8q29 0 29 -9v-509q0 -10 -28 -10h-8q-29 0 -29 10zM154 721h15q22 0 23 -5q0 -2 -2 -5l-88 -119q-5 -6 -27 -6h-4q-21 1 -20 7l67 118q6 10 36 10z" />
    <glyph glyph-name="icircumflex" unicode="&#xee;" horiz-adv-x="222" 
d="M78 10v509q0 9 28 9h8q29 0 29 -9v-509q0 -10 -28 -10h-8q-29 0 -29 10zM98 729h26q24 0 34 -10l94 -100q5 -5 -4 -16l-5 -6q-10 -11 -16 -6l-116 97l-116 -97q-6 -5 -16 6l-5 6q-9 11 -4 16l94 100q10 10 34 10z" />
    <glyph glyph-name="idieresis" unicode="&#xef;" horiz-adv-x="222" 
d="M78 10v509q0 9 28 9h8q29 0 29 -9v-509q0 -10 -28 -10h-8q-29 0 -29 10zM-37 654q0 20 14 34t33 14q20 0 34 -14t14 -34q0 -19 -14 -33t-34 -14t-33.5 13.5t-13.5 33.5zM165 654q0 20 14 34t33 14q20 0 34 -14t14 -34q0 -19 -14 -33t-34 -14t-33.5 13.5t-13.5 33.5z" />
    <glyph glyph-name="eth" unicode="&#xf0;" horiz-adv-x="566" 
d="M427 724l-106 -49q193 -146 193 -388q0 -154 -66 -225.5t-169 -71.5q-104 0 -168 69t-64 190q0 116 66.5 191.5t166.5 75.5q75 0 133 -41q-48 101 -149 173l-137 -64q-8 -4 -14 9l-6 12q-7 14 -1 17l115 54q-39 25 -104 56q-9 5 1 22l5 9q6 10 8.5 12t8.5 0
q70 -26 140 -71l126 58q8 4 14 -9l6 -12q8 -14 1 -17zM445 294q0 70 -16 115q-66 48 -139 48q-82 0 -127.5 -58t-45.5 -148q0 -94 44 -148t123 -54q161 0 161 245z" />
    <glyph glyph-name="ntilde" unicode="&#xf1;" horiz-adv-x="581" 
d="M138 519l3 -64q60 83 176 83q93 0 143 -52q49 -50 49 -168v-307q0 -11 -28 -11h-8q-29 0 -29 11v262q0 70 -6 105t-26 58q-32 38 -111 38q-78 0 -124 -49q-25 -28 -30 -72q-3 -29 -3 -145v-197q0 -11 -28 -11h-8q-29 0 -29 11v376q0 87 -2 132q0 9 27 9h7q27 0 27 -9z
M454 665q-14 -18 -39 -31t-49 -13q-29 0 -68 19t-60 19q-27 0 -58 -30q-6 -5 -16 8l-8 10q-7 10 -2 16q14 18 39 31t49 13q29 0 68 -19t60 -19q27 0 58 30q6 5 16 -8l8 -10q7 -10 2 -16z" />
    <glyph glyph-name="ograve" unicode="&#xf2;" horiz-adv-x="566" 
d="M117 259q0 -41 7.5 -76t25 -66.5t50 -49.5t76.5 -18q75 0 124 54t49 166q0 41 -8 76t-25 66.5t-49.5 49.5t-77.5 18q-75 0 -123.5 -54.5t-48.5 -165.5zM273 -10q-92 0 -147 49q-79 71 -79 213q0 139 66 212.5t180 73.5q92 0 147 -49q79 -71 79 -213q0 -139 -66 -212.5
t-180 -73.5zM245 721h15q30 0 36 -10l67 -118q3 -5 -7 -6q-4 -1 -13 -1h-4q-22 0 -27 6l-88 119q-6 8 8 9q5 1 13 1z" />
    <glyph glyph-name="oacute" unicode="&#xf3;" horiz-adv-x="566" 
d="M117 259q0 -41 7.5 -76t25 -66.5t50 -49.5t76.5 -18q75 0 124 54t49 166q0 41 -8 76t-25 66.5t-49.5 49.5t-77.5 18q-75 0 -123.5 -54.5t-48.5 -165.5zM273 -10q-92 0 -147 49q-79 71 -79 213q0 139 66 212.5t180 73.5q92 0 147 -49q79 -71 79 -213q0 -139 -66 -212.5
t-180 -73.5zM325 721h15q22 0 23 -5q0 -2 -2 -5l-88 -119q-5 -6 -27 -6h-4q-21 1 -20 7l67 118q6 10 36 10z" />
    <glyph glyph-name="ocircumflex" unicode="&#xf4;" horiz-adv-x="566" 
d="M117 259q0 -41 7.5 -76t25 -66.5t50 -49.5t76.5 -18q75 0 124 54t49 166q0 41 -8 76t-25 66.5t-49.5 49.5t-77.5 18q-75 0 -123.5 -54.5t-48.5 -165.5zM273 -10q-92 0 -147 49q-79 71 -79 213q0 139 66 212.5t180 73.5q92 0 147 -49q79 -71 79 -213q0 -139 -66 -212.5
t-180 -73.5zM280 729h26q24 0 34 -10l94 -100q5 -5 -4 -16l-5 -6q-10 -11 -16 -6l-116 97l-116 -97q-6 -5 -16 6l-5 6q-9 11 -4 16l94 100q10 10 34 10z" />
    <glyph glyph-name="otilde" unicode="&#xf5;" horiz-adv-x="566" 
d="M117 259q0 -41 7.5 -76t25 -66.5t50 -49.5t76.5 -18q75 0 124 54t49 166q0 41 -8 76t-25 66.5t-49.5 49.5t-77.5 18q-75 0 -123.5 -54.5t-48.5 -165.5zM273 -10q-92 0 -147 49q-79 71 -79 213q0 139 66 212.5t180 73.5q92 0 147 -49q79 -71 79 -213q0 -139 -66 -212.5
t-180 -73.5zM443 665q-14 -18 -39 -31t-49 -13q-29 0 -68 19t-60 19q-27 0 -58 -30q-6 -5 -16 8l-8 10q-7 10 -2 16q14 18 39 31t49 13q29 0 68 -19t60 -19q27 0 58 30q6 5 16 -8l8 -10q7 -10 2 -16z" />
    <glyph glyph-name="odieresis" unicode="&#xf6;" horiz-adv-x="566" 
d="M117 259q0 -41 7.5 -76t25 -66.5t50 -49.5t76.5 -18q75 0 124 54t49 166q0 41 -8 76t-25 66.5t-49.5 49.5t-77.5 18q-75 0 -123.5 -54.5t-48.5 -165.5zM273 -10q-92 0 -147 49q-79 71 -79 213q0 139 66 212.5t180 73.5q92 0 147 -49q79 -71 79 -213q0 -139 -66 -212.5
t-180 -73.5zM144 654q0 20 14 34t33 14t33.5 -14t14.5 -34q0 -19 -14 -33t-34 -14q-19 0 -33 13.5t-14 33.5zM346 654q0 20 14 34t33 14t33.5 -14t14.5 -34q0 -19 -14 -33t-34 -14q-19 0 -33 13.5t-14 33.5z" />
    <glyph glyph-name="divide" unicode="&#xf7;" 
d="M296 619q20 0 34.5 -15t14.5 -37q0 -21 -14.5 -35.5t-34.5 -14.5t-34 14t-14 36t14 37t34 15zM296 212q21 0 35 -14.5t14 -36.5q0 -21 -14.5 -35.5t-34.5 -14.5t-34 14.5t-14 35.5q0 22 14 36.5t34 14.5zM525 342h-476q-8 0 -8 22v1q0 22 8 22h476q8 0 8 -22v-1
q0 -22 -8 -22z" />
    <glyph glyph-name="oslash" unicode="&#xf8;" horiz-adv-x="566" 
d="M273 -10q-77 0 -126 33l-35 -48q-7 -9 -29 6l-6 4q-20 14 -12 24l39 53q-57 70 -57 190q0 139 66 212.5t180 73.5q75 0 127 -34l41 57q5 6 10 4.5t19 -11.5l4 -3q13 -10 16 -14.5t-2 -11.5l-44 -62q55 -71 55 -187q0 -139 -66 -212.5t-180 -73.5zM117 259q0 -84 29 -138
l235 329q-37 29 -92 29q-75 0 -123.5 -54.5t-48.5 -165.5zM449 269q0 82 -29 134l-235 -327q37 -27 91 -27q75 0 124 54t49 166z" />
    <glyph glyph-name="ugrave" unicode="&#xf9;" horiz-adv-x="578" 
d="M442 10l-5 69q-52 -89 -171 -89q-102 0 -148 51q-47 48 -47 169v308q0 10 28 10h8q29 0 29 -10v-264q0 -72 5 -106t23 -56q34 -40 111 -40q72 0 114 42q22 22 32.5 60.5t10.5 114.5v249q0 10 28 10h8q29 0 29 -10v-347q0 -104 3 -159q1 -8 -3.5 -10t-20.5 -2h-8
q-17 0 -21 1.5t-5 8.5zM241 721h15q30 0 36 -10l67 -118q3 -5 -7 -6q-4 -1 -13 -1h-4q-22 0 -27 6l-88 119q-6 8 8 9q5 1 13 1z" />
    <glyph glyph-name="uacute" unicode="&#xfa;" horiz-adv-x="578" 
d="M442 10l-5 69q-52 -89 -171 -89q-102 0 -148 51q-47 48 -47 169v308q0 10 28 10h8q29 0 29 -10v-264q0 -72 5 -106t23 -56q34 -40 111 -40q72 0 114 42q22 22 32.5 60.5t10.5 114.5v249q0 10 28 10h8q29 0 29 -10v-347q0 -104 3 -159q1 -8 -3.5 -10t-20.5 -2h-8
q-17 0 -21 1.5t-5 8.5zM333 721h15q22 0 23 -5q0 -2 -2 -5l-88 -119q-5 -6 -27 -6h-4q-21 1 -20 7l67 118q6 10 36 10z" />
    <glyph glyph-name="ucircumflex" unicode="&#xfb;" horiz-adv-x="578" 
d="M442 10l-5 69q-52 -89 -171 -89q-102 0 -148 51q-47 48 -47 169v308q0 10 28 10h8q29 0 29 -10v-264q0 -72 5 -106t23 -56q34 -40 111 -40q72 0 114 42q22 22 32.5 60.5t10.5 114.5v249q0 10 28 10h8q29 0 29 -10v-347q0 -104 3 -159q1 -8 -3.5 -10t-20.5 -2h-8
q-17 0 -21 1.5t-5 8.5zM276 729h26q24 0 34 -10l94 -100q5 -5 -4 -16l-5 -6q-10 -11 -16 -6l-116 97l-116 -97q-6 -5 -16 6l-5 6q-9 11 -4 16l94 100q10 10 34 10z" />
    <glyph glyph-name="udieresis" unicode="&#xfc;" horiz-adv-x="578" 
d="M442 10l-5 69q-52 -89 -171 -89q-102 0 -148 51q-47 48 -47 169v308q0 10 28 10h8q29 0 29 -10v-264q0 -72 5 -106t23 -56q34 -40 111 -40q72 0 114 42q22 22 32.5 60.5t10.5 114.5v249q0 10 28 10h8q29 0 29 -10v-347q0 -104 3 -159q1 -8 -3.5 -10t-20.5 -2h-8
q-17 0 -21 1.5t-5 8.5zM140 654q0 20 14 34t33 14t33.5 -14t14.5 -34q0 -19 -14 -33t-34 -14q-19 0 -33 13.5t-14 33.5zM342 654q0 20 14 34t33 14t33.5 -14t14.5 -34q0 -19 -14 -33t-34 -14q-19 0 -33 13.5t-14 33.5z" />
    <glyph glyph-name="yacute" unicode="&#xfd;" horiz-adv-x="509" 
d="M104 518l94 -254q32 -84 71 -207q38 117 67 200l92 261q4 10 31 10h5q16 0 23.5 -2t5.5 -8l-192 -539q-45 -118 -87 -163q-54 -60 -145 -60q-45 0 -74 13q-7 3 -1 24l3 9q5 14 7.5 17.5t7.5 2.5q29 -9 53 -9q61 0 100 40t71 133l-206 530q-2 4 0 6.5t9 4t21 1.5h8
q32 0 36 -10zM322 721h15q22 0 23 -5q0 -2 -2 -5l-88 -119q-5 -6 -27 -6h-4q-21 1 -20 7l67 118q6 10 36 10z" />
    <glyph glyph-name="thorn" unicode="&#xfe;" horiz-adv-x="561" 
d="M143 761v-291q53 68 156 68q101 0 158 -67.5t57 -195.5q0 -119 -63 -202t-172 -83q-82 0 -136 48v-262q0 -9 -29 -9h-8q-28 0 -28 9v985q0 9 28 9h8q29 0 29 -9zM143 265v-163q55 -53 136 -53q78 0 121.5 60.5t43.5 162.5q0 206 -154 206q-78 0 -115 -45q-16 -21 -24 -55
t-8 -113z" />
    <glyph glyph-name="ydieresis" unicode="&#xff;" horiz-adv-x="509" 
d="M104 518l94 -254q32 -84 71 -207q38 117 67 200l92 261q4 10 31 10h5q16 0 23.5 -2t5.5 -8l-192 -539q-45 -118 -87 -163q-54 -60 -145 -60q-45 0 -74 13q-7 3 -1 24l3 9q5 14 7.5 17.5t7.5 2.5q29 -9 53 -9q61 0 100 40t71 133l-206 530q-2 4 0 6.5t9 4t21 1.5h8
q32 0 36 -10zM124 654q0 20 14 34t33 14t33.5 -14t14.5 -34q0 -19 -14 -33t-34 -14q-19 0 -33 13.5t-14 33.5zM326 654q0 20 14 34t33 14t33.5 -14t14.5 -34q0 -19 -14 -33t-34 -14q-19 0 -33 13.5t-14 33.5z" />
    <glyph glyph-name="Amacron" unicode="&#x100;" horiz-adv-x="626" 
d="M524 10l-61 184h-308l-61 -184q-4 -10 -35 -10h-5q-14 0 -20.5 1.5t-8 3.5t-0.5 6l242 696q5 13 43 13h2q38 0 43 -13l246 -696q1 -4 -0.5 -6t-8.5 -3.5t-21 -1.5h-10q-33 0 -37 10zM310 657l-137 -407h272zM182 874h262q8 0 8 -23v-3q0 -25 -8 -25h-262q-8 0 -8 25v3
q0 23 8 23z" />
    <glyph glyph-name="amacron" unicode="&#x101;" horiz-adv-x="563" 
d="M484 369v-146q0 -116 7 -215q0 -8 -25 -8h-3q-26 0 -27 9l-8 62q-23 -39 -65.5 -60t-95.5 -21q-109 0 -164.5 74.5t-55.5 190.5q0 127 64 205t165 78q98 0 148 -73l5 53q1 10 28 10h7q15 0 18.5 -2t3.5 -10q0 -4 -0.5 -15.5t-0.5 -16.5q-1 -31 -1 -115zM419 246v150
q-53 82 -139 82q-75 0 -119 -59t-44 -159q0 -90 37 -150.5t119 -60.5q73 0 110 41q21 24 28.5 55t7.5 101zM150 684h262q8 0 8 -23v-3q0 -25 -8 -25h-262q-8 0 -8 25v3q0 23 8 23z" />
    <glyph glyph-name="Abreve" unicode="&#x102;" horiz-adv-x="626" 
d="M524 10l-61 184h-308l-61 -184q-4 -10 -35 -10h-5q-14 0 -20.5 1.5t-8 3.5t-0.5 6l242 696q5 13 43 13h2q38 0 43 -13l246 -696q1 -4 -0.5 -6t-8.5 -3.5t-21 -1.5h-10q-33 0 -37 10zM310 657l-137 -407h272zM313 795q-59 0 -97.5 30t-38.5 81q0 6 19 6h12q13 0 15.5 -1.5
t3.5 -8.5q8 -66 86 -66t86 66q1 7 3.5 8.5t15.5 1.5h12q19 0 19 -6q0 -51 -38.5 -81t-97.5 -30z" />
    <glyph glyph-name="abreve" unicode="&#x103;" horiz-adv-x="563" 
d="M484 369v-146q0 -116 7 -215q0 -8 -25 -8h-3q-26 0 -27 9l-8 62q-23 -39 -65.5 -60t-95.5 -21q-109 0 -164.5 74.5t-55.5 190.5q0 127 64 205t165 78q98 0 148 -73l5 53q1 10 28 10h7q15 0 18.5 -2t3.5 -10q0 -4 -0.5 -15.5t-0.5 -16.5q-1 -31 -1 -115zM419 246v150
q-53 82 -139 82q-75 0 -119 -59t-44 -159q0 -90 37 -150.5t119 -60.5q73 0 110 41q21 24 28.5 55t7.5 101zM281 595q-59 0 -97.5 30t-38.5 81q0 6 19 6h12q13 0 15.5 -1.5t3.5 -8.5q8 -66 86 -66t86 66q1 7 3.5 8.5t15.5 1.5h12q19 0 19 -6q0 -51 -38.5 -81t-97.5 -30z" />
    <glyph glyph-name="Aogonek" unicode="&#x104;" horiz-adv-x="626" 
d="M599 -213q-35 -16 -73 -16q-42 0 -71 26t-29 68q0 43 26 81t72 63l-61 185h-308l-61 -184q-4 -10 -35 -10h-5q-14 0 -20.5 1.5t-8 3.5t-0.5 6l242 696q5 13 43 13h2q38 0 43 -13l246 -696q3 -9 -7 -10q-59 -12 -90 -62q-21 -33 -21 -67q0 -27 15.5 -42t42.5 -15
q15 0 49 9q6 2 10 -14l1 -5q3 -16 -2 -18zM310 657l-137 -407h272z" />
    <glyph glyph-name="aogonek" unicode="&#x105;" horiz-adv-x="563" 
d="M484 369v-146q0 -112 7 -211q0 -10 -9 -12q-61 -15 -89 -61q-21 -33 -21 -67q0 -27 15.5 -42t42.5 -15q15 0 49 9q6 2 10 -14l1 -5q3 -16 -2 -18q-35 -16 -73 -16q-42 0 -71 26t-29 70q0 49 33.5 88.5t87.5 59.5l-8 56q-23 -39 -65.5 -60t-95.5 -21q-109 0 -164.5 74.5
t-55.5 190.5q0 127 64 205t165 78q98 0 148 -73l5 53q1 10 28 10h7q15 0 18.5 -2t3.5 -10q0 -4 -0.5 -15.5t-0.5 -16.5q-1 -31 -1 -115zM419 246v150q-53 82 -139 82q-75 0 -119 -59t-44 -159q0 -90 37 -150.5t119 -60.5q73 0 110 41q21 24 28.5 55t7.5 101z" />
    <glyph glyph-name="Cacute" unicode="&#x106;" horiz-adv-x="564" 
d="M355 671q-116 0 -175.5 -84t-59.5 -231q0 -148 58.5 -227.5t174.5 -79.5q76 0 142 33q10 5 18 -15l4 -10q9 -21 -1 -26q-77 -41 -180 -41q-136 0 -212 97.5t-76 262.5q0 184 84 282t219 98q95 0 168 -46q7 -5 -2 -24l-5 -11q-9 -18 -18 -14q-78 36 -139 36zM384 913h15
q22 0 23 -5q0 -2 -2 -5l-88 -119q-5 -6 -27 -6h-4q-21 1 -20 7l67 118q6 10 36 10z" />
    <glyph glyph-name="cacute" unicode="&#x107;" horiz-adv-x="483" 
d="M446 493q8 -6 -2 -28l-4 -8q-11 -22 -23 -15q-58 35 -122 35q-81 0 -129.5 -56.5t-48.5 -158.5q0 -93 40.5 -153t126.5 -60q75 0 131 30q7 4 11 0.5t9 -17.5l4 -11q7 -19 -1 -24q-65 -37 -161 -37q-112 0 -171 74t-59 192q0 133 68 207.5t175 74.5q88 0 156 -45zM338 721
h15q22 0 23 -5q0 -2 -2 -5l-88 -119q-5 -6 -27 -6h-4q-21 1 -20 7l67 118q6 10 36 10z" />
    <glyph glyph-name="Ccircumflex" unicode="&#x108;" horiz-adv-x="564" 
d="M355 671q-116 0 -175.5 -84t-59.5 -231q0 -148 58.5 -227.5t174.5 -79.5q76 0 142 33q10 5 18 -15l4 -10q9 -21 -1 -26q-77 -41 -180 -41q-136 0 -212 97.5t-76 262.5q0 184 84 282t219 98q95 0 168 -46q7 -5 -2 -24l-5 -11q-9 -18 -18 -14q-78 36 -139 36zM339 921h26
q24 0 34 -10l94 -100q5 -5 -4 -16l-5 -6q-10 -11 -16 -6l-116 97l-116 -97q-6 -5 -16 6l-5 6q-9 11 -4 16l94 100q10 10 34 10z" />
    <glyph glyph-name="ccircumflex" unicode="&#x109;" horiz-adv-x="483" 
d="M446 493q8 -6 -2 -28l-4 -8q-11 -22 -23 -15q-58 35 -122 35q-81 0 -129.5 -56.5t-48.5 -158.5q0 -93 40.5 -153t126.5 -60q75 0 131 30q7 4 11 0.5t9 -17.5l4 -11q7 -19 -1 -24q-65 -37 -161 -37q-112 0 -171 74t-59 192q0 133 68 207.5t175 74.5q88 0 156 -45zM278 729
h26q24 0 34 -10l94 -100q5 -5 -4 -16l-5 -6q-10 -11 -16 -6l-116 97l-116 -97q-6 -5 -16 6l-5 6q-9 11 -4 16l94 100q10 10 34 10z" />
    <glyph glyph-name="Cdotaccent" unicode="&#x10a;" horiz-adv-x="564" 
d="M355 671q-116 0 -175.5 -84t-59.5 -231q0 -148 58.5 -227.5t174.5 -79.5q76 0 142 33q10 5 18 -15l4 -10q9 -21 -1 -26q-77 -41 -180 -41q-136 0 -212 97.5t-76 262.5q0 184 84 282t219 98q95 0 168 -46q7 -5 -2 -24l-5 -11q-9 -18 -18 -14q-78 36 -139 36zM302 840
q0 20 13.5 33.5t32.5 13.5q20 0 33.5 -13.5t13.5 -33.5q0 -19 -13.5 -32.5t-33.5 -13.5t-33 13t-13 33z" />
    <glyph glyph-name="cdotaccent" unicode="&#x10b;" horiz-adv-x="483" 
d="M446 493q8 -6 -2 -28l-4 -8q-11 -22 -23 -15q-58 35 -122 35q-81 0 -129.5 -56.5t-48.5 -158.5q0 -93 40.5 -153t126.5 -60q75 0 131 30q7 4 11 0.5t9 -17.5l4 -11q7 -19 -1 -24q-65 -37 -161 -37q-112 0 -171 74t-59 192q0 133 68 207.5t175 74.5q88 0 156 -45zM245 680
q0 20 13.5 33.5t32.5 13.5t33 -13.5t14 -33.5q0 -19 -13.5 -32.5t-33.5 -13.5q-19 0 -32.5 13t-13.5 33z" />
    <glyph glyph-name="Ccaron" unicode="&#x10c;" horiz-adv-x="564" 
d="M355 671q-116 0 -175.5 -84t-59.5 -231q0 -148 58.5 -227.5t174.5 -79.5q76 0 142 33q10 5 18 -15l4 -10q9 -21 -1 -26q-77 -41 -180 -41q-136 0 -212 97.5t-76 262.5q0 184 84 282t219 98q95 0 168 -46q7 -5 -2 -24l-5 -11q-9 -18 -18 -14q-78 36 -139 36zM305 798
l-94 100q-5 6 4 16l5 6q10 11 16 6l116 -97l116 97q6 5 16 -6l5 -6q9 -10 4 -16l-94 -100q-10 -10 -34 -10h-26q-24 0 -34 10z" />
    <glyph glyph-name="ccaron" unicode="&#x10d;" horiz-adv-x="483" 
d="M446 493q8 -6 -2 -28l-4 -8q-11 -22 -23 -15q-58 35 -122 35q-81 0 -129.5 -56.5t-48.5 -158.5q0 -93 40.5 -153t126.5 -60q75 0 131 30q7 4 11 0.5t9 -17.5l4 -11q7 -19 -1 -24q-65 -37 -161 -37q-112 0 -171 74t-59 192q0 133 68 207.5t175 74.5q88 0 156 -45zM304 583
h-26q-24 0 -34 10l-94 100q-5 5 4 16l5 6q10 11 16 6l116 -97l116 97q6 5 16 -6l5 -6q9 -11 4 -16l-94 -100q-10 -10 -34 -10z" />
    <glyph glyph-name="Dcaron" unicode="&#x10e;" horiz-adv-x="646" 
d="M82 720h162q96 0 160 -23t110 -71q85 -90 85 -263q0 -182 -93 -275q-88 -88 -261 -88h-163v720zM151 664v-608h88q142 0 212 68q76 75 76 237q0 157 -75 233q-36 36 -85.5 53t-129.5 17h-86zM274 798l-94 100q-5 6 4 16l5 6q10 11 16 6l116 -97l116 97q6 5 16 -6l5 -6
q9 -10 4 -16l-94 -100q-10 -10 -34 -10h-26q-24 0 -34 10z" />
    <glyph glyph-name="dcaron" unicode="&#x10f;" horiz-adv-x="631" 
d="M527 50q5 0 6 -3t1 -18v-4q0 -21 -6 -23q-14 -4 -34 -4q-62 0 -68 66q-45 -74 -157 -74q-106 0 -164 69.5t-58 193.5q0 120 62.5 202.5t177.5 82.5q78 0 133 -42v255q0 9 28 9h8q29 0 29 -9v-636q0 -42 8.5 -53.5t33.5 -11.5zM420 244v186q-56 47 -127 47q-80 0 -128 -60
t-48 -161t43 -154t117 -53q72 0 111 41q20 20 26 51.5t6 102.5zM542 513l-5 5q-7 7 -1 13q49 51 49 87q0 18 -17 38t-17 36q0 17 12 27.5t29 10.5q22 0 35.5 -15.5t13.5 -38.5q0 -99 -85 -167q-6 -4 -14 4z" />
    <glyph glyph-name="Dcroat" unicode="&#x110;" horiz-adv-x="652" 
d="M88 720h162q96 0 160 -23t110 -71q85 -90 85 -263q0 -182 -93 -275q-88 -88 -261 -88h-163v339h-58q-8 0 -8 25v3q0 23 8 23h58v330zM157 339v-283h88q142 0 212 68q76 75 76 237q0 157 -75 233q-36 36 -85.5 53t-129.5 17h-86v-274h169q8 0 8 -23v-3q0 -25 -8 -25h-169z
" />
    <glyph glyph-name="dcroat" unicode="&#x111;" horiz-adv-x="581" 
d="M260 669h160v82q0 9 28 9h8q29 0 29 -9v-82h67q8 0 8 -23v-1q0 -25 -8 -25h-67v-505q0 -42 8.5 -53.5t33.5 -11.5q5 0 6 -3t1 -18v-4q0 -21 -6 -23q-14 -4 -34 -4q-62 0 -68 66q-45 -74 -157 -74q-106 0 -164 69.5t-58 193.5q0 120 62.5 202.5t177.5 82.5q78 0 133 -42
v124h-160q-8 0 -8 25v1q0 23 8 23zM420 244v186q-56 47 -127 47q-80 0 -128 -60t-48 -161t43 -154t117 -53q72 0 111 41q20 20 26 51.5t6 102.5z" />
    <glyph glyph-name="Emacron" unicode="&#x112;" horiz-adv-x="534" 
d="M472 0h-390v720h386q9 0 9 -26v-4q0 -27 -9 -27h-317v-270h269q9 0 9 -26v-4q0 -27 -9 -27h-269v-279h321q9 0 9 -26v-4q0 -27 -9 -27zM147 874h262q8 0 8 -23v-3q0 -25 -8 -25h-262q-8 0 -8 25v3q0 23 8 23z" />
    <glyph glyph-name="emacron" unicode="&#x113;" horiz-adv-x="541" 
d="M482 243h-365q4 -107 57 -152q44 -40 126 -40q77 0 137 30q7 4 11.5 1t10.5 -17l4 -10q8 -21 -1 -26q-75 -39 -173 -39q-115 0 -178.5 69.5t-63.5 192.5q0 126 63.5 206t173.5 80q124 0 178 -108q34 -69 34 -162q0 -16 -3 -20.5t-11 -4.5zM118 295h311q-2 76 -38.5 129
t-107.5 53q-146 0 -165 -182zM152 684h262q8 0 8 -23v-3q0 -25 -8 -25h-262q-8 0 -8 25v3q0 23 8 23z" />
    <glyph glyph-name="Ebreve" unicode="&#x114;" horiz-adv-x="534" 
d="M472 0h-390v720h386q9 0 9 -26v-4q0 -27 -9 -27h-317v-270h269q9 0 9 -26v-4q0 -27 -9 -27h-269v-279h321q9 0 9 -26v-4q0 -27 -9 -27zM281 795q-59 0 -97.5 30t-38.5 81q0 6 19 6h12q13 0 15.5 -1.5t3.5 -8.5q8 -66 86 -66t86 66q1 7 3.5 8.5t15.5 1.5h12q19 0 19 -6
q0 -51 -38.5 -81t-97.5 -30z" />
    <glyph glyph-name="ebreve" unicode="&#x115;" horiz-adv-x="541" 
d="M482 243h-365q4 -107 57 -152q44 -40 126 -40q77 0 137 30q7 4 11.5 1t10.5 -17l4 -10q8 -21 -1 -26q-75 -39 -173 -39q-115 0 -178.5 69.5t-63.5 192.5q0 126 63.5 206t173.5 80q124 0 178 -108q34 -69 34 -162q0 -16 -3 -20.5t-11 -4.5zM118 295h311q-2 76 -38.5 129
t-107.5 53q-146 0 -165 -182zM285 595q-59 0 -97.5 30t-38.5 81q0 6 19 6h12q13 0 15.5 -1.5t3.5 -8.5q8 -66 86 -66t86 66q1 7 3.5 8.5t15.5 1.5h12q19 0 19 -6q0 -51 -38.5 -81t-97.5 -30z" />
    <glyph glyph-name="Edotaccent" unicode="&#x116;" horiz-adv-x="534" 
d="M472 0h-390v720h386q9 0 9 -26v-4q0 -27 -9 -27h-317v-270h269q9 0 9 -26v-4q0 -27 -9 -27h-269v-279h321q9 0 9 -26v-4q0 -27 -9 -27zM239 840q0 20 13.5 33.5t32.5 13.5t33 -13.5t14 -33.5q0 -19 -13.5 -32.5t-33.5 -13.5q-19 0 -32.5 13t-13.5 33z" />
    <glyph glyph-name="edotaccent" unicode="&#x117;" horiz-adv-x="541" 
d="M482 243h-365q4 -107 57 -152q44 -40 126 -40q77 0 137 30q7 4 11.5 1t10.5 -17l4 -10q8 -21 -1 -26q-75 -39 -173 -39q-115 0 -178.5 69.5t-63.5 192.5q0 126 63.5 206t173.5 80q124 0 178 -108q34 -69 34 -162q0 -16 -3 -20.5t-11 -4.5zM118 295h311q-2 76 -38.5 129
t-107.5 53q-146 0 -165 -182zM239 680q0 20 13.5 33.5t32.5 13.5t33 -13.5t14 -33.5q0 -19 -13.5 -32.5t-33.5 -13.5q-19 0 -32.5 13t-13.5 33z" />
    <glyph glyph-name="Eogonek" unicode="&#x118;" horiz-adv-x="534" 
d="M472 0q-50 -6 -87 -41.5t-37 -86.5q0 -27 15.5 -42t40.5 -15q17 0 51 9q6 2 10 -14l1 -5q3 -16 -2 -18q-35 -16 -73 -16q-43 0 -71.5 25t-28.5 73q0 36 22.5 72t61.5 59h-293v720h386q9 0 9 -26v-4q0 -27 -9 -27h-317v-270h269q9 0 9 -26v-4q0 -27 -9 -27h-269v-279h321
q9 0 9 -26v-4q0 -26 -9 -27z" />
    <glyph glyph-name="eogonek" unicode="&#x119;" horiz-adv-x="541" 
d="M444 -213q-35 -16 -73 -16q-42 0 -71 26.5t-29 72.5q0 34 18.5 67t48.5 56q-24 -3 -49 -3q-115 0 -178.5 69.5t-63.5 192.5q0 126 63.5 206t173.5 80q124 0 178 -108q34 -69 34 -162q0 -16 -3 -20.5t-11 -4.5h-365q4 -107 57 -152q44 -40 126 -40q77 0 137 30q7 4 11.5 1
t10.5 -17l4 -10q8 -21 -1 -26q-134 -65 -134 -154q0 -28 15.5 -44t42.5 -16q15 0 49 9q6 2 10 -14l1 -5q3 -16 -2 -18zM118 295h311q-2 76 -38.5 129t-107.5 53q-146 0 -165 -182z" />
    <glyph glyph-name="Ecaron" unicode="&#x11a;" horiz-adv-x="534" 
d="M472 0h-390v720h386q9 0 9 -26v-4q0 -27 -9 -27h-317v-270h269q9 0 9 -26v-4q0 -27 -9 -27h-269v-279h321q9 0 9 -26v-4q0 -27 -9 -27zM240 798l-94 100q-5 6 4 16l5 6q10 11 16 6l116 -97l116 97q6 5 16 -6l5 -6q9 -10 4 -16l-94 -100q-10 -10 -34 -10h-26q-24 0 -34 10
z" />
    <glyph glyph-name="ecaron" unicode="&#x11b;" horiz-adv-x="541" 
d="M482 243h-365q4 -107 57 -152q44 -40 126 -40q77 0 137 30q7 4 11.5 1t10.5 -17l4 -10q8 -21 -1 -26q-75 -39 -173 -39q-115 0 -178.5 69.5t-63.5 192.5q0 126 63.5 206t173.5 80q124 0 178 -108q34 -69 34 -162q0 -16 -3 -20.5t-11 -4.5zM118 295h311q-2 76 -38.5 129
t-107.5 53q-146 0 -165 -182zM297 583h-26q-24 0 -34 10l-94 100q-5 5 4 16l5 6q10 11 16 6l116 -97l116 97q6 5 16 -6l5 -6q9 -11 4 -16l-94 -100q-10 -10 -34 -10z" />
    <glyph glyph-name="Gcircumflex" unicode="&#x11c;" horiz-adv-x="636" 
d="M525 625q-83 46 -167 46q-117 0 -178 -84t-61 -228t60 -227.5t186 -83.5q74 0 140 27v243h-163q-9 0 -9 26v4q0 27 9 27h230v-337q-111 -48 -211 -48q-139 0 -218 81q-96 98 -96 283q0 174 83.5 275t227.5 101q111 0 192 -56q7 -5 -2 -24l-5 -11q-9 -19 -18 -14zM345 921
h26q24 0 34 -10l94 -100q5 -5 -4 -16l-5 -6q-10 -11 -16 -6l-116 97l-116 -97q-6 -5 -16 6l-5 6q-9 11 -4 16l94 100q10 10 34 10z" />
    <glyph glyph-name="gcircumflex" unicode="&#x11d;" horiz-adv-x="561" 
d="M484 519q4 -106 4 -252v-174q0 -129 -20 -194q-22 -70 -79 -107t-140 -37q-82 0 -139 26q-10 5 -2 28l2 6q6 17 9 20.5t11 0.5q51 -21 119 -21q143 0 168 128q6 39 6 123q-63 -66 -165 -66t-156.5 71.5t-54.5 186.5q1 129 65 204.5t165 75.5q99 0 145 -67l1 48q0 9 28 9
h4q19 0 24 -2t5 -7zM423 132v152q0 95 -17 128q-32 63 -120 63q-82 0 -125.5 -57t-43.5 -156q0 -202 158 -202q88 0 148 72zM267 729h26q24 0 34 -10l94 -100q5 -5 -4 -16l-5 -6q-10 -11 -16 -6l-116 97l-116 -97q-6 -5 -16 6l-5 6q-9 11 -4 16l94 100q10 10 34 10z" />
    <glyph glyph-name="Gbreve" unicode="&#x11e;" horiz-adv-x="636" 
d="M525 625q-83 46 -167 46q-117 0 -178 -84t-61 -228t60 -227.5t186 -83.5q74 0 140 27v243h-163q-9 0 -9 26v4q0 27 9 27h230v-337q-111 -48 -211 -48q-139 0 -218 81q-96 98 -96 283q0 174 83.5 275t227.5 101q111 0 192 -56q7 -5 -2 -24l-5 -11q-9 -19 -18 -14zM358 795
q-59 0 -97.5 30t-38.5 81q0 6 19 6h12q13 0 15.5 -1.5t3.5 -8.5q8 -66 86 -66t86 66q1 7 3.5 8.5t15.5 1.5h12q19 0 19 -6q0 -51 -38.5 -81t-97.5 -30z" />
    <glyph glyph-name="gbreve" unicode="&#x11f;" horiz-adv-x="561" 
d="M484 519q4 -106 4 -252v-174q0 -129 -20 -194q-22 -70 -79 -107t-140 -37q-82 0 -139 26q-10 5 -2 28l2 6q6 17 9 20.5t11 0.5q51 -21 119 -21q143 0 168 128q6 39 6 123q-63 -66 -165 -66t-156.5 71.5t-54.5 186.5q1 129 65 204.5t165 75.5q99 0 145 -67l1 48q0 9 28 9
h4q19 0 24 -2t5 -7zM423 132v152q0 95 -17 128q-32 63 -120 63q-82 0 -125.5 -57t-43.5 -156q0 -202 158 -202q88 0 148 72zM280 595q-59 0 -97.5 30t-38.5 81q0 6 19 6h12q13 0 15.5 -1.5t3.5 -8.5q8 -66 86 -66t86 66q1 7 3.5 8.5t15.5 1.5h12q19 0 19 -6q0 -51 -38.5 -81
t-97.5 -30z" />
    <glyph glyph-name="Gdotaccent" unicode="&#x120;" horiz-adv-x="636" 
d="M525 625q-83 46 -167 46q-117 0 -178 -84t-61 -228t60 -227.5t186 -83.5q74 0 140 27v243h-163q-9 0 -9 26v4q0 27 9 27h230v-337q-111 -48 -211 -48q-139 0 -218 81q-96 98 -96 283q0 174 83.5 275t227.5 101q111 0 192 -56q7 -5 -2 -24l-5 -11q-9 -19 -18 -14zM311 840
q0 20 13.5 33.5t32.5 13.5t33 -13.5t14 -33.5q0 -19 -13.5 -32.5t-33.5 -13.5q-19 0 -32.5 13t-13.5 33z" />
    <glyph glyph-name="gdotaccent" unicode="&#x121;" horiz-adv-x="561" 
d="M484 519q4 -106 4 -252v-174q0 -129 -20 -194q-22 -70 -79 -107t-140 -37q-82 0 -139 26q-10 5 -2 28l2 6q6 17 9 20.5t11 0.5q51 -21 119 -21q143 0 168 128q6 39 6 123q-63 -66 -165 -66t-156.5 71.5t-54.5 186.5q1 129 65 204.5t165 75.5q99 0 145 -67l1 48q0 9 28 9
h4q19 0 24 -2t5 -7zM423 132v152q0 95 -17 128q-32 63 -120 63q-82 0 -125.5 -57t-43.5 -156q0 -202 158 -202q88 0 148 72zM237 680q0 20 13.5 33.5t32.5 13.5t33 -13.5t14 -33.5q0 -19 -13.5 -32.5t-33.5 -13.5q-19 0 -32.5 13t-13.5 33z" />
    <glyph glyph-name="Gcommaaccent" unicode="&#x122;" horiz-adv-x="636" 
d="M525 625q-83 46 -167 46q-117 0 -178 -84t-61 -228t60 -227.5t186 -83.5q74 0 140 27v243h-163q-9 0 -9 26v4q0 27 9 27h230v-337q-111 -48 -211 -48q-139 0 -218 81q-96 98 -96 283q0 174 83.5 275t227.5 101q111 0 192 -56q7 -5 -2 -24l-5 -11q-9 -19 -18 -14z
M312 -270l-5 5q-7 7 -1 13q49 51 49 87q0 18 -17 38t-17 36q0 17 12 27.5t29 10.5q22 0 35.5 -15.5t13.5 -38.5q0 -99 -85 -167q-6 -4 -14 4z" />
    <glyph glyph-name="gcommaaccent" unicode="&#x123;" horiz-adv-x="561" 
d="M326 819l5 -5q7 -7 1 -13q-49 -51 -49 -87q0 -18 17 -38t17 -36q0 -17 -12 -27.5t-29 -10.5q-22 0 -35.5 15.5t-13.5 38.5q0 99 85 167q6 4 14 -4zM484 519q4 -106 4 -252v-174q0 -129 -20 -194q-22 -70 -79 -107t-140 -37q-82 0 -139 26q-10 5 -2 28l2 6q6 17 9 20.5
t11 0.5q51 -21 119 -21q143 0 168 128q6 39 6 123q-63 -66 -165 -66t-156.5 71.5t-54.5 186.5q1 129 65 204.5t165 75.5q99 0 145 -67l1 48q0 9 28 9h4q19 0 24 -2t5 -7zM423 132v152q0 95 -17 128q-32 63 -120 63q-82 0 -125.5 -57t-43.5 -156q0 -202 158 -202q88 0 148 72
z" />
    <glyph glyph-name="Hcircumflex" unicode="&#x124;" horiz-adv-x="656" 
d="M82 9v702q0 9 29 9h8q32 0 32 -9v-318h354v318q0 9 29 9h8q32 0 32 -9v-702q0 -9 -32 -9h-8q-29 0 -29 9v327h-354v-327q0 -9 -32 -9h-8q-29 0 -29 9zM315 921h26q24 0 34 -10l94 -100q5 -5 -4 -16l-5 -6q-10 -11 -16 -6l-116 97l-116 -97q-6 -5 -16 6l-5 6q-9 11 -4 16
l94 100q10 10 34 10z" />
    <glyph glyph-name="hcircumflex" unicode="&#x125;" horiz-adv-x="580" 
d="M143 751v-294q58 81 173 81q93 0 143 -52q49 -50 49 -168v-307q0 -11 -28 -11h-8q-29 0 -29 11v262q0 70 -6 105t-26 58q-32 38 -111 38q-78 0 -124 -49q-25 -28 -30 -72q-3 -29 -3 -145v-197q0 -11 -28 -11h-8q-29 0 -29 11v740q0 9 28 9h8q29 0 29 -9zM98 902h26
q24 0 34 -10l94 -100q5 -5 -4 -16l-5 -6q-10 -11 -16 -6l-116 97l-116 -97q-6 -5 -16 6l-5 6q-9 11 -4 16l94 100q10 10 34 10z" />
    <glyph glyph-name="Hbar" unicode="&#x126;" horiz-adv-x="668" 
d="M88 9v534h-58q-8 0 -8 25v3q0 23 8 23h58v117q0 9 29 9h8q32 0 32 -9v-117h354v117q0 9 29 9h8q32 0 32 -9v-117h58q8 0 8 -23v-3q0 -25 -8 -25h-58v-534q0 -9 -32 -9h-8q-29 0 -29 9v327h-354v-327q0 -9 -32 -9h-8q-29 0 -29 9zM157 393h354v150h-354v-150z" />
    <glyph glyph-name="hbar" unicode="&#x127;" horiz-adv-x="580" 
d="M143 751v-82h160q8 0 8 -23v-1q0 -25 -8 -25h-160v-163q58 81 173 81q93 0 143 -52q49 -50 49 -168v-307q0 -11 -28 -11h-8q-29 0 -29 11v262q0 70 -6 105t-26 58q-32 38 -111 38q-78 0 -124 -49q-25 -28 -30 -72q-3 -29 -3 -145v-197q0 -11 -28 -11h-8q-29 0 -29 11v609
h-67q-8 0 -8 25v1q0 23 8 23h67v82q0 9 28 9h8q29 0 29 -9z" />
    <glyph glyph-name="Itilde" unicode="&#x128;" horiz-adv-x="365" 
d="M292 0h-219q-6 0 -7.5 3.5t-1.5 17.5v4q0 14 1.5 18t7.5 4h75v626h-75q-6 0 -7.5 3.5t-1.5 17.5v4q0 14 1.5 18t7.5 4h219q6 0 7.5 -4t1.5 -18v-4q0 -14 -1.5 -17.5t-7.5 -3.5h-75v-626h75q6 0 7.5 -4t1.5 -18v-4q0 -14 -1.5 -17.5t-7.5 -3.5zM332 857q-14 -18 -39 -31
t-49 -13q-29 0 -68 19t-60 19q-27 0 -58 -30q-6 -5 -16 8l-8 10q-7 10 -2 16q14 18 39 31t49 13q29 0 68 -19t60 -19q27 0 58 30q6 5 16 -8l8 -10q7 -10 2 -16z" />
    <glyph glyph-name="itilde" unicode="&#x129;" horiz-adv-x="222" 
d="M78 10v509q0 9 28 9h8q29 0 29 -9v-509q0 -10 -28 -10h-8q-29 0 -29 10zM261 665q-14 -18 -39 -31t-49 -13q-29 0 -68 19t-60 19q-27 0 -58 -30q-6 -5 -16 8l-8 10q-7 10 -2 16q14 18 39 31t49 13q29 0 68 -19t60 -19q27 0 58 30q6 5 16 -8l8 -10q7 -10 2 -16z" />
    <glyph glyph-name="Imacron" unicode="&#x12a;" horiz-adv-x="365" 
d="M292 0h-219q-6 0 -7.5 3.5t-1.5 17.5v4q0 14 1.5 18t7.5 4h75v626h-75q-6 0 -7.5 3.5t-1.5 17.5v4q0 14 1.5 18t7.5 4h219q6 0 7.5 -4t1.5 -18v-4q0 -14 -1.5 -17.5t-7.5 -3.5h-75v-626h75q6 0 7.5 -4t1.5 -18v-4q0 -14 -1.5 -17.5t-7.5 -3.5zM51 874h262q8 0 8 -23v-3
q0 -25 -8 -25h-262q-8 0 -8 25v3q0 23 8 23z" />
    <glyph glyph-name="imacron" unicode="&#x12b;" horiz-adv-x="222" 
d="M78 10v509q0 9 28 9h8q29 0 29 -9v-509q0 -10 -28 -10h-8q-29 0 -29 10zM-20 684h262q8 0 8 -23v-3q0 -25 -8 -25h-262q-8 0 -8 25v3q0 23 8 23z" />
    <glyph glyph-name="Ibreve" unicode="&#x12c;" horiz-adv-x="365" 
d="M292 0h-219q-6 0 -7.5 3.5t-1.5 17.5v4q0 14 1.5 18t7.5 4h75v626h-75q-6 0 -7.5 3.5t-1.5 17.5v4q0 14 1.5 18t7.5 4h219q6 0 7.5 -4t1.5 -18v-4q0 -14 -1.5 -17.5t-7.5 -3.5h-75v-626h75q6 0 7.5 -4t1.5 -18v-4q0 -14 -1.5 -17.5t-7.5 -3.5zM182 795q-59 0 -97.5 30
t-38.5 81q0 6 19 6h12q13 0 15.5 -1.5t3.5 -8.5q8 -66 86 -66t86 66q1 7 3.5 8.5t15.5 1.5h12q19 0 19 -6q0 -51 -38.5 -81t-97.5 -30z" />
    <glyph glyph-name="ibreve" unicode="&#x12d;" horiz-adv-x="222" 
d="M78 10v509q0 9 28 9h8q29 0 29 -9v-509q0 -10 -28 -10h-8q-29 0 -29 10zM111 595q-59 0 -97.5 30t-38.5 81q0 6 19 6h12q13 0 15.5 -1.5t3.5 -8.5q8 -66 86 -66t86 66q1 7 3.5 8.5t15.5 1.5h12q19 0 19 -6q0 -51 -38.5 -81t-97.5 -30z" />
    <glyph glyph-name="Iogonek" unicode="&#x12e;" horiz-adv-x="365" 
d="M180 0h-107q-6 0 -7.5 3.5t-1.5 17.5v4q0 14 1.5 18t7.5 4h75v626h-75q-6 0 -7.5 3.5t-1.5 17.5v4q0 14 1.5 18t7.5 4h219q6 0 7.5 -4t1.5 -18v-4q0 -14 -1.5 -17.5t-7.5 -3.5h-75v-626h75q6 0 7.5 -4t1.5 -18v-4q0 -14 -1.5 -17.5t-7.5 -3.5h-7q-62 0 -100 -46
q-31 -38 -31 -82q0 -57 54 -57q19 0 53 9q6 2 10 -14l1 -5q3 -16 -2 -18q-35 -16 -73 -16q-43 0 -71.5 25.5t-28.5 72.5q0 38 22 74t61 57z" />
    <glyph glyph-name="iogonek" unicode="&#x12f;" horiz-adv-x="221" 
d="M7 -133q0 73 71 133v519q0 9 28 9h8q29 0 29 -9v-501q0 -9 -9 -18q-35 -35 -52.5 -63.5t-17.5 -64.5q0 -27 15.5 -42t42.5 -15q15 0 49 9q6 2 10 -14l1 -5q3 -16 -2 -18q-35 -16 -73 -16q-42 0 -71 26t-29 70zM59 710q0 22 15.5 38t36.5 16t36.5 -16t15.5 -38
q0 -23 -15.5 -38t-36.5 -15t-36.5 15t-15.5 38z" />
    <glyph glyph-name="Idotaccent" unicode="&#x130;" horiz-adv-x="365" 
d="M292 0h-219q-6 0 -7.5 3.5t-1.5 17.5v4q0 14 1.5 18t7.5 4h75v626h-75q-6 0 -7.5 3.5t-1.5 17.5v4q0 14 1.5 18t7.5 4h219q6 0 7.5 -4t1.5 -18v-4q0 -14 -1.5 -17.5t-7.5 -3.5h-75v-626h75q6 0 7.5 -4t1.5 -18v-4q0 -14 -1.5 -17.5t-7.5 -3.5zM136 840q0 20 13.5 33.5
t32.5 13.5q20 0 33.5 -13.5t13.5 -33.5q0 -19 -13.5 -32.5t-33.5 -13.5t-33 13t-13 33z" />
    <glyph glyph-name="dotlessi" unicode="&#x131;" horiz-adv-x="222" 
d="M78 10v509q0 9 28 9h8q29 0 29 -9v-509q0 -10 -28 -10h-8q-29 0 -29 10z" />
    <glyph glyph-name="IJ" unicode="&#x132;" horiz-adv-x="803" 
d="M292 0h-219q-6 0 -7.5 3.5t-1.5 17.5v4q0 14 1.5 18t7.5 4h75v626h-75q-6 0 -7.5 3.5t-1.5 17.5v4q0 14 1.5 18t7.5 4h219q6 0 7.5 -4t1.5 -18v-4q0 -14 -1.5 -17.5t-7.5 -3.5h-75v-626h75q6 0 7.5 -4t1.5 -18v-4q0 -14 -1.5 -17.5t-7.5 -3.5zM689 720h8q32 0 32 -9v-516
q0 -103 -49 -155q-47 -50 -136 -50q-85 0 -148 42q-7 4 -7 9t6 17l5 10q10 19 22 13q66 -33 116 -33q61 0 92 37q30 37 30 126v500q0 9 29 9z" />
    <glyph glyph-name="ij" unicode="&#x133;" horiz-adv-x="467" 
d="M59 710q0 22 15.5 38t36.5 16t36.5 -16t15.5 -38q0 -23 -15.5 -38t-36.5 -15t-36.5 15t-15.5 38zM78 10v509q0 9 28 9h8q29 0 29 -9v-509q0 -10 -28 -10h-8q-29 0 -29 10zM304 710q0 22 15.5 38t36.5 16t36.5 -16t15.5 -38q0 -23 -15.5 -38t-36.5 -15t-36.5 15t-15.5 38z
M388 519v-528q0 -125 -44.5 -180.5t-134.5 -55.5q-38 0 -65 11q-6 3 -3 24l1 6q2 14 4.5 18t6.5 3q25 -7 50 -7q66 0 93 41t27 138v530q0 9 28 9h8q29 0 29 -9z" />
    <glyph glyph-name="Jcircumflex" unicode="&#x134;" horiz-adv-x="438" 
d="M324 720h8q32 0 32 -9v-516q0 -103 -49 -155q-47 -50 -136 -50q-85 0 -148 42q-11 7 -1 26l5 10q10 19 22 13q66 -33 116 -33q61 0 92 37q30 37 30 126v500q0 9 29 9zM316 921h26q24 0 34 -10l94 -100q5 -5 -4 -16l-5 -6q-10 -11 -16 -6l-116 97l-116 -97q-6 -5 -16 6
l-5 6q-9 11 -4 16l94 100q10 10 34 10z" />
    <glyph glyph-name="jcircumflex" unicode="&#x135;" horiz-adv-x="246" 
d="M167 519v-528q0 -125 -44.5 -180.5t-134.5 -55.5q-38 0 -65 11q-6 3 -3 24l1 6q2 14 4.5 18t6.5 3q25 -7 50 -7q66 0 93 41t27 138v530q0 9 28 9h8q29 0 29 -9zM123 729h26q24 0 34 -10l94 -100q5 -5 -4 -16l-5 -6q-10 -11 -16 -6l-116 97l-116 -97q-6 -5 -16 6l-5 6
q-9 11 -4 16l94 100q10 10 34 10z" />
    <glyph glyph-name="Kcommaaccent" unicode="&#x136;" horiz-adv-x="571" 
d="M82 9v702q0 9 29 9h8q32 0 32 -9v-375l103 110q144 154 200 266q4 8 27 8h14q14 0 18.5 -2t2.5 -8q-52 -122 -214 -290l244 -407q7 -11 -12 -13h-11h-16q-32 0 -38 10l-214 361l-104 -108v-254q0 -9 -32 -9h-8q-29 0 -29 9zM258 -270l-5 5q-7 7 -1 13q49 51 49 87
q0 18 -17 38t-17 36q0 17 12 27.5t29 10.5q22 0 35.5 -15.5t13.5 -38.5q0 -99 -85 -167q-6 -4 -14 4z" />
    <glyph glyph-name="kcommaaccent" unicode="&#x137;" horiz-adv-x="478" 
d="M115 0h-8q-29 0 -29 9v742q0 9 28 9h8q29 0 29 -9v-462l58 50q93 78 166 179q7 10 36 10h5q28 0 28 -5q1 -2 -2 -6q-62 -94 -170 -194l190 -309q6 -8 -0.5 -11t-26.5 -3h-4q-24 0 -30 2t-11 9l-166 271l-73 -63v-210q0 -9 -28 -9zM210 -270l-5 5q-7 7 -1 13q49 51 49 87
q0 18 -17 38t-17 36q0 17 12 27.5t29 10.5q22 0 35.5 -15.5t13.5 -38.5q0 -99 -85 -167q-6 -4 -14 4z" />
    <glyph glyph-name="kgreenlandic" unicode="&#x138;" horiz-adv-x="478" 
d="M115 0h-8q-29 0 -29 9v510q0 9 28 9h8q29 0 29 -9v-230l58 50q93 78 166 179q7 10 36 10h5q28 0 28 -5q1 -2 -2 -6q-62 -94 -170 -194l190 -309q6 -8 -0.5 -11t-26.5 -3h-4q-24 0 -30 2t-11 9l-166 271l-73 -63v-210q0 -9 -28 -9z" />
    <glyph glyph-name="Lacute" unicode="&#x139;" horiz-adv-x="495" 
d="M151 711v-654h297q9 0 9 -26v-4q0 -27 -9 -27h-338q-28 0 -28 11v700q0 9 29 9h8q32 0 32 -9zM177 913h15q22 0 23 -5q0 -2 -2 -5l-88 -119q-5 -6 -27 -6h-4q-21 1 -20 7l67 118q6 10 36 10z" />
    <glyph glyph-name="lacute" unicode="&#x13a;" horiz-adv-x="245" 
d="M136 460v-348q0 -35 7 -48t29 -13q8 0 20 2q4 1 6 -2.5t3 -15.5l1 -7q2 -12 0 -16t-9 -6q-19 -6 -41 -6q-47 0 -66 28q-15 23 -15 104v351q0 163 -4 268q0 9 28 9h8q29 0 29 -9q4 -77 4 -291zM155 925h15q22 0 23 -5q0 -2 -2 -5l-88 -119q-5 -6 -27 -6h-4q-21 1 -20 7
l67 118q6 10 36 10z" />
    <glyph glyph-name="Lcommaaccent" unicode="&#x13b;" horiz-adv-x="495" 
d="M151 711v-654h297q9 0 9 -26v-4q0 -27 -9 -27h-338q-28 0 -28 11v700q0 9 29 9h8q32 0 32 -9zM226 -270l-5 5q-7 7 -1 13q49 51 49 87q0 18 -17 38t-17 36q0 17 12 27.5t29 10.5q22 0 35.5 -15.5t13.5 -38.5q0 -99 -85 -167q-6 -4 -14 4z" />
    <glyph glyph-name="lcommaaccent" unicode="&#x13c;" horiz-adv-x="245" 
d="M136 460v-348q0 -35 7 -48t29 -13q8 0 20 2q4 1 6 -2.5t3 -15.5l1 -7q2 -12 0 -16t-9 -6q-19 -6 -41 -6q-47 0 -66 28q-15 23 -15 104v351q0 163 -4 268q0 9 28 9h8q29 0 29 -9q4 -77 4 -291zM79 -270l-5 5q-7 7 -1 13q49 51 49 87q0 18 -17 38t-17 36q0 17 12 27.5
t29 10.5q22 0 35.5 -15.5t13.5 -38.5q0 -99 -85 -167q-6 -4 -14 4z" />
    <glyph glyph-name="Lcaron" unicode="&#x13d;" horiz-adv-x="495" 
d="M151 711v-654h297q9 0 9 -26v-4q0 -27 -9 -27h-338q-28 0 -28 11v700q0 9 29 9h8q32 0 32 -9zM242 523l-5 5q-7 7 -1 13q49 51 49 87q0 18 -17 38t-17 36q0 17 12 27.5t29 10.5q22 0 35.5 -15.5t13.5 -38.5q0 -99 -85 -167q-6 -4 -14 4z" />
    <glyph glyph-name="lcaron" unicode="&#x13e;" horiz-adv-x="282" 
d="M136 460v-348q0 -35 7 -48t29 -13q8 0 20 2q4 1 6 -2.5t3 -15.5l1 -7q2 -12 0 -16t-9 -6q-19 -6 -41 -6q-47 0 -66 28q-15 23 -15 104v351q0 163 -4 268q0 9 28 9h8q29 0 29 -9q4 -77 4 -291zM193 513l-5 5q-7 7 -1 13q49 51 49 87q0 18 -17 38t-17 36q0 17 12 27.5
t29 10.5q22 0 35.5 -15.5t13.5 -38.5q0 -99 -85 -167q-6 -4 -14 4z" />
    <glyph glyph-name="Ldot" unicode="&#x13f;" horiz-adv-x="495" 
d="M151 711v-654h297q9 0 9 -26v-4q0 -27 -9 -27h-338q-28 0 -28 11v700q0 9 29 9h8q32 0 32 -9zM271 383q0 20 13.5 33.5t32.5 13.5t33 -14t14 -33t-13.5 -32.5t-33.5 -13.5q-19 0 -32.5 13.5t-13.5 32.5z" />
    <glyph glyph-name="ldot" unicode="&#x140;" horiz-adv-x="293" 
d="M136 460v-348q0 -35 7 -48t29 -13q8 0 20 2q4 1 6 -2.5t3 -15.5l1 -7q2 -12 0 -16t-9 -6q-19 -6 -41 -6q-47 0 -66 28q-15 23 -15 104v351q0 163 -4 268q0 9 28 9h8q29 0 29 -9q4 -77 4 -291zM202 356q0 20 13.5 33.5t32.5 13.5q20 0 33.5 -13.5t13.5 -33.5
q0 -19 -13.5 -32.5t-33.5 -13.5t-33 13t-13 33z" />
    <glyph glyph-name="Lslash" unicode="&#x141;" horiz-adv-x="495" 
d="M448 0h-338q-28 0 -28 11v269l-59 -46q-5 -4 -8.5 -1t-3.5 15v10q0 18 8 25l63 49v379q0 9 29 9h8q32 0 32 -9v-326l122 95q4 2 6.5 2.5t4 -4t1.5 -13.5v-8q0 -19 -8 -26l-126 -98v-276h297q9 0 9 -26v-4q0 -27 -9 -27z" />
    <glyph glyph-name="lslash" unicode="&#x142;" horiz-adv-x="245" 
d="M136 460v-36l73 57q4 2 6.5 2.5t4 -4t1.5 -13.5v-7q0 -19 -8 -26l-77 -60v-261q0 -35 7 -48t29 -13q8 0 20 2q4 1 6 -2.5t3 -15.5l1 -7q2 -12 0 -16t-9 -6q-19 -6 -41 -6q-47 0 -66 28q-15 23 -15 104v191l-53 -41q-5 -4 -8.5 -1t-3.5 15v9q0 18 8 25l57 44v109
q0 163 -4 268q0 9 28 9h8q29 0 29 -9q4 -77 4 -291z" />
    <glyph glyph-name="Nacute" unicode="&#x143;" horiz-adv-x="677" 
d="M516 10l-374 615v-616q0 -9 -28 -9h-7q-27 0 -27 9v702q0 9 29 9h7q39 0 45 -10l374 -615v616q0 9 27 9h7q28 0 28 -9v-702q0 -9 -29 -9h-7q-39 0 -45 10zM397 913h15q22 0 23 -5q0 -2 -2 -5l-88 -119q-5 -6 -27 -6h-4q-21 1 -20 7l67 118q6 10 36 10z" />
    <glyph glyph-name="nacute" unicode="&#x144;" horiz-adv-x="581" 
d="M138 519l3 -64q60 83 176 83q93 0 143 -52q49 -50 49 -168v-307q0 -11 -28 -11h-8q-29 0 -29 11v262q0 70 -6 105t-26 58q-32 38 -111 38q-78 0 -124 -49q-25 -28 -30 -72q-3 -29 -3 -145v-197q0 -11 -28 -11h-8q-29 0 -29 11v376q0 87 -2 132q0 9 27 9h7q27 0 27 -9z
M353 721h15q22 0 23 -5q0 -2 -2 -5l-88 -119q-5 -6 -27 -6h-4q-21 1 -20 7l67 118q6 10 36 10z" />
    <glyph glyph-name="Ncommaaccent" unicode="&#x145;" horiz-adv-x="677" 
d="M516 10l-374 615v-616q0 -9 -28 -9h-7q-27 0 -27 9v702q0 9 29 9h7q39 0 45 -10l374 -615v616q0 9 27 9h7q28 0 28 -9v-702q0 -9 -29 -9h-7q-39 0 -45 10zM293 -270l-5 5q-7 7 -1 13q49 51 49 87q0 18 -17 38t-17 36q0 17 12 27.5t29 10.5q22 0 35.5 -15.5t13.5 -38.5
q0 -99 -85 -167q-6 -4 -14 4z" />
    <glyph glyph-name="ncommaaccent" unicode="&#x146;" horiz-adv-x="581" 
d="M138 519l3 -64q60 83 176 83q93 0 143 -52q49 -50 49 -168v-307q0 -11 -28 -11h-8q-29 0 -29 11v262q0 70 -6 105t-26 58q-32 38 -111 38q-78 0 -124 -49q-25 -28 -30 -72q-3 -29 -3 -145v-197q0 -11 -28 -11h-8q-29 0 -29 11v376q0 87 -2 132q0 9 27 9h7q27 0 27 -9z
M246 -270l-5 5q-7 7 -1 13q49 51 49 87q0 18 -17 38t-17 36q0 17 12 27.5t29 10.5q22 0 35.5 -15.5t13.5 -38.5q0 -99 -85 -167q-6 -4 -14 4z" />
    <glyph glyph-name="Ncaron" unicode="&#x147;" horiz-adv-x="677" 
d="M516 10l-374 615v-616q0 -9 -28 -9h-7q-27 0 -27 9v702q0 9 29 9h7q39 0 45 -10l374 -615v616q0 9 27 9h7q28 0 28 -9v-702q0 -9 -29 -9h-7q-39 0 -45 10zM299 798l-94 100q-5 6 4 16l5 6q10 11 16 6l116 -97l116 97q6 5 16 -6l5 -6q9 -10 4 -16l-94 -100
q-10 -10 -34 -10h-26q-24 0 -34 10z" />
    <glyph glyph-name="ncaron" unicode="&#x148;" horiz-adv-x="581" 
d="M138 519l3 -64q60 83 176 83q93 0 143 -52q49 -50 49 -168v-307q0 -11 -28 -11h-8q-29 0 -29 11v262q0 70 -6 105t-26 58q-32 38 -111 38q-78 0 -124 -49q-25 -28 -30 -72q-3 -29 -3 -145v-197q0 -11 -28 -11h-8q-29 0 -29 11v376q0 87 -2 132q0 9 27 9h7q27 0 27 -9z
M327 583h-26q-24 0 -34 10l-94 100q-5 5 4 16l5 6q10 11 16 6l116 -97l116 97q6 5 16 -6l5 -6q9 -11 4 -16l-94 -100q-10 -10 -34 -10z" />
    <glyph glyph-name="napostrophe" unicode="&#x149;" horiz-adv-x="640" 
d="M197 519l3 -64q60 83 176 83q93 0 143 -52q49 -50 49 -168v-307q0 -11 -28 -11h-8q-29 0 -29 11v262q0 70 -6 105t-26 58q-32 38 -111 38q-78 0 -124 -49q-25 -28 -30 -72q-3 -29 -3 -145v-197q0 -11 -28 -11h-8q-29 0 -29 11v376q0 87 -2 132q0 9 27 9h7q27 0 27 -9z
M0 454l-4 5q-8 10 -2 16q63 63 63 112q0 23 -23 49t-23 46q0 21 15 34.5t37 13.5q28 0 45 -20t17 -49q0 -58 -29.5 -115.5t-78.5 -96.5q-7 -6 -17 5z" />
    <glyph glyph-name="Eng" unicode="&#x14a;" horiz-adv-x="677" 
d="M412 -140q59 0 87.5 32.5t33.5 108.5l-391 624v-616q0 -9 -28 -9h-7q-27 0 -27 9v702q0 9 29 9h7q39 0 45 -10l374 -595v596q0 9 27 9h7q28 0 28 -9v-670q0 -125 -44.5 -180.5t-134.5 -55.5q-38 0 -65 11q-6 3 -3 24l1 6q2 15 4 18.5t7 2.5q24 -7 50 -7z" />
    <glyph glyph-name="eng" unicode="&#x14b;" horiz-adv-x="581" 
d="M444 39v234q0 70 -6 105t-26 58q-32 38 -111 38q-78 0 -124 -49q-25 -28 -30 -72q-3 -29 -3 -145v-197q0 -11 -28 -11h-8q-29 0 -29 11v376q0 87 -2 132q0 9 27 9h7q27 0 27 -9l3 -64q60 83 176 83q93 0 143 -52q49 -50 49 -168v-277q0 -125 -44.5 -180.5t-134.5 -55.5
q-38 0 -65 11q-6 3 -3 24l1 6q2 14 4.5 18t6.5 3q24 -7 50 -7q66 0 93 41t27 138z" />
    <glyph glyph-name="Omacron" unicode="&#x14c;" horiz-adv-x="693" 
d="M353 671q-109 0 -171.5 -83.5t-62.5 -233.5q0 -146 58 -225.5t163 -79.5q108 0 171 84t63 234q0 146 -58 225t-163 79zM356 730q132 0 211 -92.5t79 -266.5q0 -175 -83.5 -278t-225.5 -103q-132 0 -211 93t-79 267q0 175 83.5 277.5t225.5 102.5zM215 874h262q8 0 8 -23
v-3q0 -25 -8 -25h-262q-8 0 -8 25v3q0 23 8 23z" />
    <glyph glyph-name="omacron" unicode="&#x14d;" horiz-adv-x="566" 
d="M117 259q0 -41 7.5 -76t25 -66.5t50 -49.5t76.5 -18q75 0 124 54t49 166q0 41 -8 76t-25 66.5t-49.5 49.5t-77.5 18q-75 0 -123.5 -54.5t-48.5 -165.5zM273 -10q-92 0 -147 49q-79 71 -79 213q0 139 66 212.5t180 73.5q92 0 147 -49q79 -71 79 -213q0 -139 -66 -212.5
t-180 -73.5zM156 684h262q8 0 8 -23v-3q0 -25 -8 -25h-262q-8 0 -8 25v3q0 23 8 23z" />
    <glyph glyph-name="Obreve" unicode="&#x14e;" horiz-adv-x="693" 
d="M353 671q-109 0 -171.5 -83.5t-62.5 -233.5q0 -146 58 -225.5t163 -79.5q108 0 171 84t63 234q0 146 -58 225t-163 79zM356 730q132 0 211 -92.5t79 -266.5q0 -175 -83.5 -278t-225.5 -103q-132 0 -211 93t-79 267q0 175 83.5 277.5t225.5 102.5zM346 795q-59 0 -97.5 30
t-38.5 81q0 6 19 6h12q13 0 15.5 -1.5t3.5 -8.5q8 -66 86 -66t86 66q1 7 3.5 8.5t15.5 1.5h12q19 0 19 -6q0 -51 -38.5 -81t-97.5 -30z" />
    <glyph glyph-name="obreve" unicode="&#x14f;" horiz-adv-x="566" 
d="M117 259q0 -41 7.5 -76t25 -66.5t50 -49.5t76.5 -18q75 0 124 54t49 166q0 41 -8 76t-25 66.5t-49.5 49.5t-77.5 18q-75 0 -123.5 -54.5t-48.5 -165.5zM273 -10q-92 0 -147 49q-79 71 -79 213q0 139 66 212.5t180 73.5q92 0 147 -49q79 -71 79 -213q0 -139 -66 -212.5
t-180 -73.5zM287 595q-59 0 -97.5 30t-38.5 81q0 6 19 6h12q13 0 15.5 -1.5t3.5 -8.5q8 -66 86 -66t86 66q1 7 3.5 8.5t15.5 1.5h12q19 0 19 -6q0 -51 -38.5 -81t-97.5 -30z" />
    <glyph glyph-name="Ohungarumlaut" unicode="&#x150;" horiz-adv-x="693" 
d="M353 671q-109 0 -171.5 -83.5t-62.5 -233.5q0 -146 58 -225.5t163 -79.5q108 0 171 84t63 234q0 146 -58 225t-163 79zM356 730q132 0 211 -92.5t79 -266.5q0 -175 -83.5 -278t-225.5 -103q-132 0 -211 93t-79 267q0 175 83.5 277.5t225.5 102.5zM318 913h15q22 0 23 -5
q0 -2 -2 -5l-88 -119q-5 -6 -27 -6h-4q-21 1 -20 7l67 118q6 10 36 10zM475 913h15q22 0 23 -5q0 -2 -2 -5l-88 -119q-5 -6 -27 -6h-4q-21 1 -20 7l67 118q6 10 36 10z" />
    <glyph glyph-name="ohungarumlaut" unicode="&#x151;" horiz-adv-x="566" 
d="M117 259q0 -41 7.5 -76t25 -66.5t50 -49.5t76.5 -18q75 0 124 54t49 166q0 41 -8 76t-25 66.5t-49.5 49.5t-77.5 18q-75 0 -123.5 -54.5t-48.5 -165.5zM273 -10q-92 0 -147 49q-79 71 -79 213q0 139 66 212.5t180 73.5q92 0 147 -49q79 -71 79 -213q0 -139 -66 -212.5
t-180 -73.5zM247 721h15q22 0 23 -5q0 -2 -2 -5l-88 -119q-5 -6 -27 -6h-4q-21 1 -20 7l67 118q6 10 36 10zM404 721h15q22 0 23 -5q0 -2 -2 -5l-88 -119q-5 -6 -27 -6h-4q-21 1 -20 7l67 118q6 10 36 10z" />
    <glyph glyph-name="OE" unicode="&#x152;" horiz-adv-x="939" 
d="M877 0h-390q-82 -10 -138 -10q-141 0 -221.5 89t-80.5 266q0 184 84.5 284.5t234.5 100.5q48 0 118 -10h389q9 0 9 -26v-4q0 -27 -9 -27h-317v-270h269q9 0 9 -26v-4q0 -27 -9 -27h-269v-279h321q9 0 9 -26v-4q0 -27 -9 -27zM353 46q53 0 134 9v606q-72 12 -122 12
q-118 0 -182 -83t-64 -238q0 -151 60 -228.5t174 -77.5z" />
    <glyph glyph-name="oe" unicode="&#x153;" horiz-adv-x="909" 
d="M657 538q58 0 103 -28.5t70 -79.5q34 -69 34 -162q0 -16 -3 -20.5t-11 -4.5h-349q4 -106 51 -151q42 -41 116 -41q76 0 137 30q7 4 11.5 1t10.5 -17l4 -10q8 -21 -1 -26q-75 -39 -170 -39q-72 0 -124.5 31.5t-72.5 82.5q-61 -114 -199 -114q-89 0 -141 49q-76 71 -76 214
q0 138 63.5 211.5t172.5 73.5q89 0 141 -49q28 -28 45 -62q58 111 188 111zM116 260q0 -41 7 -76t23 -67t47 -50t74 -18q72 0 118.5 54t46.5 166q0 41 -7 76t-23.5 66.5t-48 49.5t-74.5 18q-71 0 -117 -54t-46 -165zM502 295h295q-2 76 -38 129t-104 53q-67 0 -107 -47.5
t-46 -134.5z" />
    <glyph glyph-name="Racute" unicode="&#x154;" horiz-adv-x="554" 
d="M255 305h-104v-296q0 -9 -32 -9h-8q-29 0 -29 9v711h152q159 0 224 -64q50 -48 50 -136q0 -92 -56 -148q-39 -39 -103 -56q49 -106 85.5 -172.5t83.5 -130.5q9 -13 -27 -13h-10q-31 0 -40 11q-79 100 -158 295q-9 -1 -28 -1zM151 665v-306h96q99 0 147 46q41 41 41 111
q0 66 -33 101q-45 48 -164 48h-87zM339 913h15q22 0 23 -5q0 -2 -2 -5l-88 -119q-5 -6 -27 -6h-4q-21 1 -20 7l67 118q6 10 36 10z" />
    <glyph glyph-name="racute" unicode="&#x155;" horiz-adv-x="347" 
d="M139 521l3 -116q21 61 61.5 95t86.5 34q20 0 30 -3q7 -1 7 -21v-8q0 -31 -10 -31q-75 0 -123 -60q-42 -54 -47 -135q-3 -43 -3 -155v-112q0 -9 -30 -9h-6q-29 0 -29 9v348q0 54 -2 164q0 7 28 7h5q29 0 29 -7zM266 721h15q22 0 23 -5q0 -2 -2 -5l-88 -119q-5 -6 -27 -6
h-4q-21 1 -20 7l67 118q6 10 36 10z" />
    <glyph glyph-name="Rcommaaccent" unicode="&#x156;" horiz-adv-x="554" 
d="M255 305h-104v-296q0 -9 -32 -9h-8q-29 0 -29 9v711h152q159 0 224 -64q50 -48 50 -136q0 -92 -56 -148q-39 -39 -103 -56q49 -106 85.5 -172.5t83.5 -130.5q9 -13 -27 -13h-10q-31 0 -40 11q-79 100 -158 295q-9 -1 -28 -1zM151 665v-306h96q99 0 147 46q41 41 41 111
q0 66 -33 101q-45 48 -164 48h-87zM248 -270l-5 5q-7 7 -1 13q49 51 49 87q0 18 -17 38t-17 36q0 17 12 27.5t29 10.5q22 0 35.5 -15.5t13.5 -38.5q0 -99 -85 -167q-6 -4 -14 4z" />
    <glyph glyph-name="rcommaaccent" unicode="&#x157;" horiz-adv-x="347" 
d="M139 521l3 -116q21 61 61.5 95t86.5 34q20 0 30 -3q7 -1 7 -21v-8q0 -31 -10 -31q-75 0 -123 -60q-42 -54 -47 -135q-3 -43 -3 -155v-112q0 -9 -30 -9h-6q-29 0 -29 9v348q0 54 -2 164q0 7 28 7h5q29 0 29 -7zM61 -270l-5 5q-7 7 -1 13q49 51 49 87q0 18 -17 38t-17 36
q0 17 12 27.5t29 10.5q22 0 35.5 -15.5t13.5 -38.5q0 -99 -85 -167q-6 -4 -14 4z" />
    <glyph glyph-name="Rcaron" unicode="&#x158;" horiz-adv-x="554" 
d="M255 305h-104v-296q0 -9 -32 -9h-8q-29 0 -29 9v711h152q159 0 224 -64q50 -48 50 -136q0 -92 -56 -148q-39 -39 -103 -56q49 -106 85.5 -172.5t83.5 -130.5q9 -13 -27 -13h-10q-31 0 -40 11q-79 100 -158 295q-9 -1 -28 -1zM151 665v-306h96q99 0 147 46q41 41 41 111
q0 66 -33 101q-45 48 -164 48h-87zM254 798l-94 100q-5 6 4 16l5 6q10 11 16 6l116 -97l116 97q6 5 16 -6l5 -6q9 -10 4 -16l-94 -100q-10 -10 -34 -10h-26q-24 0 -34 10z" />
    <glyph glyph-name="rcaron" unicode="&#x159;" horiz-adv-x="347" 
d="M139 521l3 -116q21 61 61.5 95t86.5 34q20 0 30 -3q7 -1 7 -21v-8q0 -31 -10 -31q-75 0 -123 -60q-42 -54 -47 -135q-3 -43 -3 -155v-112q0 -9 -30 -9h-6q-29 0 -29 9v348q0 54 -2 164q0 7 28 7h5q29 0 29 -7zM219 583h-26q-24 0 -34 10l-94 100q-5 5 4 16l5 6
q10 11 16 6l116 -97l116 97q6 5 16 -6l5 -6q9 -11 4 -16l-94 -100q-10 -10 -34 -10z" />
    <glyph glyph-name="Sacute" unicode="&#x15a;" horiz-adv-x="513" 
d="M49 47q-9 6 4 29l3 5q13 21 21 16q78 -50 160 -50q74 0 120 38t46 98q0 28 -11.5 51t-34.5 41.5t-46 32t-56 30.5q-11 5 -16 8q-38 20 -62.5 35.5t-51.5 40t-40.5 56.5t-13.5 71q0 80 60 130.5t144 50.5q93 0 166 -49q9 -5 -3 -26l-3 -5q-12 -21 -21 -16q-71 39 -135 39
q-61 0 -100.5 -32.5t-39.5 -88.5q0 -28 10.5 -50t34.5 -41.5t43.5 -31t55.5 -30.5q32 -16 46 -24t41.5 -25t41 -31t30 -34.5t23 -45t6.5 -53.5q0 -87 -63 -141.5t-165 -54.5q-57 0 -109 16t-85 41zM313 913h15q22 0 23 -5q0 -2 -2 -5l-88 -119q-5 -6 -27 -6h-4q-21 1 -20 7
l67 118q6 10 36 10z" />
    <glyph glyph-name="sacute" unicode="&#x15b;" horiz-adv-x="449" 
d="M382 460l-4 -6q-13 -19 -23 -12q-60 40 -128 40q-51 0 -80.5 -22.5t-29.5 -63.5q0 -19 7 -33.5t14.5 -23t27.5 -17t31 -11.5t40 -11q42 -11 67 -20.5t50.5 -26t37 -42t11.5 -61.5q0 -76 -51.5 -118t-137.5 -42q-93 0 -164 47q-8 5 3 25l3 6q12 24 23 17q66 -41 133 -41
q131 0 131 98q0 43 -30 62.5t-102 37.5q-83 20 -117 50q-41 36 -41 96q0 71 48.5 110.5t127.5 39.5q91 0 158 -52q8 -7 -5 -26zM282 721h15q22 0 23 -5q0 -2 -2 -5l-88 -119q-5 -6 -27 -6h-4q-21 1 -20 7l67 118q6 10 36 10z" />
    <glyph glyph-name="Scircumflex" unicode="&#x15c;" horiz-adv-x="513" 
d="M49 47q-9 6 4 29l3 5q13 21 21 16q78 -50 160 -50q74 0 120 38t46 98q0 28 -11.5 51t-34.5 41.5t-46 32t-56 30.5q-11 5 -16 8q-38 20 -62.5 35.5t-51.5 40t-40.5 56.5t-13.5 71q0 80 60 130.5t144 50.5q93 0 166 -49q9 -5 -3 -26l-3 -5q-12 -21 -21 -16q-71 39 -135 39
q-61 0 -100.5 -32.5t-39.5 -88.5q0 -28 10.5 -50t34.5 -41.5t43.5 -31t55.5 -30.5q32 -16 46 -24t41.5 -25t41 -31t30 -34.5t23 -45t6.5 -53.5q0 -87 -63 -141.5t-165 -54.5q-57 0 -109 16t-85 41zM263 921h26q24 0 34 -10l94 -100q5 -5 -4 -16l-5 -6q-10 -11 -16 -6
l-116 97l-116 -97q-6 -5 -16 6l-5 6q-9 11 -4 16l94 100q10 10 34 10z" />
    <glyph glyph-name="scircumflex" unicode="&#x15d;" horiz-adv-x="449" 
d="M382 460l-4 -6q-13 -19 -23 -12q-60 40 -128 40q-51 0 -80.5 -22.5t-29.5 -63.5q0 -19 7 -33.5t14.5 -23t27.5 -17t31 -11.5t40 -11q42 -11 67 -20.5t50.5 -26t37 -42t11.5 -61.5q0 -76 -51.5 -118t-137.5 -42q-93 0 -164 47q-8 5 3 25l3 6q12 24 23 17q66 -41 133 -41
q131 0 131 98q0 43 -30 62.5t-102 37.5q-83 20 -117 50q-41 36 -41 96q0 71 48.5 110.5t127.5 39.5q91 0 158 -52q8 -7 -5 -26zM214 729h26q24 0 34 -10l94 -100q5 -5 -4 -16l-5 -6q-10 -11 -16 -6l-116 97l-116 -97q-6 -5 -16 6l-5 6q-9 11 -4 16l94 100q10 10 34 10z" />
    <glyph glyph-name="Scedilla" unicode="&#x15e;" horiz-adv-x="513" 
d="M206 -109l12 100q-105 6 -169 56q-9 6 4 29l3 5q13 21 21 16q78 -50 160 -50q74 0 120 38t46 98q0 28 -11.5 51t-34.5 41.5t-46 32t-56 30.5q-11 5 -16 8q-38 20 -62.5 35.5t-51.5 40t-40.5 56.5t-13.5 71q0 80 60 130.5t144 50.5q93 0 166 -49q9 -5 -3 -26l-3 -5
q-12 -21 -21 -16q-71 39 -135 39q-61 0 -100.5 -32.5t-39.5 -88.5q0 -28 10.5 -50t34.5 -41.5t43.5 -31t55.5 -30.5q32 -16 46 -24t41.5 -25t41 -31t30 -34.5t23 -45t6.5 -53.5q0 -82 -56.5 -135t-148.5 -60l-7 -58q18 2 27 2q40 0 65 -21.5t25 -56.5q0 -38 -28 -64t-82 -26
q-46 0 -72 12q-5 2 -2 18l1 5q2 10 4 12.5t6 1.5q32 -7 55 -7q62 0 62 44q0 43 -61 43q-30 0 -53 -5z" />
    <glyph glyph-name="scedilla" unicode="&#x15f;" horiz-adv-x="449" 
d="M179 -109l12 100q-81 6 -141 46q-8 5 3 25l3 6q12 24 23 17q66 -41 133 -41q131 0 131 98q0 43 -30 62.5t-102 37.5q-83 20 -117 50q-41 36 -41 96q0 71 48.5 110.5t127.5 39.5q91 0 158 -52q8 -7 -5 -26l-4 -6q-13 -19 -23 -12q-60 40 -128 40q-51 0 -80.5 -22.5
t-29.5 -63.5q0 -19 7 -33.5t14.5 -23t27.5 -17t31 -11.5t40 -11q42 -11 67 -20.5t50.5 -26t37 -42t11.5 -61.5q0 -70 -44.5 -111.5t-119.5 -47.5l-7 -58q18 2 27 2q40 0 65 -21.5t25 -56.5q0 -38 -28 -64t-82 -26q-46 0 -72 12q-5 2 -2 18l1 5q2 10 4 12.5t6 1.5
q32 -7 55 -7q62 0 62 44q0 43 -61 43q-30 0 -53 -5z" />
    <glyph glyph-name="Scaron" unicode="&#x160;" horiz-adv-x="513" 
d="M49 47q-9 6 4 29l3 5q13 21 21 16q78 -50 160 -50q74 0 120 38t46 98q0 28 -11.5 51t-34.5 41.5t-46 32t-56 30.5q-11 5 -16 8q-38 20 -62.5 35.5t-51.5 40t-40.5 56.5t-13.5 71q0 80 60 130.5t144 50.5q93 0 166 -49q9 -5 -3 -26l-3 -5q-12 -21 -21 -16q-71 39 -135 39
q-61 0 -100.5 -32.5t-39.5 -88.5q0 -28 10.5 -50t34.5 -41.5t43.5 -31t55.5 -30.5q32 -16 46 -24t41.5 -25t41 -31t30 -34.5t23 -45t6.5 -53.5q0 -87 -63 -141.5t-165 -54.5q-57 0 -109 16t-85 41zM229 785l-94 100q-5 6 4 16l5 6q10 11 16 6l116 -97l116 97q6 5 16 -6l5 -6
q9 -10 4 -16l-94 -100q-10 -10 -34 -10h-26q-24 0 -34 10z" />
    <glyph glyph-name="scaron" unicode="&#x161;" horiz-adv-x="449" 
d="M382 460l-4 -6q-13 -19 -23 -12q-60 40 -128 40q-51 0 -80.5 -22.5t-29.5 -63.5q0 -19 7 -33.5t14.5 -23t27.5 -17t31 -11.5t40 -11q42 -11 67 -20.5t50.5 -26t37 -42t11.5 -61.5q0 -76 -51.5 -118t-137.5 -42q-93 0 -164 47q-8 5 3 25l3 6q12 24 23 17q66 -41 133 -41
q131 0 131 98q0 43 -30 62.5t-102 37.5q-83 20 -117 50q-41 36 -41 96q0 71 48.5 110.5t127.5 39.5q91 0 158 -52q8 -7 -5 -26zM244 583h-26q-24 0 -34 10l-94 100q-5 5 4 16l5 6q10 11 16 6l116 -97l116 97q6 5 16 -6l5 -6q9 -11 4 -16l-94 -100q-10 -10 -34 -10z" />
    <glyph glyph-name="Tcommaaccent" unicode="&#x162;" horiz-adv-x="516" 
d="M227 663h-202q-9 0 -9 27v4q0 26 9 26h466q9 0 9 -27v-4q0 -26 -9 -26h-195v-654q0 -9 -32 -9h-8q-29 0 -29 9v654zM208 -270l-5 5q-7 7 -1 13q49 51 49 87q0 18 -17 38t-17 36q0 17 12 27.5t29 10.5q22 0 35.5 -15.5t13.5 -38.5q0 -99 -85 -167q-6 -4 -14 4z" />
    <glyph glyph-name="tcommaaccent" unicode="&#x163;" horiz-adv-x="365" 
d="M309 478h-141v-321q0 -73 18 -91q20 -20 61 -20q43 0 76 12q6 2 8 -0.5t6 -17.5l2 -7q6 -21 -2 -24q-47 -19 -105 -19q-60 0 -94 31q-35 34 -35 129v328h-70q-6 0 -6 23v3q0 24 7 24h69v149q0 2 0.5 3t3.5 2t8.5 1h16.5h7q29 0 29 -6v-149h141q7 0 7 -24v-3q0 -23 -7 -23
zM174 -270l-5 5q-7 7 -1 13q49 51 49 87q0 18 -17 38t-17 36q0 17 12 27.5t29 10.5q22 0 35.5 -15.5t13.5 -38.5q0 -99 -85 -167q-6 -4 -14 4z" />
    <glyph glyph-name="Tcaron" unicode="&#x164;" horiz-adv-x="516" 
d="M227 663h-202q-9 0 -9 27v4q0 26 9 26h466q9 0 9 -27v-4q0 -26 -9 -26h-195v-654q0 -9 -32 -9h-8q-29 0 -29 9v654zM211 798l-94 100q-5 6 4 16l5 6q10 11 16 6l116 -97l116 97q6 5 16 -6l5 -6q9 -10 4 -16l-94 -100q-10 -10 -34 -10h-26q-24 0 -34 10z" />
    <glyph glyph-name="tcaron" unicode="&#x165;" horiz-adv-x="365" 
d="M309 478h-141v-321q0 -73 18 -91q20 -20 61 -20q43 0 76 12q6 2 8 -0.5t6 -17.5l2 -7q6 -21 -2 -24q-47 -19 -105 -19q-60 0 -94 31q-35 34 -35 129v328h-70q-6 0 -6 23v3q0 24 7 24h69v149q0 2 0.5 3t3.5 2t8.5 1h16.5h7q29 0 29 -6v-149h141q7 0 7 -24v-3q0 -23 -7 -23
zM233 597l-5 5q-7 7 -1 13q49 51 49 87q0 18 -17 38t-17 36q0 17 12 27.5t29 10.5q22 0 35.5 -15.5t13.5 -38.5q0 -99 -85 -167q-6 -4 -14 4z" />
    <glyph glyph-name="Tbar" unicode="&#x166;" horiz-adv-x="516" 
d="M105 390h122v273h-202q-9 0 -9 27v4q0 26 9 26h466q9 0 9 -27v-4q0 -26 -9 -26h-195v-273h115q8 0 8 -23v-3q0 -25 -8 -25h-115v-330q0 -9 -32 -9h-8q-29 0 -29 9v330h-122q-8 0 -8 25v3q0 23 8 23z" />
    <glyph glyph-name="tbar" unicode="&#x167;" horiz-adv-x="365" 
d="M38 302h65v176h-70q-6 0 -6 23v3q0 24 7 24h69v149q0 2 0.5 3t3.5 2t8.5 1h16.5h7q29 0 29 -6v-149h141q7 0 7 -24v-3q0 -23 -7 -23h-141v-176h127q8 0 8 -23v-1q0 -25 -8 -25h-127v-96q0 -73 18 -91q20 -20 61 -20q43 0 76 12q6 2 8 -0.5t6 -17.5l2 -7q6 -21 -2 -24
q-47 -19 -105 -19q-60 0 -94 31q-35 34 -35 129v103h-65q-8 0 -8 25v1q0 23 8 23z" />
    <glyph glyph-name="Utilde" unicode="&#x168;" horiz-adv-x="670" 
d="M595 711v-444q0 -146 -69 -212q-68 -65 -190 -65q-125 0 -192 64q-69 66 -69 212v445q0 9 29 9h8q32 0 32 -9v-436q0 -124 52 -178q48 -49 140 -49q91 0 139 49q52 54 52 178v436q0 9 29 9h7q32 0 32 -9zM485 857q-14 -18 -39 -31t-49 -13q-29 0 -68 19t-60 19
q-27 0 -58 -30q-6 -5 -16 8l-8 10q-7 10 -2 16q14 18 39 31t49 13q29 0 68 -19t60 -19q27 0 58 30q6 5 16 -8l8 -10q7 -10 2 -16z" />
    <glyph glyph-name="utilde" unicode="&#x169;" horiz-adv-x="578" 
d="M442 10l-5 69q-52 -89 -171 -89q-102 0 -148 51q-47 48 -47 169v308q0 10 28 10h8q29 0 29 -10v-264q0 -72 5 -106t23 -56q34 -40 111 -40q72 0 114 42q22 22 32.5 60.5t10.5 114.5v249q0 10 28 10h8q29 0 29 -10v-347q0 -104 3 -159q1 -8 -3.5 -10t-20.5 -2h-8
q-17 0 -21 1.5t-5 8.5zM439 665q-14 -18 -39 -31t-49 -13q-29 0 -68 19t-60 19q-27 0 -58 -30q-6 -5 -16 8l-8 10q-7 10 -2 16q14 18 39 31t49 13q29 0 68 -19t60 -19q27 0 58 30q6 5 16 -8l8 -10q7 -10 2 -16z" />
    <glyph glyph-name="Umacron" unicode="&#x16a;" horiz-adv-x="670" 
d="M595 711v-444q0 -146 -69 -212q-68 -65 -190 -65q-125 0 -192 64q-69 66 -69 212v445q0 9 29 9h8q32 0 32 -9v-436q0 -124 52 -178q48 -49 140 -49q91 0 139 49q52 54 52 178v436q0 9 29 9h7q32 0 32 -9zM204 874h262q8 0 8 -23v-3q0 -25 -8 -25h-262q-8 0 -8 25v3
q0 23 8 23z" />
    <glyph glyph-name="umacron" unicode="&#x16b;" horiz-adv-x="578" 
d="M442 10l-5 69q-52 -89 -171 -89q-102 0 -148 51q-47 48 -47 169v308q0 10 28 10h8q29 0 29 -10v-264q0 -72 5 -106t23 -56q34 -40 111 -40q72 0 114 42q22 22 32.5 60.5t10.5 114.5v249q0 10 28 10h8q29 0 29 -10v-347q0 -104 3 -159q1 -8 -3.5 -10t-20.5 -2h-8
q-17 0 -21 1.5t-5 8.5zM158 684h262q8 0 8 -23v-3q0 -25 -8 -25h-262q-8 0 -8 25v3q0 23 8 23z" />
    <glyph glyph-name="Ubreve" unicode="&#x16c;" horiz-adv-x="670" 
d="M595 711v-444q0 -146 -69 -212q-68 -65 -190 -65q-125 0 -192 64q-69 66 -69 212v445q0 9 29 9h8q32 0 32 -9v-436q0 -124 52 -178q48 -49 140 -49q91 0 139 49q52 54 52 178v436q0 9 29 9h7q32 0 32 -9zM335 795q-59 0 -97.5 30t-38.5 81q0 6 19 6h12q13 0 15.5 -1.5
t3.5 -8.5q8 -66 86 -66t86 66q1 7 3.5 8.5t15.5 1.5h12q19 0 19 -6q0 -51 -38.5 -81t-97.5 -30z" />
    <glyph glyph-name="ubreve" unicode="&#x16d;" horiz-adv-x="578" 
d="M442 10l-5 69q-52 -89 -171 -89q-102 0 -148 51q-47 48 -47 169v308q0 10 28 10h8q29 0 29 -10v-264q0 -72 5 -106t23 -56q34 -40 111 -40q72 0 114 42q22 22 32.5 60.5t10.5 114.5v249q0 10 28 10h8q29 0 29 -10v-347q0 -104 3 -159q1 -8 -3.5 -10t-20.5 -2h-8
q-17 0 -21 1.5t-5 8.5zM289 595q-59 0 -97.5 30t-38.5 81q0 6 19 6h12q13 0 15.5 -1.5t3.5 -8.5q8 -66 86 -66t86 66q1 7 3.5 8.5t15.5 1.5h12q19 0 19 -6q0 -51 -38.5 -81t-97.5 -30z" />
    <glyph glyph-name="Uring" unicode="&#x16e;" horiz-adv-x="670" 
d="M595 711v-444q0 -146 -69 -212q-68 -65 -190 -65q-125 0 -192 64q-69 66 -69 212v445q0 9 29 9h8q32 0 32 -9v-436q0 -124 52 -178q48 -49 140 -49q91 0 139 49q52 54 52 178v436q0 9 29 9h7q32 0 32 -9zM241 868q0 37 28 63.5t66 26.5q39 0 66.5 -26t27.5 -64t-27.5 -64
t-66.5 -26q-38 0 -66 26.5t-28 63.5zM284 868q0 -23 14.5 -37t36.5 -14t35.5 14.5t13.5 36.5t-13.5 36.5t-35.5 14.5t-36.5 -14t-14.5 -37z" />
    <glyph glyph-name="uring" unicode="&#x16f;" horiz-adv-x="578" 
d="M442 10l-5 69q-52 -89 -171 -89q-102 0 -148 51q-47 48 -47 169v308q0 10 28 10h8q29 0 29 -10v-264q0 -72 5 -106t23 -56q34 -40 111 -40q72 0 114 42q22 22 32.5 60.5t10.5 114.5v249q0 10 28 10h8q29 0 29 -10v-347q0 -104 3 -159q1 -8 -3.5 -10t-20.5 -2h-8
q-17 0 -21 1.5t-5 8.5zM195 668q0 37 28 63.5t66 26.5q39 0 66.5 -26t27.5 -64t-27.5 -64t-66.5 -26q-38 0 -66 26.5t-28 63.5zM238 668q0 -23 14.5 -37t36.5 -14t35.5 14.5t13.5 36.5t-13.5 36.5t-35.5 14.5t-36.5 -14t-14.5 -37z" />
    <glyph glyph-name="Uhungarumlaut" unicode="&#x170;" horiz-adv-x="670" 
d="M595 711v-444q0 -146 -69 -212q-68 -65 -190 -65q-125 0 -192 64q-69 66 -69 212v445q0 9 29 9h8q32 0 32 -9v-436q0 -124 52 -178q48 -49 140 -49q91 0 139 49q52 54 52 178v436q0 9 29 9h7q32 0 32 -9zM309 913h15q22 0 23 -5q0 -2 -2 -5l-88 -119q-5 -6 -27 -6h-4
q-21 1 -20 7l67 118q6 10 36 10zM466 913h15q22 0 23 -5q0 -2 -2 -5l-88 -119q-5 -6 -27 -6h-4q-21 1 -20 7l67 118q6 10 36 10z" />
    <glyph glyph-name="uhungarumlaut" unicode="&#x171;" horiz-adv-x="578" 
d="M442 10l-5 69q-52 -89 -171 -89q-102 0 -148 51q-47 48 -47 169v308q0 10 28 10h8q29 0 29 -10v-264q0 -72 5 -106t23 -56q34 -40 111 -40q72 0 114 42q22 22 32.5 60.5t10.5 114.5v249q0 10 28 10h8q29 0 29 -10v-347q0 -104 3 -159q1 -8 -3.5 -10t-20.5 -2h-8
q-17 0 -21 1.5t-5 8.5zM253 721h15q22 0 23 -5q0 -2 -2 -5l-88 -119q-5 -6 -27 -6h-4q-21 1 -20 7l67 118q6 10 36 10zM410 721h15q22 0 23 -5q0 -2 -2 -5l-88 -119q-5 -6 -27 -6h-4q-21 1 -20 7l67 118q6 10 36 10z" />
    <glyph glyph-name="Uogonek" unicode="&#x172;" horiz-adv-x="670" 
d="M476 -213q-35 -16 -73 -16q-42 0 -72 25.5t-30 67.5q0 70 82 130q-16 -4 -47 -4q-125 0 -192 64q-69 66 -69 212v445q0 9 29 9h8q32 0 32 -9v-436q0 -124 52 -178q48 -49 140 -49q91 0 139 49q52 54 52 178v436q0 9 29 9h7q32 0 32 -9v-444q0 -146 -69 -212
q-20 -19 -66 -53t-64 -53q-36 -36 -36 -77q0 -26 15.5 -41.5t42.5 -15.5q15 0 49 9q6 2 10 -14l1 -5q3 -16 -2 -18z" />
    <glyph glyph-name="uogonek" unicode="&#x173;" horiz-adv-x="578" 
d="M324 -133q0 48 32.5 87.5t84.5 59.5l-4 65q-52 -89 -171 -89q-102 0 -148 51q-47 48 -47 169v308q0 10 28 10h8q29 0 29 -10v-264q0 -72 5 -106t23 -56q34 -40 111 -40q72 0 114 42q22 22 32.5 60.5t10.5 114.5v249q0 10 28 10h8q29 0 29 -10v-347q0 -105 3 -159
q0 -10 -9 -12q-61 -15 -89 -61q-21 -33 -21 -67q0 -27 15.5 -42t42.5 -15q15 0 49 9q6 2 10 -14l1 -5q3 -16 -2 -18q-35 -16 -73 -16q-42 0 -71 26t-29 70z" />
    <glyph glyph-name="Wcircumflex" unicode="&#x174;" horiz-adv-x="956" 
d="M928 709l-193 -695q-3 -14 -45 -14h-5q-43 0 -46 14l-158 577l-158 -577q-3 -14 -45 -14h-5q-24 0 -33 2.5t-12 11.5l-198 693q-2 8 3 10.5t26 2.5h11q31 0 34 -11l174 -642l173 643q3 10 29 10h8q26 0 29 -10l175 -644l170 644q2 10 31 10h7q13 0 19.5 -1.5t8 -3.5
t0.5 -6zM469 921h26q24 0 34 -10l94 -100q5 -5 -4 -16l-5 -6q-10 -11 -16 -6l-116 97l-116 -97q-6 -5 -16 6l-5 6q-9 11 -4 16l94 100q10 10 34 10z" />
    <glyph glyph-name="wcircumflex" unicode="&#x175;" horiz-adv-x="788" 
d="M96 516l130 -463l120 464q2 11 37 11h9q36 0 38 -10l132 -465q86 248 127 463q1 6 3 8t7.5 3t19.5 1h5q17 0 22.5 -2t4.5 -7q-63 -279 -146 -498q-5 -12 -13 -16.5t-30 -4.5h-8q-37 0 -42 17l-66 235q-29 101 -58 217q-30 -133 -53 -218l-64 -231q-6 -20 -44 -20h-8
q-36 0 -42 17l-151 498q-2 8 3.5 10.5t25.5 2.5h8q20 0 25.5 -2t7.5 -10zM375 729h26q24 0 34 -10l94 -100q5 -5 -4 -16l-5 -6q-10 -11 -16 -6l-116 97l-116 -97q-6 -5 -16 6l-5 6q-9 11 -4 16l94 100q10 10 34 10z" />
    <glyph glyph-name="Ycircumflex" unicode="&#x176;" horiz-adv-x="523" 
d="M254 0q-29 0 -29 9v269l-211 430q-1 2 -1 4t1.5 3.5t5 2.5t9.5 1.5t14 0.5h8q33 0 38 -11l177 -369l175 371q5 9 34 9h9q11 0 17 -1.5t7.5 -4t-0.5 -6.5l-214 -430v-269q0 -9 -32 -9h-8zM250 921h26q24 0 34 -10l94 -100q5 -5 -4 -16l-5 -6q-10 -11 -16 -6l-116 97
l-116 -97q-6 -5 -16 6l-5 6q-9 11 -4 16l94 100q10 10 34 10z" />
    <glyph glyph-name="ycircumflex" unicode="&#x177;" horiz-adv-x="509" 
d="M104 518l94 -254q32 -84 71 -207q38 117 67 200l92 261q4 10 31 10h5q16 0 23.5 -2t5.5 -8l-192 -539q-45 -118 -87 -163q-54 -60 -145 -60q-45 0 -74 13q-7 3 -1 24l3 9q5 14 7.5 17.5t7.5 2.5q29 -9 53 -9q61 0 100 40t71 133l-206 530q-2 4 0 6.5t9 4t21 1.5h8
q32 0 36 -10zM249 729h26q24 0 34 -10l94 -100q5 -5 -4 -16l-5 -6q-10 -11 -16 -6l-116 97l-116 -97q-6 -5 -16 6l-5 6q-9 11 -4 16l94 100q10 10 34 10z" />
    <glyph glyph-name="Ydieresis" unicode="&#x178;" horiz-adv-x="523" 
d="M254 0q-29 0 -29 9v269l-211 430q-1 2 -1 4t1.5 3.5t5 2.5t9.5 1.5t14 0.5h8q33 0 38 -11l177 -369l175 371q5 9 34 9h9q11 0 17 -1.5t7.5 -4t-0.5 -6.5l-214 -430v-269q0 -9 -32 -9h-8zM113 846q0 20 14 34t33 14q20 0 34 -14t14 -34q0 -19 -14 -33t-34 -14t-33.5 13.5
t-13.5 33.5zM315 846q0 20 14 34t33 14q20 0 34 -14t14 -34q0 -19 -14 -33t-34 -14t-33.5 13.5t-13.5 33.5z" />
    <glyph glyph-name="Zacute" unicode="&#x179;" horiz-adv-x="538" 
d="M474 642l-352 -585h369q9 0 9 -27v-4q0 -26 -9 -26h-426q-14 0 -18 2t-4 8v20q0 23 18 53l351 580h-341q-9 0 -9 27v4q0 26 9 26h399q14 0 18 -2t4 -8v-15q0 -23 -18 -53zM331 913h15q22 0 23 -5q0 -2 -2 -5l-88 -119q-5 -6 -27 -6h-4q-21 1 -20 7l67 118q6 10 36 10z
" />
    <glyph glyph-name="zacute" unicode="&#x17a;" horiz-adv-x="455" 
d="M123 56h284q8 0 8 -27v-3q0 -26 -8 -26h-356q-9 0 -9 22v5q0 19 6 27l272 418h-258q-8 0 -8 26v3q0 27 8 27h330q6 0 7.5 -3.5t1.5 -18.5v-4q0 -20 -7 -31zM274 721h15q22 0 23 -5q0 -2 -2 -5l-88 -119q-5 -6 -27 -6h-4q-21 1 -20 7l67 118q6 10 36 10z" />
    <glyph glyph-name="Zdotaccent" unicode="&#x17b;" horiz-adv-x="538" 
d="M474 642l-352 -585h369q9 0 9 -27v-4q0 -26 -9 -26h-426q-14 0 -18 2t-4 8v20q0 23 18 53l351 580h-341q-9 0 -9 27v4q0 26 9 26h399q14 0 18 -2t4 -8v-15q0 -23 -18 -53zM238 840q0 20 13.5 33.5t32.5 13.5q20 0 33.5 -13.5t13.5 -33.5q0 -19 -13.5 -32.5t-33.5 -13.5
t-33 13t-13 33z" />
    <glyph glyph-name="zdotaccent" unicode="&#x17c;" horiz-adv-x="455" 
d="M123 56h284q8 0 8 -27v-3q0 -26 -8 -26h-356q-9 0 -9 22v5q0 19 6 27l272 418h-258q-8 0 -8 26v3q0 27 8 27h330q6 0 7.5 -3.5t1.5 -18.5v-4q0 -20 -7 -31zM187 680q0 20 13.5 33.5t32.5 13.5t33 -13.5t14 -33.5q0 -19 -13.5 -32.5t-33.5 -13.5q-19 0 -32.5 13t-13.5 33z
" />
    <glyph glyph-name="Zcaron" unicode="&#x17d;" horiz-adv-x="538" 
d="M474 642l-352 -585h369q9 0 9 -27v-4q0 -26 -9 -26h-426q-14 0 -18 2t-4 8v20q0 23 18 53l351 580h-341q-9 0 -9 27v4q0 26 9 26h399q14 0 18 -2t4 -8v-15q0 -23 -18 -53zM230 785l-94 100q-5 6 4 16l5 6q10 11 16 6l116 -97l116 97q6 5 16 -6l5 -6q9 -10 4 -16l-94 -100
q-10 -10 -34 -10h-26q-24 0 -34 10z" />
    <glyph glyph-name="zcaron" unicode="&#x17e;" horiz-adv-x="455" 
d="M123 56h284q8 0 8 -27v-3q0 -26 -8 -26h-356q-9 0 -9 22v5q0 19 6 27l272 418h-258q-8 0 -8 26v3q0 27 8 27h330q6 0 7.5 -3.5t1.5 -18.5v-4q0 -20 -7 -31zM244 583h-26q-24 0 -34 10l-94 100q-5 5 4 16l5 6q10 11 16 6l116 -97l116 97q6 5 16 -6l5 -6q9 -11 4 -16
l-94 -100q-10 -10 -34 -10z" />
    <glyph glyph-name="longs" unicode="&#x17f;" horiz-adv-x="299" 
d="M176 567v-557q0 -10 -28 -10h-8q-29 0 -29 10v462h-70q-9 0 -9 24v7q0 25 9 25h70v41q0 213 177 213q48 0 91 -17q9 -4 3 -26l-2 -7q-4 -14 -7.5 -18t-9.5 -2q-36 12 -72 12q-66 0 -90.5 -38t-24.5 -119z" />
    <glyph glyph-name="florin" unicode="&#x192;" 
d="M229 118l33 267h-108q-8 0 -8 24v3q0 14 1.5 18t6.5 4h114l8 63q16 125 64 183.5t133 58.5q43 0 71 -14q6 -4 1 -24l-3 -10q-4 -12 -7 -15t-9 -1q-30 7 -51 7q-61 0 -90.5 -42.5t-40.5 -133.5l-9 -72h133q5 0 6.5 -4t1.5 -18v-3q0 -24 -8 -24h-139l-32 -258
q-16 -125 -64 -183.5t-133 -58.5q-43 0 -71 14q-6 4 -1 24l3 10q4 12 7 15t9 1q30 -7 51 -7q61 0 90.5 42.5t40.5 133.5z" />
    <glyph glyph-name="Aringacute" unicode="&#x1fa;" horiz-adv-x="626" 
d="M219 782q0 37 28 63.5t66 26.5q39 0 66.5 -26t27.5 -64q0 -54 -51 -80l245 -691q1 -4 -0.5 -6t-8.5 -3.5t-21 -1.5h-10q-33 0 -37 10l-61 184h-308l-61 -184q-4 -10 -35 -10h-5q-14 0 -20.5 1.5t-8 3.5t-0.5 6l241 693q-47 25 -47 78zM310 657l-137 -407h272zM262 782
q0 -23 14.5 -37t36.5 -14t35.5 14.5t13.5 36.5t-13.5 36.5t-35.5 14.5t-36.5 -14t-14.5 -37zM345 1033h15q22 0 23 -5q0 -2 -2 -5l-88 -119q-5 -6 -27 -6h-4q-21 1 -20 7l67 118q6 10 36 10z" />
    <glyph glyph-name="aringacute" unicode="&#x1fb;" horiz-adv-x="563" 
d="M484 369v-146q0 -116 7 -215q0 -8 -25 -8h-3q-26 0 -27 9l-8 62q-23 -39 -65.5 -60t-95.5 -21q-109 0 -164.5 74.5t-55.5 190.5q0 127 64 205t165 78q98 0 148 -73l5 53q1 10 28 10h7q15 0 18.5 -2t3.5 -10q0 -4 -0.5 -15.5t-0.5 -16.5q-1 -31 -1 -115zM419 246v150
q-53 82 -139 82q-75 0 -119 -59t-44 -159q0 -90 37 -150.5t119 -60.5q73 0 110 41q21 24 28.5 55t7.5 101zM187 658q0 37 28 63.5t66 26.5q39 0 66.5 -26t27.5 -64t-27.5 -64t-66.5 -26q-38 0 -66 26.5t-28 63.5zM230 658q0 -23 14.5 -37t36.5 -14t35.5 14.5t13.5 36.5
t-13.5 36.5t-35.5 14.5t-36.5 -14t-14.5 -37zM319 903h15q22 0 23 -5q0 -2 -2 -5l-88 -119q-5 -6 -27 -6h-4q-21 1 -20 7l67 118q6 10 36 10z" />
    <glyph glyph-name="AEacute" unicode="&#x1fc;" horiz-adv-x="895" 
d="M10 11l400 698q4 7 9.5 9t23.5 2h386q9 0 9 -26v-4q0 -27 -9 -27h-317v-270h269q9 0 9 -26v-4q0 -27 -9 -27h-269v-279h321q9 0 9 -26v-4q0 -27 -9 -27h-390v199h-255l-107 -189q-6 -10 -36 -10h-6q-30 0 -30 7q-1 2 1 4zM220 256h223v392zM666 913h15q22 0 23 -5
q0 -2 -2 -5l-88 -119q-5 -6 -27 -6h-4q-21 1 -20 7l67 118q6 10 36 10z" />
    <glyph glyph-name="aeacute" unicode="&#x1fd;" horiz-adv-x="863" 
d="M804 243h-349q4 -106 51 -151q42 -41 116 -41q77 0 137 30q7 4 11.5 1t10.5 -17l4 -10q8 -21 -1 -26q-75 -39 -173 -39q-64 0 -113 27t-71 70q-76 -97 -205 -97q-77 0 -127 42.5t-50 120.5q0 83 55.5 126.5t153.5 43.5q67 0 133 -26l1 33q2 80 -32 114.5t-112 34.5
q-68 0 -138 -27q-6 -2 -10 1.5t-8 17.5l-2 6q-8 25 0 28q75 33 167 33q69 0 118 -27t62 -78q53 105 178 105q58 0 103 -28.5t70 -79.5q34 -69 34 -162q0 -16 -3 -20.5t-11 -4.5zM236 48q107 0 167 89q-17 47 -18 105q-62 29 -129 29q-65 0 -103 -28t-38 -86q0 -53 32 -81
t89 -28zM456 295h295q-2 76 -38 129t-104 53t-107.5 -46t-45.5 -136zM511 721h15q22 0 23 -5q0 -2 -2 -5l-88 -119q-5 -6 -27 -6h-4q-21 1 -20 7l67 118q6 10 36 10z" />
    <glyph glyph-name="Oslashacute" unicode="&#x1fe;" horiz-adv-x="693" 
d="M356 730q105 0 176 -59l62 86q6 10 26 -5l12 -9q19 -14 13 -23l-68 -95q69 -94 69 -254q0 -175 -83.5 -278t-225.5 -103q-103 0 -174 57l-59 -82q-6 -10 -26 5l-12 9q-19 14 -13 23l65 91q-71 95 -71 257q0 175 83.5 277.5t225.5 102.5zM353 671q-109 0 -171.5 -83.5
t-62.5 -233.5q0 -123 42 -201l333 464q-56 54 -141 54zM574 367q0 121 -41 197l-332 -464q54 -51 139 -51q108 0 171 84t63 234zM399 913h15q22 0 23 -5q0 -2 -2 -5l-88 -119q-5 -6 -27 -6h-4q-21 1 -20 7l67 118q6 10 36 10z" />
    <glyph glyph-name="oslashacute" unicode="&#x1ff;" horiz-adv-x="566" 
d="M273 -10q-77 0 -126 33l-35 -48q-7 -9 -29 6l-6 4q-20 14 -12 24l39 53q-57 70 -57 190q0 139 66 212.5t180 73.5q75 0 127 -34l41 57q5 6 10 4.5t19 -11.5l4 -3q13 -10 16 -14.5t-2 -11.5l-44 -62q55 -71 55 -187q0 -139 -66 -212.5t-180 -73.5zM117 259q0 -84 29 -138
l235 329q-37 29 -92 29q-75 0 -123.5 -54.5t-48.5 -165.5zM449 269q0 82 -29 134l-235 -327q37 -27 91 -27q75 0 124 54t49 166zM331 721h15q22 0 23 -5q0 -2 -2 -5l-88 -119q-5 -6 -27 -6h-4q-21 1 -20 7l67 118q6 10 36 10z" />
    <glyph glyph-name="Scommaaccent" unicode="&#x218;" horiz-adv-x="513" 
d="M49 47q-9 6 4 29l3 5q13 21 21 16q78 -50 160 -50q74 0 120 38t46 98q0 28 -11.5 51t-34.5 41.5t-46 32t-56 30.5q-11 5 -16 8q-38 20 -62.5 35.5t-51.5 40t-40.5 56.5t-13.5 71q0 80 60 130.5t144 50.5q93 0 166 -49q9 -5 -3 -26l-3 -5q-12 -21 -21 -16q-71 39 -135 39
q-61 0 -100.5 -32.5t-39.5 -88.5q0 -28 10.5 -50t34.5 -41.5t43.5 -31t55.5 -30.5q32 -16 46 -24t41.5 -25t41 -31t30 -34.5t23 -45t6.5 -53.5q0 -87 -63 -141.5t-165 -54.5q-57 0 -109 16t-85 41zM217 -270l-5 5q-7 7 -1 13q49 51 49 87q0 18 -17 38t-17 36q0 17 12 27.5
t29 10.5q22 0 35.5 -15.5t13.5 -38.5q0 -99 -85 -167q-6 -4 -14 4z" />
    <glyph glyph-name="scommaaccent" unicode="&#x219;" horiz-adv-x="449" 
d="M382 460l-4 -6q-13 -19 -23 -12q-60 40 -128 40q-51 0 -80.5 -22.5t-29.5 -63.5q0 -19 7 -33.5t14.5 -23t27.5 -17t31 -11.5t40 -11q42 -11 67 -20.5t50.5 -26t37 -42t11.5 -61.5q0 -76 -51.5 -118t-137.5 -42q-93 0 -164 47q-8 5 3 25l3 6q12 24 23 17q66 -41 133 -41
q131 0 131 98q0 43 -30 62.5t-102 37.5q-83 20 -117 50q-41 36 -41 96q0 71 48.5 110.5t127.5 39.5q91 0 158 -52q8 -7 -5 -26zM171 -270l-5 5q-7 7 -1 13q49 51 49 87q0 18 -17 38t-17 36q0 17 12 27.5t29 10.5q22 0 35.5 -15.5t13.5 -38.5q0 -99 -85 -167q-6 -4 -14 4z
" />
    <glyph glyph-name="uni021A" unicode="&#x21a;" horiz-adv-x="516" 
d="M227 663h-202q-9 0 -9 27v4q0 26 9 26h466q9 0 9 -27v-4q0 -26 -9 -26h-195v-654q0 -9 -32 -9h-8q-29 0 -29 9v654zM208 -270l-5 5q-7 7 -1 13q49 51 49 87q0 18 -17 38t-17 36q0 17 12 27.5t29 10.5q22 0 35.5 -15.5t13.5 -38.5q0 -99 -85 -167q-6 -4 -14 4z" />
    <glyph glyph-name="uni021B" unicode="&#x21b;" horiz-adv-x="365" 
d="M309 478h-141v-321q0 -73 18 -91q20 -20 61 -20q43 0 76 12q6 2 8 -0.5t6 -17.5l2 -7q6 -21 -2 -24q-47 -19 -105 -19q-60 0 -94 31q-35 34 -35 129v328h-70q-6 0 -6 23v3q0 24 7 24h69v149q0 2 0.5 3t3.5 2t8.5 1h16.5h7q29 0 29 -6v-149h141q7 0 7 -24v-3q0 -23 -7 -23
zM174 -270l-5 5q-7 7 -1 13q49 51 49 87q0 18 -17 38t-17 36q0 17 12 27.5t29 10.5q22 0 35.5 -15.5t13.5 -38.5q0 -99 -85 -167q-6 -4 -14 4z" />
    <glyph glyph-name="circumflex" unicode="&#x2c6;" horiz-adv-x="354" 
d="M164 729h26q24 0 34 -10l94 -100q5 -5 -4 -16l-5 -6q-10 -11 -16 -6l-116 97l-116 -97q-6 -5 -16 6l-5 6q-9 11 -4 16l94 100q10 10 34 10z" />
    <glyph glyph-name="caron" unicode="&#x2c7;" horiz-adv-x="354" 
d="M190 583h-26q-24 0 -34 10l-94 100q-5 5 4 16l5 6q10 11 16 6l116 -97l116 97q6 5 16 -6l5 -6q9 -11 4 -16l-94 -100q-10 -10 -34 -10z" />
    <glyph glyph-name="breve" unicode="&#x2d8;" horiz-adv-x="354" 
d="M177 595q-59 0 -97.5 30t-38.5 81q0 6 19 6h12q13 0 15.5 -1.5t3.5 -8.5q8 -66 86 -66t86 66q1 7 3.5 8.5t15.5 1.5h12q19 0 19 -6q0 -51 -38.5 -81t-97.5 -30z" />
    <glyph glyph-name="dotaccent" unicode="&#x2d9;" horiz-adv-x="354" 
d="M130 680q0 20 13.5 33.5t32.5 13.5q20 0 33.5 -13.5t13.5 -33.5q0 -19 -13.5 -32.5t-33.5 -13.5t-33 13t-13 33z" />
    <glyph glyph-name="ring" unicode="&#x2da;" horiz-adv-x="354" 
d="M83 668q0 37 28 63.5t66 26.5q39 0 66.5 -26t27.5 -64t-27.5 -64t-66.5 -26q-38 0 -66 26.5t-28 63.5zM126 668q0 -23 14.5 -37t36.5 -14t35.5 14.5t13.5 36.5t-13.5 36.5t-35.5 14.5t-36.5 -14t-14.5 -37z" />
    <glyph glyph-name="ogonek" unicode="&#x2db;" horiz-adv-x="354" 
d="M261 -213q-35 -16 -73 -16q-42 0 -71 25.5t-29 66.5q0 39 24 73t64 56q13 7 31 7h8q16 0 16 -3q0 -1 -3 -3q-83 -56 -83 -121q0 -27 15.5 -42t42.5 -15q15 0 49 9q6 2 10 -14l1 -5q3 -16 -2 -18z" />
    <glyph glyph-name="tilde" unicode="&#x2dc;" horiz-adv-x="354" 
d="M327 665q-14 -18 -39 -31t-49 -13q-29 0 -68 19t-60 19q-27 0 -58 -30q-6 -5 -16 8l-8 10q-7 10 -2 16q14 18 39 31t49 13q29 0 68 -19t60 -19q27 0 58 30q6 5 16 -8l8 -10q7 -10 2 -16z" />
    <glyph glyph-name="hungarumlaut" unicode="&#x2dd;" horiz-adv-x="354" 
d="M131 721h15q22 0 23 -5q0 -2 -2 -5l-88 -119q-5 -6 -27 -6h-4q-21 1 -20 7l67 118q6 10 36 10zM288 721h15q22 0 23 -5q0 -2 -2 -5l-88 -119q-5 -6 -27 -6h-4q-21 1 -20 7l67 118q6 10 36 10z" />
    <glyph glyph-name="commaaccent" unicode="&#x326;" horiz-adv-x="354" 
d="M130 -270l-5 5q-7 7 -1 13q49 51 49 87q0 18 -17 38t-17 36q0 17 12 27.5t29 10.5q22 0 35.5 -15.5t13.5 -38.5q0 -99 -85 -167q-6 -4 -14 4z" />
    <glyph glyph-name="Delta" unicode="&#x394;" horiz-adv-x="621" 
d="M110 57h400l-200 597zM554 0h-488q-24 0 -24 11v26q0 21 10 51l212 619q3 9 9 11t29 2h16q23 0 29 -2t9 -11l212 -619q10 -30 10 -51v-26q0 -11 -24 -11z" />
    <glyph glyph-name="Delta" unicode="&#x2206;" horiz-adv-x="621" 
d="M110 57h400l-200 597zM554 0h-488q-24 0 -24 11v26q0 21 10 51l212 619q3 9 9 11t29 2h16q23 0 29 -2t9 -11l212 -619q10 -30 10 -51v-26q0 -11 -24 -11z" />
    <glyph glyph-name="Omega" unicode="&#x3a9;" horiz-adv-x="752" 
d="M376 671q-100 0 -160 -77.5t-60 -233.5q0 -233 159 -308q10 -4 10 -24v-3q0 -25 -8 -25h-251q-8 0 -8 25v3q0 23 8 23h165q-147 99 -147 316q0 167 79 265t213 98t213 -98t79 -265q0 -217 -147 -316h165q8 0 8 -23v-3q0 -25 -8 -25h-251q-8 0 -8 25v3q0 20 10 24
q159 75 159 308q0 156 -60 233.5t-160 77.5z" />
    <glyph glyph-name="Omega" unicode="&#x2126;" horiz-adv-x="752" 
d="M376 671q-100 0 -160 -77.5t-60 -233.5q0 -233 159 -308q10 -4 10 -24v-3q0 -25 -8 -25h-251q-8 0 -8 25v3q0 23 8 23h165q-147 99 -147 316q0 167 79 265t213 98t213 -98t79 -265q0 -217 -147 -316h165q8 0 8 -23v-3q0 -25 -8 -25h-251q-8 0 -8 25v3q0 20 10 24
q159 75 159 308q0 156 -60 233.5t-160 77.5z" />
    <glyph glyph-name="pi" unicode="&#x3c0;" horiz-adv-x="648" 
d="M32 528h553q8 0 8 -23v-2q0 -25 -8 -25h-117v-316q0 -60 13.5 -88.5t51.5 -28.5q29 0 62 15q9 4 15 -10l6 -14q7 -15 -1 -20q-38 -26 -87 -26q-126 0 -126 151v337h-208v-469q0 -9 -28 -9h-8q-29 0 -29 9v469h-97q-8 0 -8 25v2q0 23 8 23z" />
    <glyph glyph-name="Wgrave" unicode="&#x1e80;" horiz-adv-x="956" 
d="M928 709l-193 -695q-3 -14 -45 -14h-5q-43 0 -46 14l-158 577l-158 -577q-3 -14 -45 -14h-5q-24 0 -33 2.5t-12 11.5l-198 693q-2 8 3 10.5t26 2.5h11q31 0 34 -11l174 -642l173 643q3 10 29 10h8q26 0 29 -10l175 -644l170 644q2 10 31 10h7q13 0 19.5 -1.5t8 -3.5
t0.5 -6zM435 913h15q30 0 36 -10l67 -118q3 -5 -7 -6q-4 -1 -13 -1h-4q-22 0 -27 6l-88 119q-6 8 8 9q5 1 13 1z" />
    <glyph glyph-name="wgrave" unicode="&#x1e81;" horiz-adv-x="788" 
d="M96 516l130 -463l120 464q2 11 37 11h9q36 0 38 -10l132 -465q86 248 127 463q1 6 3 8t7.5 3t19.5 1h5q17 0 22.5 -2t4.5 -7q-63 -279 -146 -498q-5 -12 -13 -16.5t-30 -4.5h-8q-37 0 -42 17l-66 235q-29 101 -58 217q-30 -133 -53 -218l-64 -231q-6 -20 -44 -20h-8
q-36 0 -42 17l-151 498q-2 8 3.5 10.5t25.5 2.5h8q20 0 25.5 -2t7.5 -10zM339 721h15q30 0 36 -10l67 -118q3 -5 -7 -6q-4 -1 -13 -1h-4q-22 0 -27 6l-88 119q-6 8 8 9q5 1 13 1z" />
    <glyph glyph-name="Wacute" unicode="&#x1e82;" horiz-adv-x="956" 
d="M928 709l-193 -695q-3 -14 -45 -14h-5q-43 0 -46 14l-158 577l-158 -577q-3 -14 -45 -14h-5q-24 0 -33 2.5t-12 11.5l-198 693q-2 8 3 10.5t26 2.5h11q31 0 34 -11l174 -642l173 643q3 10 29 10h8q26 0 29 -10l175 -644l170 644q2 10 31 10h7q13 0 19.5 -1.5t8 -3.5
t0.5 -6zM514 913h15q22 0 23 -5q0 -2 -2 -5l-88 -119q-5 -6 -27 -6h-4q-21 1 -20 7l67 118q6 10 36 10z" />
    <glyph glyph-name="wacute" unicode="&#x1e83;" horiz-adv-x="788" 
d="M96 516l130 -463l120 464q2 11 37 11h9q36 0 38 -10l132 -465q86 248 127 463q1 6 3 8t7.5 3t19.5 1h5q17 0 22.5 -2t4.5 -7q-63 -279 -146 -498q-5 -12 -13 -16.5t-30 -4.5h-8q-37 0 -42 17l-66 235q-29 101 -58 217q-30 -133 -53 -218l-64 -231q-6 -20 -44 -20h-8
q-36 0 -42 17l-151 498q-2 8 3.5 10.5t25.5 2.5h8q20 0 25.5 -2t7.5 -10zM423 721h15q22 0 23 -5q0 -2 -2 -5l-88 -119q-5 -6 -27 -6h-4q-21 1 -20 7l67 118q6 10 36 10z" />
    <glyph glyph-name="Wdieresis" unicode="&#x1e84;" horiz-adv-x="956" 
d="M928 709l-193 -695q-3 -14 -45 -14h-5q-43 0 -46 14l-158 577l-158 -577q-3 -14 -45 -14h-5q-24 0 -33 2.5t-12 11.5l-198 693q-2 8 3 10.5t26 2.5h11q31 0 34 -11l174 -642l173 643q3 10 29 10h8q26 0 29 -10l175 -644l170 644q2 10 31 10h7q13 0 19.5 -1.5t8 -3.5
t0.5 -6zM333 846q0 20 14 34t33 14q20 0 34 -14t14 -34q0 -19 -14 -33t-34 -14t-33.5 13.5t-13.5 33.5zM535 846q0 20 14 34t33 14q20 0 34 -14t14 -34q0 -19 -14 -33t-34 -14t-33.5 13.5t-13.5 33.5z" />
    <glyph glyph-name="wdieresis" unicode="&#x1e85;" horiz-adv-x="788" 
d="M96 516l130 -463l120 464q2 11 37 11h9q36 0 38 -10l132 -465q86 248 127 463q1 6 3 8t7.5 3t19.5 1h5q17 0 22.5 -2t4.5 -7q-63 -279 -146 -498q-5 -12 -13 -16.5t-30 -4.5h-8q-37 0 -42 17l-66 235q-29 101 -58 217q-30 -133 -53 -218l-64 -231q-6 -20 -44 -20h-8
q-36 0 -42 17l-151 498q-2 8 3.5 10.5t25.5 2.5h8q20 0 25.5 -2t7.5 -10zM240 654q0 20 14 34t33 14t33.5 -14t14.5 -34q0 -19 -14 -33t-34 -14q-19 0 -33 13.5t-14 33.5zM442 654q0 20 14 34t33 14t33.5 -14t14.5 -34q0 -19 -14 -33t-34 -14q-19 0 -33 13.5t-14 33.5z" />
    <glyph glyph-name="Ygrave" unicode="&#x1ef2;" horiz-adv-x="523" 
d="M254 0q-29 0 -29 9v269l-211 430q-1 2 -1 4t1.5 3.5t5 2.5t9.5 1.5t14 0.5h8q33 0 38 -11l177 -369l175 371q5 9 34 9h9q11 0 17 -1.5t7.5 -4t-0.5 -6.5l-214 -430v-269q0 -9 -32 -9h-8zM218 913h15q30 0 36 -10l67 -118q3 -5 -7 -6q-4 -1 -13 -1h-4q-22 0 -27 6l-88 119
q-6 8 8 9q5 1 13 1z" />
    <glyph glyph-name="ygrave" unicode="&#x1ef3;" horiz-adv-x="509" 
d="M104 518l94 -254q32 -84 71 -207q38 117 67 200l92 261q4 10 31 10h5q16 0 23.5 -2t5.5 -8l-192 -539q-45 -118 -87 -163q-54 -60 -145 -60q-45 0 -74 13q-7 3 -1 24l3 9q5 14 7.5 17.5t7.5 2.5q29 -9 53 -9q61 0 100 40t71 133l-206 530q-2 4 0 6.5t9 4t21 1.5h8
q32 0 36 -10zM217 721h15q30 0 36 -10l67 -118q3 -5 -7 -6q-4 -1 -13 -1h-4q-22 0 -27 6l-88 119q-6 8 8 9q5 1 13 1z" />
    <glyph glyph-name="endash" unicode="&#x2013;" horiz-adv-x="500" 
d="M52 308h396q8 0 8 -21v-3q0 -23 -8 -23h-396q-8 0 -8 23v3q0 21 8 21z" />
    <glyph glyph-name="emdash" unicode="&#x2014;" horiz-adv-x="1000" 
d="M52 308h896q8 0 8 -21v-3q0 -23 -8 -23h-896q-8 0 -8 23v3q0 21 8 21z" />
    <glyph glyph-name="quoteleft" unicode="&#x2018;" horiz-adv-x="231" 
d="M175 721l4 -5q8 -10 2 -16q-63 -63 -63 -112q0 -24 23 -49t23 -46t-15 -34.5t-37 -13.5q-28 0 -45 20t-17 49q0 58 29.5 115.5t78.5 96.5q7 6 17 -5z" />
    <glyph glyph-name="quoteright" unicode="&#x2019;" horiz-adv-x="231" 
d="M56 454l-4 5q-8 10 -2 16q63 63 63 112q0 23 -23 49t-23 46q0 21 15 34.5t37 13.5q28 0 45 -20t17 -49q0 -58 -29.5 -115.5t-78.5 -96.5q-7 -6 -17 5z" />
    <glyph glyph-name="quotesinglbase" unicode="&#x201a;" horiz-adv-x="231" 
d="M52 -171l-4 5q-8 10 -2 16q63 63 63 112q0 24 -23 49t-23 46t15 34.5t37 13.5q28 0 45 -20t17 -49q0 -58 -29.5 -115.5t-78.5 -96.5q-7 -6 -17 5z" />
    <glyph glyph-name="quotedblleft" unicode="&#x201c;" horiz-adv-x="436" 
d="M380 721l4 -5q8 -10 2 -16q-63 -63 -63 -112q0 -24 23 -49t23 -46t-15 -34.5t-37 -13.5q-28 0 -45 20t-17 49q0 58 29.5 115.5t78.5 96.5q7 6 17 -5zM175 721l4 -5q8 -10 2 -16q-63 -63 -63 -112q0 -24 23 -49t23 -46t-15 -34.5t-37 -13.5q-28 0 -45 20t-17 49
q0 58 29.5 115.5t78.5 96.5q7 6 17 -5z" />
    <glyph glyph-name="quotedblright" unicode="&#x201d;" horiz-adv-x="436" 
d="M56 454l-4 5q-8 10 -2 16q63 63 63 112q0 23 -23 49t-23 46q0 21 15 34.5t37 13.5q28 0 45 -20t17 -49q0 -58 -29.5 -115.5t-78.5 -96.5q-7 -6 -17 5zM261 454l-4 5q-8 10 -2 16q63 63 63 112q0 23 -23 49t-23 46q0 21 15 34.5t37 13.5q28 0 45 -20t17 -49
q0 -58 -29.5 -115.5t-78.5 -96.5q-7 -6 -17 5z" />
    <glyph glyph-name="quotedblbase" unicode="&#x201e;" horiz-adv-x="436" 
d="M52 -171l-4 5q-8 10 -2 16q63 63 63 112q0 24 -23 49t-23 46t15 34.5t37 13.5q28 0 45 -20t17 -49q0 -58 -29.5 -115.5t-78.5 -96.5q-7 -6 -17 5zM257 -171l-4 5q-8 10 -2 16q63 63 63 112q0 24 -23 49t-23 46t15 34.5t37 13.5q28 0 45 -20t17 -49q0 -58 -29.5 -115.5
t-78.5 -96.5q-7 -6 -17 5z" />
    <glyph glyph-name="dagger" unicode="&#x2020;" horiz-adv-x="473" 
d="M267 412v-540q0 -9 -29 -9h-2q-30 0 -30 9v540h-174q-8 0 -8 25v3q0 23 8 23h174v248q0 9 30 9h2q29 0 29 -9v-248h174q8 0 8 -23v-3q0 -25 -8 -25h-174z" />
    <glyph glyph-name="daggerdbl" unicode="&#x2021;" horiz-adv-x="473" 
d="M267 440v-297h174q8 0 8 -25v-3q0 -23 -8 -23h-174v-220q0 -9 -29 -9h-2q-30 0 -30 9v220h-174q-8 0 -8 23v3q0 25 8 25h174v297h-174q-8 0 -8 25v3q0 23 8 23h174v220q0 9 30 9h2q29 0 29 -9v-220h174q8 0 8 -23v-3q0 -25 -8 -25h-174z" />
    <glyph glyph-name="bullet" unicode="&#x2022;" horiz-adv-x="339" 
d="M54 353q0 48 33.5 82t81.5 34t82 -34t34 -82t-34 -81.5t-82 -33.5t-81.5 33.5t-33.5 81.5z" />
    <glyph glyph-name="ellipsis" unicode="&#x2026;" horiz-adv-x="723" 
d="M120 106q24 0 40.5 -17t16.5 -41q0 -25 -16.5 -41.5t-40.5 -16.5q-23 0 -39.5 16.5t-16.5 41.5q0 24 16.5 41t39.5 17zM361 106q23 0 40 -17t17 -41q0 -25 -16.5 -41.5t-40.5 -16.5q-23 0 -39.5 16.5t-16.5 41.5q0 24 16.5 41t39.5 17zM602 106q24 0 40.5 -17t16.5 -41
q0 -25 -16.5 -41.5t-40.5 -16.5q-23 0 -39.5 16.5t-16.5 41.5q0 24 16.5 41t39.5 17z" />
    <glyph glyph-name="perthousand" unicode="&#x2030;" horiz-adv-x="1270" 
d="M214 683q-46 0 -73.5 -41t-27.5 -119q0 -150 96 -150q47 0 73.5 42t26.5 119q0 149 -95 149zM217 730q74 0 115 -48.5t41 -145.5q0 -101 -44 -156t-123 -55q-73 0 -114.5 49t-41.5 145q0 102 44 156.5t123 54.5zM242 -5l344 731q6 11 29 11h10q15 0 19 -2.5t0 -10.5
l-345 -731q-5 -11 -29 -11h-10q-15 0 -18.5 3t0.5 10zM677 348q-46 0 -73.5 -41t-27.5 -119q0 -150 96 -150q47 0 73.5 42t26.5 119q0 149 -95 149zM680 395q74 0 115 -48.5t41 -145.5q0 -101 -44 -156t-123 -55q-73 0 -114.5 49t-41.5 145q0 102 44 156.5t123 54.5z
M1061 348q-46 0 -73.5 -41t-27.5 -119q0 -150 96 -150q47 0 73.5 42t26.5 119q0 149 -95 149zM1064 395q74 0 115 -48.5t41 -145.5q0 -101 -44 -156t-123 -55q-73 0 -114.5 49t-41.5 145q0 102 44 156.5t123 54.5z" />
    <glyph glyph-name="guilsinglleft" unicode="&#x2039;" horiz-adv-x="309" 
d="M72 302v5q0 12 5 19l134 194q6 9 22 0l7 -4q16 -9 11 -18l-117 -194l117 -193q5 -9 -11 -18l-7 -4q-16 -9 -22 0l-134 194q-5 7 -5 19z" />
    <glyph glyph-name="guilsinglright" unicode="&#x203a;" horiz-adv-x="309" 
d="M237 307v-5q0 -12 -5 -19l-134 -194q-6 -9 -22 0l-7 4q-16 9 -11 18l117 193l-117 194q-5 9 11 18l7 4q16 9 22 0l134 -194q5 -7 5 -19z" />
    <glyph glyph-name="fraction" unicode="&#x2044;" horiz-adv-x="323" 
d="M-37 -5l344 731q5 11 29 11h6q15 0 19 -2.5t0 -10.5l-345 -731q-6 -11 -29 -11h-6q-15 0 -18.5 3t0.5 10z" />
    <glyph glyph-name="Euro" unicode="&#x20ac;" 
d="M41 460h71q21 131 93.5 200.5t177.5 69.5q84 0 160 -44q6 -4 -2 -24l-5 -11q-8 -18 -18 -14q-71 34 -130 34q-86 0 -137 -55.5t-67 -155.5h238q5 0 6.5 -3.5t1.5 -17.5v-3q0 -23 -8 -23h-244q-2 -19 -2 -57q0 -33 1 -48h232q5 0 6.5 -3.5t1.5 -17.5v-3q0 -23 -8 -23h-226
q16 -100 69.5 -156t141.5 -56q61 0 125 29q10 5 18 -15l4 -10q9 -20 -1 -25q-76 -38 -160 -38q-107 0 -178 69q-72 70 -92 202h-82q-8 0 -8 23v3q0 14 1.5 17.5t6.5 3.5h77q-1 14 -1 43q0 22 2 62h-65q-8 0 -8 23v3q0 14 1.5 17.5t6.5 3.5z" />
    <glyph glyph-name="litre" unicode="&#x2113;" horiz-adv-x="245" 
d="M136 460v-348q0 -35 7 -48t29 -13q8 0 20 2q4 1 6 -2.5t3 -15.5l1 -7q2 -12 0 -16t-9 -6q-19 -6 -41 -6q-47 0 -66 28q-15 23 -15 104v351q0 163 -4 268q0 9 28 9h8q29 0 29 -9q4 -77 4 -291z" />
    <glyph glyph-name="numero" unicode="&#x2116;" horiz-adv-x="1077" 
d="M733 455q0 -63 26 -107.5t88 -44.5q53 0 87.5 40t34.5 120q0 63 -26 107.5t-88 44.5q-53 0 -87.5 -40t-34.5 -120zM1031 468q0 -102 -51 -160t-137 -58q-83 0 -127.5 55.5t-44.5 144.5q0 102 51 160t137 58q83 0 127.5 -55.5t44.5 -144.5zM516 10l-374 615v-616
q0 -9 -28 -9h-7q-27 0 -27 9v702q0 9 29 9h7q39 0 45 -10l374 -615v616q0 9 27 9h7q28 0 28 -9v-702q0 -9 -29 -9h-7q-39 0 -45 10z" />
    <glyph glyph-name="trademark" unicode="&#x2122;" horiz-adv-x="891" 
d="M455 730q24 0 27 -8l121 -276l113 276q3 8 27 8h15q25 0 25 -10l26 -388q0 -6 -17 -6h-14q-18 0 -18 6l-22 337l-111 -268q-2 -6 -21 -6h-9q-20 0 -23 6l-115 258l-20 -327q0 -6 -17 -6h-14q-18 0 -18 6l28 388q1 10 25 10h12zM36 730h305q6 0 6 -17v-6q0 -18 -6 -18
h-127v-357q0 -6 -17 -6h-16q-18 0 -18 6v357h-127q-6 0 -6 18v6q0 17 6 17z" />
    <glyph glyph-name="estimated" unicode="&#x212e;" horiz-adv-x="922" 
d="M872 352h-666q-5 0 -5 -6v-202q0 -12 9 -24q108 -108 253 -108q78 0 147 32.5t117 89.5h60q-57 -67 -142.5 -105.5t-182.5 -38.5q-170 0 -291 108.5t-121 261.5q0 154 121 262t291 108t290 -108t120 -262v-8zM721 377v203q0 13 -10 25q-105 103 -248 103
q-144 0 -252 -106q-10 -10 -10 -26v-199q0 -6 5 -6h510q5 0 5 6z" />
    <glyph glyph-name="partialdiff" unicode="&#x2202;" horiz-adv-x="551" 
d="M117 657q-8 -3 -12.5 -1t-8.5 12l-4 10q-8 22 -1 26q52 26 121 26q73 0 130 -38.5t90.5 -101.5t51 -137t17.5 -153q0 -147 -57 -228.5t-173 -81.5q-102 0 -160.5 65t-58.5 167q0 99 54.5 161t155.5 62q87 0 164 -53q-18 124 -70 203t-144 79q-50 0 -95 -17zM431 336
q-85 54 -161 54q-80 0 -114.5 -50t-34.5 -124q0 -77 39 -123.5t110 -46.5q86 0 123.5 71t37.5 219z" />
    <glyph glyph-name="product" unicode="&#x220f;" horiz-adv-x="698" 
d="M658 663h-93v-821q0 -9 -29 -9h-8q-32 0 -32 9v821h-295v-821q0 -9 -32 -9h-8q-29 0 -29 9v821h-93q-9 0 -9 27v4q0 26 9 26h619q9 0 9 -26v-4q0 -27 -9 -27z" />
    <glyph glyph-name="summation" unicode="&#x2211;" horiz-adv-x="567" 
d="M49 -103l317 384l-312 375q-18 21 -18 39v18q0 7 22 7h494q9 0 9 -26v-4q0 -27 -9 -27h-423l290 -345q6 -8 6 -24v-14q0 -17 -7 -27l-294 -363h427q9 0 9 -27v-4q0 -26 -9 -26h-498q-22 0 -22 7v18q0 18 18 39z" />
    <glyph glyph-name="minus" unicode="&#x2212;" 
d="M525 341h-476q-8 0 -8 22v3q0 22 8 22h476q8 0 8 -22v-3q0 -22 -8 -22z" />
    <glyph glyph-name="radical" unicode="&#x221a;" horiz-adv-x="644" 
d="M132 427h-70q-8 0 -8 25v6q0 26 8 26h113q10 0 18 -24l155 -460l256 811q3 11 32 11h5q19 0 24.5 -2.5t3.5 -10.5l-287 -883q-2 -6 -28 -6h-12q-31 0 -33 6z" />
    <glyph glyph-name="infinity" unicode="&#x221e;" horiz-adv-x="823" 
d="M379 328q-38 52 -73.5 79.5t-79.5 27.5q-51 0 -83 -29.5t-32 -75.5t32 -75.5t83 -29.5q45 0 80.5 26.5t72.5 76.5zM411 293q-41 -61 -85.5 -89t-102.5 -28q-71 0 -119.5 42t-48.5 112t48.5 112t119.5 42q58 0 102.5 -28t85.5 -89q41 61 85.5 89t102.5 28q71 0 119.5 -42
t48.5 -112t-48.5 -112t-119.5 -42q-58 0 -102.5 28t-85.5 89zM443 332q38 -52 73.5 -79.5t79.5 -27.5q51 0 83 29.5t32 75.5t-32 75.5t-83 29.5q-45 0 -80.5 -26.5t-72.5 -76.5z" />
    <glyph glyph-name="integral" unicode="&#x222b;" horiz-adv-x="364" 
d="M185 48q0 84 -40 241t-40 246q0 94 45 144.5t128 50.5q34 0 59 -8q6 -2 1 -22l-3 -13q-4 -15 -6 -18t-8 -2q-22 5 -39 5q-56 0 -80 -34t-24 -103q0 -84 40 -241t40 -246q0 -94 -45 -144.5t-128 -50.5q-34 0 -59 8q-6 2 -1 22l3 13q4 15 6 18t8 2q22 -5 39 -5q56 0 80 34
t24 103z" />
    <glyph glyph-name="approxequal" unicode="&#x2248;" 
d="M402 447q63 0 88 77q3 7 18 3l13 -4q12 -4 11 -11q-12 -56 -48 -85.5t-89 -29.5q-32 0 -63 13.5t-52 30t-50.5 30t-57.5 13.5q-63 0 -88 -77q-2 -7 -18 -3l-13 4q-12 4 -11 11q12 56 48 85.5t89 29.5q40 0 78 -22t74 -43.5t71 -21.5zM402 243q63 0 88 77q3 7 18 3l13 -4
q12 -4 11 -11q-12 -56 -48 -85.5t-89 -29.5q-32 0 -63 13.5t-52 30t-50.5 30t-57.5 13.5q-63 0 -88 -77q-2 -7 -18 -3l-13 4q-12 4 -11 11q12 56 48 85.5t89 29.5q40 0 78 -22t74 -43.5t71 -21.5z" />
    <glyph glyph-name="notequal" unicode="&#x2260;" 
d="M145 145l51 94h-147q-8 0 -8 22v3q0 22 8 22h172l85 156h-257q-8 0 -8 22v3q0 22 8 22h283l51 94q4 7 21 7h9q7 0 11 -1t5 -2.5t0 -3.5l-51 -94h147q8 0 8 -22v-3q0 -22 -8 -22h-173l-85 -156h258q8 0 8 -22v-3q0 -22 -8 -22h-283l-51 -94q-5 -8 -21 -8h-9q-20 0 -16 8z
" />
    <glyph glyph-name="lessequal" unicode="&#x2264;" 
d="M41 440v8q0 20 9 25l449 251q10 5 20 -13l4 -7q11 -19 3 -23l-425 -237l425 -237q8 -4 -3 -23l-4 -7q-10 -18 -20 -13l-449 251q-9 5 -9 25zM525 0h-476q-8 0 -8 22v3q0 22 8 22h476q8 0 8 -22v-3q0 -22 -8 -22z" />
    <glyph glyph-name="greaterequal" unicode="&#x2265;" 
d="M533 448v-8q0 -20 -9 -25l-449 -251q-10 -5 -20 13l-4 7q-11 19 -3 23l425 237l-425 237q-8 4 3 23l4 7q10 18 20 13l449 -251q9 -5 9 -25zM525 0h-476q-8 0 -8 22v3q0 22 8 22h476q8 0 8 -22v-3q0 -22 -8 -22z" />
    <glyph glyph-name="lozenge" unicode="&#x25ca;" horiz-adv-x="545" 
d="M272 58l177 307l-177 307l-177 -307zM278 -22h-12q-20 0 -24 7l-200 340q-7 13 -7 33v14q0 20 7 33l200 340q4 7 24 7h12q20 0 24 -7l200 -340q7 -13 7 -33v-14q0 -20 -7 -33l-200 -340q-4 -7 -24 -7z" />
    <glyph glyph-name="grave.cap" horiz-adv-x="354" 
d="M129 913h15q30 0 36 -10l67 -118q3 -5 -7 -6q-4 -1 -13 -1h-4q-22 0 -27 6l-88 119q-6 8 8 9q5 1 13 1z" />
    <glyph glyph-name="acute.cap" horiz-adv-x="354" 
d="M209 913h15q22 0 23 -5q0 -2 -2 -5l-88 -119q-5 -6 -27 -6h-4q-21 1 -20 7l67 118q6 10 36 10z" />
    <glyph glyph-name="dieresis.cap" horiz-adv-x="354" 
d="M28 846q0 20 14 34t33 14t33.5 -14t14.5 -34q0 -19 -14 -33t-34 -14q-19 0 -33 13.5t-14 33.5zM230 846q0 20 14 34t33 14t33.5 -14t14.5 -34q0 -19 -14 -33t-34 -14q-19 0 -33 13.5t-14 33.5z" />
    <glyph glyph-name="circumflex.cap" horiz-adv-x="354" 
d="M164 921h26q24 0 34 -10l94 -100q5 -5 -4 -16l-5 -6q-10 -11 -16 -6l-116 97l-116 -97q-6 -5 -16 6l-5 6q-9 11 -4 16l94 100q10 10 34 10z" />
    <glyph glyph-name="tilde.cap" horiz-adv-x="354" 
d="M327 857q-14 -18 -39 -31t-49 -13q-29 0 -68 19t-60 19q-27 0 -58 -30q-6 -5 -16 8l-8 10q-7 10 -2 16q14 18 39 31t49 13q29 0 68 -19t60 -19q27 0 58 30q6 5 16 -8l8 -10q7 -10 2 -16z" />
    <glyph glyph-name="macron.cap" horiz-adv-x="354" 
d="M46 874h262q8 0 8 -23v-3q0 -25 -8 -25h-262q-8 0 -8 25v3q0 23 8 23z" />
    <glyph glyph-name="breve.cap" horiz-adv-x="354" 
d="M177 795q-59 0 -97.5 30t-38.5 81q0 6 19 6h12q13 0 15.5 -1.5t3.5 -8.5q8 -66 86 -66t86 66q1 7 3.5 8.5t15.5 1.5h12q19 0 19 -6q0 -51 -38.5 -81t-97.5 -30z" />
    <glyph glyph-name="dotaccent.cap" horiz-adv-x="354" 
d="M130 840q0 20 13.5 33.5t32.5 13.5q20 0 33.5 -13.5t13.5 -33.5q0 -19 -13.5 -32.5t-33.5 -13.5t-33 13t-13 33z" />
    <glyph glyph-name="ring.cap" horiz-adv-x="354" 
d="M83 868q0 37 28 63.5t66 26.5q39 0 66.5 -26t27.5 -64t-27.5 -64t-66.5 -26q-38 0 -66 26.5t-28 63.5zM126 868q0 -23 14.5 -37t36.5 -14t35.5 14.5t13.5 36.5t-13.5 36.5t-35.5 14.5t-36.5 -14t-14.5 -37z" />
    <glyph glyph-name="hungarumlaut.cap" horiz-adv-x="354" 
d="M131 913h15q22 0 23 -5q0 -2 -2 -5l-88 -119q-5 -6 -27 -6h-4q-21 1 -20 7l67 118q6 10 36 10zM288 913h15q22 0 23 -5q0 -2 -2 -5l-88 -119q-5 -6 -27 -6h-4q-21 1 -20 7l67 118q6 10 36 10z" />
    <glyph glyph-name="caron.cap" horiz-adv-x="354" 
d="M130 798l-94 100q-5 6 4 16l5 6q10 11 16 6l116 -97l116 97q6 5 16 -6l5 -6q9 -10 4 -16l-94 -100q-10 -10 -34 -10h-26q-24 0 -34 10z" />
    <glyph glyph-name="apple" horiz-adv-x="525" 
d="M198 542h269v-66h-201v-66h201v-202h-269v66h202v69h-202v199zM66 676h401v-66h-334v-543h74v-67h-141v676z" />
    </font>
</defs>
</svg>
