<svg width="59" height="77" viewBox="0 0 59 77" fill="none" xmlns="http://www.w3.org/2000/svg">
<path d="M22.6226 76.6036C17.9685 76.6036 14.1885 72.814 14.1885 68.1695V24.1664C14.1885 22.5382 15.5069 21.2222 17.1327 21.2222C18.761 21.2222 20.077 22.5406 20.077 24.1664V68.1719C20.077 69.5719 21.2201 70.7151 22.6202 70.7151C24.0011 70.7151 25.1226 69.6344 25.1634 68.2535L25.9655 44.1038C26.016 42.4756 27.3464 41.2004 29.0131 41.2508C30.6413 41.3013 31.9069 42.6725 31.8564 44.2984L31.0543 68.448C30.903 73.0205 27.1951 76.6036 22.6226 76.6036Z" fill="#63666A"/>
<path d="M35.8307 76.6036C30.97 76.6036 27.0147 72.7924 26.8394 67.9317L25.9749 43.9165C25.9124 42.2883 27.1804 40.929 28.8063 40.869C30.4537 40.7969 31.8034 42.0842 31.8538 43.7124L32.7279 67.718C32.7904 69.3966 34.1496 70.7151 35.8283 70.7151C37.5382 70.7151 38.9287 69.3246 38.9287 67.6147V24.1664C38.9287 22.5382 40.2471 21.2222 41.8729 21.2222C43.5012 21.2222 44.8172 22.5406 44.8172 24.1664V67.6147C44.8196 72.5666 40.7922 76.6036 35.8307 76.6036Z" fill="#63666A"/>
<path d="M7.9684 48.3189C6.75323 48.3189 5.53806 47.9779 4.46698 47.3199C2.1183 46.0014 -1.23902 41.9453 0.533296 34.6639L0.915138 33.0885C3.66488 21.5852 8.79212 0.175667 21.6979 0.000356215C22.3055 -0.00924986 22.9034 0.175668 23.4078 0.526289C25.0048 1.62859 26.878 2.20495 28.8256 2.20495C32.2862 2.20495 33.9648 1.53493 35.4274 0.526289C35.9317 0.175668 36.5393 0.000356215 37.1468 0.000356215C45.8379 0.122834 52.8216 11.4628 58.4843 34.6639C60.2567 41.9453 56.8993 46.0135 54.5507 47.3199C52.6559 48.4846 50.3384 48.6383 48.3307 47.7329C45.1703 46.292 43.1194 42.5313 42.2141 36.5395C41.0613 28.9074 40.0215 26.5395 39.0104 24.2533C38.7222 23.5953 38.4341 22.9445 38.1555 22.2144C37.5695 20.6894 38.3212 18.9916 39.8341 18.3936C41.3591 17.8076 43.057 18.5689 43.6454 20.0819C43.9023 20.7303 44.1497 21.297 44.4066 21.8734C45.5714 24.5199 46.7649 27.248 48.0305 35.6629C48.8951 41.3569 50.5833 42.2839 50.7707 42.368C51.0685 42.5024 51.3374 42.3776 51.4815 42.2959C51.544 42.2551 51.616 42.2143 51.676 42.1734C51.6977 42.1638 53.8902 40.7109 52.7567 36.0664C46.7217 11.3187 40.7275 6.64296 37.8121 5.98254C35.3097 7.45467 32.5503 8.09348 28.8208 8.09348C26.0398 8.09348 23.3525 7.36341 20.9846 5.96093C13.1485 7.31058 8.4511 26.9286 6.63796 34.4574L6.25612 36.064C5.1226 40.7085 7.30558 42.1614 7.32719 42.171C7.37762 42.2022 7.48089 42.2647 7.53372 42.2935C7.66821 42.3752 7.94678 42.5 8.24457 42.3656C8.42949 42.2839 10.1178 41.3569 10.9727 35.6605C12.1975 27.577 13.002 25.5069 14.4237 22.2624C14.7119 21.614 15.0313 20.9032 15.3819 20.0386C15.9895 18.5257 17.6994 17.8028 19.2123 18.4104C20.7253 19.018 21.4481 20.7375 20.8405 22.2408C20.4587 23.1774 20.1297 23.9411 19.8199 24.6399C18.6552 27.2648 17.9563 28.8522 16.8036 36.5347C15.8982 42.5289 13.8377 46.2872 10.6773 47.7281C9.81276 48.1244 8.89538 48.3189 7.9684 48.3189Z" fill="#63666A"/>
</svg>
