<svg width="30" height="17" viewBox="0 0 30 17" fill="none" xmlns="http://www.w3.org/2000/svg">
<path d="M1.64551 1.61463C2.64574 1.62427 3.60882 2.01272 4.35665 2.70814C4.9728 3.26243 5.5754 3.84223 6.34187 4.14844C8.56406 5.0387 10.5831 4.67295 12.3612 3.01435C12.9245 2.48841 13.5109 2.02202 14.2408 1.80938C15.798 1.35149 17.1603 1.74417 18.3737 2.84565C18.8199 3.27473 19.3115 3.64905 19.8389 3.96131C21.8972 5.0954 24.3659 4.741 26.1128 3.09373C26.7546 2.48841 27.425 1.95964 28.2943 1.75267" stroke="#63666A" stroke-width="2.68755" stroke-miterlimit="10" stroke-linecap="round"/>
<path d="M1.64551 12.4369C2.64574 12.4465 3.60882 12.835 4.35665 13.5304C4.9728 14.0847 5.5754 14.6645 6.34187 14.9707C8.56406 15.861 10.5831 15.4952 12.3612 13.8366C12.9245 13.3107 13.5109 12.8443 14.2408 12.6316C15.798 12.1738 17.1603 12.5664 18.3737 13.6679C18.8199 14.097 19.3115 14.4713 19.8389 14.7836C21.8972 15.9177 24.3659 15.5633 26.1128 13.916C26.7546 13.3107 27.425 12.7819 28.2943 12.5749" stroke="#63666A" stroke-width="2.68755" stroke-miterlimit="10" stroke-linecap="round"/>
</svg>
