<svg width="24" height="24" viewBox="0 0 24 24" fill="none" xmlns="http://www.w3.org/2000/svg">
<path d="M9.50371 18.5874C6.88145 19.4641 4.39079 19.1927 2.01293 17.8044C2.27271 17.4692 3.91526 16.6622 4.8365 16.4041C5.86276 16.1164 6.9069 16.004 7.97878 16.0736C7.96639 16.0136 7.91939 16.009 7.88706 15.9925C7.42323 15.758 6.9766 15.4942 6.55151 15.1958C4.17618 13.5287 2.60539 11.2956 1.83822 8.49943C1.78388 8.30112 1.73986 8.10005 1.69217 7.90012C1.68392 7.86486 1.68162 7.82845 1.67383 7.77348C3.43492 8.07234 5.05409 8.68287 6.53798 9.64722C8.0189 10.6095 9.25288 11.8216 10.2376 13.2914C9.25448 9.28126 9.78091 5.49647 11.8733 1.92969C12.0803 2.11152 12.8361 3.66075 13.1653 4.56807C13.5017 5.49532 13.7371 6.44776 13.8747 7.42425C14.0118 8.39753 14.0499 9.3747 13.993 10.356C13.9364 11.3352 13.7775 12.2984 13.5282 13.2477C13.5376 13.2516 13.547 13.2554 13.5564 13.2593C13.7126 13.0459 13.8646 12.8295 14.0258 12.62C14.1886 12.4084 14.3553 12.1995 14.5293 11.9971C14.7058 11.7919 14.8886 11.5915 15.0777 11.3975C15.2641 11.2065 15.4569 11.021 15.6555 10.8426C15.8541 10.6642 16.0586 10.4918 16.2684 10.3267C16.4782 10.1616 16.6939 10.0036 16.9138 9.85218C17.1369 9.69874 17.3645 9.55149 17.5968 9.41226C17.8256 9.27485 18.0593 9.145 18.2963 9.02272C18.5334 8.90043 18.7746 8.78501 19.0188 8.67783C19.263 8.57066 19.5111 8.47127 19.7617 8.37989C20.0157 8.28737 20.273 8.20264 20.5323 8.12615C20.7879 8.05081 21.0463 7.98348 21.3061 7.9244C21.5654 7.86531 21.8279 7.82066 22.1074 7.76615C22.1012 7.82066 22.1005 7.8573 22.0927 7.89211C21.6085 10.0869 20.6162 12.0147 19.0557 13.6422C18.134 14.6036 17.0809 15.3898 15.8926 15.9939C15.8655 16.0077 15.8387 16.0223 15.8126 16.0379C15.8077 16.0409 15.8073 16.0509 15.799 16.0745C16.8528 16.0216 17.8857 16.1109 18.8952 16.4116C19.9013 16.7114 20.8347 17.1561 21.6968 17.7905C20.557 18.477 19.3444 18.9016 18.0368 19.0431C16.7276 19.1851 15.6555 19.1797 14.193 18.6047" stroke="#63666A" stroke-width="1.54388" stroke-linecap="round" stroke-linejoin="round"/>
<path d="M11.8496 18.8926V21.9113" stroke="#63666A" stroke-width="1.54388" stroke-linecap="round" stroke-linejoin="round"/>
</svg>
