<svg width="71" height="79" viewBox="0 0 71 79" fill="none" xmlns="http://www.w3.org/2000/svg">
<path d="M21.2967 75.2618V64.5594C20.9796 64.5957 20.7649 64.6023 20.5568 64.6469C19.7789 64.812 19.0093 65.0332 18.2248 65.1422C17.3892 65.2561 16.5238 65.4097 15.698 65.2957C12.2133 64.8169 9.93585 62.1372 9.91768 58.6005C9.90777 56.1288 9.91768 53.6621 9.91768 51.1854V48.7781C9.556 48.7599 9.2868 48.7385 9.01925 48.7319C8.16707 48.7203 7.31489 48.7533 6.46436 48.7203C4.67906 48.6493 3.37105 47.5266 3.05066 45.8276C2.88385 44.9426 3.14975 44.1517 3.56593 43.3839C5.55601 39.7201 7.53454 36.0481 9.53288 32.3876C9.79004 31.9063 9.93354 31.3726 9.95237 30.8273C10.0007 29.6485 10.1149 28.4733 10.2942 27.3071C11.4949 20.2817 14.7434 14.3658 20.2479 9.80544C27.7062 3.62535 36.2677 1.63908 45.6401 3.90934C60.2065 7.43775 69.5045 21.4853 67.2552 36.2644C66.3353 42.2761 63.7424 47.5001 59.493 51.8525C57.2569 54.1425 56.1553 56.7959 56.19 59.9957C56.2428 64.7459 56.2049 69.4961 56.2049 74.248V75.2618" stroke="#63666A" stroke-width="6" stroke-miterlimit="10" stroke-linecap="round" stroke-linejoin="round"/>
</svg>
