<svg width="80" height="79" viewBox="0 0 80 79" fill="none" xmlns="http://www.w3.org/2000/svg">
<mask id="path-1-outside-1_3382_78054" maskUnits="userSpaceOnUse" x="23.7705" y="59.0596" width="51" height="20" fill="black">
<rect fill="white" x="23.7705" y="59.0596" width="51" height="20"/>
<path d="M68.3309 68.4313C68.8046 69.6155 68.8175 70.5313 68.3697 71.1528C67.8415 71.8838 66.0876 73.1131 60.2733 73.1131C56.0564 73.1131 50.4445 72.4506 43.5911 71.1418C38.6408 70.1973 36.241 69.3526 34.1183 68.6093C33.1136 68.2547 32.1591 67.9248 31.0554 67.6195C30.2114 67.3895 29.7091 66.9419 29.7765 66.4806C29.8584 65.933 30.8358 65.0596 33.1136 65.0596C34.4383 65.0596 35.9698 65.3484 37.6619 65.9193C40.8196 66.9789 44.4996 67.4963 48.9317 67.4963C51.7707 67.4963 54.6083 67.2882 57.1128 67.1075C59.2657 66.9501 61.3024 66.8023 63.0419 66.8023C67.1497 66.8023 68.0252 67.6729 68.3295 68.4313H68.3309Z"/>
</mask>
<path d="M68.3309 68.4313L73.316 66.4374C72.5006 64.3989 70.5264 63.0623 68.3309 63.0623V68.4313ZM68.3697 71.1528L72.7216 74.2972L72.7258 74.2914L68.3697 71.1528ZM43.5911 71.1418L44.5981 65.8681L44.5974 65.8679L43.5911 71.1418ZM34.1183 68.6093L32.3315 73.6723L32.3438 73.6766L34.1183 68.6093ZM31.0554 67.6195L32.4867 62.4448L32.4768 62.442L32.467 62.4394L31.0554 67.6195ZM29.7765 66.4806L24.4664 65.6872L24.4652 65.6955L24.464 65.7037L29.7765 66.4806ZM37.6619 65.9193L35.9457 71.0067L35.9539 71.0094L37.6619 65.9193ZM57.1128 67.1075L57.4992 72.4627L57.5044 72.4623L57.1128 67.1075ZM68.3295 68.4313L63.3465 70.4305L64.6985 73.8004H68.3295V68.4313ZM63.3459 70.4253C63.4283 70.6314 63.3331 70.4867 63.3273 70.0793C63.3206 69.6084 63.4421 68.8073 64.0136 68.0142L72.7258 74.2914C74.8152 71.3915 74.0091 68.1703 73.316 66.4374L63.3459 70.4253ZM64.0177 68.0084C64.6049 67.1958 65.1374 67.1413 64.6498 67.2992C64.1363 67.4654 62.8514 67.7441 60.2733 67.7441V78.4822C66.3358 78.4822 70.5534 77.2981 72.7216 74.2972L64.0177 68.0084ZM60.2733 67.7441C56.541 67.7441 51.3041 67.1486 44.5981 65.8681L42.584 76.4156C49.585 77.7525 55.5719 78.4822 60.2733 78.4822V67.7441ZM44.5974 65.8679C39.9999 64.9907 37.8723 64.2351 35.8927 63.5419L32.3438 73.6766C34.6098 74.4701 37.2817 75.4039 42.5847 76.4157L44.5974 65.8679ZM35.905 63.5463C34.8859 63.1866 33.7824 62.8031 32.4867 62.4448L29.6241 72.7943C30.5358 73.0465 31.3412 73.3228 32.3315 73.6723L35.905 63.5463ZM32.467 62.4394C32.5599 62.4647 33.0597 62.606 33.6454 63.1277C34.2348 63.6527 35.4058 65.0916 35.0891 67.2574L24.464 65.7037C24.0798 68.3309 25.4682 70.2242 26.503 71.1459C27.5339 72.0643 28.7069 72.5444 29.6437 72.7997L32.467 62.4394ZM35.0867 67.2739C34.9148 68.4241 34.3853 69.1822 34.0565 69.5588C33.6952 69.9726 33.3478 70.196 33.1425 70.3051C32.7282 70.5255 32.6281 70.4286 33.1136 70.4286V59.6905C31.3213 59.6905 29.5935 60.0304 28.1006 60.8243C26.8573 61.4855 24.8678 63.0006 24.4664 65.6872L35.0867 67.2739ZM33.1136 70.4286C33.6932 70.4286 34.6292 70.5625 35.9457 71.0066L39.3782 60.8319C37.3103 60.1343 35.1835 59.6905 33.1136 59.6905V70.4286ZM35.9539 71.0094C39.8072 72.3024 44.0948 72.8654 48.9317 72.8654V62.1273C44.9044 62.1273 41.832 61.6553 39.37 60.8292L35.9539 71.0094ZM48.9317 72.8654C51.9967 72.8654 55.0279 72.641 57.4992 72.4627L56.7264 61.7524C54.1886 61.9355 51.5447 62.1273 48.9317 62.1273V72.8654ZM57.5044 72.4623C59.7126 72.3008 61.5381 72.1713 63.0419 72.1713V61.4332C61.0667 61.4332 58.8188 61.5994 56.7212 61.7528L57.5044 72.4623ZM63.0419 72.1713C63.8907 72.1713 64.456 72.217 64.8104 72.2668C65.1722 72.3177 65.2248 72.3608 65.094 72.3078C64.9414 72.2458 64.5685 72.064 64.1639 71.6611C63.7395 71.2385 63.4858 70.7777 63.3465 70.4305L73.3124 66.4321C72.6058 64.6709 71.2233 63.206 69.13 62.357C67.4097 61.6592 65.3495 61.4332 63.0419 61.4332V72.1713ZM68.3295 73.8004H68.3309V63.0623H68.3295V73.8004Z" fill="#63666A" mask="url(#path-1-outside-1_3382_78054)"/>
<path d="M41.1833 20.7649H41.1805C39.4549 20.7649 37.7681 20.2532 36.3333 19.2945C34.8986 18.3358 33.7803 16.9732 33.1199 15.379C32.4596 13.7848 32.2868 12.0305 32.6235 10.3381L35.2564 10.8618L32.6235 10.3381C32.9601 8.64565 33.7911 7.09106 35.0112 5.87088C36.2314 4.65071 37.786 3.81977 39.4784 3.48312C41.1708 3.14648 42.9251 3.31925 44.5193 3.97961C46.1136 4.63996 47.4762 5.75822 48.4349 7.193C49.3935 8.62777 49.9052 10.3146 49.9052 12.0402L49.9052 12.043C49.9028 14.3554 48.9831 16.5725 47.348 18.2076C45.7128 19.8428 43.4958 20.7625 41.1833 20.7649Z" stroke="#63666A" stroke-width="5.36905"/>
<path d="M57.2297 34.6257L57.2297 34.6255C55.5407 31.2185 51.7395 29.3213 47.6444 28.3408C43.9032 27.4451 40.5294 27.467 39.9622 27.4793C39.6172 27.5479 39.2619 27.548 38.9167 27.4796C38.3169 27.4683 35.18 27.4581 31.6845 28.3346C27.8321 29.3005 24.174 31.1772 22.4646 34.6255L22.4645 34.6257C18.0622 43.5045 11.4045 47.7512 5.85684 48.6347C5.25302 48.835 4.97814 49.0645 4.76156 49.3105C4.4355 49.6808 4.16253 50.1707 3.62356 51.1798C3.41784 51.7193 3.18142 52.4828 3.00344 53.0829C2.9251 53.347 2.90562 53.626 2.9467 53.8991L2.94978 53.9202C3.13478 55.2208 4.8028 57.1436 7.89517 56.7015L57.2297 34.6257ZM57.2297 34.6257C61.9648 44.1759 68.4832 49.2776 73.7469 50.194C73.8465 50.2205 73.9482 50.2413 74.0515 50.2562C74.6999 50.3498 75.4367 50.8897 76.0535 52.2179C76.6725 53.5508 76.811 54.9587 76.7333 55.5091C76.6313 56.2228 76.1623 57.0265 75.2808 57.6099L75.2786 57.6113C74.401 58.1934 73.1769 58.4833 71.789 58.2849M57.2297 34.6257L71.789 58.2849M71.789 58.2849C69.3143 57.9285 62.7239 56.1778 56.4429 47.2437C55.7804 46.3013 54.5904 45.8867 53.4857 46.2133C52.381 46.5399 51.6078 47.5349 51.5642 48.686C51.4008 52.9994 51.4585 59.1803 56.0952 63.3989C56.8196 64.0581 57.8428 64.2684 58.7645 63.9554C58.803 63.9458 58.8667 63.931 58.9572 63.9121C59.1475 63.8724 59.4035 63.8256 59.6904 63.7808C60.299 63.6858 60.878 63.6267 61.2087 63.6267C61.2647 63.6267 61.3208 63.6249 61.3768 63.6214C61.9062 63.5882 62.9903 63.5703 64.1858 63.6325C65.4149 63.6965 66.553 63.8357 67.288 64.0457C69.2363 64.6024 70.2004 65.3591 70.6887 65.9474C71.1738 66.5318 71.3492 67.1421 71.3877 67.6922C71.5596 70.1486 71.2735 71.1863 71.0719 71.651C70.9723 71.8805 70.8544 72.0619 70.6781 72.2884C70.6583 72.3138 70.6195 72.3614 70.5679 72.4246C70.4317 72.5916 70.2069 72.8671 70.0135 73.1256C68.1894 74.8524 65.5483 75.4933 59.3222 75.4933C55.4486 75.4933 50.4355 74.9596 44.3783 73.8656C43.8931 73.7779 43.3939 73.8257 42.9353 74.0026L39.3043 74.3365L39.3035 74.3366C32.0097 75.0096 26.0157 75.5599 21.2253 75.5599C18.3509 75.5599 16.0522 75.3592 14.2576 74.9223C12.4728 74.4877 11.3512 73.8595 10.6385 73.122L10.6327 73.1159C9.72336 72.1808 9.19942 70.789 9.45612 68.5751L9.45906 68.5486C9.51258 68.0433 9.67339 67.5566 9.92943 67.1218C10.1854 66.687 10.5302 66.3149 10.939 66.0296L10.9672 66.0097C12.1514 65.1603 14.0764 64.6981 16.4237 64.6038C18.6925 64.5126 20.9668 64.7773 22.5099 65.0266C23.435 65.1761 24.3711 64.8323 24.9796 64.1196C29.5482 58.7688 29.3204 51.7348 28.6285 47.4673C28.4537 46.3893 27.6433 45.5246 26.5789 45.2804C25.5146 45.0362 24.4083 45.461 23.7811 46.3549C19.5324 52.4097 14.2174 55.7906 7.89576 56.7014L71.789 58.2849Z" stroke="#63666A" stroke-width="5.36905" stroke-linejoin="round"/>
</svg>
