<svg width="34" height="34" viewBox="0 0 34 34" fill="none" xmlns="http://www.w3.org/2000/svg">
<path d="M29.0643 18.8703C28.8877 18.7201 28.6737 18.624 28.4466 18.5928C28.2195 18.5617 27.9884 18.5968 27.7798 18.6941C26.2666 19.4023 24.6052 19.7094 22.9471 19.5875C21.2891 19.4656 19.687 18.9185 18.2871 17.9961C16.8872 17.0737 15.7339 15.8053 14.9325 14.3067C14.1311 12.8081 13.707 11.1268 13.6989 9.41626C13.6973 8.56711 13.8 7.72115 14.0047 6.89853C14.0467 6.67891 14.0309 6.45175 13.9592 6.24046C13.8874 6.02918 13.7622 5.8414 13.5964 5.69648C13.4307 5.55156 13.2304 5.45474 13.0161 5.41599C12.8019 5.37723 12.5815 5.39795 12.3777 5.47601C10.4608 6.36367 8.79456 7.73802 7.53539 9.47003C6.27622 11.202 5.46542 13.2349 5.1791 15.3778C4.89277 17.5207 5.14033 19.7033 5.89851 21.7207C6.65669 23.7381 7.90064 25.5242 9.51357 26.9113C11.1265 28.2984 13.0555 29.241 15.1195 29.6505C17.1835 30.0601 19.3148 29.9232 21.3133 29.2528C23.3118 28.5823 25.112 27.4003 26.5448 25.8176C27.9777 24.2349 28.9961 22.3035 29.5047 20.2047C29.569 19.9625 29.5614 19.706 29.4829 19.4682C29.4045 19.2304 29.2587 19.0222 29.0643 18.8703Z" stroke="#63666A" stroke-width="2.48743" stroke-miterlimit="10"/>
</svg>
