<svg width="23" height="22" viewBox="0 0 23 22" fill="none" xmlns="http://www.w3.org/2000/svg">
<rect x="13.0332" y="5.89941" width="9.0512" height="14.433" rx="2.58552" stroke="#63666A" stroke-width="1.52375" stroke-linejoin="round"/>
<rect width="6.84956" height="2.93553" rx="0.969571" transform="matrix(1 0 0 -1 14.2559 4.18652)" stroke="#63666A" stroke-width="1.52375" stroke-linejoin="round"/>
<path d="M13.2773 8.46777H21.717" stroke="#63666A" stroke-width="1.52375" stroke-linecap="round"/>
<path d="M13.2773 17.0527H21.717" stroke="#63666A" stroke-width="1.52375" stroke-linecap="round"/>
<path d="M19.6367 4.30957V5.89965" stroke="#63666A" stroke-width="1.52375" stroke-linecap="round"/>
<path d="M15.7227 4.30957V5.89965" stroke="#63666A" stroke-width="1.52375" stroke-linecap="round"/>
<rect x="8.86133" y="20.6309" width="7.75162" height="1.78884" transform="rotate(180 8.86133 20.6309)" fill="#63666A"/>
<path d="M6.77344 5.27677C6.77344 4.2065 5.90581 3.33887 4.83553 3.33887V3.33887C3.76525 3.33887 2.89762 4.2065 2.89762 5.27677L2.89763 15.5626L6.77344 15.5626L6.77344 5.27677Z" stroke="#63666A" stroke-width="1.52375"/>
<rect x="5.58203" y="18.8418" width="1.4907" height="3.27953" transform="rotate(180 5.58203 18.8418)" fill="#63666A"/>
<path d="M0.811566 15.5625L8.86133 15.5625" stroke="#63666A" stroke-width="1.52375"/>
<path d="M2.69692 12.4658L5.08203 12.4658" stroke="#63666A" stroke-width="1.52375"/>
<path d="M2.69692 9.48438L5.08203 9.48438" stroke="#63666A" stroke-width="1.52375"/>
<path d="M2.69692 6.50293L5.08203 6.50293" stroke="#63666A" stroke-width="1.52375"/>
<path d="M5.58203 3.63672L5.58203 1.69881C5.58203 1.28717 5.24833 0.953464 4.83668 0.953464V0.953464C4.42504 0.953464 4.09133 1.28717 4.09133 1.69881L4.09133 3.63672" stroke="#63666A" stroke-width="1.52375" stroke-linejoin="round"/>
</svg>
